<svg width="157" height="155" viewBox="0 0 157 155" fill="none" xmlns="../../../www.w3.org/2000/svg.html">
<path opacity="0.1" d="M3.15681 125.586L104.862 67.0801L157 97.0642L80.3538 141.126L76.1314 138.658L49.5117 153.924C44.0042 156.575 35.3758 153.193 29.5929 149.902L5.17623 136.007C-1.06562 132.259 -1.52458 128.237 3.15681 125.586Z" fill="black"/>
<path d="M144.333 82.5292L61.8118 129.974V119.918L144.333 72.5649V82.5292Z" fill="#1E1E1E"/>
<path d="M122.394 57.8472L39.9653 105.292L61.8117 119.918L144.333 72.565L122.394 57.8472Z" fill="#3B4447"/>
<path d="M139.559 90.665L139.009 92.219L130.747 87.5568L132.308 84.4487L137.265 86.4599L139.559 90.665Z" fill="#1E1E1E"/>
<path d="M135.521 88.2884L129.279 84.6318C127.902 83.8091 125.974 83.9919 123.863 85.1803C119.641 87.6485 116.153 93.5905 116.153 98.4355C116.153 100.904 116.979 102.641 118.447 103.372L124.689 107.029C126.066 107.851 127.994 107.668 130.105 106.48C134.327 104.012 137.816 98.1612 137.816 93.2248C137.724 90.848 136.898 89.1112 135.521 88.2884Z" fill="#2E373A"/>
<path d="M137.724 93.2247C137.724 98.0697 134.328 104.012 130.013 106.48C127.902 107.668 125.975 107.851 124.598 107.028C123.221 106.206 122.303 104.56 122.303 102.092C122.303 97.247 125.699 91.305 130.013 88.8368C132.125 87.6484 134.052 87.4656 135.429 88.2883C136.898 89.111 137.724 90.8479 137.724 93.2247Z" fill="#555E61"/>
<path d="M137.265 93.8649C137.265 98.3442 134.144 103.738 130.289 105.932C126.433 108.126 123.312 106.389 123.312 101.909C123.312 97.4301 126.433 92.0366 130.289 89.8426C134.144 87.5572 137.265 89.3855 137.265 93.8649Z" fill="#3B4447"/>
<path d="M134.97 95.0534C134.97 98.0701 132.859 101.635 130.289 103.189C127.719 104.652 125.607 103.464 125.607 100.447C125.607 97.4302 127.719 93.865 130.289 92.311C132.859 90.8483 134.97 92.0367 134.97 95.0534Z" fill="url(#paint0_linear)"/>
<path d="M134.052 95.2363C134.052 97.7959 132.216 100.904 130.013 102.184C127.81 103.464 125.975 102.458 125.975 99.8985C125.975 97.3388 127.81 94.2307 130.013 92.9509C132.216 91.5797 134.052 92.6767 134.052 95.2363Z" fill="url(#paint1_linear)"/>
<path d="M130.289 92.6765C130.105 92.7679 129.83 92.9507 129.646 93.1335C129.738 93.0421 129.922 92.9507 130.013 92.8593C132.216 91.5795 134.052 92.585 134.052 95.1447C134.052 97.7043 132.216 100.812 130.013 102.092C127.81 103.372 125.975 102.366 125.975 99.8068C125.975 99.5326 125.975 99.1669 126.066 98.8927C125.975 99.3497 125.883 99.8068 125.883 100.264C125.883 103.006 127.81 104.195 130.289 102.824C132.675 101.452 134.695 98.0699 134.695 95.2361C134.695 92.4022 132.675 91.3052 130.289 92.6765Z" fill="url(#paint2_linear)"/>
<path d="M133.777 95.3275C133.777 97.7957 132.033 100.721 129.922 102.001C127.81 103.189 126.066 102.275 126.066 99.8068C126.066 97.3386 127.81 94.4133 129.922 93.1335C132.033 91.8537 133.777 92.8593 133.777 95.3275Z" fill="url(#paint3_linear)"/>
<path d="M133.043 96.5158C133.043 98.1613 131.849 100.172 130.381 101.087C128.912 101.909 127.719 101.269 127.719 99.5325C127.719 97.887 128.912 95.8759 130.381 94.9617C131.849 94.2304 133.043 94.8703 133.043 96.5158Z" fill="url(#paint4_linear)"/>
<path d="M130.289 94.1391C130.38 94.4133 130.289 94.779 130.013 94.779C129.83 94.8704 129.554 94.5961 129.463 94.3219C129.371 94.0476 129.463 93.682 129.738 93.682C130.013 93.5906 130.197 93.7734 130.289 94.1391Z" fill="url(#paint5_linear)"/>
<path d="M126.984 98.4357C127.259 98.4357 127.535 98.7099 127.535 98.8928C127.535 99.0756 127.259 99.2584 126.892 99.167C126.525 99.0756 126.342 98.8928 126.342 98.7099C126.433 98.5271 126.709 98.3443 126.984 98.4357Z" fill="url(#paint6_linear)"/>
<path d="M127.168 100.812C127.443 100.721 127.719 100.721 127.81 100.812C127.902 100.995 127.719 101.178 127.443 101.269C127.168 101.361 126.892 101.361 126.801 101.269C126.709 101.178 126.892 100.995 127.168 100.812Z" fill="url(#paint7_linear)"/>
<path d="M128.545 101.818C128.636 101.635 128.82 101.544 128.912 101.544C129.004 101.635 129.004 101.818 128.912 102.001C128.82 102.184 128.636 102.275 128.545 102.275C128.453 102.275 128.453 102.001 128.545 101.818Z" fill="url(#paint8_linear)"/>
<path d="M128.361 95.7843C128.636 95.9672 128.728 96.2414 128.636 96.4242C128.545 96.6071 128.177 96.6071 127.902 96.4242C127.627 96.2414 127.535 95.9672 127.627 95.7843C127.81 95.6015 128.086 95.6015 128.361 95.7843Z" fill="url(#paint9_linear)"/>
<path d="M132.308 93.6819C132.308 93.9562 132.124 94.2304 131.941 94.2304C131.757 94.2304 131.574 93.9562 131.665 93.6819C131.665 93.4077 131.849 93.1334 132.033 93.1334C132.124 93.042 132.308 93.3163 132.308 93.6819Z" fill="url(#paint10_linear)"/>
<path d="M133.501 95.5102C133.318 95.6017 133.134 95.6017 133.042 95.5102C132.951 95.4188 133.042 95.236 133.226 95.0532C133.41 94.9618 133.593 94.9618 133.685 95.0532C133.685 95.1446 133.685 95.3274 133.501 95.5102Z" fill="url(#paint11_linear)"/>
<path d="M133.134 97.6128C133.042 97.6128 133.042 97.5214 133.042 97.3386C133.042 97.2472 133.134 97.1558 133.226 97.1558C133.318 97.1558 133.318 97.2472 133.318 97.43C133.318 97.5214 133.226 97.6128 133.134 97.6128Z" fill="url(#paint12_linear)"/>
<path d="M130.656 101.452C130.564 101.452 130.472 101.452 130.472 101.361C130.472 101.269 130.472 101.178 130.564 101.178C130.656 101.178 130.748 101.178 130.748 101.269C130.748 101.361 130.748 101.452 130.656 101.452Z" fill="url(#paint13_linear)"/>
<path d="M132.4 99.4411C132.4 99.5325 132.308 99.5325 132.216 99.4411C132.124 99.4411 132.124 99.3497 132.216 99.2583C132.216 99.1668 132.308 99.1668 132.4 99.2583C132.492 99.2583 132.492 99.3497 132.4 99.4411Z" fill="url(#paint14_linear)"/>
<path d="M132.124 97.3386C132.124 98.3441 131.39 99.5325 130.564 99.9896C129.738 100.447 129.004 100.081 129.004 99.0755C129.004 98.0699 129.738 96.8815 130.564 96.4244C131.482 95.9674 132.124 96.4244 132.124 97.3386Z" fill="url(#paint15_linear)"/>
<path d="M132.308 97.5214C132.308 98.4355 131.666 99.6239 130.839 100.081C130.013 100.538 129.371 100.172 129.371 99.2583C129.371 98.3441 130.013 97.1557 130.839 96.6986C131.666 96.1502 132.308 96.6072 132.308 97.5214Z" fill="url(#paint16_linear)"/>
<path d="M136.806 84.449L129.279 79.9696C127.443 79.2383 125.057 79.5125 122.395 81.0666C116.52 84.449 111.655 92.7677 111.655 99.5325L118.815 103.92L120.1 103.189C120.1 97.2471 124.322 89.9339 129.554 86.9172C134.786 83.9005 139.009 86.3687 139.009 92.3107L140.294 91.5793C140.294 87.9227 138.917 85.4545 136.806 84.449Z" fill="#485154"/>
<path d="M120.1 103.098C120.1 97.1556 124.322 89.8424 129.554 86.8257C134.786 83.809 139.009 86.2772 139.009 92.2192L140.294 91.4879C140.294 84.7231 135.521 81.8893 129.554 85.363C123.68 88.7454 118.815 97.0642 118.815 103.829L120.1 103.098Z" fill="#3B4447"/>
<path d="M68.2371 129.974L64.1983 129.06L60.7102 123.3L65.667 122.752L68.2371 129.974Z" fill="#1E1E1E"/>
<path d="M65.0245 125.86L58.7826 122.203C57.4057 121.381 55.4781 121.563 53.3669 122.752C49.1444 125.22 45.6564 131.071 45.6564 136.007C45.6564 138.475 46.4825 140.212 47.9512 140.943L54.193 144.6C55.5699 145.423 57.4975 145.24 59.6087 144.052C63.8312 141.583 67.3192 135.733 67.3192 130.796C67.3192 128.42 66.4013 126.683 65.0245 125.86Z" fill="#2E373A"/>
<path d="M67.3193 130.888C67.3193 135.733 63.923 141.675 59.6087 144.143C57.4975 145.331 55.5699 145.514 54.193 144.691C52.8161 143.869 51.8982 142.223 51.8982 139.755C51.8982 134.91 55.2945 128.968 59.6087 126.5C61.7199 125.311 63.6476 125.129 65.0245 125.951C66.4013 126.683 67.3193 128.42 67.3193 130.888Z" fill="#555E61"/>
<path d="M66.8603 131.436C66.8603 135.916 63.7394 141.309 59.8841 143.503C56.0289 145.697 52.9079 143.96 52.9079 139.481C52.9079 135.001 56.0289 129.608 59.8841 127.414C63.6476 125.22 66.8603 126.957 66.8603 131.436Z" fill="#3B4447"/>
<path d="M64.5656 132.625C64.5656 135.641 62.4544 139.207 59.8842 140.761C57.3141 142.223 55.2029 141.035 55.2029 138.018C55.2029 135.002 57.3141 131.436 59.8842 129.882C62.4544 128.42 64.5656 129.608 64.5656 132.625Z" fill="url(#paint17_linear)"/>
<path d="M63.556 132.807C63.556 135.367 61.7202 138.475 59.5171 139.755C57.3141 141.035 55.4783 140.029 55.4783 137.47C55.4783 134.91 57.3141 131.802 59.5171 130.522C61.8119 129.242 63.556 130.248 63.556 132.807Z" fill="url(#paint18_linear)"/>
<path d="M59.7925 130.248C59.6089 130.339 59.3335 130.522 59.1499 130.705C59.2417 130.613 59.4253 130.522 59.5171 130.431C61.7201 129.151 63.556 130.156 63.556 132.716C63.556 135.276 61.7201 138.384 59.5171 139.664C57.3141 140.943 55.4783 139.938 55.4783 137.378C55.4783 137.104 55.4783 136.738 55.5701 136.464C55.4783 136.921 55.3865 137.378 55.3865 137.835C55.3865 140.578 57.3141 141.766 59.7925 140.395C62.1791 139.024 64.1985 135.641 64.1985 132.807C64.1985 129.973 62.2709 128.877 59.7925 130.248Z" fill="url(#paint19_linear)"/>
<path d="M63.2806 132.899C63.2806 135.367 61.5366 138.292 59.4254 139.572C57.3142 140.761 55.5701 139.846 55.5701 137.378C55.5701 134.91 57.3142 131.985 59.4254 130.705C61.6284 129.516 63.2806 130.431 63.2806 132.899Z" fill="url(#paint20_linear)"/>
<path d="M62.5462 134.179C62.5462 135.824 61.3529 137.835 59.8843 138.75C58.4156 139.572 57.2223 138.932 57.2223 137.195C57.2223 135.55 58.4156 133.539 59.8843 132.625C61.4447 131.802 62.5462 132.442 62.5462 134.179Z" fill="url(#paint21_linear)"/>
<path d="M59.7924 131.71C59.8842 131.985 59.7924 132.35 59.517 132.35C59.3334 132.442 59.058 132.167 58.9663 131.893C58.8745 131.619 58.9663 131.253 59.2416 131.253C59.517 131.162 59.7006 131.436 59.7924 131.71Z" fill="url(#paint22_linear)"/>
<path d="M56.4878 136.007C56.7632 136.007 57.0386 136.281 57.0386 136.464C57.0386 136.647 56.7632 136.83 56.396 136.738C56.1207 136.738 55.8453 136.464 55.8453 136.281C55.9371 136.098 56.2125 135.916 56.4878 136.007Z" fill="url(#paint23_linear)"/>
<path d="M56.6715 138.475C56.9469 138.384 57.2223 138.384 57.3141 138.475C57.4058 138.658 57.2223 138.841 56.9469 138.932C56.6715 139.024 56.3961 139.024 56.3043 138.932C56.2126 138.75 56.3961 138.567 56.6715 138.475Z" fill="url(#paint24_linear)"/>
<path d="M58.14 139.389C58.2318 139.206 58.4154 139.115 58.5072 139.115C58.599 139.206 58.599 139.389 58.5072 139.572C58.4154 139.755 58.2318 139.846 58.14 139.846C57.9565 139.846 57.9565 139.663 58.14 139.389Z" fill="url(#paint25_linear)"/>
<path d="M57.8648 133.356C58.1401 133.539 58.2319 133.813 58.1401 133.996C58.0484 134.179 57.6812 134.179 57.4058 133.996C57.1304 133.813 57.0386 133.539 57.1304 133.356C57.314 133.265 57.6812 133.265 57.8648 133.356Z" fill="url(#paint26_linear)"/>
<path d="M61.8117 131.253C61.8117 131.528 61.6281 131.802 61.4445 131.802C61.2609 131.802 61.0773 131.528 61.1691 131.253C61.1691 130.979 61.3527 130.705 61.5363 130.705C61.7199 130.705 61.8117 130.888 61.8117 131.253Z" fill="url(#paint27_linear)"/>
<path d="M63.0051 133.082C62.8215 133.173 62.6379 133.173 62.5461 133.082C62.4543 132.99 62.5461 132.808 62.7297 132.625C62.9133 132.533 63.0969 132.533 63.1887 132.625C63.2805 132.808 63.1887 132.99 63.0051 133.082Z" fill="url(#paint28_linear)"/>
<path d="M62.6379 135.184C62.5461 135.184 62.5461 135.093 62.5461 134.91C62.5461 134.818 62.6379 134.727 62.7297 134.727C62.8215 134.727 62.8215 134.818 62.8215 135.001C62.8215 135.184 62.7297 135.276 62.6379 135.184Z" fill="url(#paint29_linear)"/>
<path d="M60.1596 139.024C60.0678 139.024 59.976 139.024 59.976 138.932C59.976 138.841 59.976 138.75 60.0678 138.75C60.1596 138.75 60.2514 138.75 60.2514 138.841C60.2514 138.932 60.2514 139.024 60.1596 139.024Z" fill="url(#paint30_linear)"/>
<path d="M61.9035 137.013C61.9035 137.104 61.8117 137.104 61.72 137.013C61.6282 137.013 61.6282 136.921 61.72 136.83C61.72 136.738 61.8117 136.738 61.9035 136.83C61.9953 136.921 61.9953 137.013 61.9035 137.013Z" fill="url(#paint31_linear)"/>
<path d="M61.72 135.001C61.72 136.007 60.9856 137.195 60.1595 137.652C59.3334 138.109 58.599 137.744 58.599 136.738C58.599 135.733 59.3334 134.544 60.1595 134.087C60.9856 133.63 61.72 133.996 61.72 135.001Z" fill="url(#paint32_linear)"/>
<path d="M61.8118 135.093C61.8118 136.007 61.1693 137.196 60.3432 137.653C59.517 138.11 58.8745 137.744 58.8745 136.83C58.8745 135.916 59.517 134.727 60.3432 134.27C61.1693 133.813 61.8118 134.179 61.8118 135.093Z" fill="url(#paint33_linear)"/>
<path d="M67.6864 130.522C67.6864 130.522 67.5029 122.021 61.72 124.032C55.8453 126.043 51.4393 135.002 51.4393 135.002L51.99 128.328L60.6185 122.112C60.6185 122.112 65.9424 119.644 67.3193 123.118C68.6962 126.5 68.6044 129.974 68.6044 129.974L67.6864 130.522Z" fill="url(#paint34_linear)"/>
<path d="M83.291 113.245L85.1269 117.267V118.638L86.5956 117.816V117.084L84.6679 112.513L83.291 113.245Z" fill="#8897A0"/>
<path d="M117.254 102.732V101.635L115.969 100.904L77.6917 122.935V126.317L78.6097 126.866L116.979 104.835V104.012L116.795 103.829V103.006L117.254 102.732Z" fill="#8897A0"/>
<path opacity="0.2" d="M78.885 124.763L78.426 124.58V125.86L116.795 103.829V103.006L78.885 124.763Z" fill="#8897A0"/>
<path opacity="0.5" d="M115.969 100.904L77.6917 122.935L78.885 123.666L117.254 101.635L115.969 100.904Z" fill="white"/>
<path opacity="0.2" d="M116.979 104.012L78.6096 126.043L78.426 125.86L116.795 103.829L116.979 104.012Z" fill="white"/>
<path d="M105.78 100.355L107.616 104.377V105.749L109.176 104.835V104.103L107.157 99.5325L105.78 100.355Z" fill="#8897A0"/>
<path opacity="0.5" d="M105.78 100.355L107.616 104.378V105.749L108.35 105.292V104.378L106.514 99.8982L105.78 100.355Z" fill="#8897A0"/>
<path opacity="0.5" d="M83.291 113.245L85.1269 117.267V118.638L85.8612 118.273V117.267L83.9336 112.879L83.291 113.245Z" fill="#8897A0"/>
<path d="M109.635 60.9554L150.575 84.5405V81.9809L109.635 58.3958V60.9554Z" fill="url(#paint35_linear)"/>
<path d="M110.278 58.03L151.309 81.6151L150.575 81.9808L109.636 58.3957L110.278 58.03Z" fill="url(#paint36_linear)"/>
<path d="M151.309 84.0832L150.575 84.5403V81.9807L151.309 81.615V84.0832Z" fill="url(#paint37_linear)"/>
<path d="M108.901 54.9218L152.043 79.7867V75.3987L108.901 50.6252V54.9218Z" fill="url(#paint38_linear)"/>
<path d="M154.338 74.1191V78.4157L152.043 79.7869V75.399L154.338 74.1191Z" fill="url(#paint39_linear)"/>
<path d="M35.0092 43.8606L111.197 0.0727539L154.339 24.8463V74.119L78.1514 117.724L35.0092 92.8591V43.8606Z" fill="#1490C9"/>
<path d="M154.338 24.8462L78.1507 68.634V117.724L154.338 74.1189V24.8462Z" fill="#1382A8"/>
<path d="M35.0086 43.8606V92.9505L78.1508 117.724V68.7255L35.0086 43.8606Z" fill="#126075"/>
<path d="M65.1162 85.2717C66.6767 86.8257 68.0536 88.0141 68.6961 94.139C69.2469 100.264 69.4305 109.405 69.2469 113.062L68.7879 113.793L69.0633 114.433V118.638C69.0633 118.638 60.2513 123.026 57.2221 125.86C54.193 128.694 51.4392 133.447 50.8885 137.287L43.178 141.675L42.9944 142.589C42.9944 142.589 40.8832 144.052 39.0473 144.052C37.2115 144.052 34.9167 143.777 28.5831 140.486C22.2494 137.104 10.3165 129.791 8.48064 128.42C6.6448 127.048 3.79925 124.946 3.43208 121.746C2.97312 118.547 3.61567 116.353 3.61567 116.353C3.61567 116.353 3.34029 110.777 4.16642 109.771C4.16642 109.771 4.16642 104.103 4.07463 103.555C3.98284 103.006 5.08434 98.6183 5.08434 98.6183C5.08434 98.6183 6.18584 94.5046 7.01197 91.8536C7.92989 89.2025 11.2344 82.0722 12.4277 79.8782C13.621 77.5928 15.824 76.1302 17.3845 75.0332C19.0367 74.0276 29.3174 67.9942 30.6025 67.3543C31.9794 66.623 33.448 66.4402 36.3854 67.8114C39.2309 69.0912 47.584 73.7534 50.8885 75.7645C54.193 77.7757 63.8311 83.9005 65.1162 85.2717Z" fill="#E1E8EC"/>
<path opacity="0.1" d="M68.7879 113.793L69.2468 113.062C69.4304 109.405 69.2468 100.355 68.6961 94.1388C68.4207 90.9393 67.87 89.0196 67.2274 87.8312C66.8602 87.7397 66.3095 87.8312 65.7587 88.1054C63.8311 89.2024 56.3042 93.8646 54.1012 95.2358C51.8982 96.607 48.5937 98.7096 47.8593 100.629C47.2168 102.64 43.6369 116.81 43.178 118.729C42.719 120.649 41.9847 123.483 40.9749 124.58C39.9652 125.677 34.0906 125.677 31.5204 124.214C28.9502 122.843 13.3456 114.067 10.3165 111.873C8.11345 110.228 5.63507 107.394 3.98282 105.749C3.98282 107.577 3.98282 109.771 3.98282 109.771C3.24848 110.685 3.43207 116.353 3.43207 116.353C3.43207 116.353 2.88131 118.547 3.24848 121.746C3.70744 124.946 6.4612 126.957 8.29704 128.419C10.1329 129.791 22.0658 137.104 28.3995 140.486C34.7331 143.869 37.0279 144.051 38.8637 144.051C40.6996 144.051 42.8108 142.589 42.8108 142.589L42.9944 141.675L50.7049 137.287C51.2556 133.356 54.0094 128.602 57.0385 125.86C60.0677 123.026 68.8797 118.638 68.8797 118.638V114.342C67.3192 115.164 58.14 121.106 56.1206 123.117C54.3766 125.129 43.178 137.195 43.178 137.195L42.9944 136.555C42.9944 136.555 54.2848 124.306 56.3042 122.295C58.3236 120.284 67.2274 114.616 68.7879 113.793ZM42.9944 126.226V125.311L45.381 123.117C45.381 123.117 64.0147 98.5267 64.0147 98.4353C64.0147 98.3439 65.1162 92.6762 65.667 92.9504C66.3095 93.2246 66.7685 99.8065 66.6767 101.635C66.5849 103.463 65.5752 104.469 64.3819 106.114C63.0968 107.76 57.5893 113.153 55.0191 115.713C52.4489 118.181 42.9944 126.226 42.9944 126.226Z" fill="black"/>
<path opacity="0.1" d="M67.2274 87.7398C66.8603 87.6484 66.3095 87.7398 65.7588 88.0141C63.8311 89.1111 56.3042 93.7732 54.1012 95.1445C51.8982 96.5157 48.5937 98.6182 47.8593 100.538C47.2168 102.549 43.6369 116.718 43.178 118.638C42.719 120.558 41.9847 123.392 40.9749 124.489C39.9652 125.586 34.0906 125.586 31.5204 124.123C28.9502 122.752 13.3456 113.976 10.3165 111.782C8.11345 110.137 5.63507 107.303 3.98282 105.657C3.98282 107.486 3.98282 109.679 3.98282 109.679C3.24848 110.594 3.43207 116.261 3.43207 116.261C3.43207 116.261 2.88131 118.455 3.24848 121.655C3.70744 124.854 6.4612 126.866 8.29704 128.328C10.1329 129.699 22.0658 137.013 28.3995 140.395C34.7331 143.777 37.0279 143.96 38.8637 143.96C40.6996 143.96 42.8108 142.498 42.8108 142.498L42.9944 141.583L50.7049 137.195C51.2556 133.265 54.0094 128.511 57.0385 125.769C60.0677 122.935 68.8797 118.547 68.8797 118.547V114.342L68.6043 113.702L69.0633 112.97C69.2468 109.314 69.0633 100.264 68.5125 94.0475C68.4207 90.848 67.87 89.0197 67.2274 87.7398Z" fill="url(#paint40_linear)"/>
<path opacity="0.2" d="M56.3961 121.929C54.3767 123.94 43.0863 136.19 43.0863 136.19V136.556C43.0863 136.556 54.3767 124.306 56.3961 122.295C58.4155 120.284 67.2275 114.525 68.8798 113.702L69.1552 113.153C67.5029 114.067 58.3237 119.918 56.3961 121.929Z" fill="black"/>
<path opacity="0.2" d="M45.1975 122.752L42.9944 124.763V125.312L45.381 123.118L45.1975 122.752Z" fill="black"/>
<path opacity="0.1" d="M51.4393 135.002L42.9026 139.664L43.178 141.584L50.8885 137.196C51.0721 136.464 51.2557 135.733 51.4393 135.002Z" fill="black"/>
<g opacity="0.1">
<path opacity="0.1" d="M12.5195 79.8783C11.3262 82.1636 7.9299 89.2026 7.10378 91.8536C6.18586 94.5047 5.17615 98.6184 5.17615 98.6184C5.17615 98.6184 4.07465 102.915 4.16644 103.555C4.16644 103.738 4.16644 104.652 4.25823 105.749C5.91048 107.486 8.38886 110.319 10.5919 111.874C13.621 114.068 29.2256 122.843 31.7958 124.215C34.366 125.586 40.2407 125.677 41.2504 124.58C42.2601 123.483 42.9944 120.649 43.4534 118.73C43.9123 116.81 47.4922 102.641 48.1348 100.629C48.5019 99.5325 49.6952 98.4355 51.0721 97.3385L16.0076 76.0388C14.7225 77.0444 13.3456 78.2328 12.5195 79.8783Z" fill="url(#paint41_linear)"/>
</g>
<g opacity="0.2">
<path opacity="0.2" d="M42.9944 136.373H42.9026V123.666C42.9026 123.666 45.381 112.879 45.84 110.868C46.2071 109.314 47.7676 102.915 48.3184 102.092C48.8691 101.269 51.8064 98.8925 53.2751 98.1612C54.4684 97.6127 57.9565 95.5101 60.2513 94.1389C60.802 93.7733 61.3528 93.499 61.72 93.3162C61.9953 93.1333 62.2707 93.0419 62.5461 92.8591C63.8312 92.0364 65.2081 91.2136 66.0342 91.4879C66.3096 91.5793 66.4931 91.7621 66.5849 91.945C67.2275 93.3162 67.7782 96.6071 67.9618 100.721C68.1454 104.926 68.329 112.513 67.9618 113.976L67.7782 114.616L67.9618 115.347L65.5752 120.741L65.4834 120.649L67.87 115.347L67.6864 114.707L67.9618 114.067C68.329 112.605 68.1454 105.109 67.9618 100.904C67.7782 96.8814 67.3193 93.499 66.5849 92.2192C66.4931 92.0364 66.3096 91.8535 66.126 91.7621C65.2999 91.5793 63.923 92.402 62.7297 93.1334C62.4543 93.3162 62.1789 93.499 61.9036 93.5904C61.5364 93.7733 61.0774 94.1389 60.4349 94.4132C58.1401 95.7844 54.5602 97.8869 53.4587 98.4354C52.0818 99.1667 49.0527 101.452 48.5937 102.275C48.1348 103.098 46.5743 109.222 46.1153 111.051C45.6564 112.97 43.178 123.849 43.178 123.849L42.9944 136.373Z" fill="black"/>
</g>
<g opacity="0.2">
<path opacity="0.2" d="M36.3854 126.226H36.2936V132.35H36.3854V126.226Z" fill="black"/>
</g>
<g opacity="0.2">
<path opacity="0.2" d="M6.27771 109.04H6.18592V115.347H6.27771V109.04Z" fill="black"/>
</g>
<g opacity="0.2">
<path opacity="0.2" d="M37.5075 119.088L32.5996 123.896L32.6639 123.961L37.5718 119.153L37.5075 119.088Z" fill="black"/>
</g>
<g opacity="0.2">
<path opacity="0.2" d="M7.19573 108.308L6.55318 100.355H6.64498L7.28752 108.308H7.19573Z" fill="black"/>
</g>
<path d="M45.2892 99.4411C43.9123 98.6184 32.4383 92.3107 27.8487 89.5683C23.2591 86.8258 15.1815 81.6152 13.8046 80.701C13.162 80.2439 12.5195 80.4268 11.9687 80.701C10.5919 83.5349 7.74631 89.4769 6.92018 91.8537C6.09406 94.4133 5.08435 98.2527 4.99255 98.6184C5.17614 99.6239 5.6351 100.63 6.36943 101.361C7.37914 102.275 10.6837 105.657 19.4957 110.959C28.3077 116.261 36.3854 119.827 39.2309 119.827C42.1683 119.827 42.5354 118.364 42.9026 117.176C43.2698 115.987 45.5646 106.206 46.2071 103.555C47.0332 100.904 46.1153 99.8982 45.2892 99.4411Z" fill="#141C1E"/>
<path d="M39.4145 119.095C37.0279 119.095 29.5928 116.078 20.0464 110.319C11.877 105.383 8.48066 102.183 7.28737 100.995L7.10378 100.812C6.55303 100.355 6.18586 99.5322 6.00228 98.618C6.18586 97.7953 7.10378 94.4129 7.92991 92.0361C8.66425 89.6593 11.418 83.9916 12.7949 81.2491C12.8867 81.1577 13.0703 81.1577 13.162 81.1577C13.3456 81.1577 13.4374 81.2491 13.621 81.3405C13.9882 81.5234 14.6307 81.9805 15.6404 82.6204C18.6696 84.5401 24.2689 88.1053 27.6652 90.2078C31.5204 92.4932 40.516 97.521 43.9123 99.4407C44.4631 99.8064 44.922 99.9892 45.1056 100.081C46.0235 100.629 46.2071 101.726 45.84 103.372C45.4728 104.651 44.8302 107.668 44.0959 110.502C43.3616 113.519 42.719 116.353 42.5354 116.992C41.9847 118.089 41.7093 119.095 39.4145 119.095Z" fill="#303E42"/>
<path d="M50.9803 100.995C49.9706 101.635 48.8691 103.098 48.4101 105.017C47.9512 106.937 45.2892 118.729 45.1056 120.009C44.922 121.289 44.8303 123.392 45.381 123.117C45.9318 122.843 59.058 110.685 60.8938 108.765C62.7297 106.846 65.4834 103.737 65.8506 102.64C66.126 101.543 66.3096 97.4298 66.2178 96.15C66.126 94.8701 66.126 92.3105 64.9327 92.7676C63.7394 93.3161 50.9803 100.995 50.9803 100.995Z" fill="#141C1E"/>
<path d="M45.473 122.386C45.473 121.838 45.473 121.015 45.5648 120.101C45.7484 118.912 48.4103 107.303 48.8693 105.2C49.3282 103.372 50.338 102.001 51.2559 101.452C55.6619 98.8011 64.1985 93.6818 65.1164 93.3162C65.1164 93.3162 65.1164 93.3162 65.2082 93.3162C65.4836 93.5904 65.5754 95.053 65.6672 95.693C65.6672 95.8758 65.6672 96.15 65.759 96.3329C65.8508 97.6127 65.6672 101.544 65.3918 102.641C65.1164 103.555 62.7299 106.389 60.6186 108.582C58.691 110.319 47.676 120.466 45.473 122.386Z" fill="#303E42"/>
<path d="M15.4569 82.6207C14.5389 81.9808 13.8046 81.5238 13.4374 81.3409C13.3456 81.3409 13.3456 81.2495 13.2538 81.2495C12.2441 83.8091 7.47096 95.8759 8.29709 96.7901C9.3068 97.7957 12.1523 95.9674 13.1621 95.0532C14.08 94.3219 20.0464 88.837 22.1577 86.9172C19.7711 85.3632 17.2009 83.7177 15.4569 82.6207Z" fill="#C5D0D3"/>
<path d="M12.3361 93.7731C11.3264 93.316 8.02191 95.8757 6.18608 97.3383C6.00249 97.8868 5.9107 98.3439 5.81891 98.6181C6.00249 99.5323 6.46145 100.355 6.92041 100.812L7.10399 100.995C8.38908 102.183 11.6936 105.383 19.8631 110.319C29.4094 116.078 36.8446 119.095 39.2312 119.095C41.6177 119.095 41.8931 118.09 42.1685 116.993C42.3521 116.536 42.811 114.524 43.3618 112.148C36.9364 108.217 13.713 94.413 12.3361 93.7731Z" fill="#39464A"/>
<path d="M31.2451 104.926C31.2451 104.926 26.013 110.137 26.2884 110.685C26.5637 111.234 32.163 115.347 32.9892 115.256C33.8153 115.164 40.9751 110.594 40.9751 110.594C40.9751 110.594 40.1489 108.491 36.9362 106.571C33.7235 104.743 31.2451 104.926 31.2451 104.926Z" fill="#3D4B4F"/>
<path d="M33.8154 102.641C33.2646 102.366 32.6221 102.092 32.3467 102.275C32.0713 102.549 31.9795 102.915 32.8975 103.463C33.8154 104.012 42.5356 109.314 42.9946 109.588C43.4535 109.862 43.8207 109.862 44.0961 109.588C44.3714 109.314 43.7289 108.948 43.1781 108.491C42.7192 108.217 34.5497 103.006 33.8154 102.641Z" fill="#3D4B4F"/>
<path opacity="0.2" d="M28.8584 90.9391C28.3995 90.6649 27.9405 90.3906 27.5734 90.2078C24.0853 88.1053 18.486 84.5401 15.5486 82.6204C14.6307 81.9805 13.8964 81.5234 13.5292 81.3405C13.3456 81.2491 13.2538 81.1577 13.0702 81.1577C12.9784 81.1577 12.7949 81.1577 12.7031 81.2491C11.3262 83.9916 8.57243 89.7507 7.8381 92.0361C7.10376 94.3215 6.18584 97.7953 5.91047 98.618C6.09405 99.5322 6.55301 100.355 7.01197 100.812L7.19556 100.995C8.02168 101.818 9.94931 103.554 13.7128 106.205C16.6501 101.818 21.5151 95.7841 28.8584 90.9391Z" fill="white"/>
<path d="M52.8161 140.121L46.5743 143.686V144.234L52.8161 140.761V140.121Z" fill="#333E40"/>
<path d="M50.0624 137.744V138.475L43.9124 142.132V141.218L50.0624 137.744Z" fill="#010C0E"/>
<path d="M46.5745 143.686L43.9125 142.132V141.218L43.1782 141.583L43.0864 142.589L42.6274 142.772L43.7289 143.503L46.5745 144.234V143.686Z" fill="#1A2527"/>
<path d="M52.8162 140.121L50.0624 138.475L43.9124 142.132L46.5743 143.686L52.8162 140.121Z" fill="#404B4D"/>
<path d="M38.7719 137.561C36.5689 137.47 36.2018 137.196 34.1824 136.281C32.1629 135.367 21.974 129.882 17.9352 127.506C13.8963 125.129 9.03137 121.746 7.5627 120.649C6.18582 119.644 4.07461 117.816 3.43207 116.261C3.43207 116.261 2.88131 118.455 3.24848 121.655C3.70744 124.854 6.4612 126.866 8.29704 128.328C10.1329 129.7 22.0658 137.013 28.3995 140.395C34.7331 143.777 37.0279 143.96 38.8637 143.96C40.6996 143.96 42.8108 142.498 42.8108 142.498L42.9944 141.583V137.013L42.719 136.373C42.9944 136.373 40.9749 137.744 38.7719 137.561Z" fill="#333E40"/>
<path d="M38.7721 137.561C36.5691 137.47 36.2019 137.196 34.1825 136.281C32.163 135.367 21.9741 129.882 17.9353 127.506C13.8965 125.129 9.03149 121.746 7.56282 120.649C6.18594 119.644 4.07473 117.816 3.43218 116.261C3.43218 116.261 3.06501 117.724 3.15681 119.918C4.3501 121.746 6.92027 123.666 7.7464 124.215C8.66432 124.855 14.8144 128.785 18.1189 130.888C21.4234 132.99 29.4093 137.378 32.4384 138.75C35.4676 140.121 38.5885 140.395 40.4243 140.304C41.434 140.212 42.3519 139.755 43.0863 139.39V137.013L42.8109 136.373C42.9945 136.373 40.9751 137.744 38.7721 137.561Z" fill="#404B4D"/>
<mask id="mask0" mask-type="alpha" maskUnits="userSpaceOnUse" x="3" y="116" width="41" height="23">
<path d="M38.772 137.561C36.569 137.47 36.2018 137.196 34.1824 136.281C32.163 135.367 21.9741 129.882 17.9353 127.506C13.8964 125.129 9.03144 121.746 7.56277 120.649C6.18589 119.644 4.07468 117.816 3.43213 116.261C3.43213 116.261 3.34034 116.627 3.24855 117.267C3.70751 118.364 4.62543 119.918 6.0941 121.106C8.20531 122.843 14.4472 126.683 18.027 128.877C21.6069 131.071 28.0324 134.727 30.9697 136.281C33.907 137.835 36.7526 138.75 39.1392 138.658C41.5258 138.567 42.9944 137.196 42.9944 137.196L43.0862 137.104L42.8109 136.464C42.9944 136.373 40.975 137.744 38.772 137.561Z" fill="url(#paint42_linear)"/>
</mask>
<g mask="url(#mask0)">
<path d="M38.772 137.561C36.569 137.47 36.2018 137.196 34.1824 136.281C32.163 135.367 21.9741 129.882 17.9353 127.506C13.8964 125.129 9.03144 121.746 7.56277 120.649C6.18589 119.644 4.07468 117.816 3.43213 116.261C3.43213 116.261 3.34034 116.627 3.24855 117.267C3.70751 118.364 4.62543 119.918 6.0941 121.106C8.20531 122.843 14.4472 126.683 18.027 128.877C21.6069 131.071 28.0324 134.727 30.9697 136.281C33.907 137.835 36.7526 138.75 39.1392 138.658C41.5258 138.567 42.9944 137.196 42.9944 137.196L43.0862 137.104L42.8109 136.464C42.9944 136.373 40.975 137.744 38.772 137.561Z" fill="url(#paint43_linear)"/>
<path d="M9.39875 126.774C9.30695 126.226 8.93979 125.586 9.9495 126.226C10.9592 126.957 16.6503 130.339 18.8533 131.619C21.0563 132.99 27.2982 136.556 28.2161 137.013C29.134 137.47 29.4094 137.653 29.134 138.201C28.8586 138.75 28.1243 139.389 27.0228 138.932C25.9213 138.475 19.4959 134.727 17.7518 133.63C16.0078 132.533 11.051 129.334 10.592 129.06C10.1331 128.877 9.58233 127.505 9.39875 126.774Z" fill="#4D585A"/>
<path d="M28.2159 137.104C27.298 136.647 21.0562 133.082 18.8532 131.711C16.6502 130.339 11.0509 126.957 9.94935 126.317C9.94935 126.317 9.94935 126.317 9.85756 126.317C9.85756 126.409 9.85756 126.409 9.94935 126.5C10.1329 127.231 10.6837 128.603 11.1426 128.877C11.6016 129.151 16.5584 132.351 18.3024 133.448C20.0465 134.544 26.4719 138.293 27.5734 138.75C28.0324 138.932 28.4913 138.932 28.7667 138.841C28.8585 138.75 29.0421 138.567 29.0421 138.384C29.4092 137.744 29.1339 137.561 28.2159 137.104Z" fill="#1A2527"/>
<path d="M11.6017 123.483C13.5294 124.763 15.916 126.317 18.0272 127.597C20.1384 128.785 23.8101 130.888 27.2064 132.716C28.0325 131.436 29.0422 130.796 30.0519 130.522C29.7765 129.974 29.2258 129.242 28.7668 129.06C28.2161 128.785 20.7809 124.763 19.3123 123.849C17.8436 122.935 12.3361 119.552 11.5099 119.004C11.051 118.73 10.592 118.821 10.3167 118.912C11.1428 120.375 11.5099 122.569 11.6017 123.483Z" fill="#5A6567"/>
<path d="M19.3123 125.86C17.5683 124.854 12.9787 121.929 11.3264 120.924C11.3264 121.015 11.4182 121.198 11.4182 121.289C12.6115 122.021 17.5683 125.129 19.4041 126.226C21.2399 127.323 26.0131 129.974 28.0325 131.071C28.1243 130.979 28.2161 130.979 28.2161 130.888C26.2885 129.791 21.2399 127.048 19.3123 125.86Z" fill="#1B2628"/>
<path d="M27.9408 131.345C25.8296 130.157 21.1482 127.597 19.3124 126.5C17.5683 125.494 12.9787 122.569 11.51 121.655C11.51 121.746 11.6018 121.929 11.6018 122.021C13.0705 122.935 17.6601 125.86 19.4959 126.866C21.24 127.871 25.5542 130.248 27.7572 131.528C27.7572 131.436 27.849 131.345 27.9408 131.345Z" fill="#1B2628"/>
<path d="M27.3901 131.894C27.4819 131.802 27.4819 131.802 27.5737 131.711C25.3707 130.431 21.0564 128.054 19.3124 127.049C17.6601 126.043 13.2541 123.3 11.6019 122.295C11.6019 122.386 11.6019 122.478 11.6937 122.569C13.5295 123.758 17.3848 126.134 18.9452 127.049C20.6893 128.145 25.2789 130.705 27.3901 131.894Z" fill="#1B2628"/>
<path d="M19.2206 124.672C17.3848 123.575 12.6116 120.649 10.7758 119.461C10.8676 119.552 10.8676 119.735 10.9594 119.827C12.428 120.741 17.4766 123.94 19.4042 125.037C21.5154 126.317 27.2983 129.517 29.1341 130.522C29.2259 130.431 29.3177 130.431 29.4095 130.431C27.5737 129.425 21.5154 125.951 19.2206 124.672Z" fill="#1B2628"/>
<path d="M18.8535 127.323C17.3848 126.409 13.7131 124.123 11.7855 122.935C11.7855 123.026 11.7855 123.118 11.7855 123.3C13.4378 124.397 15.8243 125.952 18.1191 127.323C20.0468 128.42 23.5349 130.431 27.1147 132.351C27.2065 132.259 27.2065 132.168 27.2983 132.076C25.0953 130.888 20.5975 128.42 18.8535 127.323Z" fill="#1B2628"/>
<path d="M19.3123 125.312C17.4764 124.215 12.8868 121.381 11.1428 120.284C11.1428 120.375 11.2346 120.558 11.2346 120.649C12.5197 121.472 17.5682 124.58 19.404 125.677C21.3317 126.866 26.5638 129.699 28.5832 130.796C28.675 130.705 28.7668 130.705 28.8586 130.614C26.8392 129.517 21.3317 126.5 19.3123 125.312Z" fill="#1B2628"/>
<path d="M19.4041 124.489C21.6071 125.769 27.6654 129.151 29.5012 130.157C29.2258 129.699 28.8587 129.334 28.5833 129.242C28.0325 128.968 20.5056 124.946 19.0369 124.032C17.8436 123.209 13.6212 120.649 11.8772 119.552L11.2346 119.187C11.051 119.095 10.8675 119.004 10.6839 119.004C10.5921 119.004 10.5921 119.004 10.5003 119.004V119.095C12.1525 120.009 17.3847 123.3 19.4041 124.489Z" fill="#1B2628"/>
<path d="M31.4287 123.026C29.3175 122.112 22.4331 118.821 17.201 115.439C11.9688 112.056 8.48073 109.314 7.7464 108.765C7.65461 108.674 7.47102 108.491 7.19565 108.308L7.92998 111.142C9.03149 111.965 12.4278 114.433 17.2928 117.541C22.5249 120.924 29.3175 124.123 31.3369 125.037C31.3369 125.037 31.4287 125.037 31.4287 125.129L32.8056 123.757C32.4384 123.392 31.8877 123.209 31.4287 123.026Z" fill="url(#paint44_linear)"/>
<path opacity="0.5" d="M34.1825 136.373C36.2019 137.287 36.5691 137.561 38.7721 137.653C40.9751 137.744 42.9027 136.373 42.9027 136.373V131.711C42.9027 131.711 40.4243 132.442 38.7721 132.442C37.2116 132.442 33.3564 131.162 32.1631 130.614C30.9698 130.065 28.675 130.156 27.1145 132.716C30.3272 134.362 33.2646 135.916 34.1825 136.373Z" fill="#414E52"/>
<path d="M39.0475 137.47C38.9557 137.47 38.8639 137.47 38.7721 137.47C36.8445 137.378 36.2937 137.196 34.8251 136.464C34.6415 136.373 34.4579 136.281 34.1825 136.19C33.3564 135.824 30.6944 134.453 27.2981 132.625C28.4914 130.705 30.0519 130.431 30.878 130.431C31.337 130.431 31.7959 130.522 32.1631 130.705C33.3564 131.254 37.2117 132.442 38.8639 132.533H38.9557C40.3326 132.533 42.2602 131.985 42.9027 131.802V136.281C42.5356 136.464 40.8833 137.47 39.0475 137.47Z" fill="#C9C9CA"/>
<path opacity="0.5" d="M7.65472 120.741C8.29726 121.198 9.76593 122.295 11.6018 123.483C11.51 122.386 10.9592 119.095 9.39876 117.815C7.56293 116.261 4.99275 113.245 4.53379 112.788C4.07483 112.239 4.16663 110.685 4.07483 109.862C3.3405 110.776 3.52408 116.444 3.52408 116.444C4.16663 117.907 6.18605 119.644 7.65472 120.741Z" fill="#414E52"/>
<path d="M11.418 123.209C9.76571 122.112 8.38884 121.106 7.74629 120.649C6.46121 119.735 4.34999 117.907 3.70745 116.353C3.61566 114.982 3.61566 111.599 3.98283 110.319C3.98283 110.411 3.98283 110.502 3.98283 110.685C3.98283 111.508 4.07462 112.422 4.44179 112.879C4.99254 113.519 7.56271 116.444 9.30676 117.998C10.6836 119.004 11.2344 121.929 11.418 123.209Z" fill="#CACACB"/>
<path d="M7.65455 126.134C7.65455 126.591 7.56275 126.683 7.19559 126.409L5.63512 125.312C5.26796 125.037 5.08437 124.489 5.08437 124.032V123.392C5.08437 122.935 5.35975 122.843 5.72692 123.118L7.10379 124.306C7.47096 124.58 7.65455 125.129 7.65455 125.586V126.134Z" fill="#F6921E"/>
<path d="M7.47096 126.408L5.9105 125.312C5.54333 125.037 5.35975 124.489 5.35975 124.032V123.392C5.35975 123.209 5.45154 123.118 5.54333 123.026C5.26796 122.935 5.08437 123.026 5.08437 123.392V124.032C5.08437 124.489 5.35975 125.037 5.63512 125.312L7.19559 126.408C7.47096 126.591 7.56275 126.591 7.47096 126.408C7.56275 126.408 7.56275 126.408 7.47096 126.408Z" fill="#4D585A"/>
<path d="M36.1098 131.985C35.5591 132.99 34.3658 134.179 33.5396 134.727C33.2643 134.91 33.0807 135.001 32.8971 135.093L31.9792 133.082L30.9695 130.888C30.9695 130.888 31.0613 130.888 31.2448 130.796C31.4284 130.705 31.612 130.705 31.7956 130.614C31.8874 130.614 31.9792 130.705 32.071 130.705C32.8971 130.979 34.5494 131.619 36.1098 131.985Z" fill="url(#paint45_linear)"/>
<path d="M33.8152 133.904C33.8152 135.001 33.0808 135.367 32.1629 134.819C31.245 134.27 30.5107 132.99 30.5107 131.985C30.5107 130.888 31.245 130.522 32.1629 131.071C33.0808 131.528 33.8152 132.807 33.8152 133.904Z" fill="white"/>
<path d="M40.3324 133.539C40.0571 134.453 38.772 135.824 37.8541 136.464C37.6705 136.647 37.4869 136.739 37.3033 136.739L36.4772 135.002L35.5593 133.082C35.5593 133.082 35.6511 133.082 35.7428 132.991C36.0182 132.899 36.4772 132.716 37.0279 132.625C37.0279 132.625 37.3951 132.533 37.8541 132.533C38.2212 132.625 38.4966 132.625 38.772 132.625H38.8638C39.2309 132.625 39.5063 132.625 39.8735 132.533C40.0571 132.625 40.1489 132.625 40.2406 132.716C40.6078 132.991 40.3324 133.539 40.3324 133.539Z" fill="url(#paint46_linear)"/>
<path d="M38.0378 135.642C38.0378 136.556 37.3952 136.921 36.5691 136.464C35.743 136.007 35.1004 134.819 35.1004 133.905C35.1004 132.991 35.743 132.625 36.5691 133.082C37.3952 133.539 38.0378 134.728 38.0378 135.642Z" fill="white"/>
<path d="M42.7193 133.539C42.4439 134.27 41.2506 135.367 40.7917 135.55L40.3327 134.453L39.7819 133.265C39.7819 133.265 40.1491 133.082 40.7917 132.99C40.7917 132.99 42.5357 132.625 42.8111 133.082C42.9029 133.173 42.7193 133.539 42.7193 133.539Z" fill="url(#paint47_linear)"/>
<path d="M41.2505 134.819C41.2505 135.459 40.7916 135.641 40.3326 135.367C39.7818 135.093 39.4147 134.362 39.4147 133.722C39.4147 133.082 39.8736 132.899 40.3326 133.173C40.8834 133.539 41.2505 134.27 41.2505 134.819Z" fill="white"/>
<path d="M32.8973 123.575L31.5204 124.946C33.5398 125.86 35.9264 126.683 38.4966 126.683C41.1586 126.683 42.9026 125.677 42.9026 125.677V123.483C42.9026 123.483 41.1586 124.489 38.4966 124.489C36.569 124.58 34.6413 124.214 32.8973 123.575Z" fill="#F6921E"/>
<path opacity="0.3" d="M32.8973 123.575L31.5204 124.946C33.5398 125.86 35.9264 126.683 38.4966 126.683C41.1586 126.683 42.9026 125.677 42.9026 125.677V123.483C42.9026 123.483 41.1586 124.489 38.4966 124.489C36.569 124.58 34.6413 124.214 32.8973 123.575Z" fill="url(#paint48_linear)"/>
<path opacity="0.3" d="M7.10382 124.306L5.72694 123.117C5.45157 122.843 5.17619 122.935 5.17619 123.209C5.26799 123.209 5.35978 123.209 5.54336 123.392L6.92024 124.58C7.28741 124.854 7.47099 125.403 7.47099 125.86L7.3792 126.317C7.3792 126.408 7.3792 126.408 7.3792 126.5C7.56278 126.591 7.65457 126.5 7.65457 126.134L7.74637 125.586C7.65457 125.129 7.47099 124.58 7.10382 124.306Z" fill="black"/>
</g>
<mask id="mask1" mask-type="alpha" maskUnits="userSpaceOnUse" x="27" y="130" width="16" height="8">
<path d="M39.0475 137.47C38.9557 137.47 38.8639 137.47 38.7721 137.47C36.8445 137.378 36.2937 137.196 34.8251 136.464C34.6415 136.373 34.4579 136.281 34.1825 136.19C33.3564 135.824 30.6944 134.453 27.2981 132.625C28.4914 130.705 30.0519 130.431 30.878 130.431C31.337 130.431 31.7959 130.522 32.1631 130.705C33.3564 131.254 37.2117 132.442 38.8639 132.533H38.9557C40.3326 132.533 42.2602 131.985 42.9027 131.802V136.281C42.5356 136.464 40.8833 137.47 39.0475 137.47Z" fill="url(#paint49_linear)"/>
</mask>
<g mask="url(#mask1)">
<path d="M39.0475 137.47C38.9557 137.47 38.8639 137.47 38.7721 137.47C36.8445 137.378 36.2937 137.196 34.8251 136.464C34.6415 136.373 34.4579 136.281 34.1825 136.19C33.3564 135.824 30.6944 134.453 27.2981 132.625C28.4914 130.705 30.0519 130.431 30.878 130.431C31.337 130.431 31.7959 130.522 32.1631 130.705C33.3564 131.254 37.2117 132.442 38.8639 132.533H38.9557C40.3326 132.533 42.2602 131.985 42.9027 131.802V136.281C42.5356 136.464 40.8833 137.47 39.0475 137.47Z" fill="url(#paint50_linear)"/>
</g>
<mask id="mask2" mask-type="alpha" maskUnits="userSpaceOnUse" x="3" y="110" width="9" height="14">
<path d="M11.418 123.209C9.76571 122.112 8.38884 121.106 7.74629 120.649C6.46121 119.735 4.34999 117.907 3.70745 116.353C3.61566 114.982 3.61566 111.599 3.98283 110.319C3.98283 110.411 3.98283 110.502 3.98283 110.685C3.98283 111.508 4.07462 112.422 4.44179 112.879C4.99254 113.519 7.56271 116.444 9.30676 117.998C10.6836 119.004 11.2344 121.929 11.418 123.209Z" fill="url(#paint51_linear)"/>
</mask>
<g mask="url(#mask2)">
<path d="M11.418 123.209C9.76571 122.112 8.38884 121.106 7.74629 120.649C6.46121 119.735 4.34999 117.907 3.70745 116.353C3.61566 114.982 3.61566 111.599 3.98283 110.319C3.98283 110.411 3.98283 110.502 3.98283 110.685C3.98283 111.508 4.07462 112.422 4.44179 112.879C4.99254 113.519 7.56271 116.444 9.30676 117.998C10.6836 119.004 11.2344 121.929 11.418 123.209Z" fill="url(#paint52_linear)"/>
</g>
<defs>
<linearGradient id="paint0_linear" x1="131.222" y1="91.4825" x2="129.008" y2="106.341" gradientUnits="userSpaceOnUse">
<stop stop-color="#F3F5F7"/>
<stop offset="1" stop-color="#999D9E"/>
</linearGradient>
<linearGradient id="paint1_linear" x1="128.887" y1="104.406" x2="130.048" y2="97.1786" gradientUnits="userSpaceOnUse">
<stop stop-color="#E6E8EA"/>
<stop offset="1" stop-color="#8C9091"/>
</linearGradient>
<linearGradient id="paint2_linear" x1="129.035" y1="101.006" x2="132.506" y2="92.4024" gradientUnits="userSpaceOnUse">
<stop stop-color="#F3F5F7"/>
<stop offset="1" stop-color="#999D9E"/>
</linearGradient>
<linearGradient id="paint3_linear" x1="130.886" y1="92.6049" x2="128.623" y2="104.386" gradientUnits="userSpaceOnUse">
<stop stop-color="#F3F5F7"/>
<stop offset="1" stop-color="#999D9E"/>
</linearGradient>
<linearGradient id="paint4_linear" x1="130.45" y1="95.005" x2="130.372" y2="104.355" gradientUnits="userSpaceOnUse">
<stop stop-color="#F3F5F7"/>
<stop offset="1" stop-color="#999D9E"/>
</linearGradient>
<linearGradient id="paint5_linear" x1="129.5" y1="94.2054" x2="130.299" y2="94.2054" gradientUnits="userSpaceOnUse">
<stop stop-color="#8F9193"/>
<stop offset="1" stop-color="#35393A"/>
</linearGradient>
<linearGradient id="paint6_linear" x1="126.355" y1="98.7793" x2="127.502" y2="98.7793" gradientUnits="userSpaceOnUse">
<stop stop-color="#8F9193"/>
<stop offset="1" stop-color="#35393A"/>
</linearGradient>
<linearGradient id="paint7_linear" x1="126.722" y1="101.084" x2="127.794" y2="101.084" gradientUnits="userSpaceOnUse">
<stop stop-color="#8F9193"/>
<stop offset="1" stop-color="#35393A"/>
</linearGradient>
<linearGradient id="paint8_linear" x1="128.465" y1="101.942" x2="129.042" y2="101.942" gradientUnits="userSpaceOnUse">
<stop stop-color="#8F9193"/>
<stop offset="1" stop-color="#35393A"/>
</linearGradient>
<linearGradient id="paint9_linear" x1="127.595" y1="96.1406" x2="128.664" y2="96.1406" gradientUnits="userSpaceOnUse">
<stop stop-color="#8F9193"/>
<stop offset="1" stop-color="#35393A"/>
</linearGradient>
<linearGradient id="paint10_linear" x1="131.623" y1="93.6315" x2="132.29" y2="93.6315" gradientUnits="userSpaceOnUse">
<stop stop-color="#8F9193"/>
<stop offset="1" stop-color="#35393A"/>
</linearGradient>
<linearGradient id="paint11_linear" x1="132.977" y1="95.2722" x2="133.678" y2="95.2722" gradientUnits="userSpaceOnUse">
<stop stop-color="#8F9193"/>
<stop offset="1" stop-color="#35393A"/>
</linearGradient>
<linearGradient id="paint12_linear" x1="133.038" y1="97.4116" x2="133.33" y2="97.4116" gradientUnits="userSpaceOnUse">
<stop stop-color="#8F9193"/>
<stop offset="1" stop-color="#35393A"/>
</linearGradient>
<linearGradient id="paint13_linear" x1="130.449" y1="101.266" x2="130.728" y2="101.266" gradientUnits="userSpaceOnUse">
<stop stop-color="#8F9193"/>
<stop offset="1" stop-color="#35393A"/>
</linearGradient>
<linearGradient id="paint14_linear" x1="132.2" y1="99.3589" x2="132.441" y2="99.3589" gradientUnits="userSpaceOnUse">
<stop stop-color="#8F9193"/>
<stop offset="1" stop-color="#35393A"/>
</linearGradient>
<linearGradient id="paint15_linear" x1="132.108" y1="97.6407" x2="129.017" y2="98.9294" gradientUnits="userSpaceOnUse">
<stop stop-color="#F3F5F7"/>
<stop offset="1" stop-color="#999D9E"/>
</linearGradient>
<linearGradient id="paint16_linear" x1="131.107" y1="96.7724" x2="129.91" y2="102.885" gradientUnits="userSpaceOnUse">
<stop stop-color="#F3F5F7"/>
<stop offset="1" stop-color="#999D9E"/>
</linearGradient>
<linearGradient id="paint17_linear" x1="60.7572" y1="129.088" x2="58.5432" y2="143.947" gradientUnits="userSpaceOnUse">
<stop stop-color="#F3F5F7"/>
<stop offset="1" stop-color="#999D9E"/>
</linearGradient>
<linearGradient id="paint18_linear" x1="58.4215" y1="142.012" x2="59.5825" y2="134.785" gradientUnits="userSpaceOnUse">
<stop stop-color="#E6E8EA"/>
<stop offset="1" stop-color="#8C9091"/>
</linearGradient>
<linearGradient id="paint19_linear" x1="58.5703" y1="138.612" x2="62.0411" y2="130.008" gradientUnits="userSpaceOnUse">
<stop stop-color="#F3F5F7"/>
<stop offset="1" stop-color="#999D9E"/>
</linearGradient>
<linearGradient id="paint20_linear" x1="60.422" y1="130.211" x2="58.1588" y2="141.992" gradientUnits="userSpaceOnUse">
<stop stop-color="#F3F5F7"/>
<stop offset="1" stop-color="#999D9E"/>
</linearGradient>
<linearGradient id="paint21_linear" x1="59.9854" y1="132.611" x2="59.9072" y2="141.96" gradientUnits="userSpaceOnUse">
<stop stop-color="#F3F5F7"/>
<stop offset="1" stop-color="#999D9E"/>
</linearGradient>
<linearGradient id="paint22_linear" x1="59.0347" y1="131.811" x2="59.8341" y2="131.811" gradientUnits="userSpaceOnUse">
<stop stop-color="#8F9193"/>
<stop offset="1" stop-color="#35393A"/>
</linearGradient>
<linearGradient id="paint23_linear" x1="55.8901" y1="136.385" x2="57.0374" y2="136.385" gradientUnits="userSpaceOnUse">
<stop stop-color="#8F9193"/>
<stop offset="1" stop-color="#35393A"/>
</linearGradient>
<linearGradient id="paint24_linear" x1="56.2568" y1="138.69" x2="57.3286" y2="138.69" gradientUnits="userSpaceOnUse">
<stop stop-color="#8F9193"/>
<stop offset="1" stop-color="#35393A"/>
</linearGradient>
<linearGradient id="paint25_linear" x1="57.9992" y1="139.548" x2="58.5766" y2="139.548" gradientUnits="userSpaceOnUse">
<stop stop-color="#8F9193"/>
<stop offset="1" stop-color="#35393A"/>
</linearGradient>
<linearGradient id="paint26_linear" x1="57.1303" y1="133.747" x2="58.1988" y2="133.747" gradientUnits="userSpaceOnUse">
<stop stop-color="#8F9193"/>
<stop offset="1" stop-color="#35393A"/>
</linearGradient>
<linearGradient id="paint27_linear" x1="61.1583" y1="131.238" x2="61.8256" y2="131.238" gradientUnits="userSpaceOnUse">
<stop stop-color="#8F9193"/>
<stop offset="1" stop-color="#35393A"/>
</linearGradient>
<linearGradient id="paint28_linear" x1="62.5126" y1="132.878" x2="63.2125" y2="132.878" gradientUnits="userSpaceOnUse">
<stop stop-color="#8F9193"/>
<stop offset="1" stop-color="#35393A"/>
</linearGradient>
<linearGradient id="paint29_linear" x1="62.5721" y1="135.018" x2="62.865" y2="135.018" gradientUnits="userSpaceOnUse">
<stop stop-color="#8F9193"/>
<stop offset="1" stop-color="#35393A"/>
</linearGradient>
<linearGradient id="paint30_linear" x1="59.9836" y1="138.872" x2="60.2628" y2="138.872" gradientUnits="userSpaceOnUse">
<stop stop-color="#8F9193"/>
<stop offset="1" stop-color="#35393A"/>
</linearGradient>
<linearGradient id="paint31_linear" x1="61.735" y1="136.965" x2="61.9761" y2="136.965" gradientUnits="userSpaceOnUse">
<stop stop-color="#8F9193"/>
<stop offset="1" stop-color="#35393A"/>
</linearGradient>
<linearGradient id="paint32_linear" x1="61.6419" y1="135.247" x2="58.5518" y2="136.535" gradientUnits="userSpaceOnUse">
<stop stop-color="#F3F5F7"/>
<stop offset="1" stop-color="#999D9E"/>
</linearGradient>
<linearGradient id="paint33_linear" x1="60.6428" y1="134.378" x2="59.4457" y2="140.492" gradientUnits="userSpaceOnUse">
<stop stop-color="#F3F5F7"/>
<stop offset="1" stop-color="#999D9E"/>
</linearGradient>
<linearGradient id="paint34_linear" x1="67.9547" y1="137.481" x2="54.8983" y2="124.37" gradientUnits="userSpaceOnUse">
<stop offset="0.1021" stop-color="#3B4447"/>
<stop offset="1" stop-color="#081114"/>
</linearGradient>
<linearGradient id="paint35_linear" x1="130.106" y1="73.0327" x2="134.005" y2="66.2508" gradientUnits="userSpaceOnUse">
<stop offset="0.1021" stop-color="#3B4447"/>
<stop offset="1" stop-color="#081114"/>
</linearGradient>
<linearGradient id="paint36_linear" x1="130.457" y1="70.526" x2="131.693" y2="68.376" gradientUnits="userSpaceOnUse">
<stop offset="0.1021" stop-color="#626B6E"/>
<stop offset="1" stop-color="#2E373A"/>
</linearGradient>
<linearGradient id="paint37_linear" x1="150.968" y1="81.2458" x2="150.968" y2="91.747" gradientUnits="userSpaceOnUse">
<stop offset="0.1021" stop-color="#3B4447"/>
<stop offset="1" stop-color="#081114"/>
</linearGradient>
<linearGradient id="paint38_linear" x1="130.463" y1="62.2585" x2="124.607" y2="72.443" gradientUnits="userSpaceOnUse">
<stop offset="0.1021" stop-color="#3B4447"/>
<stop offset="1" stop-color="#081114"/>
</linearGradient>
<linearGradient id="paint39_linear" x1="153.163" y1="73.1181" x2="153.163" y2="90.7593" gradientUnits="userSpaceOnUse">
<stop offset="0.1021" stop-color="#3B4447"/>
<stop offset="1" stop-color="#081114"/>
</linearGradient>
<linearGradient id="paint40_linear" x1="43.4561" y1="115.886" x2="37.4568" y2="115.886" gradientUnits="userSpaceOnUse">
<stop stop-color="white"/>
<stop offset="1"/>
</linearGradient>
<linearGradient id="paint41_linear" x1="36.4863" y1="90.0539" x2="32.3271" y2="95.2326" gradientUnits="userSpaceOnUse">
<stop stop-color="white"/>
<stop offset="1"/>
</linearGradient>
<linearGradient id="paint42_linear" x1="32.2583" y1="128.325" x2="42.4692" y2="129.113" gradientUnits="userSpaceOnUse">
<stop stop-color="#333333"/>
<stop offset="0.5241" stop-color="#999999"/>
<stop offset="1" stop-color="#333333"/>
</linearGradient>
<linearGradient id="paint43_linear" x1="32.2583" y1="128.325" x2="42.4692" y2="129.113" gradientUnits="userSpaceOnUse">
<stop stop-color="white"/>
<stop offset="0.5241" stop-color="white"/>
<stop offset="1" stop-color="white"/>
</linearGradient>
<linearGradient id="paint44_linear" x1="19.8647" y1="116.311" x2="18.0128" y2="119.713" gradientUnits="userSpaceOnUse">
<stop stop-color="#F9F9F9"/>
<stop offset="1" stop-color="#C7C7C7"/>
</linearGradient>
<linearGradient id="paint45_linear" x1="33.3972" y1="130.726" x2="34.1757" y2="133.715" gradientUnits="userSpaceOnUse">
<stop stop-color="#FAFFFF"/>
<stop offset="1" stop-color="#D4D7D9"/>
</linearGradient>
<linearGradient id="paint46_linear" x1="37.9644" y1="132.779" x2="38.6574" y2="135.44" gradientUnits="userSpaceOnUse">
<stop stop-color="#FAFFFF"/>
<stop offset="1" stop-color="#D4D7D9"/>
</linearGradient>
<linearGradient id="paint47_linear" x1="41.2374" y1="133.035" x2="41.6754" y2="134.716" gradientUnits="userSpaceOnUse">
<stop stop-color="#FAFFFF"/>
<stop offset="1" stop-color="#D4D7D9"/>
</linearGradient>
<linearGradient id="paint48_linear" x1="31.5655" y1="125.175" x2="42.9646" y2="125.175" gradientUnits="userSpaceOnUse">
<stop/>
<stop offset="0.5632" stop-color="white"/>
<stop offset="1"/>
</linearGradient>
<linearGradient id="paint49_linear" x1="29.5907" y1="133.97" x2="45.0911" y2="133.97" gradientUnits="userSpaceOnUse">
<stop stop-color="white"/>
<stop offset="0.0720832" stop-color="#F5F5F5"/>
<stop offset="0.1964" stop-color="#D9D9D9"/>
<stop offset="0.3568" stop-color="#ACACAC"/>
<stop offset="0.4692" stop-color="#888888"/>
<stop offset="1"/>
</linearGradient>
<linearGradient id="paint50_linear" x1="29.5907" y1="133.97" x2="45.0911" y2="133.97" gradientUnits="userSpaceOnUse">
<stop stop-color="white"/>
<stop offset="0.4692" stop-color="white"/>
<stop offset="1" stop-color="white"/>
</linearGradient>
<linearGradient id="paint51_linear" x1="3.64962" y1="116.726" x2="11.4215" y2="116.726" gradientUnits="userSpaceOnUse">
<stop stop-color="white"/>
<stop offset="0.0720832" stop-color="#F5F5F5"/>
<stop offset="0.1964" stop-color="#D9D9D9"/>
<stop offset="0.3568" stop-color="#ACACAC"/>
<stop offset="0.4692" stop-color="#888888"/>
<stop offset="1"/>
</linearGradient>
<linearGradient id="paint52_linear" x1="3.64962" y1="116.726" x2="11.4215" y2="116.726" gradientUnits="userSpaceOnUse">
<stop stop-color="white"/>
<stop offset="0.4692" stop-color="white"/>
<stop offset="1" stop-color="white"/>
</linearGradient>
</defs>
</svg>
