<svg width="172" height="152" viewBox="0 0 172 152" fill="none" xmlns="../../../www.w3.org/2000/svg.html">
<path opacity="0.1" d="M3.88033 127.039L137.906 60.8018L171.664 78.9723L69.0693 140.24L65.4995 138.143L42.9937 151.111C38.3374 153.363 31.0424 150.49 26.1532 147.694L5.58766 135.891C0.310454 132.708 -0.0775751 129.291 3.88033 127.039Z" fill="black"/>
<path d="M153.194 73.1482L53.4704 130.766V122.224L153.815 63.1311L153.194 73.1482Z" fill="#1E1E1E"/>
<path d="M104.69 69.4985L35.0003 109.8L53.4706 122.224L123.161 82.0005L104.69 69.4985Z" fill="#3B4447"/>
<path d="M119.203 97.3756L118.659 98.6956L111.753 94.7354L113.072 92.0952L117.263 93.8036L119.203 97.3756Z" fill="#1E1E1E"/>
<path d="M115.71 95.357L110.433 92.2509C109.269 91.552 107.639 91.7073 105.854 92.7168C102.285 94.8134 99.3355 99.8608 99.3355 103.976C99.3355 106.073 100.034 107.548 101.276 108.17L106.553 111.276C107.717 111.975 109.347 111.819 111.132 110.81C114.702 108.713 117.651 103.743 117.651 99.5502C117.651 97.5312 116.952 96.0558 115.71 95.357Z" fill="#2E373A"/>
<path d="M117.65 99.55C117.65 103.666 114.779 108.713 111.132 110.81C109.347 111.819 107.717 111.974 106.553 111.276C105.389 110.577 104.613 109.179 104.613 107.082C104.613 102.967 107.484 97.9193 111.132 95.8227C112.917 94.8133 114.546 94.658 115.71 95.3568C116.952 96.0557 117.65 97.5311 117.65 99.55Z" fill="#555E61"/>
<path d="M117.262 100.094C117.262 103.899 114.624 108.48 111.364 110.344C108.105 112.207 105.466 110.732 105.466 106.927C105.466 103.122 108.105 98.5407 111.364 96.6771C114.624 94.7358 117.262 96.2888 117.262 100.094Z" fill="#3B4447"/>
<path d="M115.322 101.103C115.322 103.666 113.537 106.694 111.364 108.014C109.192 109.257 107.407 108.247 107.407 105.685C107.407 103.122 109.192 100.094 111.364 98.7737C113.537 97.5313 115.322 98.5408 115.322 101.103Z" fill="url(#paint0_linear)"/>
<path d="M114.546 101.258C114.546 103.433 112.994 106.073 111.132 107.16C109.269 108.247 107.717 107.393 107.717 105.219C107.717 103.044 109.269 100.404 111.132 99.3172C112.994 98.1524 114.546 99.0842 114.546 101.258Z" fill="url(#paint1_linear)"/>
<path d="M111.364 99.084C111.209 99.1617 110.976 99.317 110.821 99.4723C110.899 99.3946 111.054 99.317 111.132 99.2393C112.994 98.1522 114.546 99.0064 114.546 101.181C114.546 103.355 112.994 105.995 111.132 107.082C109.269 108.169 107.717 107.315 107.717 105.141C107.717 104.908 107.717 104.597 107.795 104.364C107.717 104.753 107.639 105.141 107.639 105.529C107.639 107.859 109.269 108.868 111.364 107.703C113.382 106.539 115.089 103.665 115.089 101.258C115.089 98.8511 113.382 97.9192 111.364 99.084Z" fill="url(#paint2_linear)"/>
<path d="M114.313 101.336C114.313 103.432 112.839 105.917 111.054 107.004C109.269 108.014 107.795 107.237 107.795 105.141C107.795 103.044 109.269 100.559 111.054 99.4723C112.839 98.3851 114.313 99.2393 114.313 101.336Z" fill="url(#paint3_linear)"/>
<path d="M113.693 102.346C113.693 103.743 112.684 105.452 111.442 106.228C110.2 106.927 109.191 106.383 109.191 104.908C109.191 103.51 110.2 101.802 111.442 101.025C112.684 100.404 113.693 100.948 113.693 102.346Z" fill="url(#paint4_linear)"/>
<path d="M111.365 100.327C111.442 100.56 111.365 100.87 111.132 100.87C110.977 100.948 110.744 100.715 110.666 100.482C110.588 100.249 110.666 99.9385 110.899 99.9385C111.054 99.8608 111.287 100.016 111.365 100.327Z" fill="url(#paint5_linear)"/>
<path d="M108.571 103.976C108.804 103.976 109.036 104.209 109.036 104.364C109.036 104.52 108.804 104.675 108.493 104.597C108.26 104.597 108.028 104.364 108.028 104.209C108.028 104.054 108.26 103.899 108.571 103.976Z" fill="url(#paint6_linear)"/>
<path d="M108.648 105.995C108.881 105.918 109.114 105.918 109.192 105.995C109.269 106.151 109.114 106.306 108.881 106.384C108.648 106.461 108.416 106.461 108.338 106.384C108.26 106.306 108.416 106.151 108.648 105.995Z" fill="url(#paint7_linear)"/>
<path d="M109.89 106.849C109.968 106.694 110.123 106.616 110.201 106.616C110.278 106.694 110.278 106.849 110.201 107.005C110.123 107.16 109.968 107.238 109.89 107.238C109.813 107.238 109.813 107.005 109.89 106.849Z" fill="url(#paint8_linear)"/>
<path d="M109.735 101.725C109.968 101.88 110.045 102.113 109.968 102.268C109.89 102.423 109.58 102.423 109.347 102.268C109.114 102.113 109.036 101.88 109.114 101.725C109.192 101.569 109.502 101.569 109.735 101.725Z" fill="url(#paint9_linear)"/>
<path d="M113.072 99.9385C113.072 100.171 112.917 100.404 112.762 100.404C112.606 100.404 112.451 100.171 112.529 99.9385C112.529 99.7055 112.684 99.4726 112.839 99.4726C112.917 99.3949 113.072 99.6279 113.072 99.9385Z" fill="url(#paint10_linear)"/>
<path d="M114.003 101.492C113.848 101.569 113.693 101.569 113.615 101.492C113.538 101.414 113.615 101.259 113.77 101.103C113.926 101.026 114.081 101.026 114.158 101.103C114.236 101.181 114.158 101.336 114.003 101.492Z" fill="url(#paint11_linear)"/>
<path d="M113.77 103.277C113.693 103.277 113.693 103.2 113.693 103.044C113.693 102.967 113.77 102.889 113.848 102.889C113.926 102.889 113.926 102.967 113.926 103.122C113.926 103.2 113.848 103.277 113.77 103.277Z" fill="url(#paint12_linear)"/>
<path d="M111.675 106.539C111.598 106.539 111.52 106.539 111.52 106.461C111.52 106.384 111.52 106.306 111.597 106.306C111.675 106.306 111.753 106.306 111.753 106.384C111.753 106.461 111.675 106.539 111.675 106.539Z" fill="url(#paint13_linear)"/>
<path d="M113.15 104.83C113.15 104.908 113.072 104.908 112.995 104.83C112.917 104.83 112.917 104.753 112.995 104.675C112.995 104.598 113.072 104.598 113.15 104.675C113.15 104.675 113.15 104.753 113.15 104.83Z" fill="url(#paint14_linear)"/>
<path d="M112.917 103.045C112.917 103.899 112.296 104.908 111.597 105.296C110.899 105.685 110.278 105.374 110.278 104.52C110.278 103.666 110.899 102.656 111.597 102.268C112.296 101.88 112.917 102.268 112.917 103.045Z" fill="url(#paint15_linear)"/>
<path d="M113.072 103.2C113.072 103.976 112.528 104.986 111.83 105.374C111.131 105.762 110.588 105.452 110.588 104.675C110.588 103.899 111.131 102.889 111.83 102.501C112.451 102.035 113.072 102.423 113.072 103.2Z" fill="url(#paint16_linear)"/>
<path d="M116.875 92.0955L110.511 88.2906C108.959 87.6693 106.941 87.9023 104.69 89.2224C99.7236 92.0955 95.6105 99.1619 95.6105 104.908L101.664 108.635L102.75 108.014C102.75 102.967 106.32 96.7546 110.744 94.1921C115.167 91.6296 118.737 93.7262 118.737 98.7736L119.824 98.1524C119.746 95.0463 118.659 92.9497 116.875 92.0955Z" fill="#485154"/>
<path d="M102.75 107.937C102.75 102.889 106.32 96.677 110.744 94.1145C115.167 91.552 118.737 93.6486 118.737 98.6959L119.824 98.0747C119.824 92.3285 115.788 89.9213 110.744 92.872C105.777 95.7452 101.664 102.812 101.664 108.558L102.75 107.937Z" fill="#3B4447"/>
<path d="M159.558 72.3716L159.015 73.7694L152.108 69.8091L153.427 67.0913L157.618 68.7997L159.558 72.3716Z" fill="#1E1E1E"/>
<path d="M156.065 70.3528L150.788 67.2467C149.624 66.5479 147.994 66.7032 146.209 67.7126C142.64 69.8092 139.691 74.8566 139.691 78.9722C139.691 81.0688 140.389 82.5442 141.631 83.1654L146.908 86.2715C148.072 86.9704 149.702 86.8151 151.487 85.8056C155.057 83.709 158.006 78.7392 158.006 74.546C158.006 72.5271 157.307 71.0517 156.065 70.3528Z" fill="#2E373A"/>
<path d="M158.006 74.6238C158.006 78.7393 155.134 83.7867 151.487 85.8833C149.702 86.8928 148.072 87.0481 146.908 86.3492C145.744 85.6504 144.968 84.2526 144.968 82.156C144.968 78.0405 147.839 72.9931 151.487 70.8965C153.272 69.887 154.901 69.7317 156.065 70.4306C157.307 71.0518 158.006 72.5272 158.006 74.6238Z" fill="#555E61"/>
<path d="M157.617 75.0894C157.617 78.8944 154.979 83.4758 151.719 85.3395C148.46 87.2031 145.821 85.7278 145.821 81.9228C145.821 78.1179 148.46 73.5364 151.719 71.6727C154.979 69.8091 157.617 71.2845 157.617 75.0894Z" fill="#3B4447"/>
<path d="M155.677 76.0991C155.677 78.6616 153.892 81.6901 151.72 83.0102C149.547 84.2526 147.762 83.2431 147.762 80.6806C147.762 78.1181 149.547 75.0896 151.72 73.7696C153.892 72.5271 155.677 73.5366 155.677 76.0991Z" fill="url(#paint17_linear)"/>
<path d="M154.901 76.2543C154.901 78.4286 153.349 81.0688 151.487 82.1559C149.624 83.243 148.072 82.3889 148.072 80.2146C148.072 78.0403 149.624 75.4002 151.487 74.313C153.349 73.2259 154.901 74.0801 154.901 76.2543Z" fill="url(#paint18_linear)"/>
<path d="M151.719 74.0801C151.564 74.1578 151.331 74.3131 151.176 74.4684C151.254 74.3907 151.409 74.3131 151.487 74.2354C153.349 73.1483 154.901 74.0025 154.901 76.1767C154.901 78.351 153.349 80.9911 151.487 82.0783C149.624 83.1654 148.072 82.3112 148.072 80.137C148.072 79.904 148.072 79.5934 148.15 79.3604C148.072 79.7487 147.994 80.137 147.994 80.5252C147.994 82.8548 149.624 83.8643 151.719 82.6995C153.737 81.5347 155.445 78.6616 155.445 76.2544C155.445 73.8471 153.737 72.9153 151.719 74.0801Z" fill="url(#paint19_linear)"/>
<path d="M154.668 76.332C154.668 78.4286 153.194 80.9135 151.409 82.0006C149.624 83.0101 148.15 82.2336 148.15 80.137C148.15 78.0404 149.624 75.5555 151.409 74.4684C153.194 73.4589 154.668 74.2354 154.668 76.332Z" fill="url(#paint20_linear)"/>
<path d="M154.048 77.4191C154.048 78.8168 153.039 80.5252 151.797 81.3017C150.556 82.0006 149.547 81.457 149.547 79.9816C149.547 78.5839 150.556 76.8755 151.797 76.099C153.039 75.4001 154.048 75.9437 154.048 77.4191Z" fill="url(#paint21_linear)"/>
<path d="M151.72 75.3224C151.797 75.5554 151.72 75.866 151.487 75.866C151.332 75.9437 151.099 75.7107 151.021 75.4777C150.944 75.2448 151.021 74.9342 151.254 74.9342C151.409 74.8565 151.642 75.0895 151.72 75.3224Z" fill="url(#paint22_linear)"/>
<path d="M148.926 78.9719C149.159 78.9719 149.391 79.2049 149.391 79.3602C149.391 79.5155 149.159 79.6708 148.848 79.5931C148.615 79.5931 148.383 79.3602 148.383 79.2049C148.383 79.0496 148.615 78.9719 148.926 78.9719Z" fill="url(#paint23_linear)"/>
<path d="M149.081 81.0687C149.314 80.9911 149.547 80.9911 149.624 81.0687C149.702 81.224 149.547 81.3793 149.314 81.457C149.081 81.5346 148.848 81.5346 148.771 81.457C148.615 81.3793 148.771 81.1464 149.081 81.0687Z" fill="url(#paint24_linear)"/>
<path d="M150.245 81.9229C150.323 81.7676 150.478 81.6899 150.556 81.6899C150.633 81.7676 150.633 81.9229 150.556 82.0782C150.478 82.2335 150.323 82.3112 150.245 82.3112C150.168 82.2335 150.168 82.0782 150.245 81.9229Z" fill="url(#paint25_linear)"/>
<path d="M150.09 76.7201C150.323 76.8754 150.4 77.1084 150.323 77.2637C150.245 77.419 149.935 77.419 149.702 77.2637C149.469 77.1084 149.391 76.8754 149.469 76.7201C149.624 76.6425 149.857 76.6425 150.09 76.7201Z" fill="url(#paint26_linear)"/>
<path d="M153.427 74.9342C153.427 75.1671 153.272 75.4001 153.117 75.4001C152.961 75.4001 152.806 75.1671 152.884 74.9342C152.884 74.7012 153.039 74.4683 153.194 74.4683C153.272 74.4683 153.427 74.7012 153.427 74.9342Z" fill="url(#paint27_linear)"/>
<path d="M154.358 76.4873C154.203 76.5649 154.048 76.5649 153.97 76.4873C153.893 76.4096 153.97 76.2543 154.126 76.099C154.281 76.0214 154.436 76.0214 154.514 76.099C154.591 76.2543 154.514 76.4096 154.358 76.4873Z" fill="url(#paint28_linear)"/>
<path d="M154.126 78.2733C154.048 78.2733 154.048 78.1956 154.048 78.0403C154.048 77.9627 154.126 77.885 154.203 77.885C154.281 77.885 154.281 77.9627 154.281 78.118C154.281 78.2733 154.203 78.3509 154.126 78.2733Z" fill="url(#paint29_linear)"/>
<path d="M152.03 81.5347C151.953 81.5347 151.875 81.5347 151.875 81.4571C151.875 81.3794 151.875 81.3018 151.953 81.3018C152.03 81.3018 152.108 81.3018 152.108 81.3794C152.108 81.4571 152.03 81.5347 152.03 81.5347Z" fill="url(#paint30_linear)"/>
<path d="M153.505 79.8263C153.505 79.904 153.427 79.904 153.349 79.8263C153.272 79.8263 153.272 79.7487 153.349 79.671C153.349 79.5934 153.427 79.5934 153.505 79.671C153.505 79.7487 153.505 79.8263 153.505 79.8263Z" fill="url(#paint31_linear)"/>
<path d="M153.272 78.1178C153.272 78.972 152.651 79.9815 151.952 80.3697C151.254 80.758 150.633 80.4474 150.633 79.5932C150.633 78.739 151.254 77.7296 151.952 77.3413C152.651 76.953 153.272 77.2636 153.272 78.1178Z" fill="url(#paint32_linear)"/>
<path d="M153.427 78.1956C153.427 78.9721 152.884 79.9816 152.185 80.3699C151.487 80.7581 150.943 80.4475 150.943 79.671C150.943 78.8945 151.487 77.885 152.185 77.4967C152.806 77.1085 153.427 77.4191 153.427 78.1956Z" fill="url(#paint33_linear)"/>
<path d="M157.23 67.0916L150.866 63.2867C149.314 62.6654 147.296 62.8984 145.046 64.2185C140.079 67.0916 135.966 74.1579 135.966 79.9042L142.019 83.6315L143.105 83.0103C143.105 77.9629 146.675 71.7507 151.099 69.1882C155.522 66.6257 159.092 68.7223 159.092 73.7697L160.179 73.1485C160.179 70.0424 159.015 67.9458 157.23 67.0916Z" fill="#485154"/>
<path d="M143.105 82.9326C143.105 77.8853 146.675 71.6731 151.099 69.1106C155.522 66.5481 159.092 68.6447 159.092 73.692L160.179 73.0708C160.179 67.3246 156.143 64.9174 151.099 67.8681C146.132 70.7413 142.019 77.8076 142.019 83.5539L143.105 82.9326Z" fill="#3B4447"/>
<path d="M71.5526 116.556L73.1047 119.973V121.138L74.424 120.439V119.818L72.7167 115.935L71.5526 116.556Z" fill="#8897A0"/>
<path d="M100.344 107.626V106.772L99.2579 106.151L66.8186 124.787V127.661L67.6723 128.126L100.112 109.412V108.713L99.8788 108.558V107.859L100.344 107.626Z" fill="#8897A0"/>
<path opacity="0.2" d="M67.905 126.34L67.517 126.185V127.272L99.8787 108.558V107.859L67.905 126.34Z" fill="#8897A0"/>
<path opacity="0.5" d="M99.2579 106.151L66.8186 124.787L67.9051 125.409L100.344 106.772L99.2579 106.151Z" fill="white"/>
<path opacity="0.2" d="M100.111 108.713L67.6722 127.427L67.517 127.272L99.8787 108.558L100.111 108.713Z" fill="white"/>
<path d="M90.6435 105.607L92.1956 109.024V110.189L93.4373 109.412V108.791L91.8076 104.908L90.6435 105.607Z" fill="#8897A0"/>
<path opacity="0.5" d="M90.6435 105.607L92.1956 109.023V110.188L92.8165 109.8V109.023L91.1868 105.219L90.6435 105.607Z" fill="#8897A0"/>
<path opacity="0.5" d="M71.5526 116.556L73.1047 119.973V121.138L73.8032 120.827V119.973L72.1734 116.246L71.5526 116.556Z" fill="#8897A0"/>
<path d="M29.7231 140.628L28.3262 140.007C28.0158 139.851 27.7829 139.463 27.7829 139.075V138.609C27.7829 138.531 27.7829 138.376 27.8605 138.298C27.7053 138.298 27.6277 138.454 27.6277 138.687V139.153C27.6277 139.463 27.8605 139.929 28.171 140.084L29.5679 140.706C29.8007 140.783 29.9559 140.783 30.0335 140.628C29.9559 140.706 29.8783 140.706 29.7231 140.628Z" fill="#4D585A"/>
<path d="M118.504 49.6196L153.194 69.6538V67.4796L118.504 47.4453V49.6196Z" fill="url(#paint34_linear)"/>
<path d="M119.125 47.135L153.815 67.1693L153.194 67.4799L118.504 47.4456L119.125 47.135Z" fill="url(#paint35_linear)"/>
<path d="M153.815 69.2658L153.194 69.6541V67.4798L153.815 67.1692V69.2658Z" fill="url(#paint36_linear)"/>
<path d="M117.961 44.4946L154.436 65.616V61.8887L117.961 40.845V44.4946Z" fill="url(#paint37_linear)"/>
<path d="M156.298 60.8018V64.4514L154.436 65.6162V61.8889L156.298 60.8018Z" fill="url(#paint38_linear)"/>
<path d="M37.6388 48.4549L121.608 0L156.298 18.7918V61.5781L74.1136 111.198L37.6388 90.1541V48.4549Z" fill="#1490C9"/>
<path d="M156.299 18.7917L74.1138 69.5762V111.198L156.299 61.5781V18.7917Z" fill="#1382A8"/>
<path d="M37.6389 48.4548V90.154L74.1137 111.198V69.5762L37.6389 48.4548Z" fill="#126075"/>
<path d="M57.3506 112.285V123.156L67.5946 129.136V118.187L57.3506 112.285Z" fill="#273234"/>
<path d="M4.11288 94.8911V95.8229L5.74261 97.2207V95.8229L4.11288 94.8911Z" fill="#303E42"/>
<path d="M3.41454 91.0088L1.86242 90.077C1.47439 89.844 1.16396 89.9993 1.16396 90.4653V95.7456C1.16396 96.2115 1.47439 96.7551 1.86242 96.9104L3.41454 97.8422C3.80257 98.0752 4.11299 97.9199 4.11299 97.4539V95.7456V94.8138V92.1736C4.11299 91.7853 3.80257 91.2418 3.41454 91.0088Z" fill="#D4DBDF"/>
<path d="M3.41458 91.0083L1.86246 90.0765C1.47443 89.8435 1.24162 89.9988 1.16401 90.3871C1.24162 90.3871 1.31922 90.3871 1.47443 90.4648L3.02655 91.3966C3.41458 91.6295 3.72501 92.1731 3.72501 92.5614V95.2015V96.1334V97.8417V97.9194C3.95782 97.9194 4.11304 97.7641 4.11304 97.4535V95.7451V94.8133V92.1731C4.11304 91.7848 3.80261 91.2413 3.41458 91.0083Z" fill="#EEF5F9"/>
<path d="M58.0491 122.147L51.7631 125.719L62.9383 132.242C63.0935 131.388 63.1711 130.533 63.1711 129.679C63.0935 125.098 61.4638 121.836 58.0491 122.147Z" fill="#343433"/>
<path d="M59.1356 124.942L54.0136 122.069C52.6167 121.215 50.7542 121.293 48.814 122.38C44.5457 124.942 41.4415 130.378 41.3638 135.27C41.2862 137.6 42.2951 139.308 43.8472 140.085L49.5901 143.268C50.9094 143.889 52.6167 143.734 54.324 142.725C58.5924 140.162 61.6966 134.727 61.7742 129.834C61.8518 127.427 60.7653 125.719 59.1356 124.942Z" fill="#343433"/>
<path d="M61.8517 129.834C61.7741 134.804 58.6699 140.162 54.4016 142.725C50.5989 144.976 46.8738 142.802 46.9514 138.376C47.029 133.406 50.1332 128.048 54.4016 125.486C58.2043 123.234 61.9293 125.486 61.8517 129.834Z" fill="#424040"/>
<path d="M61.3086 130.378C61.231 134.959 58.4372 139.929 54.5569 142.259C51.1422 144.355 47.7275 142.336 47.8052 138.298C47.8828 133.717 50.6766 128.747 54.5569 126.418C57.9715 124.321 61.3862 126.34 61.3086 130.378Z" fill="#575656"/>
<path d="M59.446 131.62C59.3684 134.727 57.4283 138.143 54.7897 139.774C52.3839 141.172 50.0557 139.774 50.1333 137.056C50.2109 133.95 52.1511 130.533 54.7897 128.903C57.1179 127.505 59.5237 128.903 59.446 131.62Z" fill="#CCCBCA"/>
<path d="M56.3418 128.359C57.6611 128.514 58.7476 129.679 58.67 131.465C58.5924 134.416 56.8074 137.6 54.324 139.075C52.5391 140.162 50.7542 139.541 50.1333 137.833C50.5213 140.007 52.6167 141.016 54.7121 139.774C57.3507 138.143 59.3684 134.727 59.3684 131.62C59.446 129.524 58.0491 128.204 56.3418 128.359Z" fill="#424040"/>
<path d="M57.5058 133.018C57.5058 134.649 56.4193 136.512 55.0224 137.367C53.7807 138.143 52.539 137.367 52.539 135.891C52.539 134.261 53.6255 132.397 55.0224 131.543C56.2641 130.844 57.5058 131.543 57.5058 133.018Z" fill="#E7E8E7"/>
<path fill-rule="evenodd" clip-rule="evenodd" d="M58.3595 129.602L58.2819 129.524C58.2819 129.602 58.3595 129.602 58.3595 129.602Z" fill="#BD1E2D"/>
<path fill-rule="evenodd" clip-rule="evenodd" d="M53.2377 132.707L52.0736 131.62C51.8408 131.931 51.6856 132.242 51.5304 132.552L52.9273 133.251C53.0049 133.018 53.0825 132.863 53.2377 132.707Z" fill="#343433"/>
<path fill-rule="evenodd" clip-rule="evenodd" d="M54.9451 131.077C55.0227 130.999 55.1003 130.999 55.1779 130.999L54.8675 129.058C54.8675 129.058 54.7899 129.058 54.7899 129.136C54.4795 129.291 54.2467 129.524 54.0138 129.679L54.7123 131.31C54.7123 131.232 54.7899 131.154 54.9451 131.077Z" fill="#343433"/>
<path fill-rule="evenodd" clip-rule="evenodd" d="M52.6169 133.795L51.1424 133.251C50.9872 133.639 50.832 133.95 50.6768 134.338L52.3841 134.494C52.4617 134.261 52.5393 134.028 52.6169 133.795Z" fill="#343433"/>
<path fill-rule="evenodd" clip-rule="evenodd" d="M54.0138 131.776L53.3153 130.145C53.0049 130.378 52.7721 130.689 52.5393 130.999L53.5482 132.319C53.781 132.086 53.8586 131.931 54.0138 131.776Z" fill="#343433"/>
<path fill-rule="evenodd" clip-rule="evenodd" d="M57.3508 131.388L58.2045 129.99C58.1269 129.912 58.1269 129.757 58.0493 129.679C57.9717 129.602 57.8941 129.446 57.8164 129.369L57.118 131.155C57.1956 131.155 57.2732 131.232 57.3508 131.388Z" fill="#343433"/>
<path fill-rule="evenodd" clip-rule="evenodd" d="M57.6612 132.164L58.5925 131.155C58.5148 130.922 58.5148 130.766 58.4372 130.533L57.506 131.698C57.5836 131.854 57.6612 132.009 57.6612 132.164Z" fill="#343433"/>
<path fill-rule="evenodd" clip-rule="evenodd" d="M56.73 130.922L57.2732 128.903C57.0404 128.747 56.8076 128.67 56.5748 128.592L56.2643 130.766C56.4972 130.766 56.6524 130.844 56.73 130.922Z" fill="#343433"/>
<path fill-rule="evenodd" clip-rule="evenodd" d="M55.9538 130.766L56.1866 128.592C55.9538 128.592 55.6434 128.67 55.333 128.747L55.5658 130.844C55.721 130.766 55.8762 130.766 55.9538 130.766Z" fill="#343433"/>
<path fill-rule="evenodd" clip-rule="evenodd" d="M52.2288 135.192H50.5215C50.4439 135.581 50.3663 135.891 50.3663 136.28L52.2288 135.814C52.1512 135.581 52.1512 135.348 52.2288 135.192Z" fill="#343433"/>
<path fill-rule="evenodd" clip-rule="evenodd" d="M55.6435 137.056L55.5659 138.143C55.7987 137.988 55.9539 137.755 56.1092 137.6L55.954 136.746C55.8763 136.901 55.7211 136.979 55.6435 137.056Z" fill="#343433"/>
<path fill-rule="evenodd" clip-rule="evenodd" d="M56.5748 136.047L56.8076 136.746C57.0404 136.435 57.2733 136.124 57.4285 135.814L56.8076 135.658C56.73 135.814 56.6524 135.969 56.5748 136.047Z" fill="#343433"/>
<path fill-rule="evenodd" clip-rule="evenodd" d="M57.1955 134.882L57.8164 135.037C57.9716 134.649 58.1268 134.261 58.282 133.872L57.5059 134.105C57.4283 134.416 57.3507 134.649 57.1955 134.882Z" fill="#343433"/>
<path fill-rule="evenodd" clip-rule="evenodd" d="M52.1512 136.435L50.2111 136.901C50.2111 136.978 50.2111 136.978 50.2111 137.056C50.2111 137.289 50.2111 137.6 50.2887 137.833L52.2288 136.901C52.2288 136.745 52.1512 136.59 52.1512 136.435Z" fill="#343433"/>
<path fill-rule="evenodd" clip-rule="evenodd" d="M57.7388 132.785C57.7388 133.018 57.7388 133.251 57.6612 133.562L58.4373 133.251C58.5149 132.863 58.5925 132.397 58.6701 132.009L57.7388 132.785Z" fill="#343433"/>
<path fill-rule="evenodd" clip-rule="evenodd" d="M54.945 137.6C54.8674 137.677 54.7898 137.677 54.7122 137.755L54.0914 139.23C54.169 139.23 54.169 139.23 54.2466 139.153C54.2466 139.153 54.3242 139.153 54.3242 139.075C54.557 138.92 54.7122 138.842 54.945 138.687L55.1778 137.444C55.1002 137.522 55.0226 137.522 54.945 137.6Z" fill="#343433"/>
<path fill-rule="evenodd" clip-rule="evenodd" d="M52.4616 137.211L50.599 138.299C50.6766 138.454 50.8318 138.609 50.9871 138.764C51.0647 138.842 51.1423 138.842 51.2199 138.92L52.6944 137.522C52.6168 137.444 52.5392 137.289 52.4616 137.211Z" fill="#343433"/>
<path fill-rule="evenodd" clip-rule="evenodd" d="M53.0048 137.755L51.6079 139.153C51.8407 139.231 51.9959 139.308 52.2288 139.308L53.16 137.833C53.16 137.833 53.0824 137.755 53.0048 137.755Z" fill="#343433"/>
<path fill-rule="evenodd" clip-rule="evenodd" d="M53.6256 137.91L52.8495 139.308C53.0047 139.308 53.2376 139.308 53.3928 139.23L54.0136 137.833C53.936 137.91 53.7808 137.988 53.6256 137.91Z" fill="#343433"/>
<path d="M58.5924 119.973L57.9716 122.147C61.3862 121.836 63.0159 125.098 63.0159 129.679C63.0159 130.533 62.9383 131.387 62.7831 132.242L64.2576 131.387C64.3352 130.533 64.4129 129.679 64.4129 128.825C64.5681 123.467 62.6279 119.584 58.5924 119.973Z" fill="#404B4D"/>
<path d="M65.1114 87.5141C65.0338 85.5728 63.8697 84.9516 63.8697 84.9516L30.4991 65.5386L11.9513 76.3322C11.9513 76.3322 7.8382 78.8171 6.98454 82.622L1.16409 101.724V119.895L0.853666 120.05C0.38803 120.283 0 120.982 0 121.526V127.505C0 127.738 0.077606 127.971 0.232818 128.049L32.6721 146.685C32.9825 146.84 34.1466 147.462 35.0779 147.462C36.1644 147.462 37.2509 146.996 37.2509 146.996L45.7099 142.104V134.494C46.7188 131.543 48.4261 128.67 50.5215 126.418L65.1114 118.031V87.5141Z" fill="#E1E8EC"/>
<path opacity="0.5" d="M45.7099 142.103V134.493C46.7187 131.543 48.4261 128.67 50.5214 126.418L65.1114 118.031V87.5916C65.1114 86.8927 64.9562 86.4268 64.7233 86.0386L46.6411 96.3663C46.6411 96.3663 42.528 98.8512 41.6744 102.656L41.4415 102.811L35.8539 121.759V147.306C36.63 147.151 37.2508 146.918 37.2508 146.918L45.7099 142.103Z" fill="#DFE6EA"/>
<path d="M40.3549 118.186C40.1221 119.351 40.6653 119.74 41.5966 118.963L51.6853 110.887C52.6166 110.188 53.3151 108.713 53.3151 107.626V99.8606C53.3151 98.7735 52.539 98.3852 51.6077 98.8511L45.3217 102.345C44.3904 102.889 43.4591 104.287 43.2263 105.374L40.3549 118.186Z" fill="#141C1E"/>
<path d="M52.4617 99.2395C52.3065 99.2395 52.1512 99.3172 51.996 99.3948L45.71 102.889C44.9339 103.355 44.0802 104.597 43.925 105.607L40.8984 118.187C40.8208 118.497 40.8984 118.653 40.8984 118.73C40.976 118.73 41.1312 118.653 41.364 118.497L51.4528 110.421C52.2288 109.8 52.9273 108.48 52.9273 107.626V99.8607C52.8497 99.6278 52.8497 99.2395 52.4617 99.2395Z" fill="#303E42"/>
<path opacity="0.1" d="M55.9537 105.141V98.696C55.9537 97.6089 56.7297 96.3665 57.661 95.8229L62.3174 93.1827C62.8606 92.8721 63.4039 92.8721 63.7143 93.2604C63.4815 92.7945 62.8606 92.6392 62.2398 93.0274L57.5834 95.6676C56.6521 96.2112 55.8761 97.5312 55.8761 98.5407V104.986C55.8761 105.374 55.9537 105.685 56.1865 105.918C55.9537 105.685 55.9537 105.452 55.9537 105.141Z" fill="black"/>
<path opacity="0.5" d="M63.7919 93.8816C63.7919 93.338 63.5591 92.9497 63.2487 92.7944C63.4039 93.0274 63.5591 93.338 63.5591 93.7263V100.171C63.5591 101.259 62.783 102.501 61.8518 103.045L57.1954 105.685C56.7298 105.918 56.3417 105.995 56.0313 105.84C56.3417 106.151 56.8074 106.228 57.4282 105.918L62.0846 103.277C63.0158 102.734 63.7919 101.414 63.7919 100.404V93.8816Z" fill="#D4DBDF"/>
<path d="M41.2863 137.755L40.743 136.823L37.406 138.842C36.0091 139.696 34.0689 138.687 34.0689 138.687L1.16399 119.817L0.853566 119.972C0.387931 120.205 -9.91821e-05 120.904 -9.91821e-05 121.448V127.427C-9.91821e-05 127.66 0.0775068 127.893 0.232719 127.971L32.672 146.685C32.9824 146.84 34.1465 147.461 35.0778 147.461C36.1643 147.461 37.2508 146.995 37.2508 146.995L41.2863 144.666C41.2863 144.588 41.2863 137.832 41.2863 137.755Z" fill="#404B4D"/>
<path d="M41.2863 137.755L40.743 136.823L37.406 138.842C36.0091 139.696 34.0689 138.687 34.0689 138.687L1.16399 119.817L0.853566 119.972C0.387931 120.205 -9.91821e-05 120.904 -9.91821e-05 121.448V127.427C-9.91821e-05 127.66 0.0775068 127.893 0.232719 127.971L32.672 146.685C32.9824 146.84 34.1465 147.461 35.0778 147.461C36.1643 147.461 37.2508 146.995 37.2508 146.995L41.2863 144.666C41.2863 144.588 41.2863 137.832 41.2863 137.755Z" fill="#404B4D"/>
<path d="M40.743 136.823L37.406 138.842C36.0091 139.696 34.0689 138.687 34.0689 138.687L1.16401 119.817L0.853582 119.972C0.543158 120.128 0.31034 120.438 0.155128 120.749L33.7585 140.162C33.7585 140.162 35.6987 141.171 37.0956 140.317L41.1311 137.755L40.743 136.823Z" fill="#5A6567"/>
<path opacity="0.5" d="M48.5813 123.156H48.6589H48.5813L48.038 123.778C45.2442 126.806 42.7608 130.922 41.3639 134.882L40.7431 136.823L41.2863 137.755L42.0624 135.115C43.3817 131.232 45.8651 127.194 48.5813 124.244L49.1245 123.622L65.189 114.382V113.528L48.5813 123.156Z" fill="#D4DBDF"/>
<path d="M41.5966 103.976C41.0534 103.976 40.1997 103.588 40.1997 103.588L6.67394 83.7869L1.24152 101.492L34.5345 120.827C34.5345 120.827 36.1642 121.603 37.1731 120.672C37.6387 120.361 38.1044 119.662 38.2596 119.041L42.0623 104.831C42.2951 104.287 42.0623 103.899 41.5966 103.976Z" fill="#141C1E"/>
<path d="M41.4414 105.529C41.519 105.374 41.4414 105.296 41.4414 105.219H41.3638C40.743 105.219 40.0445 104.908 39.9669 104.83L39.7341 104.675L6.28593 84.9514L1.39675 100.948L34.7673 120.361C34.8449 120.438 35.3882 120.594 35.9314 120.594C36.3194 120.594 36.6299 120.516 36.8627 120.283C37.2507 120.05 37.6387 119.429 37.7939 118.963L41.4414 105.529Z" fill="#303E42"/>
<path d="M41.4414 105.529C41.519 105.374 41.4414 105.296 41.4414 105.219H41.3638C40.743 105.219 40.0445 104.908 39.9669 104.83L39.7341 104.675L6.28593 84.9514L1.39675 100.948L34.7673 120.361C34.8449 120.438 35.3882 120.594 35.9314 120.594C36.3194 120.594 36.6299 120.516 36.8627 120.283C37.2507 120.05 37.6387 119.429 37.7939 118.963L41.4414 105.529Z" fill="#303E42"/>
<path d="M21.652 137.367C21.652 137.677 21.4192 137.755 21.1863 137.677L12.2616 132.552C12.0288 132.397 11.796 132.009 11.796 131.698V130.067C11.796 129.757 12.0288 129.679 12.2616 129.757L21.1863 134.882C21.4192 135.037 21.652 135.425 21.652 135.736V137.367Z" fill="#263133"/>
<path d="M21.1863 137.134L12.3392 132.009V130.145L21.1863 135.27V137.134Z" fill="white"/>
<path d="M37.7163 146.219C37.7163 146.219 36.5522 146.685 35.3881 146.762C34.3792 146.762 33.1376 146.064 32.8271 145.908L0.0774155 126.884V127.582C0.0774155 127.815 0.155021 128.048 0.310233 128.126L32.6719 146.918C32.9823 147.073 34.1464 147.694 35.0777 147.694C36.1642 147.694 37.2507 147.228 37.2507 147.228L41.2862 144.899C41.2862 144.899 41.2862 144.588 41.2862 144.2L37.7163 146.219Z" fill="#333E40"/>
<g opacity="0.2">
<path opacity="0.2" d="M53.6255 116.168C53.6255 116.401 53.4703 116.789 53.2375 116.867L51.5302 117.876C51.2973 118.031 51.1421 117.876 51.1421 117.643V116.245C51.1421 116.013 51.2973 115.624 51.5302 115.547L53.2375 114.537C53.4703 114.382 53.6255 114.537 53.6255 114.77V116.168Z" fill="black"/>
</g>
<path d="M54.0911 114.925C54.0911 115.158 53.9359 115.469 53.7031 115.624L51.0645 117.177C50.8317 117.332 50.6765 117.255 50.6765 116.944C50.6765 116.711 50.8317 116.4 51.0645 116.245L53.7031 114.692C53.8583 114.537 54.0911 114.615 54.0911 114.925Z" fill="#4B5459"/>
<g opacity="0.1">
<path opacity="0.1" d="M39.5791 119.507H39.3462V137.367H39.5791V119.507Z" fill="black"/>
</g>
<g opacity="0.5">
<path opacity="0.5" d="M40.1997 122.069L40.4325 122.302C40.3549 122.224 40.3549 122.147 40.3549 122.147C40.3549 122.147 40.3549 122.147 40.1997 122.069Z" fill="white"/>
<path opacity="0.5" d="M65.1111 104.908L62.9381 106.073L59.9891 107.626L54.1687 110.81L50.6764 113.683L47.2617 116.556L43.8471 119.429L42.1397 120.827L41.2861 121.526L40.8204 121.914L40.5876 122.069L40.51 122.147L40.4324 122.225L40.51 122.147L40.5876 122.069L40.8204 121.914L41.2861 121.603L42.1397 120.905L43.9247 119.507L47.4169 116.789L50.9868 114.071L54.4791 111.353L60.2995 108.247L63.2486 106.694L65.1887 105.607V104.908H65.1111Z" fill="#D4DBDF"/>
</g>
<path opacity="0.1" d="M54.5568 97.5312C54.5568 97.2206 54.324 96.8323 54.0912 96.7547C53.8584 96.5994 53.4704 96.5994 53.1599 96.7547L44.7009 101.647L44.8561 101.88L53.3151 96.9876C53.4704 96.91 53.7808 96.8323 54.0136 96.9876C54.1688 97.0653 54.324 97.3759 54.324 97.6088V124.244L54.5568 124.088V97.5312Z" fill="black"/>
<path opacity="0.1" d="M36.7074 133.329C36.5522 133.173 36.3194 133.173 36.0866 133.251C35.9313 133.329 35.5433 133.406 35.3105 133.406H35.0001C34.7672 133.406 34.4568 133.329 34.224 133.173L29.0244 130.145C28.9468 130.067 28.7916 130.067 28.714 130.067C28.4036 130.067 28.2484 130.3 28.2484 130.611V133.639C28.2484 134.028 28.4812 134.416 28.7916 134.571L33.9912 137.6C34.224 137.755 34.6896 137.91 35.0001 137.91H35.3105C35.6985 137.91 36.0866 137.677 36.3194 137.444L36.397 137.367C36.5522 137.134 36.7074 136.668 36.785 136.357L36.9402 133.795C36.8626 133.562 36.8626 133.406 36.7074 133.329Z" fill="black"/>
<path opacity="0.1" d="M1.16401 118.885L7.37248 122.38C7.45009 122.457 7.6053 122.457 7.68291 122.457C7.83812 122.457 7.99333 122.38 8.07094 122.302C8.14854 122.224 8.22615 122.069 8.22615 121.914V118.808C8.22615 118.42 7.99333 118.031 7.68291 117.876L1.24162 114.226V118.885H1.16401Z" fill="black"/>
<path d="M35.0002 137.677C34.7674 137.677 34.3017 137.6 34.0689 137.444L28.8693 134.416C28.6365 134.261 28.4813 133.95 28.4813 133.717V130.689C28.4813 130.456 28.6365 130.3 28.8693 130.456L34.0689 133.484C34.3017 133.639 34.6898 133.717 35.0002 133.717H35.3106C35.5434 133.717 36.0091 133.639 36.1643 133.484C36.3971 133.406 36.5523 133.484 36.5523 133.795L36.3971 136.357C36.3971 136.59 36.2419 136.978 36.0867 137.211L36.0091 137.289C35.8539 137.522 35.5434 137.677 35.233 137.677H35.0002Z" fill="#F0F0F1"/>
<path d="M1.16401 118.575L7.5277 122.147C7.76052 122.302 7.91573 122.147 7.91573 121.914V118.808C7.91573 118.575 7.76052 118.187 7.5277 118.109L1.16401 114.537V118.575Z" fill="#F0F0F1"/>
<path d="M8.92449 129.912C9.00209 130.223 8.92449 130.378 8.69167 130.222L5.35461 128.281C5.1218 128.126 4.96658 127.815 4.96658 127.582V126.34C4.96658 126.107 5.1218 125.952 5.35461 126.107L7.68279 127.505C7.91561 127.66 8.22603 127.971 8.30364 128.281L8.92449 129.912Z" fill="#4D585A"/>
<path d="M8.30366 128.204C8.22605 127.893 7.91563 127.583 7.68281 127.427L5.82027 126.34V127.272C5.82027 127.505 5.97548 127.893 6.2083 127.971L8.69169 129.369L8.30366 128.204Z" fill="#273234"/>
<path d="M24.1353 138.609C24.0577 138.765 24.1353 138.998 24.3682 139.153L27.7052 141.094C27.938 141.249 28.0932 141.094 28.0932 140.861V139.619C28.0932 139.386 27.938 138.998 27.7052 138.92L25.377 137.522C25.1442 137.367 24.8338 137.444 24.7562 137.6L24.1353 138.609Z" fill="#4D585A"/>
<path d="M27.783 138.92L25.5324 137.6L25.0668 138.298C24.9892 138.454 25.0668 138.687 25.2996 138.842L28.171 140.473V139.619C28.171 139.386 27.9382 138.997 27.783 138.92Z" fill="#273234"/>
<path d="M25.8427 132.009C25.6875 132.63 24.9891 132.863 24.2906 132.475L11.3304 125.02C10.632 124.632 10.0111 123.623 9.77829 122.768L8.76942 119.352C8.6142 118.498 9.00223 118.109 9.62308 118.498L25.9979 127.971C26.6964 128.359 27.0844 129.214 26.8516 129.835L25.8427 132.009Z" fill="#273234"/>
<path d="M8.76942 119.196L26.9292 129.679C27.0068 129.446 26.9292 129.135 26.8516 128.825L8.92463 118.497C8.76942 118.652 8.76942 118.885 8.76942 119.196Z" fill="#404B4D"/>
<path d="M9.15735 120.438L26.5411 130.533L26.8515 129.912L8.84692 119.507L9.15735 120.438Z" fill="#404B4D"/>
<path d="M9.54543 121.836L26.1531 131.465L26.3859 130.844L9.31261 120.904L9.54543 121.836Z" fill="#404B4D"/>
<path d="M9.70078 122.224L9.856 122.69C9.856 122.846 9.9336 123.001 10.0112 123.156L25.7652 132.241C25.8428 132.164 25.8428 132.086 25.9204 131.931L26.0756 131.62L9.70078 122.224Z" fill="#404B4D"/>
<path d="M24.9118 132.164L11.9516 124.709C11.2532 124.321 10.5547 123.312 10.3995 122.457L9.39064 119.041C9.31304 118.73 9.31304 118.497 9.39064 118.342C8.92501 118.187 8.69219 118.575 8.8474 119.274L9.85628 122.69C10.0115 123.545 10.7099 124.554 11.4084 124.942L24.3686 132.397C24.8342 132.708 25.3775 132.63 25.6879 132.397C25.3775 132.397 25.1446 132.319 24.9118 132.164Z" fill="#5A6567"/>
<path d="M31.8183 134.183C31.8183 135.115 31.1198 135.503 30.3438 135.037C29.4901 134.571 28.8693 133.407 28.8693 132.397C28.8693 131.465 29.5677 131.077 30.3438 131.543C31.1198 132.009 31.8183 133.174 31.8183 134.183Z" fill="white"/>
<path d="M7.13947 119.973C7.13947 120.904 6.44102 121.293 5.66496 120.827C4.81129 120.361 4.19044 119.196 4.19044 118.187C4.19044 117.255 4.8889 116.867 5.66496 117.332C6.44102 117.798 7.13947 118.963 7.13947 119.973Z" fill="white"/>
<path d="M34.6121 135.891C34.6121 136.668 34.0688 136.978 33.448 136.59C32.8271 136.202 32.2839 135.27 32.2839 134.493C32.2839 133.717 32.8271 133.406 33.448 133.795C34.0688 134.261 34.6121 135.192 34.6121 135.891Z" fill="white"/>
<path d="M32.5168 142.647C32.5168 143.268 32.0512 143.501 31.5079 143.191C30.9647 142.88 30.4991 142.104 30.4991 141.482C30.4991 140.861 30.9647 140.628 31.5079 140.939C32.0512 141.249 32.5168 142.026 32.5168 142.647Z" fill="#4D585A"/>
<path d="M31.508 140.938C31.2752 141.016 31.12 141.249 31.12 141.56C31.12 142.103 31.508 142.802 32.0513 143.113C32.1289 143.19 32.2065 143.19 32.2841 143.19C32.4393 143.035 32.5169 142.88 32.5169 142.647C32.5169 142.026 32.0513 141.249 31.508 140.938Z" fill="white"/>
<path d="M3.49201 126.418C3.49201 127.039 3.02638 127.272 2.48314 126.961C1.93989 126.651 1.47426 125.874 1.47426 125.253C1.47426 124.632 1.93989 124.399 2.48314 124.709C3.02638 125.02 3.49201 125.797 3.49201 126.418Z" fill="#4D585A"/>
<path d="M2.48289 124.709C2.25008 124.787 2.09486 125.02 2.09486 125.33C2.09486 125.874 2.48289 126.573 3.02614 126.883C3.10374 126.961 3.18135 126.961 3.25895 126.961C3.41417 126.806 3.49177 126.651 3.49177 126.418C3.49177 125.796 3.02614 125.02 2.48289 124.709Z" fill="white"/>
<path d="M3.88016 118.186C3.88016 118.963 3.33692 119.273 2.71607 118.885C2.09522 118.497 1.55198 117.565 1.55198 116.789C1.55198 116.012 2.09522 115.701 2.71607 116.09C3.33692 116.478 3.88016 117.41 3.88016 118.186Z" fill="white"/>
<path d="M36.2419 133.484C36.009 133.561 35.621 133.717 35.3882 133.717H35.0778V137.755H35.3882C35.621 137.755 36.009 137.599 36.1643 137.366L36.2419 137.289C36.3971 137.056 36.5523 136.668 36.5523 136.435L36.7075 133.872C36.6299 133.484 36.4747 133.406 36.2419 133.484Z" fill="#F5911E"/>
<path opacity="0.1" d="M42.6832 124.865C42.6832 125.02 42.528 125.253 42.3728 125.331L41.5191 125.797C41.3639 125.874 41.2087 125.797 41.2087 125.641V125.331C41.2087 125.175 41.3639 124.942 41.5191 124.865L42.3728 124.399C42.528 124.321 42.6832 124.399 42.6832 124.554V124.865Z" fill="black"/>
<path d="M42.6056 124.71C42.6056 124.865 42.4504 125.098 42.2951 125.175L41.4415 125.641C41.2863 125.719 41.1311 125.641 41.1311 125.486V125.175C41.1311 125.02 41.2863 124.787 41.4415 124.71L42.2951 124.244C42.4504 124.166 42.6056 124.244 42.6056 124.399V124.71Z" fill="#F5911E"/>
<path d="M36.6299 125.175C35.8538 125.408 34.8449 124.942 34.8449 124.942L32.7496 123.7V130.378L34.6121 131.465C34.6121 131.465 35.4658 132.241 36.7075 131.853L37.4835 131.387V124.709L36.6299 125.175Z" fill="#D4DBDF"/>
<path opacity="0.5" d="M36.6299 125.563L37.4059 125.097V124.709L36.6299 125.175C35.8538 125.408 34.8449 124.942 34.8449 124.942L32.7496 123.7V124.088L34.8449 125.33C34.7673 125.33 35.8538 125.796 36.6299 125.563Z" fill="#D4DBDF"/>
<path d="M1.16393 104.597V105.219L3.4145 106.539V113.217L0.387871 111.431V105.529C0.465477 105.529 0.620689 104.597 1.16393 104.597Z" fill="#D4DBDF"/>
<g opacity="0.1">
<path opacity="0.1" d="M0.465584 111.12V111.431L3.49222 113.217V112.828L0.465584 111.12Z" fill="black"/>
</g>
<path opacity="0.5" d="M1.16398 105.219V104.597C1.08637 104.597 0.93116 104.597 0.853554 104.675V105.374L3.10413 106.694V113.062L3.33694 113.217V106.539L1.16398 105.219Z" fill="#D4DBDF"/>
<path d="M3.49223 106.539V113.062L32.6721 130.067L32.7497 123.778L3.49223 106.539Z" fill="#5A6567"/>
<g opacity="0.1">
<path opacity="0.1" d="M34.5346 131.155L32.672 130.067V130.3L34.5346 131.387C34.5346 131.387 35.3882 132.164 36.6299 131.776L37.406 131.31V131.077L36.6299 131.543C35.3882 131.931 34.5346 131.155 34.5346 131.155Z" fill="black"/>
</g>
<path d="M3.49223 107.781L32.7497 124.709V124.166L3.49223 107.238V107.781Z" fill="#404B4D"/>
<path d="M3.49223 108.635L32.7497 125.563V125.098L3.49223 108.169V108.635Z" fill="#404B4D"/>
<path d="M3.49223 109.567L32.7497 126.495V125.952L3.49223 109.024V109.567Z" fill="#404B4D"/>
<path d="M3.49223 110.499L32.7497 127.427V126.883L3.49223 109.955V110.499Z" fill="#404B4D"/>
<path d="M3.49223 111.431L32.6721 128.359V127.815L3.49223 110.887V111.431Z" fill="#404B4D"/>
<path d="M3.49223 112.363L32.6721 129.291V128.747L3.49223 111.819V112.363Z" fill="#404B4D"/>
<path d="M32.6721 129.601L3.49223 112.751V113.062L32.6721 130.067V129.601Z" fill="#404B4D"/>
<path d="M7.83799 85.8833L6.13066 95.0463C5.89784 96.211 6.44109 96.5993 7.37236 95.8228L14.8225 89.9212L7.83799 85.8833Z" fill="#C5D0D3"/>
<path d="M6.28583 84.9514L1.47426 100.792L2.40553 100.171C2.87117 99.8606 3.3368 99.1617 3.49201 98.5405L7.06189 85.4173L6.28583 84.9514Z" fill="#C5D0D3"/>
<path d="M20.0222 93.0273L18.7029 96.9876L28.2485 102.423L28.7141 98.23L20.0222 93.0273Z" fill="#3D4B4F"/>
<path d="M28.714 98.23L28.2484 102.423L29.102 102.113L29.49 98.6182L28.714 98.23Z" fill="#233135"/>
<path opacity="0.5" d="M28.2485 102.423L18.7029 96.9875L9.77825 103.2L19.6342 109.101L28.2485 102.423Z" fill="#233135"/>
<path d="M39.1132 104.365L30.4213 99.1619L29.102 103.044L38.6475 108.48L39.1132 104.365Z" fill="#3D4B4F"/>
<path d="M39.8893 104.753L39.7341 104.675L39.1132 104.365L38.6476 108.48L39.5013 108.169L39.8893 104.753Z" fill="#233135"/>
<path opacity="0.5" d="M38.6475 108.48L29.102 103.044L20.1773 109.257L30.0333 115.158L38.6475 108.48Z" fill="#233135"/>
<path d="M47.6499 113.528L49.4349 112.13L50.9094 100.016L45.7874 102.889C45.0113 103.355 44.1577 104.598 44.0025 105.607L42.8384 110.654L47.6499 113.528Z" fill="#3D4B4F"/>
<path d="M49.4348 112.13L50.2885 111.353L51.763 99.6277H51.4526L50.8317 100.016L49.4348 112.13Z" fill="#233135"/>
<path d="M39.6565 108.868L30.7318 115.08L37.7163 119.274C37.7939 119.118 37.7939 119.041 37.8715 118.885L40.4325 109.256L39.6565 108.868Z" fill="#233135"/>
<path opacity="0.5" d="M42.6833 110.654L40.8984 118.264C40.8208 118.575 40.8984 118.73 40.8984 118.808C40.976 118.808 41.1312 118.73 41.364 118.575L47.6501 113.527L42.6833 110.654Z" fill="#233135"/>
<path d="M35.9313 120.671C36.3193 120.671 36.6298 120.594 36.8626 120.361C37.2506 120.128 37.6386 119.507 37.7938 119.041L38.3371 117.099L4.73371 97.531L1.47426 100.948L34.8448 120.361C34.8448 120.438 35.3881 120.671 35.9313 120.671Z" fill="#445459"/>
<path d="M18.7029 100.404C17.5388 98.2301 14.8226 96.3665 12.6496 96.3665C10.4766 96.3665 9.54535 98.1525 10.7094 100.404C11.8735 102.579 14.5897 104.442 16.7627 104.442C18.9357 104.442 19.8669 102.656 18.7029 100.404ZM16.2195 103.355C14.5897 103.355 12.6496 102.035 11.7959 100.404C10.9423 98.7737 11.5631 97.4536 13.1928 97.4536C14.8226 97.4536 16.7627 98.7737 17.6164 100.404C18.47 102.035 17.8492 103.355 16.2195 103.355Z" fill="#3D4B4F"/>
<path d="M6.51876 98.6182L7.60525 97.531C7.60525 97.531 10.7095 97.1428 15.133 99.783C19.5566 102.501 19.9446 104.753 19.9446 104.753L19.4014 105.995C19.4014 105.995 14.5898 105.219 10.5543 103.044C6.44116 100.948 6.51876 98.6182 6.51876 98.6182Z" fill="#3D4B4F"/>
<path opacity="0.2" d="M6.28593 84.9514L1.39675 100.948L10.399 106.15C12.2616 102.423 15.7539 97.6087 22.2728 94.2697L6.28593 84.9514Z" fill="white"/>
<path d="M43.6146 115.391L42.0625 114.459C41.6745 114.226 41.3641 114.382 41.3641 114.848V117.488V118.42V120.128C41.3641 120.594 41.6745 121.137 42.0625 121.293L43.6146 122.225C44.0027 122.457 44.3131 122.302 44.3131 121.836V116.478C44.3131 116.09 44.0027 115.546 43.6146 115.391Z" fill="#DFE6EA"/>
<path d="M43.6146 115.391L42.0625 114.459C41.6745 114.226 41.3641 114.382 41.3641 114.848V117.488V118.42V120.128C41.3641 120.594 41.6745 121.137 42.0625 121.293L43.6146 122.225C44.0027 122.457 44.3131 122.302 44.3131 121.836V116.478C44.3131 116.09 44.0027 115.546 43.6146 115.391Z" fill="#D4DBDF"/>
<path d="M43.6146 115.391L42.0624 114.459C41.752 114.304 41.5192 114.382 41.4416 114.537C41.5192 114.537 41.5968 114.537 41.6744 114.615L43.2265 115.547C43.6146 115.78 43.925 116.323 43.925 116.711V122.069C43.925 122.147 43.925 122.302 43.8474 122.38C44.0802 122.38 44.313 122.225 44.313 121.914V116.556C44.313 116.09 44.0026 115.547 43.6146 115.391Z" fill="#EEF5F9"/>
<path d="M39.7343 116.556V117.954L41.364 118.497V117.488L39.7343 116.556Z" fill="#303E42"/>
<path opacity="0.1" d="M58.9029 84.2527L58.8253 84.175C59.1357 84.408 59.0581 84.7963 58.6701 85.0292L41.1312 95.124C40.6655 95.357 39.8895 95.357 39.4238 95.124L38.9582 94.891C39.0358 94.9687 39.0358 94.9687 39.1134 94.9687L39.6566 95.2793C40.1223 95.5123 40.8983 95.5123 41.364 95.2793L58.9029 85.1845C59.3686 84.9516 59.3686 84.5633 58.9029 84.2527Z" fill="black"/>
<path opacity="0.5" d="M40.1998 95.4344L39.6566 95.1237C39.1909 94.8908 39.1909 94.4249 39.6566 94.1919L57.1955 84.0971C57.4283 83.9418 57.8164 83.8642 58.2044 83.9418C57.7388 83.7865 57.1955 83.8642 56.8075 84.0195L39.2685 94.1143C38.8029 94.3472 38.8029 94.8131 39.2685 95.0461L39.8118 95.3567C39.967 95.4344 40.2774 95.512 40.5102 95.512C40.355 95.512 40.2774 95.512 40.1998 95.4344Z" fill="#D4DBDF"/>
<path opacity="0.1" d="M33.9137 68.9551L33.8361 68.8774C34.1465 69.1104 34.0689 69.4987 33.6809 69.7316L16.142 79.8264C15.6763 80.0594 14.9003 80.0594 14.4346 79.8264L13.969 79.5934C14.0466 79.6711 14.0466 79.6711 14.1242 79.6711L14.6674 79.9817C15.1331 80.2147 15.9091 80.2147 16.3748 79.9817L33.9137 69.8869C34.3793 69.654 34.3793 69.1881 33.9137 68.9551Z" fill="black"/>
<path opacity="0.5" d="M15.133 80.137L14.5898 79.8264C14.1241 79.5934 14.1241 79.1275 14.5898 78.8945L32.1287 68.7998C32.3615 68.6445 32.7496 68.5668 33.1376 68.6445C32.672 68.4892 32.1287 68.5668 31.7407 68.7221L14.2018 78.8169C13.7361 79.0499 13.7361 79.5158 14.2018 79.7487L14.745 80.0593C14.9002 80.137 15.2106 80.2146 15.4434 80.2146C15.2882 80.2146 15.2106 80.137 15.133 80.137Z" fill="#D4DBDF"/>
<path opacity="0.1" d="M39.9669 72.9153L39.8892 72.8376C40.1997 73.0706 40.1221 73.4589 39.734 73.6918L22.1951 83.7866C21.7295 84.0195 20.9534 84.0195 20.4878 83.7866L20.0221 83.5536C20.0997 83.6313 20.0997 83.6313 20.1773 83.6313L20.7206 83.9419C21.1862 84.1749 21.9623 84.1749 22.4279 83.9419L39.9669 73.8471C40.4325 73.6142 40.4325 73.2259 39.9669 72.9153Z" fill="black"/>
<path opacity="0.5" d="M21.1863 84.0972L20.6431 83.7866C20.1774 83.5536 20.1774 83.0877 20.6431 82.8547L38.182 72.76C38.4148 72.6047 38.8029 72.527 39.1909 72.6047C38.7253 72.4494 38.182 72.527 37.794 72.6823L20.255 82.7771C19.7894 83.01 19.7894 83.476 20.255 83.7089L20.7983 84.0195C20.9535 84.0972 21.2639 84.1748 21.4967 84.1748C21.3415 84.1748 21.2639 84.1748 21.1863 84.0972Z" fill="#D4DBDF"/>
<path opacity="0.1" d="M52.0733 80.5252L51.9957 80.4475C52.3061 80.6805 52.2285 81.0687 51.8405 81.3017L34.3015 91.3965C33.8359 91.6294 33.0598 91.6294 32.5942 91.3965L32.1286 91.1635C32.2062 91.2411 32.2062 91.2411 32.2838 91.2411L32.827 91.5518C33.2927 91.7847 34.0687 91.7847 34.5343 91.5518L52.0733 81.5346C52.5389 81.224 52.5389 80.8358 52.0733 80.5252Z" fill="black"/>
<path opacity="0.5" d="M33.2929 91.7073L32.7496 91.3967C32.284 91.1637 32.284 90.6978 32.7496 90.4649L50.2886 80.3701C50.5214 80.2148 50.9094 80.1371 51.2975 80.2148C50.8318 80.0595 50.2886 80.1371 49.9005 80.2924L32.3616 90.3872C31.896 90.6202 31.896 91.0861 32.3616 91.319L32.9048 91.6296C33.0601 91.7073 33.3705 91.7849 33.6033 91.7849C33.4481 91.7849 33.3705 91.7849 33.2929 91.7073Z" fill="#D4DBDF"/>
<path opacity="0.1" d="M46.0977 76.565L46.0201 76.4873C46.3305 76.7203 46.2529 77.1085 45.8649 77.3415L28.3259 87.4363C27.8603 87.6692 27.0842 87.6692 26.6186 87.4363L26.153 87.2033C26.2306 87.281 26.2306 87.281 26.3082 87.281L26.8514 87.5916C27.3171 87.8245 28.0931 87.8245 28.5588 87.5916L46.0977 77.4968C46.5633 77.2638 46.5633 76.8756 46.0977 76.565Z" fill="black"/>
<path opacity="0.5" d="M27.3946 87.7469L26.8514 87.4362C26.3857 87.2033 26.3857 86.7374 26.8514 86.5044L44.3903 76.4096C44.6231 76.2543 45.0112 76.1767 45.3992 76.2543C44.9336 76.099 44.3903 76.1767 44.0023 76.332L26.4633 86.4268C25.9977 86.6597 25.9977 87.1256 26.4633 87.3586L27.0066 87.6692C27.1618 87.7469 27.4722 87.8245 27.705 87.8245C27.5498 87.8245 27.4722 87.8245 27.3946 87.7469Z" fill="#D4DBDF"/>
<defs>
<linearGradient id="paint0_linear" x1="112.135" y1="98.0739" x2="110.246" y2="110.693" gradientUnits="userSpaceOnUse">
<stop stop-color="#F3F5F7"/>
<stop offset="1" stop-color="#999D9E"/>
</linearGradient>
<linearGradient id="paint1_linear" x1="110.161" y1="109.052" x2="111.152" y2="102.914" gradientUnits="userSpaceOnUse">
<stop stop-color="#E6E8EA"/>
<stop offset="1" stop-color="#8C9091"/>
</linearGradient>
<linearGradient id="paint2_linear" x1="110.286" y1="106.163" x2="113.244" y2="98.8648" gradientUnits="userSpaceOnUse">
<stop stop-color="#F3F5F7"/>
<stop offset="1" stop-color="#999D9E"/>
</linearGradient>
<linearGradient id="paint3_linear" x1="111.851" y1="99.0271" x2="109.92" y2="109.031" gradientUnits="userSpaceOnUse">
<stop stop-color="#F3F5F7"/>
<stop offset="1" stop-color="#999D9E"/>
</linearGradient>
<linearGradient id="paint4_linear" x1="111.482" y1="101.066" x2="111.416" y2="109.008" gradientUnits="userSpaceOnUse">
<stop stop-color="#F3F5F7"/>
<stop offset="1" stop-color="#999D9E"/>
</linearGradient>
<linearGradient id="paint5_linear" x1="110.679" y1="100.387" x2="111.355" y2="100.387" gradientUnits="userSpaceOnUse">
<stop stop-color="#8F9193"/>
<stop offset="1" stop-color="#35393A"/>
</linearGradient>
<linearGradient id="paint6_linear" x1="108.021" y1="104.272" x2="108.99" y2="104.272" gradientUnits="userSpaceOnUse">
<stop stop-color="#8F9193"/>
<stop offset="1" stop-color="#35393A"/>
</linearGradient>
<linearGradient id="paint7_linear" x1="108.331" y1="106.23" x2="109.237" y2="106.23" gradientUnits="userSpaceOnUse">
<stop stop-color="#8F9193"/>
<stop offset="1" stop-color="#35393A"/>
</linearGradient>
<linearGradient id="paint8_linear" x1="109.804" y1="106.959" x2="110.292" y2="106.959" gradientUnits="userSpaceOnUse">
<stop stop-color="#8F9193"/>
<stop offset="1" stop-color="#35393A"/>
</linearGradient>
<linearGradient id="paint9_linear" x1="109.069" y1="102.031" x2="109.972" y2="102.031" gradientUnits="userSpaceOnUse">
<stop stop-color="#8F9193"/>
<stop offset="1" stop-color="#35393A"/>
</linearGradient>
<linearGradient id="paint10_linear" x1="112.475" y1="99.8995" x2="113.039" y2="99.8995" gradientUnits="userSpaceOnUse">
<stop stop-color="#8F9193"/>
<stop offset="1" stop-color="#35393A"/>
</linearGradient>
<linearGradient id="paint11_linear" x1="113.619" y1="101.293" x2="114.212" y2="101.293" gradientUnits="userSpaceOnUse">
<stop stop-color="#8F9193"/>
<stop offset="1" stop-color="#35393A"/>
</linearGradient>
<linearGradient id="paint12_linear" x1="113.67" y1="103.11" x2="113.917" y2="103.11" gradientUnits="userSpaceOnUse">
<stop stop-color="#8F9193"/>
<stop offset="1" stop-color="#35393A"/>
</linearGradient>
<linearGradient id="paint13_linear" x1="111.482" y1="106.384" x2="111.718" y2="106.384" gradientUnits="userSpaceOnUse">
<stop stop-color="#8F9193"/>
<stop offset="1" stop-color="#35393A"/>
</linearGradient>
<linearGradient id="paint14_linear" x1="112.963" y1="104.765" x2="113.166" y2="104.765" gradientUnits="userSpaceOnUse">
<stop stop-color="#8F9193"/>
<stop offset="1" stop-color="#35393A"/>
</linearGradient>
<linearGradient id="paint15_linear" x1="112.884" y1="103.305" x2="110.267" y2="104.391" gradientUnits="userSpaceOnUse">
<stop stop-color="#F3F5F7"/>
<stop offset="1" stop-color="#999D9E"/>
</linearGradient>
<linearGradient id="paint16_linear" x1="112.038" y1="102.567" x2="111.017" y2="107.758" gradientUnits="userSpaceOnUse">
<stop stop-color="#F3F5F7"/>
<stop offset="1" stop-color="#999D9E"/>
</linearGradient>
<linearGradient id="paint17_linear" x1="152.496" y1="73.0981" x2="150.607" y2="85.7169" gradientUnits="userSpaceOnUse">
<stop stop-color="#F3F5F7"/>
<stop offset="1" stop-color="#999D9E"/>
</linearGradient>
<linearGradient id="paint18_linear" x1="150.522" y1="84.0761" x2="151.512" y2="77.9379" gradientUnits="userSpaceOnUse">
<stop stop-color="#E6E8EA"/>
<stop offset="1" stop-color="#8C9091"/>
</linearGradient>
<linearGradient id="paint19_linear" x1="150.646" y1="81.1879" x2="153.604" y2="73.8893" gradientUnits="userSpaceOnUse">
<stop stop-color="#F3F5F7"/>
<stop offset="1" stop-color="#999D9E"/>
</linearGradient>
<linearGradient id="paint20_linear" x1="152.212" y1="74.0516" x2="150.281" y2="84.0558" gradientUnits="userSpaceOnUse">
<stop stop-color="#F3F5F7"/>
<stop offset="1" stop-color="#999D9E"/>
</linearGradient>
<linearGradient id="paint21_linear" x1="151.843" y1="76.0904" x2="151.776" y2="84.0324" gradientUnits="userSpaceOnUse">
<stop stop-color="#F3F5F7"/>
<stop offset="1" stop-color="#999D9E"/>
</linearGradient>
<linearGradient id="paint22_linear" x1="151.04" y1="75.4111" x2="151.715" y2="75.4111" gradientUnits="userSpaceOnUse">
<stop stop-color="#8F9193"/>
<stop offset="1" stop-color="#35393A"/>
</linearGradient>
<linearGradient id="paint23_linear" x1="148.381" y1="79.2961" x2="149.351" y2="79.2961" gradientUnits="userSpaceOnUse">
<stop stop-color="#8F9193"/>
<stop offset="1" stop-color="#35393A"/>
</linearGradient>
<linearGradient id="paint24_linear" x1="148.691" y1="81.2541" x2="149.598" y2="81.2541" gradientUnits="userSpaceOnUse">
<stop stop-color="#8F9193"/>
<stop offset="1" stop-color="#35393A"/>
</linearGradient>
<linearGradient id="paint25_linear" x1="150.165" y1="81.9833" x2="150.653" y2="81.9833" gradientUnits="userSpaceOnUse">
<stop stop-color="#8F9193"/>
<stop offset="1" stop-color="#35393A"/>
</linearGradient>
<linearGradient id="paint26_linear" x1="149.43" y1="77.0551" x2="150.333" y2="77.0551" gradientUnits="userSpaceOnUse">
<stop stop-color="#8F9193"/>
<stop offset="1" stop-color="#35393A"/>
</linearGradient>
<linearGradient id="paint27_linear" x1="152.835" y1="74.9236" x2="153.399" y2="74.9236" gradientUnits="userSpaceOnUse">
<stop stop-color="#8F9193"/>
<stop offset="1" stop-color="#35393A"/>
</linearGradient>
<linearGradient id="paint28_linear" x1="153.98" y1="76.3174" x2="154.572" y2="76.3174" gradientUnits="userSpaceOnUse">
<stop stop-color="#8F9193"/>
<stop offset="1" stop-color="#35393A"/>
</linearGradient>
<linearGradient id="paint29_linear" x1="154.031" y1="78.1347" x2="154.278" y2="78.1347" gradientUnits="userSpaceOnUse">
<stop stop-color="#8F9193"/>
<stop offset="1" stop-color="#35393A"/>
</linearGradient>
<linearGradient id="paint30_linear" x1="151.842" y1="81.4087" x2="152.078" y2="81.4087" gradientUnits="userSpaceOnUse">
<stop stop-color="#8F9193"/>
<stop offset="1" stop-color="#35393A"/>
</linearGradient>
<linearGradient id="paint31_linear" x1="153.323" y1="79.7888" x2="153.526" y2="79.7888" gradientUnits="userSpaceOnUse">
<stop stop-color="#8F9193"/>
<stop offset="1" stop-color="#35393A"/>
</linearGradient>
<linearGradient id="paint32_linear" x1="153.244" y1="78.3292" x2="150.628" y2="79.415" gradientUnits="userSpaceOnUse">
<stop stop-color="#F3F5F7"/>
<stop offset="1" stop-color="#999D9E"/>
</linearGradient>
<linearGradient id="paint33_linear" x1="152.399" y1="77.5917" x2="151.378" y2="82.7826" gradientUnits="userSpaceOnUse">
<stop stop-color="#F3F5F7"/>
<stop offset="1" stop-color="#999D9E"/>
</linearGradient>
<linearGradient id="paint34_linear" x1="135.869" y1="59.8837" x2="139.189" y2="54.1363" gradientUnits="userSpaceOnUse">
<stop offset="0.1021" stop-color="#3B4447"/>
<stop offset="1" stop-color="#081114"/>
</linearGradient>
<linearGradient id="paint35_linear" x1="136.165" y1="57.7548" x2="137.218" y2="55.9328" gradientUnits="userSpaceOnUse">
<stop offset="0.1021" stop-color="#626B6E"/>
<stop offset="1" stop-color="#2E373A"/>
</linearGradient>
<linearGradient id="paint36_linear" x1="153.507" y1="66.8607" x2="153.507" y2="75.7809" gradientUnits="userSpaceOnUse">
<stop offset="0.1021" stop-color="#3B4447"/>
<stop offset="1" stop-color="#081114"/>
</linearGradient>
<linearGradient id="paint37_linear" x1="136.17" y1="50.7319" x2="131.184" y2="59.3628" gradientUnits="userSpaceOnUse">
<stop offset="0.1021" stop-color="#3B4447"/>
<stop offset="1" stop-color="#081114"/>
</linearGradient>
<linearGradient id="paint38_linear" x1="155.363" y1="59.9566" x2="155.363" y2="74.9418" gradientUnits="userSpaceOnUse">
<stop offset="0.1021" stop-color="#3B4447"/>
<stop offset="1" stop-color="#081114"/>
</linearGradient>
</defs>
</svg>
