<svg width="162" height="153" viewBox="0 0 162 153" fill="none" xmlns="../../../www.w3.org/2000/svg.html">
<path opacity="0.1" d="M3.2067 122L107.707 61.6001L161.307 92.5001L82.5067 138L78.1067 135.5L50.8067 151.3C45.1067 154 36.2067 150.5 30.3067 147.2L5.3067 132.8C-1.0933 128.9 -1.5933 124.7 3.2067 122Z" fill="black"/>
<path d="M148.307 77.6L63.6067 126.5V116.2L148.307 67.3V77.6Z" fill="#1E1E1E"/>
<path d="M125.807 52.1001L41.0067 101L63.6067 116.2L148.307 67.3001L125.807 52.1001Z" fill="#3B4447"/>
<path d="M143.507 85.9L142.907 87.6L134.407 82.8L136.007 79.5L141.107 81.6L143.507 85.9Z" fill="#1E1E1E"/>
<path d="M139.307 83.5L132.907 79.7C131.507 78.9 129.507 79 127.307 80.3C122.907 82.8 119.407 88.9 119.407 94C119.407 96.5 120.307 98.3 121.707 99.1L128.107 102.9C129.507 103.7 131.507 103.6 133.707 102.3C138.107 99.8 141.607 93.7 141.607 88.6C141.607 86.1 140.707 84.4 139.307 83.5Z" fill="#2E373A"/>
<path d="M141.607 88.6999C141.607 93.6999 138.107 99.8999 133.707 102.4C131.507 103.7 129.607 103.8 128.107 103C126.707 102.2 125.807 100.4 125.807 97.8999C125.807 92.8999 129.307 86.6999 133.707 84.1999C135.907 82.8999 137.807 82.7999 139.307 83.5999C140.707 84.3999 141.607 86.0999 141.607 88.6999Z" fill="#555E61"/>
<path d="M141.107 89.2C141.107 93.8 137.907 99.4 133.907 101.7C129.907 104 126.707 102.1 126.707 97.5C126.707 92.9 129.907 87.3 133.907 85C137.907 82.8 141.107 84.7 141.107 89.2Z" fill="#3B4447"/>
<path d="M138.807 90.4999C138.807 93.5999 136.607 97.2999 134.007 98.8999C131.307 100.4 129.207 99.1999 129.207 96.0999C129.207 92.9999 131.407 89.2999 134.007 87.6999C136.607 86.0999 138.807 87.3999 138.807 90.4999Z" fill="url(#paint0_linear)"/>
<path d="M137.807 90.7001C137.807 93.3001 135.907 96.6001 133.607 97.9001C131.307 99.2001 129.507 98.1001 129.507 95.5001C129.507 92.9001 131.407 89.6001 133.607 88.3001C135.907 86.9001 137.807 88.0001 137.807 90.7001Z" fill="url(#paint1_linear)"/>
<path d="M133.907 88.0999C133.707 88.1999 133.407 88.3999 133.207 88.5999C133.307 88.4999 133.507 88.3999 133.607 88.2999C135.907 86.9999 137.807 87.9999 137.807 90.6999C137.807 93.2999 135.907 96.5999 133.607 97.8999C131.307 99.1999 129.507 98.0999 129.507 95.4999C129.507 95.1999 129.507 94.8999 129.607 94.4999C129.507 94.9999 129.507 95.3999 129.507 95.8999C129.507 98.7999 131.507 99.8999 134.007 98.4999C136.507 97.0999 138.507 93.5999 138.507 90.6999C138.407 87.7999 136.407 86.5999 133.907 88.0999Z" fill="url(#paint2_linear)"/>
<path d="M137.507 90.7999C137.507 93.2999 135.707 96.3999 133.507 97.6999C131.307 98.9999 129.507 97.8999 129.507 95.3999C129.507 92.8999 131.307 89.7999 133.507 88.4999C135.807 87.1999 137.507 88.1999 137.507 90.7999Z" fill="url(#paint3_linear)"/>
<path d="M136.807 92C136.807 93.7 135.607 95.8 134.107 96.7C132.607 97.6 131.407 96.9 131.407 95.1C131.407 93.4 132.607 91.3 134.107 90.4C135.607 89.6 136.807 90.3 136.807 92Z" fill="url(#paint4_linear)"/>
<path d="M133.907 89.5C134.007 89.8 133.907 90.1 133.707 90.2C133.507 90.3 133.307 90 133.207 89.7C133.107 89.4 133.207 89.1 133.507 89C133.607 89 133.807 89.2 133.907 89.5Z" fill="url(#paint5_linear)"/>
<path d="M130.507 94C130.807 94 131.107 94.3 131.007 94.5C131.007 94.7 130.707 94.9 130.407 94.8C130.107 94.7 129.807 94.5 129.907 94.3C129.907 94.1 130.207 93.9 130.507 94Z" fill="url(#paint6_linear)"/>
<path d="M130.707 96.5C131.007 96.4 131.307 96.4 131.407 96.5C131.507 96.6 131.307 96.9 131.007 97C130.707 97.1 130.407 97.1 130.307 97C130.207 96.8 130.407 96.6 130.707 96.5Z" fill="url(#paint7_linear)"/>
<path d="M132.207 97.5C132.307 97.3 132.507 97.2 132.607 97.2C132.707 97.3 132.707 97.5 132.607 97.7C132.507 97.9 132.307 98 132.207 98C132.007 97.9 132.007 97.7 132.207 97.5Z" fill="url(#paint8_linear)"/>
<path d="M132.007 91.2999C132.307 91.4999 132.407 91.7999 132.307 91.9999C132.207 92.1999 131.807 92.1999 131.607 91.9999C131.307 91.7999 131.207 91.4999 131.307 91.2999C131.407 91.0999 131.707 91.0999 132.007 91.2999Z" fill="url(#paint9_linear)"/>
<path d="M136.007 89.1C136.007 89.4 135.807 89.7 135.607 89.7C135.407 89.7 135.307 89.4 135.307 89.1C135.307 88.8 135.507 88.5 135.707 88.5C135.907 88.5 136.007 88.7 136.007 89.1Z" fill="url(#paint10_linear)"/>
<path d="M137.207 90.9001C137.007 91.0001 136.807 91.0001 136.707 90.9001C136.607 90.8001 136.707 90.6 136.907 90.5C137.107 90.4 137.307 90.4 137.407 90.5C137.507 90.6 137.407 90.8001 137.207 90.9001Z" fill="url(#paint11_linear)"/>
<path d="M136.907 93.2C136.807 93.2 136.807 93.1 136.807 93C136.807 92.9 136.907 92.8 137.007 92.8C137.107 92.8 137.107 92.9 137.107 93C137.007 93.1 136.907 93.2 136.907 93.2Z" fill="url(#paint12_linear)"/>
<path d="M134.307 97.1C134.207 97.1 134.107 97.1 134.107 97C134.107 96.9 134.107 96.8 134.207 96.8C134.307 96.8 134.407 96.8 134.407 96.9C134.407 97 134.407 97.1 134.307 97.1Z" fill="url(#paint13_linear)"/>
<path d="M136.107 95.0001C136.107 95.1001 136.007 95.1001 135.907 95.0001C135.807 95.0001 135.807 94.9001 135.907 94.8001C135.907 94.7001 136.007 94.7001 136.107 94.8001C136.207 94.9001 136.207 95.0001 136.107 95.0001Z" fill="url(#paint14_linear)"/>
<path d="M135.807 92.8999C135.807 93.8999 135.107 95.1999 134.207 95.6999C133.307 96.1999 132.607 95.7999 132.607 94.7999C132.607 93.7999 133.307 92.4999 134.207 91.9999C135.107 91.4999 135.807 91.8999 135.807 92.8999Z" fill="url(#paint15_linear)"/>
<path d="M136.007 93.0999C136.007 94.0999 135.307 95.2999 134.507 95.7999C133.607 96.2999 133.007 95.8999 133.007 94.8999C133.007 93.8999 133.707 92.6999 134.507 92.1999C135.307 91.6999 136.007 92.0999 136.007 93.0999Z" fill="url(#paint16_linear)"/>
<path d="M140.607 79.5L132.907 74.8C131.007 74.1 128.507 74.4 125.807 75.9C119.707 79.4 114.807 88 114.807 95L122.207 99.5L123.507 98.7C123.507 92.5 127.807 85 133.207 81.9C138.507 78.8 142.907 81.3 142.907 87.5L144.207 86.7C144.207 83.1 142.807 80.6 140.607 79.5Z" fill="#485154"/>
<path d="M123.507 98.8C123.507 92.6 127.807 85.1 133.207 82C138.507 78.9 142.907 81.4 142.907 87.6L144.207 86.8C144.207 79.8 139.307 76.9 133.207 80.4C127.107 83.9 122.207 92.5 122.207 99.5L123.507 98.8Z" fill="#3B4447"/>
<path d="M70.2067 126.5L66.0067 125.6L62.4067 119.7L67.5067 119.1L70.2067 126.5Z" fill="#1E1E1E"/>
<path d="M66.8067 122.4L60.4067 118.6C59.0067 117.8 57.0067 117.9 54.8067 119.2C50.4067 121.7 46.9067 127.8 46.9067 132.9C46.9067 135.4 47.8067 137.2 49.2067 138L55.6067 141.8C57.0067 142.6 59.0067 142.5 61.2067 141.2C65.6067 138.7 69.1067 132.6 69.1067 127.5C69.1067 125 68.3067 123.2 66.8067 122.4Z" fill="#2E373A"/>
<path d="M69.1067 127.5C69.1067 132.5 65.6067 138.7 61.2067 141.2C59.0067 142.5 57.1067 142.6 55.6067 141.8C54.2067 141 53.3067 139.2 53.3067 136.7C53.3067 131.7 56.8067 125.5 61.2067 123C63.4067 121.7 65.3067 121.6 66.8067 122.4C68.3067 123.2 69.1067 125 69.1067 127.5Z" fill="#555E61"/>
<path d="M68.7067 128.1C68.7067 132.7 65.5067 138.3 61.5067 140.6C57.5067 142.9 54.3067 141 54.3067 136.4C54.3067 131.8 57.5067 126.2 61.5067 123.9C65.4067 121.6 68.7067 123.5 68.7067 128.1Z" fill="#3B4447"/>
<path d="M66.3067 129.3C66.3067 132.4 64.1067 136.1 61.5067 137.7C58.8067 139.2 56.7067 138 56.7067 134.9C56.7067 131.8 58.9067 128.1 61.5067 126.5C64.1067 125 66.3067 126.2 66.3067 129.3Z" fill="url(#paint17_linear)"/>
<path d="M65.3067 129.5C65.3067 132.1 63.4067 135.4 61.2067 136.7C58.9067 138 57.0067 137 57.0067 134.3C57.0067 131.7 58.9067 128.4 61.2067 127.1C63.5067 125.8 65.3067 126.8 65.3067 129.5Z" fill="url(#paint18_linear)"/>
<path d="M61.5067 126.9C61.3067 127 61.0067 127.2 60.8067 127.4C60.9067 127.3 61.1067 127.2 61.2067 127.1C63.5067 125.8 65.3067 126.8 65.3067 129.5C65.3067 132.1 63.4067 135.4 61.2067 136.7C58.9067 138 57.0067 137 57.0067 134.3C57.0067 134 57.0067 133.7 57.1067 133.3C57.0067 133.8 57.0067 134.2 57.0067 134.7C57.0067 137.6 59.0067 138.7 61.5067 137.3C64.0067 135.9 66.0067 132.4 66.0067 129.5C66.0067 126.6 64.0067 125.4 61.5067 126.9Z" fill="url(#paint19_linear)"/>
<path d="M65.1067 129.6C65.1067 132.1 63.3067 135.2 61.1067 136.5C58.9067 137.8 57.1067 136.7 57.1067 134.2C57.1067 131.7 58.9067 128.6 61.1067 127.3C63.3067 126 65.1067 127.1 65.1067 129.6Z" fill="url(#paint20_linear)"/>
<path d="M64.3067 130.9C64.3067 132.6 63.1067 134.7 61.6067 135.6C60.1067 136.5 58.9067 135.8 58.9067 134C58.9067 132.3 60.1067 130.2 61.6067 129.3C63.1067 128.4 64.3067 129.1 64.3067 130.9Z" fill="url(#paint21_linear)"/>
<path d="M61.5067 128.4C61.6067 128.7 61.5067 129 61.2067 129.1C61.0067 129.2 60.8067 128.9 60.7067 128.6C60.6067 128.3 60.7067 128 60.9067 127.9C61.2067 127.8 61.4067 128.1 61.5067 128.4Z" fill="url(#paint22_linear)"/>
<path d="M58.1067 132.8C58.4067 132.8 58.7067 133.1 58.6067 133.3C58.6067 133.5 58.3067 133.7 58.0067 133.6C57.7067 133.6 57.4067 133.3 57.5067 133.1C57.5067 132.9 57.8067 132.7 58.1067 132.8Z" fill="url(#paint23_linear)"/>
<path d="M58.2067 135.3C58.5067 135.2 58.8067 135.2 58.9067 135.3C59.0067 135.4 58.8067 135.7 58.5067 135.8C58.2067 135.9 57.9067 135.9 57.8067 135.8C57.8067 135.7 57.9067 135.4 58.2067 135.3Z" fill="url(#paint24_linear)"/>
<path d="M59.7067 136.3C59.8067 136.1 60.0067 136 60.1067 136C60.2067 136.1 60.2067 136.3 60.1067 136.5C60.0067 136.7 59.8067 136.8 59.7067 136.8C59.6067 136.8 59.6067 136.5 59.7067 136.3Z" fill="url(#paint25_linear)"/>
<path d="M59.5067 130.1C59.8067 130.3 59.9067 130.6 59.8067 130.8C59.7067 131 59.3067 131 59.1067 130.8C58.8067 130.6 58.7067 130.3 58.8067 130.1C58.9067 129.9 59.2067 129.9 59.5067 130.1Z" fill="url(#paint26_linear)"/>
<path d="M63.5067 127.9C63.5067 128.2 63.3067 128.5 63.1067 128.5C62.9067 128.5 62.8067 128.2 62.8067 127.9C62.8067 127.6 63.0067 127.3 63.2067 127.3C63.4067 127.3 63.5067 127.6 63.5067 127.9Z" fill="url(#paint27_linear)"/>
<path d="M64.7067 129.8C64.5067 129.9 64.3067 129.9 64.2067 129.8C64.1067 129.7 64.2067 129.5 64.4067 129.4C64.6067 129.3 64.8067 129.3 64.9067 129.4C65.0067 129.5 64.9067 129.6 64.7067 129.8Z" fill="url(#paint28_linear)"/>
<path d="M64.4067 132C64.3067 132 64.3067 131.9 64.3067 131.8C64.3067 131.7 64.4067 131.6 64.5067 131.6C64.6067 131.6 64.6067 131.7 64.6067 131.8C64.6067 131.9 64.5067 132 64.4067 132Z" fill="url(#paint29_linear)"/>
<path d="M61.8067 135.9C61.7067 135.9 61.6067 135.9 61.6067 135.8C61.6067 135.7 61.6067 135.6 61.7067 135.6C61.8067 135.6 61.9067 135.6 61.9067 135.7C61.9067 135.8 61.9067 135.9 61.8067 135.9Z" fill="url(#paint30_linear)"/>
<path d="M63.7067 133.8C63.7067 133.9 63.6067 133.9 63.5067 133.8C63.4067 133.8 63.4067 133.7 63.5067 133.6C63.5067 133.5 63.6067 133.5 63.7067 133.6C63.7067 133.7 63.7067 133.8 63.7067 133.8Z" fill="url(#paint31_linear)"/>
<path d="M63.4067 131.7C63.4067 132.7 62.7067 134 61.8067 134.5C60.9067 135 60.2067 134.6 60.2067 133.6C60.2067 132.6 60.9067 131.3 61.8067 130.8C62.7067 130.3 63.4067 130.7 63.4067 131.7Z" fill="url(#paint32_linear)"/>
<path d="M63.5067 131.9C63.5067 132.9 62.8067 134.1 62.0067 134.6C61.1067 135.1 60.5067 134.7 60.5067 133.7C60.5067 132.7 61.2067 131.5 62.0067 131C62.8067 130.5 63.5067 130.9 63.5067 131.9Z" fill="url(#paint33_linear)"/>
<path d="M69.6067 127.1C69.6067 127.1 69.4067 118.3 63.4067 120.4C57.4067 122.5 52.8067 131.8 52.8067 131.8L53.4067 124.9L62.3067 118.5C62.3067 118.5 67.7067 116 69.2067 119.6C70.6067 123.1 70.5067 126.6 70.5067 126.6L69.6067 127.1Z" fill="url(#paint34_linear)"/>
<path d="M85.6067 109.3L87.4067 113.5V114.9L89.0067 114V113.2L87.0067 108.5L85.6067 109.3Z" fill="#8897A0"/>
<path d="M120.507 98.5001V97.4001L119.207 96.6001L79.8067 119.3V122.8L80.8067 123.4L120.207 100.6V99.7001L120.007 99.6001V98.8001L120.507 98.5001Z" fill="#8897A0"/>
<path opacity="0.2" d="M81.1067 121.2L80.6067 121V122.3L120.007 99.6V98.8L81.1067 121.2Z" fill="#8897A0"/>
<path opacity="0.5" d="M119.207 96.6001L79.8067 119.3L81.1067 120.1L120.507 97.4001L119.207 96.6001Z" fill="white"/>
<path opacity="0.2" d="M120.207 99.7001L80.8067 122.5L80.6067 122.3L120.007 99.6001L120.207 99.7001Z" fill="white"/>
<path d="M108.707 96.0001L110.607 100.1V101.5L112.207 100.6V99.9001L110.207 95.1001L108.707 96.0001Z" fill="#8897A0"/>
<path opacity="0.5" d="M108.707 96L110.607 100.1V101.5L111.407 101.1V100.1L109.407 95.5L108.707 96Z" fill="#8897A0"/>
<path opacity="0.5" d="M85.6067 109.3L87.4067 113.5V114.9L88.2067 114.4V113.5L86.3067 108.9L85.6067 109.3Z" fill="#8897A0"/>
<path d="M35.9067 37.6L101.207 0L148.607 28.1V74.9L80.3067 113.9L35.9067 88.3V37.6Z" fill="#1490C9"/>
<path d="M148.607 28.1001L80.3067 63.3001V113.9L148.607 74.9001V28.1001Z" fill="#1382A8"/>
<path d="M35.9067 37.6001V88.3001L80.2067 113.9V63.3001L35.9067 37.6001Z" fill="#126075"/>
<path d="M67.0067 80.4C68.6067 82 70.0067 83.2 70.6067 89.5C71.2067 95.8 71.3067 105.3 71.2067 109L70.8067 109.8L71.1067 110.5V114.8C71.1067 114.8 62.1067 119.3 58.9067 122.2C55.8067 125.1 52.9067 130 52.4067 134L44.4067 138.5L44.2067 139.4C44.2067 139.4 42.1067 141 40.2067 141C38.3067 141 35.9067 140.8 29.4067 137.3C22.9067 133.8 10.6067 126.3 8.7067 124.8C6.8067 123.3 3.9067 121.2 3.5067 118C3.1067 114.7 3.7067 112.4 3.7067 112.4C3.7067 112.4 3.5067 106.6 4.2067 105.7C4.2067 105.7 4.2067 99.9 4.1067 99.3C4.0067 98.7 5.2067 94.2 5.2067 94.2C5.2067 94.2 6.3067 89.9 7.2067 87.2C8.1067 84.4 11.6067 77.1 12.8067 74.8C14.0067 72.5 16.3067 70.9 17.9067 69.8C19.6067 68.7 30.1067 62.6 31.5067 61.9C32.9067 61.2 34.5067 61 37.4067 62.3C40.3067 63.6 48.9067 68.4 52.3067 70.5C55.7067 72.7 65.6067 79 67.0067 80.4Z" fill="#E1E8EC"/>
<path opacity="0.1" d="M70.7067 109.8L71.1067 109C71.3067 105.3 71.1067 95.7999 70.5067 89.4999C70.2067 86.1999 69.6067 84.2999 69.0067 82.9999C68.6067 82.8999 68.1067 82.9999 67.5067 83.2999C65.5067 84.3999 57.8067 89.1999 55.5067 90.6999C53.2067 92.0999 49.8067 94.2999 49.1067 96.2999C48.4067 98.2999 44.8067 113 44.3067 115C43.8067 117 43.1067 119.9 42.1067 121C41.1067 122.1 35.0067 122.1 32.4067 120.7C29.8067 119.3 13.7067 110.2 10.6067 108C8.3067 106.3 5.8067 103.4 4.1067 101.7C4.1067 103.6 4.1067 105.9 4.1067 105.9C3.3067 106.9 3.6067 112.6 3.6067 112.6C3.6067 112.6 3.0067 114.8 3.5067 118C3.9067 121.3 6.8067 123.4 8.7067 124.8C10.6067 126.3 22.8067 133.8 29.4067 137.3C35.9067 140.8 38.3067 141 40.2067 141C42.1067 141 44.2067 139.4 44.2067 139.4L44.4067 138.5L52.4067 134C52.9067 130 55.8067 125.1 58.9067 122.2C62.0067 119.3 71.1067 114.8 71.1067 114.8V110.5C69.5067 111.4 60.0067 117.5 58.0067 119.5C56.0067 121.6 44.5067 134 44.5067 134L44.3067 133.3C44.3067 133.3 56.0067 120.7 58.0067 118.6C60.0067 116.6 69.1067 110.7 70.7067 109.8ZM44.1067 122.7V121.8L46.5067 119.5L65.6067 94.0999C65.6067 93.9999 66.7067 88.1999 67.3067 88.4999C67.9067 88.7999 68.4067 95.5999 68.3067 97.4999C68.2067 99.3999 67.2067 100.4 65.9067 102.1C64.6067 103.8 58.9067 109.4 56.3067 112C53.9067 114.4 44.1067 122.7 44.1067 122.7Z" fill="black"/>
<path opacity="0.1" d="M69.1067 82.9999C68.7067 82.8999 68.2067 82.9999 67.6067 83.2999C65.6067 84.3999 57.9067 89.1999 55.6067 90.6999C53.3067 92.0999 49.9067 94.2999 49.2067 96.2999C48.5067 98.2999 44.9067 113 44.4067 115C43.9067 117 43.2067 119.9 42.2067 121C41.2067 122.1 35.1067 122.1 32.5067 120.7C29.9067 119.3 13.8067 110.2 10.7067 108C8.4067 106.3 5.9067 103.4 4.2067 101.7C4.2067 103.6 4.2067 105.9 4.2067 105.9C3.4067 106.9 3.7067 112.6 3.7067 112.6C3.7067 112.6 3.0067 114.8 3.5067 118C3.9067 121.3 6.8067 123.4 8.7067 124.8C10.6067 126.3 22.8067 133.8 29.4067 137.3C35.9067 140.8 38.3067 141 40.2067 141C42.1067 141 44.2067 139.4 44.2067 139.4L44.4067 138.5L52.4067 134C52.9067 130 55.8067 125.1 58.9067 122.2C62.0067 119.3 71.1067 114.8 71.1067 114.8V110.5L70.8067 109.8L71.2067 109C71.4067 105.3 71.2067 95.7999 70.6067 89.4999C70.3067 86.1999 69.7067 84.2999 69.1067 82.9999Z" fill="url(#paint35_linear)"/>
<path opacity="0.2" d="M57.9067 118.3C55.9067 120.4 44.2067 133 44.2067 133V133.4C44.2067 133.4 55.9067 120.8 57.9067 118.7C59.9067 116.6 69.1067 110.7 70.7067 109.8L71.0067 109.2C69.4067 110.1 60.0067 116.2 57.9067 118.3Z" fill="black"/>
<path opacity="0.2" d="M46.5067 119.1L44.1067 121.2L44.2067 121.8L46.6067 119.5L46.5067 119.1Z" fill="black"/>
<path opacity="0.1" d="M52.9067 131.7L44.2067 136.5L44.4067 138.5L52.4067 134C52.4067 133.3 52.6067 132.5 52.9067 131.7Z" fill="black"/>
<g opacity="0.1">
<path opacity="0.1" d="M12.8067 74.8C11.6067 77.1 8.1067 84.4 7.2067 87.2C6.3067 90 5.2067 94.2 5.2067 94.2C5.2067 94.2 4.0067 98.7 4.1067 99.3C4.1067 99.5 4.1067 100.5 4.2067 101.6C5.9067 103.4 8.5067 106.3 10.7067 107.9C13.8067 110.2 29.8067 119.2 32.5067 120.6C35.1067 122 41.2067 122.1 42.2067 120.9C43.2067 119.8 44.0067 116.8 44.4067 114.9C44.9067 112.9 48.5067 98.3 49.2067 96.2C49.6067 95.1 50.8067 93.9 52.2067 92.8L16.4067 70.8C15.1067 71.9 13.7067 73.1 12.8067 74.8Z" fill="url(#paint36_linear)"/>
<path opacity="0.1" d="M4.20671 102.4V102.3C4.10671 102.3 4.10671 102.3 4.20671 102.4Z" fill="url(#paint37_linear)"/>
</g>
<g opacity="0.2">
<path opacity="0.2" d="M44.2067 133.1H44.1067V120C44.1067 120 46.6067 108.8 47.1067 106.8C47.5067 105.2 49.1067 98.6 49.6067 97.7C50.1067 96.8 53.2067 94.4 54.7067 93.7C55.9067 93.1 59.5067 91.0001 61.9067 89.6001C62.5067 89.2001 63.0067 88.9 63.4067 88.7C63.7067 88.5 63.9067 88.4 64.2067 88.2C65.5067 87.4 66.9067 86.5001 67.8067 86.8001C68.1067 86.9001 68.3067 87.0001 68.4067 87.3001C69.1067 88.7001 69.6067 92.1001 69.8067 96.3001C70.0067 100.7 70.2067 108.4 69.8067 110L69.6067 110.6L69.8067 111.3L67.3067 116.9L67.2067 116.8L69.7067 111.3L69.5067 110.6L69.7067 109.9C70.0067 108.4 69.9067 100.6 69.7067 96.3001C69.5067 92.1001 69.0067 88.7001 68.3067 87.3001C68.2067 87.1001 68.0067 86.9001 67.8067 86.9001C67.0067 86.7001 65.6067 87.5001 64.3067 88.3001C64.0067 88.5001 63.7067 88.6001 63.5067 88.8001C63.1067 89.0001 62.6067 89.3 62.0067 89.7C59.6067 91.1 56.0067 93.3001 54.8067 93.9001C53.3067 94.6001 50.3067 97.0001 49.8067 97.9001C49.3067 98.7001 47.7067 105.1 47.3067 107C46.8067 109 44.3067 120.2 44.3067 120.2L44.2067 133.1Z" fill="black"/>
</g>
<g opacity="0.2">
<path opacity="0.2" d="M37.4067 122.7H37.3067V129H37.4067V122.7Z" fill="black"/>
</g>
<g opacity="0.2">
<path opacity="0.2" d="M6.4067 104.9H6.3067V111.4H6.4067V104.9Z" fill="black"/>
</g>
<g opacity="0.2">
<path opacity="0.2" d="M38.5133 115.227L33.4518 120.206L33.5219 120.277L38.5835 115.298L38.5133 115.227Z" fill="black"/>
</g>
<g opacity="0.2">
<path opacity="0.2" d="M7.3067 104.2L6.7067 96H6.8067L7.5067 104.2H7.3067Z" fill="black"/>
</g>
<path d="M46.6067 95C45.1067 94.2 33.4067 87.6 28.7067 84.8C24.0067 82 15.7067 76.6 14.2067 75.6C13.5067 75.2 12.8067 75.3 12.3067 75.6C10.8067 78.5 8.0067 84.6 7.1067 87.1C6.2067 89.7 5.2067 93.7 5.1067 94.1C5.3067 95.1 5.8067 96.2 6.5067 96.9C7.5067 97.9 10.9067 101.3 20.0067 106.8C29.1067 112.3 37.3067 116 40.3067 116C43.3067 116 43.7067 114.5 44.1067 113.3C44.4067 112 46.8067 101.9 47.5067 99.2C48.4067 96.5 47.4067 95.5 46.6067 95Z" fill="#141C1E"/>
<path d="M40.4067 115.3C37.9067 115.3 30.3067 112.2 20.5067 106.3C12.1067 101.2 8.6067 97.9 7.4067 96.7L7.2067 96.5C6.7067 96 6.2067 95.2 6.0067 94.3C6.2067 93.5 7.2067 89.9 8.0067 87.5C8.8067 85.1 11.6067 79.2 13.0067 76.3C13.1067 76.2 13.3067 76.2 13.4067 76.2C13.6067 76.2 13.7067 76.3 13.9067 76.4C14.2067 76.6 15.0067 77.1 16.0067 77.7C19.1067 79.7 24.8067 83.4 28.4067 85.5C32.4067 87.9 41.6067 93.1 45.1067 95C45.7067 95.3 46.1067 95.6 46.3067 95.7C47.2067 96.2 47.5067 97.4 47.0067 99.1C46.7067 100.4 45.9067 103.5 45.2067 106.5C44.4067 109.6 43.7067 112.5 43.6067 113.2C43.2067 114.3 42.9067 115.3 40.4067 115.3Z" fill="#303E42"/>
<path d="M52.4067 96.5999C51.4067 97.1999 50.2067 98.7999 49.7067 100.8C49.2067 102.8 46.4067 114.9 46.3067 116.3C46.1067 117.6 46.0067 119.8 46.6067 119.5C47.2067 119.2 60.6067 106.6 62.6067 104.7C64.5067 102.7 67.3067 99.4999 67.7067 98.3999C68.0067 97.1999 68.2067 93.0999 68.1067 91.6999C68.0067 90.3999 68.0067 87.6999 66.8067 88.1999C65.5067 88.6999 52.4067 96.5999 52.4067 96.5999Z" fill="#141C1E"/>
<path d="M46.7067 118.7C46.7067 118.2 46.7067 117.2 46.8067 116.3C47.0067 115 49.7067 103.1 50.2067 100.9C50.7067 99 51.7067 97.6 52.6067 97.1C57.1067 94.4 65.9067 89.1 66.8067 88.7C66.8067 88.7 66.8067 88.7 66.9067 88.7C67.2067 88.9 67.3067 90.5 67.4067 91.1C67.4067 91.3 67.4067 91.5 67.4067 91.7C67.5067 93 67.3067 97.1 67.0067 98.2C66.7067 99.2 64.2067 102.1 62.1067 104.3C60.3067 106.2 49.0067 116.7 46.7067 118.7Z" fill="#303E42"/>
<path d="M15.9067 77.7C14.9067 77.1 14.2067 76.6 13.8067 76.4C13.7067 76.4 13.7067 76.3 13.6067 76.3C12.6067 78.9 7.6067 91.4 8.5067 92.3C9.5067 93.3 12.4067 91.4 13.5067 90.5C14.4067 89.8 20.6067 84.1 22.8067 82.1C20.3067 80.5 17.6067 78.8 15.9067 77.7Z" fill="#C5D0D3"/>
<path d="M12.7067 89.2C11.6067 88.7 8.3067 91.3 6.4067 92.9C6.2067 93.5 6.0067 94 6.0067 94.2C6.2067 95.1 6.6067 95.9 7.2067 96.4L7.4067 96.6C8.7067 97.8 12.1067 101.1 20.5067 106.2C30.3067 112.1 38.0067 115.2 40.4067 115.2C42.8067 115.2 43.1067 114.2 43.4067 113C43.5067 112.5 44.0067 110.4 44.6067 108C38.0067 104.1 14.0067 89.8 12.7067 89.2Z" fill="#39464A"/>
<path d="M32.1067 100.7C32.1067 100.7 26.7067 106.1 27.0067 106.6C27.3067 107.2 33.0067 111.4 33.9067 111.4C34.8067 111.3 42.2067 106.6 42.2067 106.6C42.2067 106.6 41.4067 104.4 38.1067 102.5C34.7067 100.5 32.1067 100.7 32.1067 100.7Z" fill="#3D4B4F"/>
<path d="M34.7067 98.4001C34.1067 98.1001 33.5067 97.8001 33.2067 98.1001C32.9067 98.3001 32.9067 98.8001 33.8067 99.4001C34.7067 100 43.7067 105.4 44.2067 105.7C44.7067 106 45.0067 106 45.3067 105.7C45.6067 105.4 44.9067 105 44.4067 104.6C43.9067 104.1 35.4067 98.7001 34.7067 98.4001Z" fill="#3D4B4F"/>
<path opacity="0.2" d="M29.6067 86.3C29.1067 86 28.6067 85.7 28.2067 85.5C24.6067 83.4 18.9067 79.7 15.8067 77.7C14.8067 77.1 14.1067 76.6 13.7067 76.4C13.5067 76.3 13.4067 76.2 13.2067 76.2C13.1067 76.2 13.0067 76.2 12.8067 76.3C11.4067 79.2 8.6067 85.1 7.8067 87.5C7.0067 89.9 6.1067 93.4 5.8067 94.3C6.0067 95.2 6.4067 96 7.0067 96.5L7.2067 96.7C8.1067 97.6 10.0067 99.4 13.9067 102.1C17.1067 97.5 22.1067 91.3 29.6067 86.3Z" fill="white"/>
<path d="M54.2067 137L47.9067 140.7V141.3L54.2067 137.7V137Z" fill="#333E40"/>
<path d="M51.4067 134.6V135.4L45.2067 139.1L45.1067 138.2L51.4067 134.6Z" fill="#010C0E"/>
<path d="M47.9067 140.7L45.2067 139.1L45.1067 138.2L44.4067 138.6L44.2067 139.6L43.8067 139.8L44.9067 140.6L47.9067 141.3V140.7Z" fill="#1A2527"/>
<path d="M54.2067 137L51.4067 135.4L45.2067 139.1L47.9067 140.7L54.2067 137Z" fill="#404B4D"/>
<path d="M39.9067 134.4C37.6067 134.3 37.2067 134 35.2067 133.1C33.2067 132.2 22.7067 126.4 18.5067 124C14.4067 121.6 9.3067 118 7.9067 117C6.4067 115.9 4.3067 114.1 3.7067 112.5C3.7067 112.5 3.1067 114.8 3.5067 118.1C3.9067 121.4 6.8067 123.5 8.7067 124.9C10.6067 126.4 22.8067 133.9 29.4067 137.4C35.9067 140.9 38.3067 141.1 40.2067 141.1C42.1067 141.1 44.2067 139.5 44.2067 139.5L44.4067 138.6V133.8L44.2067 133.1C44.1067 133.1 42.1067 134.6 39.9067 134.4Z" fill="#333E40"/>
<path d="M39.9067 134.4C37.6067 134.3 37.2067 134 35.2067 133.1C33.2067 132.2 22.7067 126.4 18.5067 124C14.4067 121.6 9.3067 118 7.9067 117C6.4067 115.9 4.3067 114.1 3.7067 112.5C3.7067 112.5 3.3067 114 3.4067 116.2C4.6067 118.1 7.30671 120.1 8.10671 120.6C9.00671 121.3 15.3067 125.3 18.8067 127.5C22.2067 129.7 30.4067 134.2 33.6067 135.6C36.7067 137 40.0067 137.3 41.8067 137.2C42.8067 137.1 43.8067 136.7 44.6067 136.3V133.9L44.4067 133.2C44.1067 133.1 42.1067 134.6 39.9067 134.4Z" fill="#404B4D"/>
<mask id="mask0" mask-type="alpha" maskUnits="userSpaceOnUse" x="3" y="112" width="42" height="24">
<path d="M39.9067 134.4C37.6067 134.3 37.2067 134 35.2067 133.1C33.2067 132.2 22.7067 126.4 18.5067 124C14.4067 121.6 9.30671 118 7.90671 117C6.40671 115.9 4.30671 114.1 3.70671 112.5C3.70671 112.5 3.60671 112.9 3.50671 113.5C4.00671 114.7 4.90671 116.2 6.40671 117.4C8.60671 119.2 15.0067 123.1 18.7067 125.4C22.4067 127.7 29.0067 131.4 32.0067 133C35.0067 134.6 37.9067 135.5 40.4067 135.4C42.9067 135.3 44.3067 133.8 44.3067 133.8L44.4067 133.7L44.2067 133C44.1067 133.1 42.1067 134.6 39.9067 134.4Z" fill="url(#paint38_linear)"/>
</mask>
<g mask="url(#mask0)">
<path d="M39.9067 134.4C37.6067 134.3 37.2067 134 35.2067 133.1C33.2067 132.2 22.7067 126.4 18.5067 124C14.4067 121.6 9.30671 118 7.90671 117C6.40671 115.9 4.30671 114.1 3.70671 112.5C3.70671 112.5 3.60671 112.9 3.50671 113.5C4.00671 114.7 4.90671 116.2 6.40671 117.4C8.60671 119.2 15.0067 123.1 18.7067 125.4C22.4067 127.7 29.0067 131.4 32.0067 133C35.0067 134.6 37.9067 135.5 40.4067 135.4C42.9067 135.3 44.3067 133.8 44.3067 133.8L44.4067 133.7L44.2067 133C44.1067 133.1 42.1067 134.6 39.9067 134.4Z" fill="url(#paint39_linear)"/>
<path d="M9.70671 123.3C9.60671 122.8 9.20671 122.1 10.3067 122.8C11.4067 123.5 17.2067 127 19.4067 128.4C21.6067 129.8 28.1067 133.5 29.0067 134C29.9067 134.4 30.2067 134.7 29.9067 135.3C29.6067 135.9 28.9067 136.5 27.8067 136C26.7067 135.5 20.1067 131.7 18.3067 130.5C16.5067 129.4 11.4067 126 10.9067 125.8C10.4067 125.4 9.80671 124 9.70671 123.3Z" fill="#4D585A"/>
<path d="M29.0067 133.9C28.1067 133.5 21.6067 129.7 19.4067 128.3C17.2067 126.9 11.3067 123.4 10.3067 122.7C10.3067 122.7 10.3067 122.7 10.2067 122.7C10.2067 122.8 10.2067 122.8 10.3067 122.9C10.5067 123.6 11.1067 125 11.5067 125.3C11.9067 125.6 17.1067 128.9 18.9067 130C20.7067 131.1 27.3067 135 28.4067 135.5C28.9067 135.7 29.3067 135.7 29.7067 135.6C29.8067 135.5 29.9067 135.3 30.0067 135.2C30.2067 134.6 29.9067 134.4 29.0067 133.9Z" fill="#1A2527"/>
<path d="M11.9067 119.8C13.9067 121.2 16.3067 122.7 18.5067 124C20.6067 125.3 24.5067 127.4 27.9067 129.3C28.7067 127.9 29.8067 127.3 30.8067 127C30.5067 126.4 29.9067 125.7 29.5067 125.5C28.9067 125.2 21.3067 121.1 19.8067 120.1C18.3067 119.1 12.6067 115.6 11.8067 115.1C11.3067 114.8 10.9067 114.9 10.6067 115C11.4067 116.7 11.8067 119 11.9067 119.8Z" fill="#5A6567"/>
<path d="M19.8067 122.3C18.0067 121.2 13.2067 118.2 11.6067 117.2C11.6067 117.3 11.7067 117.4 11.7067 117.6C12.9067 118.4 18.1067 121.6 19.9067 122.7C21.8067 123.8 26.7067 126.6 28.8067 127.7C28.9067 127.6 29.0067 127.6 29.0067 127.5C27.0067 126.4 21.8067 123.5 19.8067 122.3Z" fill="#1B2628"/>
<path d="M28.7067 128C26.5067 126.8 21.7067 124.1 19.9067 123C18.1067 121.9 13.4067 119 11.9067 118C11.9067 118.1 12.0067 118.2 12.0067 118.4C13.5067 119.3 18.3067 122.3 20.1067 123.4C21.9067 124.4 26.3067 126.9 28.6067 128.2C28.5067 128.1 28.6067 128 28.7067 128Z" fill="#1B2628"/>
<path d="M28.1067 128.5C28.1067 128.4 28.2067 128.4 28.2067 128.3C25.9067 127 21.5067 124.6 19.7067 123.5C18.0067 122.5 13.5067 119.7 11.8067 118.6C11.8067 118.7 11.8067 118.8 11.9067 118.9C13.8067 120.1 17.8067 122.6 19.3067 123.5C21.3067 124.7 25.9067 127.3 28.1067 128.5Z" fill="#1B2628"/>
<path d="M19.8067 121.1C17.9067 120 13.0067 116.9 11.1067 115.7C11.2067 115.8 11.2067 116 11.3067 116.1C12.8067 117 18.0067 120.3 20.0067 121.5C22.2067 122.8 28.1067 126.1 30.0067 127.1C30.1067 127 30.2067 127 30.3067 127C28.4067 126 22.1067 122.4 19.8067 121.1Z" fill="#1B2628"/>
<path d="M19.3067 123.8C17.8067 122.9 14.0067 120.5 12.0067 119.3C12.0067 119.4 12.0067 119.5 12.0067 119.6C13.7067 120.7 16.2067 122.4 18.5067 123.7C20.5067 124.9 24.1067 126.9 27.7067 128.9C27.8067 128.8 27.8067 128.7 27.9067 128.6C25.7067 127.5 21.1067 124.9 19.3067 123.8Z" fill="#1B2628"/>
<path d="M19.8067 121.7C18.0067 120.6 13.2067 117.6 11.4067 116.5C11.4067 116.6 11.5067 116.8 11.5067 116.9C12.8067 117.7 18.0067 121 19.9067 122.1C21.9067 123.3 27.3067 126.3 29.3067 127.4C29.4067 127.3 29.5067 127.3 29.6067 127.2C27.6067 126.1 21.9067 123 19.8067 121.7Z" fill="#1B2628"/>
<path d="M19.9067 120.9C22.2067 122.2 28.4067 125.7 30.3067 126.8C30.0067 126.4 29.6067 126 29.4067 125.9C28.8067 125.6 21.1067 121.5 19.6067 120.5C18.3067 119.7 14.1067 117 12.2067 115.9L11.5067 115.5C11.3067 115.4 11.1067 115.3 11.0067 115.3H10.9067V115.4C12.4067 116.2 17.9067 119.7 19.9067 120.9Z" fill="#1B2628"/>
<path d="M32.3067 119.4C30.1067 118.4 23.1067 115.1 17.7067 111.6C12.3067 108.1 8.7067 105.3 8.0067 104.7C7.9067 104.6 7.7067 104.4 7.4067 104.2L8.2067 107.1C9.3067 107.9 12.9067 110.5 17.8067 113.7C23.2067 117.2 30.1067 120.5 32.3067 121.4C32.3067 121.4 32.4067 121.4 32.4067 121.5L33.8067 120C33.3067 119.8 32.8067 119.6 32.3067 119.4Z" fill="url(#paint40_linear)"/>
<path opacity="0.5" d="M35.1067 133.1C37.1067 134 37.5067 134.3 39.8067 134.4C42.1067 134.5 44.1067 133.1 44.1067 133.1V128.2C44.1067 128.2 41.5067 129 39.9067 129C38.3067 129 34.3067 127.7 33.1067 127.2C31.9067 126.7 29.5067 126.8 27.9067 129.3C31.2067 131.1 34.1067 132.7 35.1067 133.1Z" fill="#414E52"/>
<path d="M40.1067 134.3C40.0067 134.3 39.9067 134.3 39.8067 134.3C37.8067 134.2 37.3067 134 35.8067 133.3C35.6067 133.2 35.4067 133.1 35.1067 133C34.2067 132.6 31.6067 131.2 28.0067 129.3C29.3067 127.4 30.9067 127.1 31.7067 127.1C32.2067 127.1 32.6067 127.2 33.0067 127.3C34.2067 127.8 38.2067 129.1 39.9067 129.2H40.0067C41.4067 129.2 43.4067 128.7 44.0067 128.5V133.1C43.7067 133.3 42.0067 134.3 40.1067 134.3Z" fill="#C9C9CA"/>
<path opacity="0.5" d="M7.8067 117C8.5067 117.5 10.0067 118.6 11.8067 119.8C11.7067 118.7 11.1067 115.3 9.6067 113.9C7.7067 112.3 5.0067 109.2 4.6067 108.7C4.1067 108.1 4.2067 106.5 4.1067 105.7C3.3067 106.7 3.6067 112.4 3.6067 112.4C4.2067 114.1 6.4067 115.9 7.8067 117Z" fill="#414E52"/>
<path d="M11.7067 119.6C10.0067 118.5 8.6067 117.4 7.9067 116.9C6.6067 115.9 4.4067 114.1 3.7067 112.4C3.6067 111 3.6067 107.5 4.0067 106.2C4.0067 106.3 4.0067 106.4 4.0067 106.5C4.0067 107.3 4.1067 108.3 4.4067 108.7C5.0067 109.4 7.6067 112.4 9.4067 113.9C11.0067 115.3 11.5067 118.3 11.7067 119.6Z" fill="#CACACB"/>
<path d="M7.8067 122.6C7.8067 123 7.7067 123.1 7.4067 122.9L5.8067 121.7C5.5067 121.4 5.2067 120.8 5.2067 120.4V119.8C5.2067 119.4 5.5067 119.2 5.8067 119.5L7.3067 120.8C7.6067 121.1 7.9067 121.6 7.8067 122.1V122.6Z" fill="#F6921E"/>
<path d="M7.7067 122.8L6.1067 121.6C5.8067 121.3 5.5067 120.7 5.5067 120.3V119.7C5.5067 119.5 5.6067 119.4 5.6067 119.3C5.3067 119.2 5.1067 119.3 5.1067 119.7V120.3C5.1067 120.7 5.4067 121.3 5.7067 121.6L7.3067 122.8C7.6067 123 7.7067 123 7.7067 122.8C7.7067 122.9 7.7067 122.9 7.7067 122.8Z" fill="#4D585A"/>
<path d="M37.1067 128.7C36.5067 129.7 35.3067 130.9 34.5067 131.5C34.3067 131.7 34.0067 131.8 33.9067 131.8L33.0067 129.7L31.9067 127.4C31.9067 127.4 32.0067 127.4 32.2067 127.3C32.3067 127.2 32.6067 127.2 32.8067 127.1C32.9067 127.1 33.0067 127.2 33.1067 127.2C33.8067 127.6 35.5067 128.2 37.1067 128.7Z" fill="url(#paint41_linear)"/>
<path d="M34.7067 130.6C34.7067 131.7 33.9067 132.1 33.0067 131.6C32.1067 131.1 31.3067 129.7 31.3067 128.6C31.3067 127.5 32.1067 127.1 33.0067 127.6C34.0067 128.2 34.7067 129.5 34.7067 130.6Z" fill="white"/>
<path d="M41.4067 130.2C41.1067 131.2 39.8067 132.6 38.8067 133.2C38.6067 133.3 38.4067 133.4 38.2067 133.5L37.4067 131.7L36.4067 129.7C36.4067 129.7 36.5067 129.7 36.6067 129.6C36.9067 129.5 37.4067 129.4 37.9067 129.2C37.9067 129.2 38.3067 129.1 38.8067 129.1C39.1067 129.2 39.5067 129.2 39.7067 129.2H40.0067C40.3067 129.2 40.7067 129.2 41.1067 129.1C41.3067 129.1 41.4067 129.2 41.5067 129.3C41.7067 129.7 41.4067 130.2 41.4067 130.2Z" fill="url(#paint42_linear)"/>
<path d="M39.1067 132.4C39.1067 133.4 38.4067 133.8 37.6067 133.3C36.8067 132.8 36.1067 131.6 36.1067 130.7C36.1067 129.7 36.8067 129.3 37.6067 129.8C38.4067 130.3 39.1067 131.4 39.1067 132.4Z" fill="white"/>
<path d="M43.9067 130.2C43.7067 131 42.4067 132.1 41.9067 132.3L41.4067 131.1L40.8067 129.8C40.8067 129.8 41.2067 129.6 41.8067 129.5C41.8067 129.5 43.6067 129.1 43.9067 129.6C44.1067 129.9 43.9067 130.2 43.9067 130.2Z" fill="url(#paint43_linear)"/>
<path d="M42.4067 131.6C42.4067 132.2 42.0067 132.5 41.4067 132.2C40.9067 131.9 40.4067 131.1 40.4067 130.5C40.4067 129.9 40.8067 129.6 41.4067 129.9C42.0067 130.2 42.4067 131 42.4067 131.6Z" fill="white"/>
<path d="M33.8067 120L32.4067 121.5C34.5067 122.4 36.9067 123.3 39.6067 123.3C42.3067 123.3 44.1067 122.3 44.1067 122.3V120C44.1067 120 42.3067 121 39.6067 121C37.5067 121 35.6067 120.6 33.8067 120Z" fill="#F6921E"/>
<path opacity="0.3" d="M33.8067 120L32.4067 121.5C34.5067 122.4 36.9067 123.3 39.6067 123.3C42.3067 123.3 44.1067 122.3 44.1067 122.3V120C44.1067 120 42.3067 121 39.6067 121C37.5067 121 35.6067 120.6 33.8067 120Z" fill="url(#paint44_linear)"/>
<path opacity="0.3" d="M7.3067 120.7L5.8067 119.4C5.5067 119.2 5.3067 119.2 5.2067 119.5C5.3067 119.5 5.4067 119.5 5.6067 119.7L7.1067 121C7.4067 121.3 7.7067 121.8 7.6067 122.3L7.5067 122.9C7.5067 123 7.5067 123 7.5067 123C7.7067 123.1 7.7067 123 7.7067 122.6L7.8067 122C7.9067 121.6 7.6067 121 7.3067 120.7Z" fill="black"/>
</g>
<mask id="mask1" mask-type="alpha" maskUnits="userSpaceOnUse" x="28" y="127" width="17" height="8">
<path d="M40.1067 134.3C40.0067 134.3 39.9067 134.3 39.8067 134.3C37.8067 134.2 37.3067 134 35.8067 133.3C35.6067 133.2 35.4067 133.1 35.1067 133C34.2067 132.6 31.6067 131.2 28.0067 129.3C29.3067 127.4 30.9067 127.1 31.7067 127.1C32.2067 127.1 32.6067 127.2 33.0067 127.3C34.2067 127.8 38.2067 129.1 39.9067 129.2H40.0067C41.4067 129.2 43.4067 128.7 44.0067 128.5V133.1C43.7067 133.3 42.0067 134.3 40.1067 134.3Z" fill="url(#paint45_linear)"/>
</mask>
<g mask="url(#mask1)">
<path d="M40.1067 134.3C40.0067 134.3 39.9067 134.3 39.8067 134.3C37.8067 134.2 37.3067 134 35.8067 133.3C35.6067 133.2 35.4067 133.1 35.1067 133C34.2067 132.6 31.6067 131.2 28.0067 129.3C29.3067 127.4 30.9067 127.1 31.7067 127.1C32.2067 127.1 32.6067 127.2 33.0067 127.3C34.2067 127.8 38.2067 129.1 39.9067 129.2H40.0067C41.4067 129.2 43.4067 128.7 44.0067 128.5V133.1C43.7067 133.3 42.0067 134.3 40.1067 134.3Z" fill="url(#paint46_linear)"/>
</g>
<mask id="mask2" mask-type="alpha" maskUnits="userSpaceOnUse" x="3" y="106" width="9" height="14">
<path d="M11.7067 119.6C10.0067 118.5 8.6067 117.4 7.9067 116.9C6.6067 115.9 4.4067 114.1 3.7067 112.4C3.6067 111 3.6067 107.5 4.0067 106.2C4.0067 106.3 4.0067 106.4 4.0067 106.5C4.0067 107.3 4.1067 108.3 4.4067 108.7C5.0067 109.4 7.6067 112.4 9.4067 113.9C11.0067 115.3 11.5067 118.3 11.7067 119.6Z" fill="url(#paint47_linear)"/>
</mask>
<g mask="url(#mask2)">
<path d="M11.7067 119.6C10.0067 118.5 8.6067 117.4 7.9067 116.9C6.6067 115.9 4.4067 114.1 3.7067 112.4C3.6067 111 3.6067 107.5 4.0067 106.2C4.0067 106.3 4.0067 106.4 4.0067 106.5C4.0067 107.3 4.1067 108.3 4.4067 108.7C5.0067 109.4 7.6067 112.4 9.4067 113.9C11.0067 115.3 11.5067 118.3 11.7067 119.6Z" fill="url(#paint48_linear)"/>
</g>
<defs>
<linearGradient id="paint0_linear" x1="134.899" y1="86.8224" x2="132.604" y2="102.161" gradientUnits="userSpaceOnUse">
<stop stop-color="#F3F5F7"/>
<stop offset="1" stop-color="#999D9E"/>
</linearGradient>
<linearGradient id="paint1_linear" x1="132.498" y1="100.166" x2="133.701" y2="92.7052" gradientUnits="userSpaceOnUse">
<stop stop-color="#E6E8EA"/>
<stop offset="1" stop-color="#8C9091"/>
</linearGradient>
<linearGradient id="paint2_linear" x1="132.65" y1="96.6554" x2="136.244" y2="87.7826" gradientUnits="userSpaceOnUse">
<stop stop-color="#F3F5F7"/>
<stop offset="1" stop-color="#999D9E"/>
</linearGradient>
<linearGradient id="paint3_linear" x1="134.553" y1="87.9814" x2="132.208" y2="100.142" gradientUnits="userSpaceOnUse">
<stop stop-color="#F3F5F7"/>
<stop offset="1" stop-color="#999D9E"/>
</linearGradient>
<linearGradient id="paint4_linear" x1="134.105" y1="90.4597" x2="134.024" y2="100.113" gradientUnits="userSpaceOnUse">
<stop stop-color="#F3F5F7"/>
<stop offset="1" stop-color="#999D9E"/>
</linearGradient>
<linearGradient id="paint5_linear" x1="133.128" y1="89.6341" x2="133.95" y2="89.6341" gradientUnits="userSpaceOnUse">
<stop stop-color="#8F9193"/>
<stop offset="1" stop-color="#35393A"/>
</linearGradient>
<linearGradient id="paint6_linear" x1="129.894" y1="94.3565" x2="131.074" y2="94.3565" gradientUnits="userSpaceOnUse">
<stop stop-color="#8F9193"/>
<stop offset="1" stop-color="#35393A"/>
</linearGradient>
<linearGradient id="paint7_linear" x1="130.272" y1="96.7361" x2="131.374" y2="96.7361" gradientUnits="userSpaceOnUse">
<stop stop-color="#8F9193"/>
<stop offset="1" stop-color="#35393A"/>
</linearGradient>
<linearGradient id="paint8_linear" x1="132.064" y1="97.6225" x2="132.657" y2="97.6225" gradientUnits="userSpaceOnUse">
<stop stop-color="#8F9193"/>
<stop offset="1" stop-color="#35393A"/>
</linearGradient>
<linearGradient id="paint9_linear" x1="131.17" y1="91.6323" x2="132.268" y2="91.6323" gradientUnits="userSpaceOnUse">
<stop stop-color="#8F9193"/>
<stop offset="1" stop-color="#35393A"/>
</linearGradient>
<linearGradient id="paint10_linear" x1="135.311" y1="89.0415" x2="135.997" y2="89.0415" gradientUnits="userSpaceOnUse">
<stop stop-color="#8F9193"/>
<stop offset="1" stop-color="#35393A"/>
</linearGradient>
<linearGradient id="paint11_linear" x1="136.704" y1="90.7356" x2="137.424" y2="90.7356" gradientUnits="userSpaceOnUse">
<stop stop-color="#8F9193"/>
<stop offset="1" stop-color="#35393A"/>
</linearGradient>
<linearGradient id="paint12_linear" x1="136.765" y1="92.9445" x2="137.066" y2="92.9445" gradientUnits="userSpaceOnUse">
<stop stop-color="#8F9193"/>
<stop offset="1" stop-color="#35393A"/>
</linearGradient>
<linearGradient id="paint13_linear" x1="134.104" y1="96.9239" x2="134.391" y2="96.9239" gradientUnits="userSpaceOnUse">
<stop stop-color="#8F9193"/>
<stop offset="1" stop-color="#35393A"/>
</linearGradient>
<linearGradient id="paint14_linear" x1="135.905" y1="94.9552" x2="136.152" y2="94.9552" gradientUnits="userSpaceOnUse">
<stop stop-color="#8F9193"/>
<stop offset="1" stop-color="#35393A"/>
</linearGradient>
<linearGradient id="paint15_linear" x1="135.809" y1="93.1809" x2="132.628" y2="94.5022" gradientUnits="userSpaceOnUse">
<stop stop-color="#F3F5F7"/>
<stop offset="1" stop-color="#999D9E"/>
</linearGradient>
<linearGradient id="paint16_linear" x1="134.781" y1="92.2844" x2="133.54" y2="98.5941" gradientUnits="userSpaceOnUse">
<stop stop-color="#F3F5F7"/>
<stop offset="1" stop-color="#999D9E"/>
</linearGradient>
<linearGradient id="paint17_linear" x1="62.4432" y1="125.65" x2="60.1484" y2="140.989" gradientUnits="userSpaceOnUse">
<stop stop-color="#F3F5F7"/>
<stop offset="1" stop-color="#999D9E"/>
</linearGradient>
<linearGradient id="paint18_linear" x1="60.0416" y1="138.994" x2="61.245" y2="131.533" gradientUnits="userSpaceOnUse">
<stop stop-color="#E6E8EA"/>
<stop offset="1" stop-color="#8C9091"/>
</linearGradient>
<linearGradient id="paint19_linear" x1="60.1945" y1="135.484" x2="63.7887" y2="126.611" gradientUnits="userSpaceOnUse">
<stop stop-color="#F3F5F7"/>
<stop offset="1" stop-color="#999D9E"/>
</linearGradient>
<linearGradient id="paint20_linear" x1="62.0985" y1="126.809" x2="59.7529" y2="138.97" gradientUnits="userSpaceOnUse">
<stop stop-color="#F3F5F7"/>
<stop offset="1" stop-color="#999D9E"/>
</linearGradient>
<linearGradient id="paint21_linear" x1="61.6497" y1="129.288" x2="61.5687" y2="138.94" gradientUnits="userSpaceOnUse">
<stop stop-color="#F3F5F7"/>
<stop offset="1" stop-color="#999D9E"/>
</linearGradient>
<linearGradient id="paint22_linear" x1="60.6723" y1="128.462" x2="61.4941" y2="128.462" gradientUnits="userSpaceOnUse">
<stop stop-color="#8F9193"/>
<stop offset="1" stop-color="#35393A"/>
</linearGradient>
<linearGradient id="paint23_linear" x1="57.4388" y1="133.184" x2="58.6185" y2="133.184" gradientUnits="userSpaceOnUse">
<stop stop-color="#8F9193"/>
<stop offset="1" stop-color="#35393A"/>
</linearGradient>
<linearGradient id="paint24_linear" x1="57.8157" y1="135.564" x2="58.9179" y2="135.564" gradientUnits="userSpaceOnUse">
<stop stop-color="#8F9193"/>
<stop offset="1" stop-color="#35393A"/>
</linearGradient>
<linearGradient id="paint25_linear" x1="59.6076" y1="136.45" x2="60.2013" y2="136.45" gradientUnits="userSpaceOnUse">
<stop stop-color="#8F9193"/>
<stop offset="1" stop-color="#35393A"/>
</linearGradient>
<linearGradient id="paint26_linear" x1="58.714" y1="130.46" x2="59.8126" y2="130.46" gradientUnits="userSpaceOnUse">
<stop stop-color="#8F9193"/>
<stop offset="1" stop-color="#35393A"/>
</linearGradient>
<linearGradient id="paint27_linear" x1="62.856" y1="127.87" x2="63.5421" y2="127.87" gradientUnits="userSpaceOnUse">
<stop stop-color="#8F9193"/>
<stop offset="1" stop-color="#35393A"/>
</linearGradient>
<linearGradient id="paint28_linear" x1="64.2484" y1="129.563" x2="64.9681" y2="129.563" gradientUnits="userSpaceOnUse">
<stop stop-color="#8F9193"/>
<stop offset="1" stop-color="#35393A"/>
</linearGradient>
<linearGradient id="paint29_linear" x1="64.3095" y1="131.773" x2="64.6107" y2="131.773" gradientUnits="userSpaceOnUse">
<stop stop-color="#8F9193"/>
<stop offset="1" stop-color="#35393A"/>
</linearGradient>
<linearGradient id="paint30_linear" x1="61.6479" y1="135.752" x2="61.9349" y2="135.752" gradientUnits="userSpaceOnUse">
<stop stop-color="#8F9193"/>
<stop offset="1" stop-color="#35393A"/>
</linearGradient>
<linearGradient id="paint31_linear" x1="63.4488" y1="133.783" x2="63.6967" y2="133.783" gradientUnits="userSpaceOnUse">
<stop stop-color="#8F9193"/>
<stop offset="1" stop-color="#35393A"/>
</linearGradient>
<linearGradient id="paint32_linear" x1="63.3531" y1="132.009" x2="60.1718" y2="133.33" gradientUnits="userSpaceOnUse">
<stop stop-color="#F3F5F7"/>
<stop offset="1" stop-color="#999D9E"/>
</linearGradient>
<linearGradient id="paint33_linear" x1="62.3257" y1="131.112" x2="61.085" y2="137.423" gradientUnits="userSpaceOnUse">
<stop stop-color="#F3F5F7"/>
<stop offset="1" stop-color="#999D9E"/>
</linearGradient>
<linearGradient id="paint34_linear" x1="69.8442" y1="134.315" x2="56.3636" y2="120.835" gradientUnits="userSpaceOnUse">
<stop offset="0.1021" stop-color="#3B4447"/>
<stop offset="1" stop-color="#081114"/>
</linearGradient>
<linearGradient id="paint35_linear" x1="44.6536" y1="112.019" x2="38.4849" y2="112.019" gradientUnits="userSpaceOnUse">
<stop stop-color="white"/>
<stop offset="1"/>
</linearGradient>
<linearGradient id="paint36_linear" x1="37.4869" y1="85.3477" x2="33.1887" y2="90.6775" gradientUnits="userSpaceOnUse">
<stop stop-color="white"/>
<stop offset="1"/>
</linearGradient>
<linearGradient id="paint37_linear" x1="25.5306" y1="75.7844" x2="21.2403" y2="81.1044" gradientUnits="userSpaceOnUse">
<stop stop-color="white"/>
<stop offset="1"/>
</linearGradient>
<linearGradient id="paint38_linear" x1="33.1394" y1="124.862" x2="43.6393" y2="125.669" gradientUnits="userSpaceOnUse">
<stop stop-color="#333333"/>
<stop offset="0.5241" stop-color="#999999"/>
<stop offset="1" stop-color="#333333"/>
</linearGradient>
<linearGradient id="paint39_linear" x1="33.1394" y1="124.862" x2="43.6393" y2="125.669" gradientUnits="userSpaceOnUse">
<stop stop-color="white"/>
<stop offset="0.5241" stop-color="white"/>
<stop offset="1" stop-color="white"/>
</linearGradient>
<linearGradient id="paint40_linear" x1="20.3956" y1="112.458" x2="18.4793" y2="115.964" gradientUnits="userSpaceOnUse">
<stop stop-color="#F9F9F9"/>
<stop offset="1" stop-color="#C7C7C7"/>
</linearGradient>
<linearGradient id="paint41_linear" x1="34.3107" y1="127.342" x2="35.1174" y2="130.426" gradientUnits="userSpaceOnUse">
<stop stop-color="#FAFFFF"/>
<stop offset="1" stop-color="#D4D7D9"/>
</linearGradient>
<linearGradient id="paint42_linear" x1="39.0067" y1="129.461" x2="39.7248" y2="132.207" gradientUnits="userSpaceOnUse">
<stop stop-color="#FAFFFF"/>
<stop offset="1" stop-color="#D4D7D9"/>
</linearGradient>
<linearGradient id="paint43_linear" x1="42.3719" y1="129.725" x2="42.8258" y2="131.46" gradientUnits="userSpaceOnUse">
<stop stop-color="#FAFFFF"/>
<stop offset="1" stop-color="#D4D7D9"/>
</linearGradient>
<linearGradient id="paint44_linear" x1="32.4271" y1="121.61" x2="44.1482" y2="121.61" gradientUnits="userSpaceOnUse">
<stop/>
<stop offset="0.5632" stop-color="white"/>
<stop offset="1"/>
</linearGradient>
<linearGradient id="paint45_linear" x1="30.3964" y1="130.69" x2="46.3346" y2="130.69" gradientUnits="userSpaceOnUse">
<stop stop-color="white"/>
<stop offset="0.0720832" stop-color="#F5F5F5"/>
<stop offset="0.1964" stop-color="#D9D9D9"/>
<stop offset="0.3568" stop-color="#ACACAC"/>
<stop offset="0.4692" stop-color="#888888"/>
<stop offset="1"/>
</linearGradient>
<linearGradient id="paint46_linear" x1="30.3964" y1="130.69" x2="46.3346" y2="130.69" gradientUnits="userSpaceOnUse">
<stop stop-color="white"/>
<stop offset="0.4692" stop-color="white"/>
<stop offset="1" stop-color="white"/>
</linearGradient>
<linearGradient id="paint47_linear" x1="3.7227" y1="112.886" x2="11.7141" y2="112.886" gradientUnits="userSpaceOnUse">
<stop stop-color="white"/>
<stop offset="0.0720832" stop-color="#F5F5F5"/>
<stop offset="0.1964" stop-color="#D9D9D9"/>
<stop offset="0.3568" stop-color="#ACACAC"/>
<stop offset="0.4692" stop-color="#888888"/>
<stop offset="1"/>
</linearGradient>
<linearGradient id="paint48_linear" x1="3.7227" y1="112.886" x2="11.7141" y2="112.886" gradientUnits="userSpaceOnUse">
<stop stop-color="white"/>
<stop offset="0.4692" stop-color="white"/>
<stop offset="1" stop-color="white"/>
</linearGradient>
</defs>
</svg>
