<svg width="108" height="104" viewBox="0 0 108 104" fill="none" xmlns="../../../www.w3.org/2000/svg.html">
<path opacity="0.1" d="M107.311 50.0593L76.5647 32.3882C75.6454 31.8774 74.1132 31.8774 73.1939 32.3882L1.58994 73.3485C1.38565 73.4507 1.2835 73.5528 1.18136 73.6549C0.670629 74.1657 0.87492 74.7785 1.58994 75.2893C3.63285 77.8429 9.65943 82.2352 13.2345 84.2781C17.4225 86.7296 26.5134 91.3261 32.6422 93.2669C33.5615 93.7776 35.0937 93.7776 36.013 93.2669L107.311 52.0001C108.23 51.4894 108.23 50.6722 107.311 50.0593Z" fill="black"/>
<path d="M105.574 35.6568C105.268 35.2482 104.961 34.2268 104.961 34.0225C104.961 33.8182 105.166 32.8989 105.166 32.8989C105.166 32.8989 104.757 29.4259 104.655 27.383C104.553 25.3401 103.736 24.7272 103.736 24.7272L102.714 20.6414C102.714 20.6414 102.714 20.6414 101.795 17.9856C100.671 15.2277 97.9133 13.3891 97.9133 13.3891C93.6232 9.91613 84.1236 4.50242 79.7314 2.35737C75.3391 0.212311 74.1134 1.13162 74.1134 1.13162C74.1134 1.13162 64.3074 6.34104 57.668 9.81399C51.0285 13.3891 39.7925 20.5393 34.7874 24.4208C29.7823 28.4045 21.5085 39.1297 20.2827 40.7641C19.057 42.3984 16.5033 44.6456 14.6647 46.3821C12.8261 48.1185 8.63814 53.5322 8.63814 53.5322C8.63814 53.5322 5.47162 56.903 4.45017 59.1503C3.42871 61.3975 3.63301 67.9348 3.8373 69.0584C3.93944 70.182 5.67592 72.6335 5.67592 72.6335V73.6549C7.71883 76.6171 21.6106 84.6866 24.1642 85.8102C26.6157 86.9338 31.6209 87.8531 34.1745 87.4445C36.7281 87.036 37.7496 85.8102 37.7496 85.8102L38.4646 85.4016C38.4646 85.2995 38.4646 85.1973 38.4646 85.0952C38.4646 80.7029 41.529 75.2892 45.4105 73.1442C51.2328 69.8755 52.9693 72.5313 52.9693 76.9236C52.9693 77.0257 52.9693 77.23 52.9693 77.3322L88.7202 56.5966L88.9245 56.4945C88.9245 52.0001 92.2953 45.7692 96.1768 43.522C101.488 40.5598 103.736 42.2962 103.94 46.5864C104.246 46.3821 104.553 46.1778 104.655 45.9735C104.859 45.5649 105.983 42.1941 106.187 39.7426C106.187 37.4954 105.778 35.9632 105.574 35.6568Z" fill="#1490C9"/>
<path opacity="0.1" d="M104.961 34.0222C104.961 33.8179 105.165 32.8986 105.165 32.8986C105.165 32.8986 104.757 29.4256 104.655 27.3827C104.553 25.3398 103.735 24.7269 103.735 24.7269L102.714 20.6411C102.714 20.6411 102.714 20.6411 101.795 17.9853C101.284 16.6574 100.365 15.5338 99.6496 14.7167C99.0367 14.6145 98.4239 14.6145 97.9131 15.0231C94.8488 16.6574 73.909 28.6084 68.4952 32.3878C63.0815 36.1672 60.2215 39.6402 58.485 42.5002L48.9855 58.1285C48.9855 58.1285 47.0447 60.0693 43.9803 61.8057C40.916 63.5422 35.9108 66.5044 34.0722 70.0795C32.6422 72.8374 32.4379 81.8262 33.1529 87.5464C33.4593 87.5464 33.7658 87.5464 34.0722 87.4442C36.6259 87.0357 37.6473 85.8099 37.6473 85.8099L38.3623 85.4013C38.3623 85.2992 38.3623 85.197 38.3623 85.0949C38.3623 80.7026 41.4267 75.2889 45.3082 73.1439C51.1305 69.8752 52.867 72.531 52.867 76.9233C52.867 77.0254 52.867 77.2297 52.867 77.3318L88.6179 56.5963L88.8222 56.4942C88.8222 51.9998 92.193 45.7689 96.0745 43.5217C101.386 40.5595 103.633 42.2959 103.838 46.5861C104.144 46.3818 104.45 46.1775 104.553 45.9732C104.757 45.5646 105.88 42.1938 106.085 39.7423C106.289 37.393 105.983 35.8608 105.676 35.4522C105.268 35.2479 104.961 34.2264 104.961 34.0222Z" fill="black"/>
<path opacity="0.1" d="M95.9723 41.9894C93.3165 43.5216 90.865 46.586 89.2307 50.0589C88.6178 51.2847 88.0049 51.6933 88.0049 51.6933L54.7055 71.4073C53.5819 72.0202 52.5604 71.3052 52.5604 71.3052C51.3347 69.8752 48.9853 69.773 45.206 71.9181C40.8137 74.3696 37.2386 80.6004 37.2386 85.7077C37.2386 85.8099 37.2386 86.0141 37.2386 86.1163C37.545 85.912 37.6472 85.7077 37.6472 85.7077L38.3622 85.2991C38.3622 85.197 38.3622 85.0948 38.3622 84.9927C38.3622 80.6004 41.4266 75.1867 45.3081 73.0417C51.1304 69.773 52.8669 72.4288 52.8669 76.8211C52.8669 76.9232 52.8669 77.1275 52.8669 77.2296L88.6178 56.4941L88.8221 56.392C88.8221 51.8976 92.1929 45.6667 96.0744 43.4195C101.386 40.4573 103.633 42.1937 103.837 46.4838C104.144 46.2796 104.45 46.0753 104.552 45.871C104.655 45.6667 104.859 45.0538 105.165 44.1345C104.45 40.253 101.692 38.7208 95.9723 41.9894Z" fill="black"/>
<mask id="mask0" mask-type="alpha" maskUnits="userSpaceOnUse" x="35" y="33" width="71" height="48">
<path d="M104.961 34.0221C104.961 33.92 105.063 33.6136 105.063 33.3071C102.816 34.3286 95.3595 37.9037 92.4994 40.7637C90.6608 42.6024 88.8222 44.8496 87.3922 48.4247L55.7271 67.2194C53.8884 65.6872 51.6412 65.3808 50.0069 65.8915C47.7597 66.6066 42.2439 69.5688 38.6688 72.9396C35.0937 76.4125 35.0937 78.4554 35.5023 79.6812C35.7066 80.3962 37.1366 80.6005 38.2602 80.6005C39.5881 77.0254 42.2439 73.5524 45.2061 71.9181C49.0876 69.7731 51.3348 69.8752 52.5606 71.3052C52.5606 71.3052 53.4799 71.9181 54.7056 71.4074L87.9029 51.6933C87.9029 51.6933 88.6179 51.2847 89.1286 50.059C90.763 46.6882 93.2145 43.5217 95.8702 41.9895C101.59 38.7208 104.45 40.253 104.961 44.3388C105.37 43.0109 105.778 41.2745 105.881 39.8444C106.085 37.4951 105.778 35.9629 105.472 35.5543C105.268 35.2479 104.961 34.2264 104.961 34.0221Z" fill="url(#paint0_linear)"/>
</mask>
<g mask="url(#mask0)">
<path opacity="0.5" d="M104.961 34.0221C104.961 33.92 105.063 33.6136 105.063 33.3071C102.816 34.3286 95.3595 37.9037 92.4994 40.7637C90.6608 42.6024 88.8222 44.8496 87.3922 48.4247L55.7271 67.2194C53.8884 65.6872 51.6412 65.3808 50.0069 65.8915C47.7597 66.6066 42.2439 69.5688 38.6688 72.9396C35.0937 76.4125 35.0937 78.4554 35.5023 79.6812C35.7066 80.3962 37.1366 80.6005 38.2602 80.6005C39.5881 77.0254 42.2439 73.5524 45.2061 71.9181C49.0876 69.7731 51.3348 69.8752 52.5606 71.3052C52.5606 71.3052 53.4799 71.9181 54.7056 71.4074L87.9029 51.6933C87.9029 51.6933 88.6179 51.2847 89.1286 50.059C90.763 46.6882 93.2145 43.5217 95.8702 41.9895C101.59 38.7208 104.45 40.253 104.961 44.3388C105.37 43.0109 105.778 41.2745 105.881 39.8444C106.085 37.4951 105.778 35.9629 105.472 35.5543C105.268 35.2479 104.961 34.2264 104.961 34.0221Z" fill="url(#paint1_linear)"/>
</g>
<mask id="mask1" mask-type="alpha" maskUnits="userSpaceOnUse" x="88" y="33" width="17" height="15">
<path d="M92.4993 40.7639C95.155 38.1082 101.794 34.8395 104.552 33.6138C104.552 33.4095 104.655 33.2052 104.655 33.103C102.407 34.1245 94.9508 37.6996 92.0907 40.5596C90.4564 42.194 89.2306 44.339 88.0049 47.1991C89.2306 44.339 90.8649 42.3983 92.4993 40.7639Z" fill="url(#paint2_linear)"/>
</mask>
<g mask="url(#mask1)">
<path opacity="0.2" d="M92.4993 40.7639C95.155 38.1082 101.794 34.8395 104.552 33.6138C104.552 33.4095 104.655 33.2052 104.655 33.103C102.407 34.1245 94.9508 37.6996 92.0907 40.5596C90.4564 42.194 89.2306 44.339 88.0049 47.1991C89.2306 44.339 90.8649 42.3983 92.4993 40.7639Z" fill="url(#paint3_linear)"/>
</g>
<mask id="mask2" mask-type="alpha" maskUnits="userSpaceOnUse" x="34" y="65" width="22" height="15">
<path d="M35.5023 79.6811C35.0937 78.3532 35.0937 76.4125 38.6688 72.9395C42.2439 69.4666 47.8619 66.5044 50.0069 65.8915C51.5391 65.3808 53.7863 65.7894 55.7271 67.2194C53.8884 65.6872 51.7434 64.7679 49.4962 65.5851C47.3511 66.4022 41.7331 69.2623 38.158 72.6331C34.5829 76.106 34.583 78.149 34.9915 79.3747C35.0937 79.6811 35.4001 79.8854 35.8087 79.9876C35.7066 79.9876 35.6044 79.8854 35.5023 79.6811Z" fill="url(#paint4_linear)"/>
</mask>
<g mask="url(#mask2)">
<path opacity="0.2" d="M35.5023 79.6811C35.0937 78.3532 35.0937 76.4125 38.6688 72.9395C42.2439 69.4666 47.8619 66.5044 50.0069 65.8915C51.5391 65.3808 53.7863 65.7894 55.7271 67.2194C53.8884 65.6872 51.7434 64.7679 49.4962 65.5851C47.3511 66.4022 41.7331 69.2623 38.158 72.6331C34.5829 76.106 34.583 78.149 34.9915 79.3747C35.0937 79.6811 35.4001 79.8854 35.8087 79.9876C35.7066 79.9876 35.6044 79.8854 35.5023 79.6811Z" fill="url(#paint5_linear)"/>
</g>
<mask id="mask3" mask-type="alpha" maskUnits="userSpaceOnUse" x="9" y="57" width="22" height="16">
<path d="M12.4173 57.0049C11.3959 59.3542 10.068 61.8057 9.96581 62.01V62.1122C10.5787 62.8272 11.3958 63.5422 12.3152 64.3594C16.8096 67.8323 21.4061 70.4881 26.3091 72.0203C26.5134 72.0203 26.6155 72.1224 26.8198 72.1224C26.8198 72.0203 28.0456 68.7516 30.2928 67.0151C20.7932 64.2572 15.0731 59.6607 12.4173 57.0049Z" fill="url(#paint6_linear)"/>
</mask>
<g mask="url(#mask3)">
<path opacity="0.2" d="M12.4173 57.0049C11.3959 59.3542 10.068 61.8057 9.96581 62.01V62.1122C10.5787 62.8272 11.3958 63.5422 12.3152 64.3594C16.8096 67.8323 21.4061 70.4881 26.3091 72.0203C26.5134 72.0203 26.6155 72.1224 26.8198 72.1224C26.8198 72.0203 28.0456 68.7516 30.2928 67.0151C20.7932 64.2572 15.0731 59.6607 12.4173 57.0049Z" fill="url(#paint7_linear)"/>
</g>
<g opacity="0.3">
<mask id="mask4" mask-type="alpha" maskUnits="userSpaceOnUse" x="54" y="35" width="20" height="26">
<g opacity="0.3">
<g opacity="0.3">
<path opacity="0.3" d="M72.7853 37.0868C72.6831 35.6568 72.1724 35.6568 71.866 35.3504C71.6617 35.1461 70.9467 35.5546 70.4359 35.7589C70.6402 35.6568 70.8445 35.6568 70.9467 35.6568C71.3553 35.6568 71.7638 36.0654 71.866 37.3933C72.1724 40.5598 72.6832 46.5864 72.6832 46.5864C72.6832 46.5864 72.9896 47.9142 70.5381 49.7529C67.9845 51.5915 56.0334 59.5588 56.0334 59.5588C56.0334 59.5588 55.8291 59.661 55.6249 59.661C55.3184 59.661 54.8077 59.4567 54.7055 58.7417C54.7055 62.0103 56.6463 60.6824 56.6463 60.6824C56.6463 60.6824 66.963 53.9408 69.6188 52.0001C72.2746 50.0593 73.3982 49.2421 73.7046 47.5057C73.9089 45.8713 72.8874 38.5169 72.7853 37.0868Z" fill="url(#paint8_linear)"/>
</g>
</g>
</mask>
<g mask="url(#mask4)">
<path opacity="0.3" d="M72.7853 37.0868C72.6831 35.6568 72.1724 35.6568 71.866 35.3504C71.6617 35.1461 70.9467 35.5546 70.4359 35.7589C70.6402 35.6568 70.8445 35.6568 70.9467 35.6568C71.3553 35.6568 71.7638 36.0654 71.866 37.3933C72.1724 40.5598 72.6832 46.5864 72.6832 46.5864C72.6832 46.5864 72.9896 47.9142 70.5381 49.7529C67.9845 51.5915 56.0334 59.5588 56.0334 59.5588C56.0334 59.5588 55.8291 59.661 55.6249 59.661C55.3184 59.661 54.8077 59.4567 54.7055 58.7417C54.7055 62.0103 56.6463 60.6824 56.6463 60.6824C56.6463 60.6824 66.963 53.9408 69.6188 52.0001C72.2746 50.0593 73.3982 49.2421 73.7046 47.5057C73.9089 45.8713 72.8874 38.5169 72.7853 37.0868Z" fill="url(#paint9_linear)"/>
</g>
</g>
<path d="M100.263 44.6457L97.1984 42.9092C96.7898 43.1135 96.3812 43.3178 95.9727 43.5221C92.0911 45.7693 88.8225 52.0001 88.7203 56.4945L88.516 56.5967L88.3118 56.6988L91.7847 58.6396C92.8062 59.3546 94.3383 59.2525 95.9727 58.3332C99.2413 56.4945 101.795 51.898 101.795 48.2207C101.795 46.5864 101.284 45.3607 100.263 44.6457Z" fill="#3A3939"/>
<path d="M101.795 48.323C101.795 52.1024 99.1392 56.5968 95.9727 58.4354C92.7041 60.274 90.1504 58.7418 90.1504 55.0646C90.1504 51.2852 92.8062 46.7908 95.9727 44.9522C99.2414 43.1136 101.795 44.6457 101.795 48.323Z" fill="#575656"/>
<path d="M101.489 48.7315C101.489 52.2044 99.0371 56.3924 96.0749 58.0267C93.1126 59.7632 90.6611 58.3331 90.6611 54.9623C90.6611 51.4894 93.1126 47.3014 96.0749 45.6671C99.1392 43.9306 101.489 45.2585 101.489 48.7315Z" fill="#3A3939"/>
<path d="M100.263 49.7528C100.263 52.3064 98.4241 55.4729 96.279 56.6987C94.0318 58.0266 92.2953 56.903 92.2953 54.3493C92.2953 51.7957 94.1339 48.6292 96.279 47.4035C98.4241 46.1777 100.263 47.1992 100.263 49.7528Z" fill="url(#paint10_linear)"/>
<path d="M99.1391 49.753C99.1391 51.7959 97.7091 54.3495 95.8705 55.371C94.134 56.3924 92.6018 55.5753 92.6018 53.5324C92.6018 51.4895 94.0318 48.9358 95.8705 47.9144C97.7091 46.8929 99.1391 47.7101 99.1391 49.753Z" fill="#343433"/>
<path d="M99.3435 47.71L97.8113 49.5486C97.7091 49.4465 97.607 49.4465 97.5048 49.3443L98.4242 47.1993C97.9134 47.0971 97.4027 47.0971 96.7898 47.4036L96.4834 49.4465C96.3812 49.4465 96.2791 49.5486 96.0748 49.6508C95.9727 49.6508 95.8705 49.7529 95.8705 49.7529L95.7684 47.9143C95.0534 48.425 94.4405 49.0379 93.9298 49.8551L94.8491 50.7744C94.7469 50.9787 94.5426 51.2851 94.4405 51.4894L93.1126 51.1829C92.8062 51.898 92.4997 52.7151 92.3976 53.5323C92.9083 53.328 93.6233 53.1237 94.0319 53.0216C94.0319 53.1237 94.0319 53.1237 94.0319 53.2259C94.0319 53.328 94.0319 53.4301 94.0319 53.5323L92.3976 54.758C92.4997 55.4731 92.704 56.0859 93.1126 56.4945L94.5426 54.5537C94.6448 54.6559 94.7469 54.6559 94.8491 54.758L94.1341 57.1074C94.6448 57.2095 95.1555 57.1074 95.7684 56.9031L95.8705 54.758C95.9727 54.758 96.0748 54.6559 96.177 54.5537C96.2791 54.5537 96.2791 54.4516 96.3812 54.4516L96.7898 56.2902C97.5049 55.7795 98.1177 55.1666 98.6284 54.3495L97.607 53.2259C97.7091 53.0216 97.8113 52.8173 97.9134 52.613L99.3435 52.9194C99.6499 52.2044 99.8542 51.4894 100.058 50.8765L98.322 50.9787C98.322 50.8765 98.322 50.7744 98.322 50.6722C98.322 50.5701 98.322 50.5701 98.322 50.4679L100.058 49.2422C99.9563 48.6293 99.7521 48.0164 99.3435 47.71Z" fill="#BDB7B7"/>
<path d="M98.3221 50.7742C98.3221 52.102 97.4028 53.8385 96.1771 54.4514C94.9513 55.1664 94.032 54.5535 94.032 53.2257C94.032 51.8978 94.9513 50.1613 96.1771 49.5484C97.4028 48.8334 98.3221 49.3441 98.3221 50.7742Z" fill="url(#paint11_linear)"/>
<path d="M97.5047 51.1827C97.5047 51.9999 96.8919 53.1235 96.1769 53.5321C95.4618 53.9406 94.849 53.6342 94.849 52.7149C94.849 51.8977 95.4618 50.7741 96.1769 50.3656C96.8919 49.957 97.5047 50.2634 97.5047 51.1827Z" fill="url(#paint12_linear)"/>
<path d="M96.994 51.3871C96.994 51.8978 96.5854 52.6129 96.1769 52.9193C95.6661 53.2257 95.3597 53.0214 95.3597 52.4086C95.3597 51.8978 95.7683 51.1828 96.1769 50.8764C96.6876 50.6721 96.994 50.8764 96.994 51.3871Z" fill="#DBDBDA"/>
<path d="M97.3006 42.9091L100.365 44.6455C100.876 45.0541 101.386 45.5648 101.591 46.382L103.736 46.6884C103.634 42.8069 101.591 40.8662 97.3006 42.9091Z" fill="#212020"/>
<path d="M49.5986 74.1657L46.6364 72.4292C46.2278 72.6335 45.7171 72.8378 45.2064 73.1442C41.3248 75.2893 38.2605 80.703 38.2605 85.0952C38.2605 85.1974 38.2605 85.2995 38.2605 85.4017L37.6476 85.8103C37.6476 85.8103 37.5455 85.9124 37.239 86.1167L41.0184 88.2617C42.0399 88.9768 43.572 88.8746 45.2064 87.9553C48.475 86.1167 51.0287 81.5202 51.0287 77.8429C51.1308 76.1064 50.5179 74.7785 49.5986 74.1657Z" fill="#3A3939"/>
<path d="M51.1308 77.7407C51.1308 81.5201 48.475 86.0145 45.3085 87.8531C42.0398 89.6917 39.4862 88.1595 39.4862 84.4823C39.4862 80.7029 42.142 76.2085 45.3085 74.3699C48.475 72.5313 51.1308 74.0635 51.1308 77.7407Z" fill="#575656"/>
<path d="M50.8243 78.1492C50.8243 81.6221 48.3728 85.8101 45.4106 87.4444C42.4484 89.1809 39.9969 87.7509 39.9969 84.3801C39.9969 80.9071 42.4484 76.7192 45.4106 75.0848C48.3728 73.3484 50.8243 74.6763 50.8243 78.1492Z" fill="#3A3939"/>
<path d="M49.5987 79.1706C49.5987 81.7242 47.7601 84.8907 45.615 86.1164C43.3678 87.4443 41.6313 86.3207 41.6313 83.7671C41.6313 81.2135 43.4699 78.047 45.615 76.8212C47.7601 75.4933 49.5987 76.6169 49.5987 79.1706Z" fill="url(#paint13_linear)"/>
<path d="M48.3729 79.1707C48.3729 81.2136 46.9428 83.7672 45.1042 84.7887C43.3678 85.8101 41.8356 84.993 41.8356 82.9501C41.8356 80.9071 43.2656 78.3535 45.1042 77.332C46.9428 76.2084 48.3729 77.1278 48.3729 79.1707Z" fill="#343433"/>
<path d="M48.6792 77.0257L47.147 78.8643C47.0449 78.7622 46.9427 78.7621 46.8406 78.66L47.7599 76.5149C47.2492 76.4128 46.7385 76.4128 46.1256 76.7192L45.8191 78.7621C45.717 78.7621 45.6148 78.8643 45.4106 78.9664C45.3084 78.9664 45.2063 79.0686 45.2063 79.0686L45.002 77.3321C44.287 77.8428 43.6741 78.4557 43.1634 79.2729L44.0827 80.1922C43.9805 80.3965 43.7762 80.7029 43.6741 80.9072L42.4483 80.6008C42.1419 81.3158 41.8355 82.133 41.7333 82.9501C42.244 82.7458 42.9591 82.5415 43.3676 82.4394C43.3676 82.5415 43.3676 82.5415 43.3676 82.6437C43.3676 82.7458 43.3676 82.848 43.3676 82.9501L41.7333 84.1759C41.8355 84.8909 42.0398 85.5037 42.4483 85.9123L43.8784 83.9716C43.9805 84.0737 44.0827 84.0737 44.1848 84.1759L43.4698 86.5252C43.9805 86.6274 44.4912 86.5252 45.1041 86.3209L45.2063 84.1759C45.3084 84.1759 45.4106 84.0737 45.5127 83.9716C45.6149 83.9716 45.6149 83.8694 45.717 83.8694L46.1256 85.708C46.8406 85.1973 47.4535 84.5844 47.9642 83.7673L46.9427 82.6437C47.0449 82.4394 47.147 82.2351 47.2492 82.0308L48.6792 82.3372C48.9857 81.6222 49.1899 80.9072 49.3942 80.2943L47.6578 80.4986C47.6578 80.3965 47.6578 80.2943 47.6578 80.1922C47.6578 80.09 47.6578 80.09 47.6578 79.9879L49.3942 78.7621C49.2921 78.0471 49.0878 77.4343 48.6792 77.0257Z" fill="#BDB7B7"/>
<path d="M47.6579 80.1919C47.6579 81.5198 46.7386 83.2562 45.5128 83.8691C44.2871 84.5841 43.3678 83.9713 43.3678 82.6434C43.3678 81.3155 44.2871 79.579 45.5128 78.9661C46.6364 78.2511 47.6579 78.7618 47.6579 80.1919Z" fill="url(#paint14_linear)"/>
<path d="M46.8407 80.6007C46.8407 81.4179 46.2279 82.5415 45.5129 82.95C44.7978 83.3586 44.185 83.0522 44.185 82.1329C44.185 81.3157 44.7978 80.1921 45.5129 79.7835C46.2279 79.3749 46.8407 79.6814 46.8407 80.6007Z" fill="url(#paint15_linear)"/>
<path d="M46.33 80.8051C46.33 81.3158 45.9214 82.0308 45.5129 82.3373C45.0021 82.6437 44.6957 82.4394 44.6957 81.8265C44.6957 81.3158 45.1043 80.6008 45.5129 80.2943C45.9214 80.0901 46.33 80.2943 46.33 80.8051Z" fill="#DBDBDA"/>
<path d="M52.7651 77.0256C52.7651 73.042 51.335 70.3862 46.6364 72.5312L49.5986 74.1656C50.4157 74.6763 50.9265 75.6978 51.1308 77.1278L52.7651 77.4342V77.3321C52.7651 77.2299 52.7651 77.1278 52.7651 77.0256Z" fill="#212020"/>
<path d="M47.1468 59.4568C45.7167 59.0482 43.8781 58.4353 40.6095 57.0053C34.0722 54.0431 26.4112 49.2422 22.6319 45.7693C21.0997 44.3393 20.2825 43.2157 19.8739 42.6028C19.6696 43.3178 19.4654 44.5435 20.589 46.0757C22.3254 48.6294 26.4112 51.5916 29.2713 53.2259C32.1314 54.8602 39.7923 59.0482 42.3459 59.3546C43.9803 59.5589 45.7167 59.6611 47.1468 59.4568Z" fill="#4D585A"/>
<path d="M34.3787 25.5444C34.3787 25.5444 28.3521 30.6517 20.1805 41.9899C20.1805 41.9899 19.9762 42.1941 19.874 42.6027C20.2826 43.3177 20.9976 44.3392 22.632 45.7692C26.4113 49.2422 34.0723 54.043 40.6096 56.9031C43.8782 58.3331 45.7168 58.946 47.1469 59.3546C47.964 59.2524 48.6791 58.946 49.1898 58.4353C50.3134 57.1074 53.9906 50.0593 55.4207 47.71C56.8507 45.2585 59.8129 40.662 59.8129 40.662L34.3787 25.5444Z" fill="#141C1E"/>
<path d="M34.4808 26.2593C33.1529 27.485 27.7392 32.5923 20.6911 42.2961C20.6911 42.2961 20.6911 42.3983 20.589 42.5004C20.9976 43.1133 21.7126 44.0326 23.0405 45.3605C26.8199 48.8334 34.4808 53.6343 40.8138 56.3922C44.2868 57.9244 46.0232 58.5373 47.1468 58.8437C47.8618 58.7415 48.3726 58.4351 48.679 58.1287C49.394 57.2094 51.5391 53.43 53.0713 50.5699C53.7863 49.242 54.3992 48.1184 54.8077 47.4034C55.9313 45.3605 58.0764 42.0918 58.8936 40.8661L34.4808 26.2593Z" fill="#303E42"/>
<path d="M72.5809 46.4842C72.5809 46.4842 72.0702 40.4576 71.7637 37.2911C71.7637 36.0653 71.3552 35.6567 70.9466 35.6567C70.3337 35.6567 69.5165 36.4739 68.8015 36.8825C67.5758 37.5975 63.6942 40.8662 62.4685 42.1941C61.2428 43.6241 56.4419 50.9786 55.4205 52.715C54.399 54.4515 54.7054 56.0858 54.7054 56.0858V58.1287C54.7054 59.4566 55.2162 59.6609 55.7269 59.6609C55.9312 59.6609 56.1355 59.5588 56.1355 59.5588C56.1355 59.5588 68.0865 51.5914 70.538 49.7528C72.8873 47.9142 72.5809 46.4842 72.5809 46.4842Z" fill="#141C1E"/>
<path d="M72.0704 46.5863C72.0704 46.4842 71.5596 40.4576 71.2532 37.3932C71.1511 36.3718 70.9468 36.1675 70.9468 36.1675C70.7425 36.1675 70.2318 36.4739 69.8232 36.7804C69.6189 36.9846 69.3124 37.0868 69.1082 37.2911C67.9846 37.904 64.103 41.1726 62.8773 42.5005C61.958 43.522 58.9957 48.1185 57.1571 50.9786V58.1288C60.3236 55.9837 68.1888 50.6721 70.1296 49.2421C72.0704 47.8121 72.0704 46.7906 72.0704 46.5863Z" fill="#303E42"/>
<path opacity="0.7" d="M34.4806 26.2593C33.6635 26.9743 31.1098 29.4258 27.6369 33.5116L26.8197 39.436L40.7115 30.0387L34.4806 26.2593Z" fill="#C5D0D3"/>
<path d="M25.492 39.6406L20.9976 41.8878C20.8954 42.0921 20.7933 42.1943 20.6911 42.3985C20.6911 42.3985 20.6911 42.5007 20.589 42.6028C20.9976 43.2157 21.7126 44.135 23.0405 45.4629C26.8199 48.9359 34.4808 53.7367 40.8138 56.4946C44.2867 58.0268 46.0232 58.6397 47.1468 58.9461C47.8618 58.844 48.3726 58.5375 48.679 58.2311C49.1897 57.6182 50.3133 55.6775 51.5391 53.5324C31.3143 40.5599 25.492 39.6406 25.492 39.6406Z" fill="#39464A"/>
<path d="M52.7648 51.0807C51.8454 49.7529 49.8025 47.9142 45.4103 47.1992C45.4103 47.1992 40.7116 49.4464 40.5073 52.0001C40.303 54.5537 43.0609 55.8816 46.636 56.0859C48.1682 56.188 49.5982 55.5751 50.7218 54.8601C51.3347 53.6344 52.1519 52.3065 52.7648 51.0807Z" fill="#3D4B4F"/>
<path opacity="0.2" d="M34.4808 26.2593C33.1529 27.485 27.7392 32.5923 20.6911 42.2961C20.6911 42.2961 20.6911 42.3983 20.589 42.5004C20.8954 43.0111 21.5083 43.8283 22.5298 44.8498C27.2285 41.0704 34.8894 36.2695 46.2275 33.3073L34.4808 26.2593Z" fill="white"/>
<path d="M77.4843 51.8977L77.1778 51.9998C77.1778 51.9998 76.8714 52.2041 76.7692 51.5913C76.6671 50.9784 76.5649 48.9355 76.5649 48.2205C76.6671 47.5054 76.7692 47.4033 77.0757 47.3011C77.3821 47.0969 78.1993 46.6883 78.1993 46.6883C78.1993 46.6883 78.6079 46.5861 78.71 47.199C78.8121 47.8119 78.8121 49.7526 78.71 50.6719C78.5057 51.4891 77.995 51.5913 77.4843 51.8977Z" fill="#5A6567"/>
<path d="M77.5863 47.71C77.5863 47.71 77.7906 49.4464 77.6884 51.1829C77.6884 51.1829 76.8713 51.5915 76.8713 50.8765C76.7691 50.0593 76.7691 48.5271 76.7691 48.5271C76.7691 48.5271 76.7691 48.1185 77.0755 47.9143C77.4841 47.8121 77.5863 47.71 77.5863 47.71Z" fill="#414C4E"/>
<path d="M77.7905 51.1829C77.8927 49.4464 77.6884 47.71 77.6884 47.71C77.6884 47.71 77.5862 47.71 77.4841 47.8121C77.4841 48.1185 77.6884 48.9357 77.6884 49.5486C77.6884 50.0593 77.6884 50.8765 77.6884 51.2851C77.6884 51.1829 77.7905 51.1829 77.7905 51.1829Z" fill="#283335"/>
<path d="M78.1993 47.5057C78.1993 47.5057 78.6079 49.4465 78.4036 50.8765C78.4036 50.8765 78.71 50.468 78.6079 48.9358C78.5057 47.3014 78.1993 47.5057 78.1993 47.5057Z" fill="#414C4E"/>
<path d="M74.0113 54.043L73.6027 54.1451C73.6027 54.1451 73.2963 54.3494 73.1942 53.7365C73.092 53.1236 72.9899 51.0807 72.9899 50.3657C73.092 49.6507 73.1942 49.5485 73.5006 49.4464C73.807 49.2421 74.6242 48.8335 74.6242 48.8335C74.6242 48.8335 75.0328 48.7314 75.1349 49.3443C75.2371 49.9571 75.2371 51.8979 75.1349 52.8172C75.0328 53.6344 74.522 53.8387 74.0113 54.043Z" fill="#5A6567"/>
<path d="M74.1134 49.957C74.1134 49.957 74.3177 51.6935 74.2155 53.43C74.2155 53.43 73.3984 53.8386 73.3984 53.1235C73.3984 52.3064 73.3984 50.6721 73.3984 50.6721C73.3984 50.6721 73.3984 50.2635 73.7048 50.0592C74.0112 49.957 74.1134 49.957 74.1134 49.957Z" fill="#414C4E"/>
<path d="M74.3178 53.43C74.4199 51.6935 74.2156 49.957 74.2156 49.957C74.2156 49.957 74.1135 49.957 74.0113 50.0592C74.0113 50.3656 74.2156 51.1828 74.2156 51.7956C74.2156 52.3064 74.2156 53.1235 74.2156 53.5321C74.2156 53.43 74.3178 53.43 74.3178 53.43Z" fill="#283335"/>
<path d="M74.7263 49.7528C74.7263 49.7528 75.1349 51.6936 74.9306 53.1236C74.9306 53.1236 75.237 52.715 75.1349 51.1828C75.0327 49.5485 74.7263 49.7528 74.7263 49.7528Z" fill="#414C4E"/>
<path d="M87.3923 53.1237L88.1073 51.5916C88.0052 51.6937 88.0052 51.6937 88.0052 51.6937L56.3401 70.4885L57.4637 71.3056C57.4637 71.3056 57.9744 71.6121 58.4852 71.2035L86.2687 54.5538C86.2687 54.5538 87.188 54.043 87.3923 53.1237Z" fill="#5A6567"/>
<path d="M104.451 46.0757C104.655 45.6671 105.779 42.2963 105.983 39.8448C106.187 37.4955 105.881 35.9633 105.574 35.5547C105.472 35.4526 105.472 35.3504 105.37 35.2483L104.451 35.759C104.451 35.759 105.268 36.9848 104.757 38.3127C104.349 39.4363 102.918 41.4792 102.101 42.5006C103.123 43.2156 103.634 44.6457 103.634 46.4843C104.042 46.4843 104.349 46.28 104.451 46.0757Z" fill="#5A6567"/>
<path d="M39.2819 80.7028C38.1583 80.7028 35.8089 80.7027 35.5025 79.7834C35.0939 78.5577 35.0939 76.5148 38.669 73.0418C38.669 71.8161 39.4862 70.6925 39.4862 70.6925C35.0939 73.2461 30.4974 73.144 26.5137 71.9182C21.5086 70.4882 17.0141 67.7303 12.5197 64.2573C8.02534 60.7844 8.02535 57.8222 7.82105 56.4943C7.61676 55.8814 7.82105 55.0642 8.02535 54.2471C7.00389 55.3707 5.16527 57.5157 4.45025 59.1501C3.4288 61.3973 3.63309 67.9346 3.83738 69.0582C3.93953 70.1818 5.676 72.6333 5.676 72.6333V73.6547C7.71891 76.6169 21.6107 84.6864 24.1643 85.81C26.6158 86.9336 31.621 87.8529 34.1746 87.4444C36.7282 87.0358 37.7497 85.81 37.7497 85.81L38.4647 85.4014C38.4647 85.2993 38.4647 85.1972 38.4647 85.095C38.3626 83.665 38.669 82.1328 39.2819 80.7028Z" fill="#404B4D"/>
<path d="M22.5301 83.7671C22.7344 82.2349 23.5515 76.6169 23.5515 76.1062C23.6537 75.4933 24.1644 74.7783 24.1644 74.7783L27.0245 72.1225C26.8202 72.0204 26.5138 72.0204 26.3095 71.9182C21.3043 70.4882 16.8099 67.7303 12.3155 64.2573C11.1919 63.4401 10.3748 62.623 9.76191 61.908C9.76191 61.908 7.82114 63.7466 7.31041 64.4616C6.69754 65.1766 6.69754 65.8916 6.69754 65.8916L7.10612 74.7783C13.5413 79.7834 20.4872 83.2564 22.0194 83.9714C22.1215 83.9714 22.4279 84.0735 22.5301 83.7671Z" fill="#404B4D"/>
<path d="M15.3798 71.8162C12.4176 69.9776 9.55751 68.0368 8.12747 67.0154V69.0583H8.22962C8.22962 69.0583 14.1541 73.5527 23.245 78.0471L23.4493 76.2085C22.1214 75.4935 18.9549 73.9613 15.3798 71.8162Z" fill="#1B2628"/>
<path d="M23.1428 78.9665C13.439 74.3699 7.31026 69.5691 7.31026 69.5691V72.4292C7.31026 72.4292 13.2347 77.1279 22.8364 81.6223C22.9385 80.8051 23.0407 79.8858 23.1428 78.9665Z" fill="#404B4D"/>
<path d="M7.31026 69.467C7.31026 69.467 13.439 74.2679 23.1428 78.8644C23.1428 78.4558 23.245 78.1494 23.245 77.843C14.154 73.4507 8.22957 68.9563 8.22957 68.9563L7.31026 69.467Z" fill="#4D585A"/>
<path d="M31.621 79.6813C31.5188 80.4985 30.7017 80.907 29.6802 80.907C28.5566 80.907 27.3309 79.9877 27.3309 79.1706C27.3309 78.3534 28.8631 77.7405 29.8845 77.8427C31.1103 77.9448 31.7231 78.762 31.621 79.6813Z" fill="url(#paint16_linear)"/>
<path opacity="0.2" d="M19.5677 77.4341C18.7505 77.0255 16.7076 75.9019 14.6647 74.7783C12.6218 73.6547 10.681 72.2247 9.96599 71.714C9.86385 71.714 9.86385 71.6118 9.7617 71.6118C9.65956 71.6118 9.65956 71.8161 9.65956 71.8161L9.55741 73.5526C9.55741 73.5526 9.55741 73.859 9.7617 74.0633C10.3746 74.4719 12.0089 75.5955 13.9497 76.8212C15.8904 78.047 18.5462 79.477 19.4655 79.9878C19.4655 79.9878 19.5677 79.9878 19.6698 79.9878C19.772 79.9878 19.8741 79.9877 19.8741 79.7835V77.9448C19.8741 77.5363 19.5677 77.4341 19.5677 77.4341Z" fill="black"/>
<path d="M19.4657 77.5366C18.6486 77.128 16.6056 76.0044 14.5627 74.8808C13.1327 74.0636 11.4984 73.0422 9.86405 71.8164L9.7619 73.5529C9.7619 73.5529 9.7619 73.7572 9.96619 73.9615C10.5791 74.4722 12.2134 75.5958 14.052 76.7194C15.9928 77.843 18.5464 79.273 19.5679 79.8859H19.67V78.0473C19.67 77.6387 19.4657 77.5366 19.4657 77.5366Z" fill="white"/>
<path d="M9.7619 68.139C9.14903 67.7304 8.6383 67.3218 8.22972 67.0154V69.0583H8.33187C8.33187 69.0583 8.84259 69.4669 9.86405 70.1819V68.139H9.7619Z" fill="#344042"/>
<path d="M20.8957 74.8809V76.7195C21.7128 77.1281 22.53 77.5366 23.3472 77.9452L23.5514 76.1066C22.9386 75.8002 22.0193 75.3916 20.8957 74.8809Z" fill="#344042"/>
<path d="M20.8958 76.0043C15.5842 73.2464 11.7027 70.6927 9.7619 69.2627V69.5691C11.8048 70.9992 15.6863 73.5528 20.8958 76.3107V76.0043Z" fill="#404B4D"/>
<path d="M20.8958 75.2892C15.5842 72.5313 11.7027 69.9776 9.7619 68.5476V68.854C11.8048 70.2841 15.6863 72.8377 20.8958 75.5956V75.2892Z" fill="#404B4D"/>
<path d="M20.4872 74.6763V77.1278L20.7936 77.3321V74.8806C20.7936 74.7784 20.6915 74.6763 20.4872 74.6763Z" fill="#404B4D"/>
<path d="M20.8957 74.8809V77.3324L21.5085 76.9238V75.0851C21.3042 75.0851 21.1 74.983 20.8957 74.8809Z" fill="#333E40"/>
<path d="M17.729 73.144V75.5955L18.0355 75.7998V73.2462C17.9333 73.2462 17.8312 73.2462 17.729 73.144Z" fill="#404B4D"/>
<path d="M18.0355 73.3486V75.9023L18.6484 75.4937V73.6551C18.4441 73.5529 18.2398 73.4508 18.0355 73.3486Z" fill="#333E40"/>
<path d="M14.9712 71.5098V74.0634L15.2776 74.2677V71.7141C15.2776 71.7141 15.0733 71.6119 14.9712 71.5098Z" fill="#404B4D"/>
<path d="M15.3799 71.8161C15.3799 71.714 15.3799 71.714 15.3799 71.8161V74.3697L15.9928 73.9612V72.1225C15.7885 72.0204 15.5842 71.9183 15.3799 71.8161Z" fill="#333E40"/>
<path d="M12.4175 69.8755V72.4291L12.724 72.6334V70.0798C12.6218 69.9776 12.5197 69.9776 12.4175 69.8755Z" fill="#404B4D"/>
<path d="M12.724 70.0796V72.6332L13.3369 72.2247V70.386C13.1326 70.386 12.9283 70.1817 12.724 70.0796Z" fill="#333E40"/>
<path d="M9.7619 68.1392V70.8971L10.0683 71.1014V68.3434C9.96619 68.2413 9.86405 68.1392 9.7619 68.1392Z" fill="#404B4D"/>
<path d="M10.0681 68.3433V71.1012L10.681 70.6926V68.7518C10.4767 68.5476 10.2724 68.4454 10.0681 68.3433Z" fill="#333E40"/>
<path d="M8.12747 73.144V74.1655C8.12747 74.1655 8.22962 74.6762 8.94464 75.187C10.9875 76.7191 14.5626 78.9663 17.2184 80.4985C19.6699 81.9286 21.5085 82.8479 22.53 83.3586C22.6321 82.95 22.6321 82.3371 22.7343 81.7243C15.3798 78.1492 10.0682 74.5741 8.12747 73.144Z" fill="#1B2628"/>
<path d="M22.6321 82.7458C19.6699 81.3158 13.7455 78.3536 8.12747 74.0635V74.1656C8.12747 74.1656 8.12747 74.2678 8.22962 74.4721C13.8476 78.66 19.7721 81.6222 22.6321 83.0523C22.6321 82.848 22.6321 82.7458 22.6321 82.7458Z" fill="#404B4D"/>
<path d="M8.12747 73.6547C14.0519 78.047 20.0785 81.1113 22.7343 82.3371C22.7343 82.2349 22.7343 82.1328 22.7343 82.1328C20.0785 80.9071 14.0519 77.8427 8.12747 73.4504V73.6547Z" fill="#404B4D"/>
<path d="M7.31026 69.4671V66.4027C7.31026 66.4027 8.63815 63.9512 9.14888 63.2362C9.6596 62.6233 9.86389 61.8062 9.86389 61.8062C9.86389 61.8062 7.92313 63.6448 7.4124 64.3598C6.79953 65.0748 6.79953 65.7898 6.79953 65.7898L7.20811 74.6765L7.31026 72.4293V69.4671Z" fill="#5A6567"/>
<path d="M7.31022 66.4027C7.31022 66.4027 11.2939 69.2628 15.3797 71.7143C18.9548 73.9615 22.1213 75.3915 23.5513 76.0044C23.6535 75.3915 24.1642 74.6765 24.1642 74.6765L27.0243 72.0207C26.82 71.9186 26.5136 71.9186 26.3093 71.8164C21.3041 70.3864 16.8097 67.6284 12.3153 64.1555C11.1917 63.3383 10.3746 62.5212 9.76171 61.8062L7.41236 64.8705C7.51451 64.8705 7.20807 65.0748 7.31022 66.4027Z" fill="#DFE6EA"/>
<path opacity="0.5" d="M15.7885 70.4883C12.4177 68.4454 9.14905 66.1982 7.41258 64.9724C7.31043 65.0746 7.20828 65.4831 7.31043 66.4024C7.31043 66.4024 11.2941 69.2625 15.3799 71.714C18.955 73.9612 22.1215 75.3913 23.5516 76.0041C23.5516 75.5955 23.858 75.187 24.0623 74.9827C22.0194 74.0634 19.0572 72.5312 15.7885 70.4883Z" fill="#DFE6EA"/>
<path d="M30.0888 77.8428C29.9867 78.0471 29.8845 78.3535 29.8845 78.6599C29.8845 79.4771 30.5995 80.1921 31.4167 80.1921C31.4167 80.1921 31.4167 80.1921 31.5188 80.1921C31.621 80.09 31.621 79.8857 31.7231 79.6814C31.7231 78.8642 31.1103 78.0471 30.0888 77.8428Z" fill="#F0EFF0"/>
<path d="M30.8038 78.0471C30.5995 78.2514 30.3952 78.5578 30.3952 78.8643C30.3952 79.375 30.8038 79.8857 31.3145 79.8857C31.4167 79.8857 31.5188 79.8857 31.621 79.8857C31.621 79.7836 31.621 79.7836 31.621 79.6814C31.7231 79.0686 31.4167 78.4557 30.8038 78.0471Z" fill="white"/>
<g opacity="0.05">
<path opacity="0.05" d="M7.5146 64.8702L9.86395 61.8058C7.82104 59.4565 7.82104 57.4136 7.71889 56.3921C7.61675 55.8814 7.82104 55.0642 8.02533 54.2471C7.00388 55.3707 5.16526 57.5157 4.45024 59.1501C4.24595 59.5586 4.1438 59.9672 4.04166 60.5801C4.65453 62.2144 5.77813 64.053 7.31031 65.7895C7.31031 64.9723 7.5146 64.8702 7.5146 64.8702Z" fill="white"/>
<path opacity="0.05" d="M27.1267 72.0205L24.2666 74.6762C24.2666 74.6762 23.9601 75.0848 23.7559 75.4934C32.5404 76.9234 35.9112 75.4934 35.9112 75.4934L36.524 75.3913C37.0348 74.6762 37.7498 73.7569 38.7712 72.8376C38.7712 71.6119 39.5884 70.4883 39.5884 70.4883C35.2983 73.0419 30.906 73.0419 27.1267 72.0205Z" fill="white"/>
</g>
<path d="M5.26731 63.134C4.75658 62.2147 4.348 61.3975 4.04156 60.5803C3.53083 63.4404 3.73512 68.1391 3.73512 69.0584C3.83727 70.182 5.57374 72.6335 5.57374 72.6335C5.57374 72.6335 4.96087 66.3005 4.85873 64.6661C4.75658 64.1554 4.96087 63.5425 5.26731 63.134Z" fill="#404B4D"/>
<path d="M38.6689 72.9397C38.6689 71.7139 39.486 70.5903 39.486 70.5903C39.486 70.5903 34.4809 73.859 33.3573 76.9234C32.2337 79.6813 32.1316 83.8693 32.438 87.5465C33.153 87.5465 33.6637 87.5465 34.1745 87.4443C36.7281 87.0358 37.7496 85.81 37.7496 85.81L38.4646 85.4014C38.4646 85.2993 38.4646 85.1971 38.4646 85.095C38.4646 83.665 38.771 82.1328 39.3839 80.6006C38.2603 80.6006 35.9109 80.6006 35.6045 79.6813C35.0938 78.4555 35.0938 76.4126 38.6689 72.9397Z" fill="#5A6567"/>
<path d="M29.1695 73.5527C29.1695 73.5527 26.9223 75.0849 26.3094 76.3107C25.7987 77.5364 25.288 84.993 25.288 84.993C25.288 84.993 26.2073 77.5364 26.9223 76.4128C27.6373 75.2892 29.1695 73.5527 29.1695 73.5527Z" fill="#5A6567"/>
<path d="M55.9315 59.1503C55.9315 59.1503 57.668 59.7632 59.5066 59.8653C62.2645 60.0696 62.8774 58.6396 62.8774 58.6396C62.8774 58.6396 62.7753 56.4945 62.571 55.7795C62.3667 55.1666 61.2431 54.9623 60.6302 54.8602C60.0173 54.758 59.098 54.3494 58.4852 54.9623C57.8723 55.473 57.5658 55.6773 57.668 56.1881C57.668 56.6988 57.7701 57.516 57.7701 57.516L56.953 57.3117C56.953 57.3117 56.0337 57.9245 55.8294 58.0267C55.5229 58.3331 55.6251 58.8438 55.9315 59.1503Z" fill="#5A6567"/>
<path d="M61.4474 57.0053C61.3453 56.3924 60.9367 56.4946 60.3238 56.3924C59.7109 56.2903 57.5659 55.7795 57.4637 55.7795C57.3616 55.8817 57.3616 55.9838 57.3616 56.1881C57.3616 56.6988 57.4637 57.516 57.4637 57.516L56.6466 57.3117C56.6466 57.3117 55.7273 57.9246 55.523 58.0267C55.3187 58.231 55.523 58.6396 55.7273 59.0482C55.7273 59.0482 57.4637 59.6611 59.3024 59.7632C60.3238 59.8654 60.9367 59.6611 61.4474 59.4568C61.9581 58.8439 61.5496 57.6182 61.4474 57.0053Z" fill="#404B4D"/>
<path d="M57.4637 58.4353C57.3615 58.6396 57.2594 58.7417 57.0551 58.7417C58.5873 59.3546 61.1409 59.1503 61.1409 59.1503C59.4044 59.0482 58.0765 58.6396 57.4637 58.4353Z" fill="#5A6567"/>
<path d="M57.5658 57.6181L56.7486 57.4138C56.7486 57.4138 55.8293 58.0267 55.625 58.1288C55.5229 58.1288 55.5229 58.231 55.5229 58.3331C56.0336 58.5374 56.8508 58.7417 57.0551 58.7417C57.5658 58.8439 57.5658 58.3331 57.5658 57.6181Z" fill="#333E40"/>
<path d="M103.327 30.3452L91.6825 37.0868V38.5169L103.429 31.7753L103.327 30.3452Z" fill="#5A6567"/>
<path opacity="0.2" d="M91.9889 41.4791L91.7846 38.5169V37.0868C91.7846 36.9847 90.3546 28.7109 89.5374 25.3401C89.231 24.0122 88.7203 23.2972 88.1074 23.0929C87.3924 22.8886 86.7795 23.3993 86.7795 23.3993C86.6773 23.3993 75.3392 30.1409 73.092 31.3667C70.7427 32.6946 63.8989 38.2104 61.6517 40.6619C59.4045 43.2156 54.3994 52.0001 53.7865 53.0215C53.1736 54.2473 53.0715 55.7795 53.0715 55.8816L53.4801 66.0962L53.9908 71.5099L53.7865 75.8H53.9908L54.1951 71.5099L53.6844 66.0962L53.2758 55.8816C53.2758 55.8816 53.3779 54.3494 53.9908 53.1237C54.5015 52.1022 59.5067 43.3177 61.7539 40.7641C63.7968 38.5169 70.4362 33.1032 72.8877 31.6731C73.2963 32.7967 74.0113 35.759 74.522 38.5169C75.0328 41.377 75.5435 47.9143 75.5435 48.0164V59.1503L75.4413 60.9889L74.8285 63.3382L75.0328 63.4404L75.6456 61.091L75.8499 59.1503V48.0164C75.8499 47.9143 75.3392 41.377 74.8285 38.5169C74.3178 35.6568 73.6027 32.6946 73.1942 31.571C75.4414 30.3452 86.7795 23.6036 86.8816 23.5015C86.8816 23.5015 87.3924 23.0929 88.0052 23.1951C88.516 23.3993 89.0267 24.1144 89.3331 25.238C90.1503 28.6088 91.5803 36.8826 91.5803 36.9847V38.4147L91.7846 41.377L92.2954 45.7692H92.4996L91.9889 41.4791Z" fill="black"/>
<path d="M17.4228 61.7039C17.4228 61.7039 16.8099 63.3382 16.7078 64.0532C16.6057 64.7682 16.2992 65.6875 17.7293 66.4025C19.0571 67.2197 19.7722 67.0154 20.2829 66.5047C20.7936 65.994 22.2237 64.4618 22.2237 64.4618L17.4228 61.7039Z" fill="#DFE6EA"/>
<path d="M18.0355 65.9939C19.2613 66.7089 19.9763 66.5047 20.3849 66.0961C20.7935 65.6875 21.6106 64.7682 22.0192 64.4617L17.7291 62.0103C17.5248 62.4188 17.2184 63.4403 17.1162 63.951C17.0141 64.4617 16.8098 65.2789 18.0355 65.9939Z" fill="#344042"/>
<path d="M24.9815 34.7375L23.96 32.6946C23.96 32.6946 22.6321 33.1032 22.53 33.9203C22.4279 34.6353 22.53 36.9847 22.6321 37.6997C23.4493 36.7804 24.1643 35.7589 24.9815 34.7375Z" fill="#404B4D"/>
<path d="M23.96 32.6946C23.96 32.6946 23.3472 32.8989 22.9386 33.2053C22.9386 34.1246 23.1429 35.3504 23.7557 36.1675C24.1643 35.6568 24.5729 35.1461 24.9815 34.6353L23.96 32.6946Z" fill="#5A6567"/>
<path d="M12.8259 48.1184L12.6216 48.3227C10.783 50.4678 8.63792 53.2257 8.53577 53.43C8.53577 53.5321 8.22934 53.7364 7.82075 54.145V54.2471C7.51432 55.2686 7.41217 55.9836 7.51432 56.4943C7.51432 56.5965 7.51432 56.6986 7.51432 56.8008C7.61646 57.9244 7.82075 59.763 9.65937 62.1123L9.86366 62.2145L10.068 61.908C10.1701 61.7038 12.6216 57.2094 13.3366 54.4514C14.0516 51.8978 13.9495 49.3442 13.0302 48.2206L12.8259 48.1184Z" fill="#87969F"/>
<path d="M40.7115 64.9725C40.4051 64.6661 39.9965 64.564 39.2815 64.564C39.1794 64.564 39.0772 64.564 38.8729 64.564C37.1365 64.6661 33.0506 65.0747 30.8034 66.6069C28.3519 68.2412 27.024 71.8163 26.9219 71.9184L26.8198 72.1227L27.024 72.2249C28.6584 72.6335 30.2927 72.8378 31.8249 72.8378C34.5828 72.8378 37.2386 72.1227 39.5879 70.6927H39.6901V70.5905C39.6901 70.4884 40.7115 67.8326 40.9158 66.5047C41.018 65.7897 41.018 65.279 40.7115 64.9725Z" fill="#87969F"/>
<path d="M7.71858 56.3922C7.82073 57.4136 7.82073 59.3544 9.86364 61.8059C9.86364 61.8059 12.4173 57.2093 13.1323 54.4514C13.7452 52.102 13.7452 49.5484 12.8259 48.4248C10.8851 50.672 8.74004 53.5321 8.74004 53.5321C8.74004 53.5321 8.4336 53.8385 8.02502 54.2471C7.82073 55.0643 7.61644 55.8814 7.71858 56.3922Z" fill="#E3E3E4"/>
<path d="M39.3837 70.5903C39.3837 70.5903 40.4051 67.8324 40.6094 66.5045C40.8137 65.1766 40.6094 64.5637 39.2815 64.768C37.9537 64.8701 33.3571 65.1766 30.9056 66.8109C28.4541 68.4452 27.1262 72.0203 27.1262 72.0203C30.9056 73.0418 35.2979 73.0418 39.3837 70.5903Z" fill="#E3E3E4"/>
<path d="M35.4001 70.5905C35.4001 71.8162 34.5829 72.3269 33.4593 71.7141C32.4379 71.1012 31.5185 69.569 31.5185 68.3433C31.5185 67.1175 32.3357 66.6068 33.4593 67.2197C34.5829 67.9347 35.4001 69.3647 35.4001 70.5905Z" fill="white"/>
<path d="M11.8044 56.8009C11.8044 58.0267 11.0893 58.5374 10.0679 57.9245C9.14858 57.3116 8.43356 55.7794 8.43356 54.5537C8.43356 53.328 9.14858 52.8172 10.0679 53.4301C10.9872 54.043 11.8044 55.5752 11.8044 56.8009Z" fill="white"/>
<path d="M38.7707 67.9348C38.7707 68.6498 38.26 68.8541 37.7493 68.5476C37.1364 68.2412 36.7278 67.424 36.7278 66.709C36.7278 65.994 37.2385 65.7897 37.7493 66.0961C38.26 66.5047 38.7707 67.3219 38.7707 67.9348Z" fill="white"/>
<mask id="mask5" mask-type="alpha" maskUnits="userSpaceOnUse" x="27" y="64" width="14" height="9">
<path d="M39.3837 70.5903C39.3837 70.5903 40.4051 67.8324 40.6094 66.5045C40.8137 65.1766 40.6094 64.5637 39.2815 64.768C37.9537 64.8701 33.3571 65.1766 30.9056 66.8109C28.4541 68.4452 27.1262 72.0203 27.1262 72.0203C30.9056 73.0418 35.2979 73.0418 39.3837 70.5903Z" fill="url(#paint17_linear)"/>
</mask>
<g mask="url(#mask5)">
<path d="M39.3837 70.5903C39.3837 70.5903 40.4051 67.8324 40.6094 66.5045C40.8137 65.1766 40.6094 64.5637 39.2815 64.768C37.9537 64.8701 33.3571 65.1766 30.9056 66.8109C28.4541 68.4452 27.1262 72.0203 27.1262 72.0203C30.9056 73.0418 35.2979 73.0418 39.3837 70.5903Z" fill="url(#paint18_linear)"/>
</g>
<mask id="mask6" mask-type="alpha" maskUnits="userSpaceOnUse" x="7" y="48" width="7" height="14">
<path d="M7.71858 56.3922C7.82073 57.4136 7.82073 59.3544 9.86364 61.8059C9.86364 61.8059 12.4173 57.2093 13.1323 54.4514C13.7452 52.102 13.7452 49.5484 12.8259 48.4248C10.8851 50.672 8.74004 53.5321 8.74004 53.5321C8.74004 53.5321 8.4336 53.8385 8.02502 54.2471C7.82073 55.0643 7.61644 55.8814 7.71858 56.3922Z" fill="url(#paint19_linear)"/>
</mask>
<g mask="url(#mask6)">
<path d="M7.71858 56.3922C7.82073 57.4136 7.82073 59.3544 9.86364 61.8059C9.86364 61.8059 12.4173 57.2093 13.1323 54.4514C13.7452 52.102 13.7452 49.5484 12.8259 48.4248C10.8851 50.672 8.74004 53.5321 8.74004 53.5321C8.74004 53.5321 8.4336 53.8385 8.02502 54.2471C7.82073 55.0643 7.61644 55.8814 7.71858 56.3922Z" fill="url(#paint20_linear)"/>
</g>
<defs>
<linearGradient id="paint0_linear" x1="37.4843" y1="80.1247" x2="105.542" y2="36.9495" gradientUnits="userSpaceOnUse">
<stop/>
<stop offset="0.1304" stop-color="white"/>
<stop offset="0.4198"/>
<stop offset="0.6738" stop-color="#0E0E0E"/>
<stop offset="0.8663" stop-color="white"/>
<stop offset="1"/>
</linearGradient>
<linearGradient id="paint1_linear" x1="37.4843" y1="80.1247" x2="105.542" y2="36.9495" gradientUnits="userSpaceOnUse">
<stop stop-color="white"/>
<stop offset="0.1304" stop-color="white"/>
<stop offset="0.4198" stop-color="white"/>
<stop offset="0.6738" stop-color="white"/>
<stop offset="0.8663" stop-color="white"/>
<stop offset="1" stop-color="white"/>
</linearGradient>
<linearGradient id="paint2_linear" x1="105.101" y1="34.3655" x2="86.2725" y2="45.7404" gradientUnits="userSpaceOnUse">
<stop stop-color="white"/>
<stop offset="1"/>
</linearGradient>
<linearGradient id="paint3_linear" x1="105.101" y1="34.3655" x2="86.2725" y2="45.7404" gradientUnits="userSpaceOnUse">
<stop/>
<stop offset="1"/>
</linearGradient>
<linearGradient id="paint4_linear" x1="34.8285" y1="72.6775" x2="55.7566" y2="72.6775" gradientUnits="userSpaceOnUse">
<stop stop-color="white"/>
<stop offset="1"/>
</linearGradient>
<linearGradient id="paint5_linear" x1="34.8285" y1="72.6775" x2="55.7566" y2="72.6775" gradientUnits="userSpaceOnUse">
<stop/>
<stop offset="1"/>
</linearGradient>
<linearGradient id="paint6_linear" x1="16.7428" y1="69.7148" x2="20.0308" y2="64.2213" gradientUnits="userSpaceOnUse">
<stop stop-color="white"/>
<stop offset="1"/>
</linearGradient>
<linearGradient id="paint7_linear" x1="16.7428" y1="69.7148" x2="20.0308" y2="64.2213" gradientUnits="userSpaceOnUse">
<stop/>
<stop offset="1"/>
</linearGradient>
<linearGradient id="paint8_linear" x1="76.3467" y1="35.6848" x2="58.6054" y2="61.3047" gradientUnits="userSpaceOnUse">
<stop stop-color="white"/>
<stop offset="1"/>
</linearGradient>
<linearGradient id="paint9_linear" x1="76.3467" y1="35.6848" x2="58.6054" y2="61.3047" gradientUnits="userSpaceOnUse">
<stop stop-color="white"/>
<stop offset="1" stop-color="white"/>
</linearGradient>
<linearGradient id="paint10_linear" x1="92.2091" y1="52.0575" x2="100.258" y2="52.0575" gradientUnits="userSpaceOnUse">
<stop stop-color="#C2C1C1"/>
<stop offset="1" stop-color="#DFDEDD"/>
</linearGradient>
<linearGradient id="paint11_linear" x1="94.0356" y1="51.9894" x2="98.3252" y2="51.9894" gradientUnits="userSpaceOnUse">
<stop stop-color="#C2C1C1"/>
<stop offset="1" stop-color="#DFDEDD"/>
</linearGradient>
<linearGradient id="paint12_linear" x1="97.1394" y1="50.1342" x2="95.2409" y2="53.7896" gradientUnits="userSpaceOnUse">
<stop stop-color="#C2C1C1"/>
<stop offset="1" stop-color="#DFDEDD"/>
</linearGradient>
<linearGradient id="paint13_linear" x1="41.5054" y1="81.4688" x2="49.5541" y2="81.4688" gradientUnits="userSpaceOnUse">
<stop stop-color="#C2C1C1"/>
<stop offset="1" stop-color="#DFDEDD"/>
</linearGradient>
<linearGradient id="paint14_linear" x1="43.3317" y1="81.4" x2="47.6212" y2="81.4" gradientUnits="userSpaceOnUse">
<stop stop-color="#C2C1C1"/>
<stop offset="1" stop-color="#DFDEDD"/>
</linearGradient>
<linearGradient id="paint15_linear" x1="46.4341" y1="79.5453" x2="44.5354" y2="83.2011" gradientUnits="userSpaceOnUse">
<stop stop-color="#C2C1C1"/>
<stop offset="1" stop-color="#DFDEDD"/>
</linearGradient>
<linearGradient id="paint16_linear" x1="28.9266" y1="77.5232" x2="29.7989" y2="80.4417" gradientUnits="userSpaceOnUse">
<stop stop-color="#394142"/>
<stop offset="0.5107" stop-color="#7A8B8F"/>
<stop offset="1" stop-color="#515B5E"/>
</linearGradient>
<linearGradient id="paint17_linear" x1="27.1019" y1="68.7493" x2="40.7274" y2="68.7493" gradientUnits="userSpaceOnUse">
<stop stop-color="white"/>
<stop offset="1"/>
</linearGradient>
<linearGradient id="paint18_linear" x1="27.1019" y1="68.7493" x2="40.7274" y2="68.7493" gradientUnits="userSpaceOnUse">
<stop stop-color="white"/>
<stop offset="1" stop-color="white"/>
</linearGradient>
<linearGradient id="paint19_linear" x1="12.6969" y1="48.5866" x2="7.95403" y2="61.4529" gradientUnits="userSpaceOnUse">
<stop stop-color="white"/>
<stop offset="1"/>
</linearGradient>
<linearGradient id="paint20_linear" x1="12.6969" y1="48.5866" x2="7.95403" y2="61.4529" gradientUnits="userSpaceOnUse">
<stop stop-color="white"/>
<stop offset="1" stop-color="white"/>
</linearGradient>
</defs>
</svg>
