<svg width="150" height="135" viewBox="0 0 150 135" fill="none" xmlns="../../../www.w3.org/2000/svg.html">
<g style="mix-blend-mode:multiply" opacity="0.1">
<path d="M148.842 69.4784C149.932 69.9984 149.962 70.9084 148.922 71.4784L41.4521 133.218C40.1772 133.887 38.7848 134.301 37.3521 134.438L32.162 134.748C30.7182 134.784 29.2794 134.564 27.9121 134.098L20.2421 131.198C18.8848 130.661 17.568 130.026 16.302 129.298L6.50205 123.518C5.2712 122.741 4.13374 121.825 3.11205 120.788L1.16205 118.678C0.728454 118.159 0.404743 117.557 0.210511 116.909C0.0162794 116.261 -0.0444228 115.581 0.0320598 114.908L0.382051 112.908C0.68714 111.573 1.50642 110.413 2.66205 109.678L107.342 51.7584C107.95 51.4674 108.611 51.3064 109.284 51.2857C109.958 51.2651 110.628 51.3852 111.252 51.6384L148.842 69.4784Z" fill="black"/>
</g>
<path d="M54.0721 112.838L51.3521 111.318C50.5621 111.758 49.7321 112.218 48.9021 112.618C46.2173 114.055 44.0467 116.292 42.6921 119.018C41.6288 121.474 40.6975 123.984 39.9021 126.538L39.9621 126.588L44.9621 129.368C45.6914 129.611 46.4675 129.68 47.2281 129.569C47.9888 129.458 48.7128 129.17 49.3421 128.728C51.2867 127.463 52.9053 125.757 54.066 123.748C55.2268 121.739 55.897 119.485 56.0221 117.168C56.0121 115.028 55.2521 113.528 54.0721 112.838Z" fill="#3A3939"/>
<path d="M56.0121 117.168C55.887 119.485 55.2168 121.739 54.056 123.748C52.8952 125.757 51.2767 127.463 49.3321 128.728C45.6421 130.858 42.6521 129.128 42.6521 124.878C42.7773 122.56 43.4474 120.305 44.6081 118.294C45.7688 116.284 47.3873 114.576 49.3321 113.308C53.0721 111.178 56.0121 112.908 56.0121 117.168Z" fill="#575656"/>
<path d="M55.652 117.858C55.5374 119.961 54.9291 122.008 53.8763 123.832C52.8234 125.656 51.3557 127.207 49.592 128.358C46.242 130.288 43.532 128.718 43.532 124.858C43.6442 122.755 44.2515 120.707 45.3045 118.883C46.3576 117.058 47.8266 115.508 49.592 114.358C52.942 112.478 55.652 113.988 55.652 117.858Z" fill="#3A3939"/>
<path d="M53.752 119.088C53.6848 120.488 53.2874 121.852 52.5922 123.068C51.897 124.285 50.9237 125.32 49.752 126.088C47.532 127.368 45.752 126.328 45.752 123.768C45.8191 122.369 46.2165 121.005 46.9117 119.788C47.607 118.572 48.5802 117.537 49.752 116.768C51.952 115.478 53.752 116.528 53.752 119.088Z" fill="url(#paint0_linear)"/>
<path d="M49.7321 116.768C49.4252 116.947 49.1342 117.151 48.8621 117.378L49.1621 117.188C51.0521 116.098 52.5821 116.988 52.5821 119.188C52.518 120.375 52.1748 121.529 51.5806 122.558C50.9863 123.586 50.1577 124.46 49.1621 125.108C47.2921 126.188 45.7621 125.328 45.7421 123.178C45.7321 123.368 45.7321 123.558 45.7421 123.748C45.7421 126.308 47.5421 127.348 49.7421 126.068C50.9138 125.3 51.8871 124.265 52.5823 123.048C53.2775 121.832 53.6749 120.468 53.7421 119.068C53.7521 116.528 51.9521 115.478 49.7321 116.768Z" fill="url(#paint1_linear)"/>
<path d="M50.0121 116.618C51.7721 115.978 53.1121 116.988 53.1121 119.128C53.0407 120.444 52.6603 121.725 52.0019 122.866C51.3434 124.008 50.4253 124.978 49.3221 125.698C47.9521 126.488 46.752 126.338 46.092 125.458C46.722 126.678 48.0921 126.978 49.7321 126.048C50.9038 125.28 51.8771 124.245 52.5723 123.028C53.2675 121.812 53.6649 120.448 53.7321 119.048C53.7521 116.628 52.0721 115.578 50.0121 116.618Z" fill="url(#paint2_linear)"/>
<path d="M52.072 120.378C52.0323 121.121 51.8178 121.845 51.446 122.489C51.0741 123.134 50.5554 123.682 49.932 124.088C48.752 124.778 47.792 124.218 47.792 122.858C47.8317 122.115 48.0462 121.392 48.418 120.747C48.7899 120.103 49.3086 119.555 49.932 119.148C51.072 118.478 52.072 119.018 52.072 120.378Z" fill="#DBDBDA"/>
<path d="M50.9319 121.248C50.9186 121.496 50.8474 121.737 50.7241 121.953C50.6008 122.168 50.4288 122.351 50.222 122.488C49.822 122.718 49.502 122.488 49.502 122.078C49.5149 121.829 49.5869 121.587 49.7121 121.371C49.8373 121.156 50.0121 120.973 50.222 120.838C50.612 120.608 50.9319 120.788 50.9319 121.248Z" fill="url(#paint3_linear)"/>
<path d="M49.6421 120.768C49.6349 120.875 49.6031 120.978 49.5493 121.07C49.4955 121.162 49.4212 121.24 49.3321 121.298C49.302 121.32 49.266 121.333 49.2287 121.335C49.1915 121.336 49.1545 121.327 49.1225 121.308C49.0905 121.288 49.0649 121.26 49.0488 121.227C49.0327 121.193 49.0269 121.155 49.0321 121.118C49.0382 121.014 49.0685 120.913 49.1206 120.823C49.1727 120.733 49.2451 120.656 49.3321 120.598C49.5021 120.478 49.6421 120.578 49.6421 120.768Z" fill="#343433"/>
<path d="M51.182 119.848C51.1759 119.952 51.1456 120.054 51.0935 120.144C51.0415 120.234 50.969 120.311 50.882 120.368C50.712 120.468 50.582 120.368 50.582 120.198C50.5866 120.094 50.6162 119.992 50.6684 119.902C50.7206 119.811 50.7939 119.735 50.882 119.678C51.072 119.578 51.182 119.658 51.182 119.848Z" fill="#343433"/>
<path d="M51.692 121.298C51.6883 121.404 51.6591 121.508 51.6068 121.6C51.5546 121.692 51.481 121.771 51.3921 121.828C51.2321 121.918 51.092 121.828 51.092 121.648C51.0996 121.545 51.1306 121.444 51.1825 121.354C51.2345 121.264 51.3061 121.187 51.3921 121.128C51.5621 121.028 51.692 121.108 51.692 121.298Z" fill="#343433"/>
<path d="M50.4621 123.068C50.4575 123.173 50.4279 123.275 50.3757 123.365C50.3234 123.456 50.2502 123.532 50.162 123.588C49.992 123.688 49.8621 123.588 49.8621 123.418C49.8666 123.314 49.8962 123.212 49.9484 123.122C50.0006 123.031 50.0739 122.955 50.162 122.898C50.332 122.798 50.4621 122.878 50.4621 123.068Z" fill="#343433"/>
<path d="M49.2321 122.718C49.2276 122.823 49.1979 122.925 49.1457 123.015C49.0935 123.106 49.0202 123.182 48.9321 123.238C48.7621 123.338 48.6321 123.238 48.6321 123.068C48.6366 122.964 48.6662 122.862 48.7184 122.772C48.7707 122.681 48.8439 122.605 48.9321 122.548C49.0721 122.478 49.2321 122.528 49.2321 122.718Z" fill="#343433"/>
<path d="M50.072 117.968C50.1347 118.086 50.1499 118.223 50.1145 118.351C50.0792 118.48 49.996 118.59 49.882 118.658C49.7546 118.7 49.6162 118.689 49.4964 118.629C49.3767 118.57 49.2853 118.465 49.242 118.338C49.2079 118.281 49.1855 118.218 49.1762 118.152C49.1668 118.087 49.1706 118.02 49.1874 117.956C49.2041 117.891 49.2335 117.831 49.2737 117.778C49.314 117.726 49.3644 117.681 49.422 117.648C49.5507 117.607 49.6905 117.617 49.8119 117.677C49.9332 117.736 50.0265 117.841 50.072 117.968Z" fill="#343433"/>
<path d="M51.6821 117.918C51.6821 118.218 51.5822 118.478 51.4122 118.498C51.2422 118.518 51.0722 118.268 51.0422 117.968C51.0122 117.668 51.1422 117.408 51.3222 117.388C51.5022 117.368 51.6621 117.608 51.6821 117.918Z" fill="#343433"/>
<path d="M48.192 119.308C48.3127 119.381 48.4001 119.498 48.4356 119.635C48.4711 119.771 48.4519 119.916 48.382 120.038C48.3291 120.135 48.2484 120.214 48.1503 120.264C48.0523 120.314 47.9414 120.334 47.832 120.32C47.7227 120.306 47.6199 120.26 47.5371 120.188C47.4542 120.115 47.3951 120.019 47.3673 119.913C47.3396 119.806 47.3445 119.694 47.3814 119.59C47.4184 119.486 47.4856 119.396 47.5745 119.331C47.6634 119.265 47.7697 119.228 47.8799 119.225C47.99 119.221 48.0987 119.25 48.192 119.308Z" fill="#343433"/>
<path d="M46.942 121.618C47.0782 121.618 47.209 121.672 47.3062 121.767C47.4035 121.862 47.4594 121.992 47.4621 122.128C47.4354 122.26 47.3595 122.377 47.25 122.455C47.1404 122.533 47.0053 122.566 46.872 122.548C46.8042 122.55 46.7368 122.537 46.6738 122.512C46.6108 122.487 46.5534 122.45 46.5049 122.403C46.4565 122.355 46.4181 122.298 46.3918 122.236C46.3656 122.173 46.352 122.106 46.3521 122.038C46.3765 121.905 46.4518 121.787 46.5619 121.709C46.6721 121.63 46.8084 121.598 46.942 121.618Z" fill="#343433"/>
<path d="M46.8522 123.708C46.9667 123.656 47.0971 123.649 47.2163 123.69C47.3354 123.731 47.4343 123.816 47.4922 123.928C47.5522 124.138 47.3622 124.378 47.0722 124.468C46.9547 124.518 46.8228 124.522 46.7024 124.48C46.5821 124.437 46.4821 124.351 46.4222 124.238C46.3622 124.028 46.5522 123.788 46.8522 123.708Z" fill="#343433"/>
<path d="M48.2422 124.888C48.4322 124.728 48.6322 124.648 48.7022 124.728C48.7722 124.808 48.7021 124.988 48.4721 125.148C48.2421 125.308 48.0822 125.378 48.0222 125.308C47.9622 125.238 48.0722 125.048 48.2422 124.888Z" fill="#343433"/>
<path d="M56.502 110.478C55.632 109.058 53.622 110.068 51.322 111.328L54.042 112.848C55.252 113.538 56.042 115.038 56.042 117.178C56.042 117.238 56.042 117.298 56.042 117.348L57.682 117.908C57.842 113.838 57.622 112.298 56.502 110.478Z" fill="#212020"/>
<path d="M130.302 69.0083L128.202 67.8383C127.357 68.0884 126.552 68.4588 125.812 68.9384C121.532 71.6384 118.382 74.3683 118.102 83.2283L117.612 83.5183L121.232 85.5183C121.961 85.7605 122.737 85.8287 123.498 85.7176C124.258 85.6064 124.982 85.319 125.612 84.8783C127.553 83.6097 129.167 81.9022 130.326 79.8941C131.485 77.8859 132.155 75.6333 132.282 73.3183C132.262 71.1983 131.512 69.6983 130.302 69.0083Z" fill="#3A3939"/>
<path d="M132.262 73.3383C132.135 75.6533 131.465 77.9059 130.306 79.9141C129.148 81.9222 127.533 83.6297 125.592 84.8983C121.902 87.0283 118.912 85.2983 118.912 81.0383C119.039 78.7221 119.71 76.4683 120.87 74.4599C122.031 72.4514 123.649 70.7447 125.592 69.4783C129.272 67.3483 132.262 69.0783 132.262 73.3383Z" fill="#575656"/>
<path d="M131.912 74.0284C131.797 76.1315 131.189 78.178 130.136 80.0023C129.083 81.8265 127.616 83.377 125.852 84.5284C122.502 86.4584 119.792 84.8883 119.792 81.0183C119.906 78.9164 120.514 76.8709 121.567 75.0482C122.62 73.2255 124.088 71.6769 125.852 70.5284C129.202 68.5884 131.912 70.1584 131.912 74.0284Z" fill="#3A3939"/>
<path d="M130.012 75.2583C129.945 76.658 129.547 78.0218 128.852 79.2385C128.157 80.4551 127.184 81.4899 126.012 82.2583C123.792 83.5383 122.012 82.4984 122.012 79.9384C122.078 78.5385 122.475 77.1744 123.171 75.9576C123.866 74.7409 124.84 73.7062 126.012 72.9384C128.212 71.6584 130.012 72.6883 130.012 75.2583Z" fill="url(#paint4_linear)"/>
<path d="M125.992 72.9383C125.685 73.1165 125.394 73.3206 125.122 73.5483L125.422 73.3583C127.312 72.2683 128.842 73.1483 128.842 75.3583C128.776 76.5442 128.433 77.698 127.838 78.7264C127.244 79.7549 126.417 80.629 125.422 81.2783C123.542 82.3583 122.022 81.4883 122.002 79.3483C121.992 79.5382 121.992 79.7285 122.002 79.9183C122.002 82.4783 123.802 83.5183 126.002 82.2383C127.174 81.4699 128.147 80.4351 128.842 79.2185C129.538 78.0018 129.935 76.638 130.002 75.2383C130.012 72.6883 128.212 71.6583 125.992 72.9383Z" fill="url(#paint5_linear)"/>
<path d="M126.272 72.7883C128.032 72.1483 129.372 73.1583 129.372 75.2983C129.301 76.6142 128.92 77.8946 128.262 79.0361C127.603 80.1775 126.685 81.1478 125.582 81.8683C124.212 82.6583 123.012 82.4983 122.342 81.6283C122.982 82.8483 124.342 83.1483 125.992 82.2183C127.164 81.4499 128.137 80.4151 128.832 79.1985C129.527 77.9818 129.925 76.618 129.992 75.2183C130.012 72.7983 128.362 71.7483 126.272 72.7883Z" fill="url(#paint6_linear)"/>
<path d="M128.322 76.5484C128.282 77.2915 128.068 78.0148 127.696 78.6594C127.324 79.3041 126.805 79.8519 126.182 80.2584C124.992 80.9384 124.032 80.3883 124.032 79.0183C124.073 78.2757 124.289 77.5532 124.663 76.9101C125.036 76.267 125.557 75.7215 126.182 75.3183C127.362 74.6283 128.322 75.1884 128.322 76.5484Z" fill="#DBDBDA"/>
<path d="M127.192 77.4183C127.177 77.667 127.105 77.9087 126.98 78.1241C126.855 78.3395 126.681 78.5225 126.472 78.6583C126.082 78.8783 125.762 78.6583 125.762 78.2383C125.775 77.9919 125.847 77.7522 125.97 77.5385C126.093 77.3248 126.265 77.1431 126.472 77.0083C126.872 76.7783 127.192 76.9583 127.192 77.4183Z" fill="url(#paint7_linear)"/>
<path d="M125.892 76.9384C125.887 77.0428 125.858 77.1445 125.806 77.2351C125.753 77.3256 125.68 77.4022 125.592 77.4584C125.422 77.5584 125.292 77.4584 125.292 77.2884C125.297 77.1828 125.327 77.0799 125.379 76.9879C125.431 76.8959 125.504 76.8173 125.592 76.7584C125.762 76.6684 125.892 76.7484 125.892 76.9384Z" fill="#343433"/>
<path d="M127.442 76.0183C127.436 76.1235 127.404 76.2255 127.35 76.316C127.296 76.4065 127.221 76.4827 127.132 76.5383C126.972 76.6383 126.832 76.5383 126.832 76.3683C126.838 76.2643 126.868 76.1631 126.921 76.0729C126.973 75.9826 127.045 75.9057 127.132 75.8483C127.302 75.7483 127.442 75.8283 127.442 76.0183Z" fill="#343433"/>
<path d="M127.952 77.4784C127.948 77.5843 127.919 77.6878 127.867 77.78C127.815 77.8723 127.741 77.9506 127.652 78.0084C127.482 78.0984 127.352 78.0084 127.352 77.8284C127.357 77.724 127.386 77.6222 127.438 77.5316C127.491 77.4411 127.564 77.3645 127.652 77.3084C127.822 77.1984 127.952 77.2784 127.952 77.4784Z" fill="#343433"/>
<path d="M126.722 79.2383C126.717 79.3426 126.687 79.444 126.635 79.5344C126.582 79.6248 126.51 79.7016 126.422 79.7583C126.252 79.8583 126.122 79.7583 126.122 79.5883C126.126 79.4824 126.155 79.3789 126.207 79.2867C126.26 79.1944 126.333 79.1161 126.422 79.0583C126.592 78.9683 126.722 79.0383 126.722 79.2383Z" fill="#343433"/>
<path d="M125.492 78.8884C125.486 78.9924 125.456 79.0936 125.404 79.1838C125.352 79.2741 125.279 79.351 125.192 79.4083C125.022 79.5083 124.882 79.4083 124.882 79.2383C124.887 79.1328 124.918 79.0301 124.972 78.9394C125.026 78.8486 125.102 78.7727 125.192 78.7184C125.352 78.6184 125.492 78.6984 125.492 78.8884Z" fill="#343433"/>
<path d="M126.312 74.1383C126.354 74.1951 126.382 74.2604 126.395 74.3295C126.408 74.3987 126.405 74.4698 126.387 74.5378C126.369 74.6057 126.335 74.6687 126.29 74.7221C126.244 74.7754 126.187 74.8179 126.122 74.8462C126.058 74.8746 125.988 74.8881 125.918 74.8859C125.847 74.8836 125.779 74.8656 125.716 74.8332C125.654 74.8007 125.599 74.7547 125.557 74.6985C125.515 74.6423 125.486 74.5773 125.472 74.5083C125.43 74.4516 125.402 74.3863 125.389 74.3172C125.376 74.248 125.379 74.1769 125.397 74.1089C125.415 74.041 125.449 73.978 125.494 73.9246C125.54 73.8712 125.597 73.8288 125.662 73.8005C125.726 73.7721 125.796 73.7586 125.866 73.7608C125.937 73.7631 126.005 73.7811 126.068 73.8135C126.13 73.8459 126.185 73.892 126.227 73.9482C126.269 74.0044 126.298 74.0694 126.312 74.1383Z" fill="#343433"/>
<path d="M127.942 74.0884C127.942 74.3884 127.842 74.6483 127.662 74.6583C127.482 74.6683 127.332 74.4384 127.302 74.1384C127.272 73.8384 127.402 73.5784 127.572 73.5584C127.742 73.5384 127.912 73.7784 127.942 74.0884Z" fill="#343433"/>
<path d="M124.442 75.4783C124.564 75.5495 124.654 75.6659 124.691 75.8024C124.729 75.939 124.711 76.0847 124.642 76.2083C124.603 76.2664 124.553 76.3161 124.494 76.3546C124.436 76.3931 124.37 76.4196 124.301 76.4326C124.233 76.4457 124.162 76.4449 124.093 76.4305C124.025 76.416 123.96 76.3881 123.902 76.3483C123.787 76.2767 123.705 76.1622 123.674 76.03C123.643 75.8978 123.666 75.7587 123.737 75.6433C123.809 75.528 123.923 75.4458 124.055 75.4148C124.188 75.3839 124.327 75.4067 124.442 75.4783Z" fill="#343433"/>
<path d="M123.202 77.7883C123.337 77.7883 123.467 77.8421 123.563 77.9377C123.658 78.0334 123.712 78.1631 123.712 78.2984C123.679 78.4262 123.602 78.5382 123.494 78.6147C123.387 78.6912 123.256 78.7273 123.124 78.7165C122.993 78.7058 122.869 78.6489 122.775 78.5559C122.682 78.4629 122.624 78.3398 122.612 78.2083C122.623 78.1419 122.647 78.0783 122.683 78.0211C122.718 77.964 122.765 77.9145 122.82 77.8754C122.874 77.8364 122.936 77.8086 123.002 77.7936C123.068 77.7787 123.136 77.7769 123.202 77.7883Z" fill="#343433"/>
<path d="M123.072 79.8684C123.372 79.7884 123.652 79.8684 123.712 80.0984C123.772 80.3284 123.592 80.5483 123.292 80.6283C123.178 80.681 123.047 80.6876 122.928 80.6466C122.809 80.6056 122.71 80.5203 122.652 80.4083C122.622 80.1983 122.812 79.9584 123.072 79.8684Z" fill="#343433"/>
<path d="M124.502 81.0484C124.692 80.8984 124.892 80.8184 124.952 80.8984C125.012 80.9784 124.952 81.1584 124.732 81.3184C124.512 81.4784 124.342 81.5484 124.282 81.4784C124.222 81.4084 124.312 81.2084 124.502 81.0484Z" fill="#343433"/>
<path d="M132.912 69.8584C132.552 68.6384 130.972 67.0784 128.202 67.8584L130.302 69.0283C130.921 69.449 131.423 70.0184 131.764 70.6842C132.105 71.3499 132.273 72.0907 132.252 72.8383L132.982 72.9483C133.168 71.9242 133.144 70.8731 132.912 69.8584Z" fill="#212020"/>
<path d="M149.072 53.0284L148.982 41.0284C148.982 41.0284 147.162 26.4783 146.662 22.1583C146.162 17.8383 145.132 17.7284 143.862 16.9784L116.722 0.768346L115.722 0.218358C114.921 -0.0727861 114.043 -0.0727861 113.242 0.218358L41.812 41.4784C37.622 43.9284 36.352 44.9584 35.132 46.6884L25.502 60.3584C25.502 60.3584 11.732 81.9984 10.502 84.0984C9.27202 86.1983 5.30202 93.3284 5.30202 93.3284C3.76354 95.3688 2.80634 97.7877 2.53203 100.328C2.17203 103.518 1.91202 107.778 3.27202 111.168C4.63202 114.558 8.08203 117.048 13.922 120.558C19.762 124.068 26.762 127.558 31.612 127.918C34.3793 128.173 37.1667 127.747 39.732 126.678L39.852 126.618C40.659 124.052 41.5969 121.529 42.662 119.058C44.0167 116.332 46.1872 114.095 48.872 112.658C52.102 111.088 55.332 108.598 56.502 110.508C57.672 112.418 57.842 113.888 57.642 117.958L118.072 83.2383C118.352 74.3783 121.502 71.6484 125.782 68.9484C130.062 66.2484 132.422 68.3284 132.882 69.8684C133.115 70.9137 133.135 71.995 132.942 73.0484C135.942 71.2984 146.852 64.7784 148.012 63.5084C149.352 62.0383 149.652 56.8983 149.732 55.2383C149.803 54.844 149.781 54.4384 149.666 54.0545C149.551 53.6705 149.348 53.319 149.072 53.0284Z" fill="#1490C9"/>
<path d="M148.072 63.4783C149.412 62.0083 149.712 56.8683 149.792 55.2083C149.863 54.8163 149.841 54.4132 149.728 54.0311C149.615 53.6491 149.415 53.2988 149.142 53.0083L149.052 41.0083C149.052 41.0083 147.232 26.4583 146.732 22.1383C146.657 20.9565 146.38 19.7963 145.912 18.7083C145.912 18.7083 145.412 17.7083 142.782 19.2883C140.152 20.8683 71.572 60.4783 71.572 60.4783C68.5945 62.6389 66.09 65.385 64.212 68.5484C60.872 74.0184 57.322 80.8483 57.322 80.8483L46.412 99.9683L41.012 107.748C39.872 109.368 35.362 110.448 35.362 110.448C35.362 110.448 33.642 121.448 33.982 127.888C35.9605 127.822 37.9098 127.392 39.732 126.618L39.852 126.558C40.6589 123.992 41.5968 121.469 42.662 118.998C44.0166 116.272 46.1872 114.035 48.872 112.598C52.102 111.028 55.332 108.538 56.502 110.448C57.672 112.358 57.842 113.828 57.642 117.898L118.072 83.2383C118.352 74.3783 121.502 71.6483 125.782 68.9483C130.062 66.2483 132.422 68.3283 132.882 69.8683C133.115 70.9136 133.135 71.995 132.942 73.0484C135.932 71.2884 146.882 64.7683 148.072 63.4783Z" fill="#126075"/>
<path d="M35.3621 110.478C36.261 110.25 37.1459 109.97 38.0121 109.638L38.3021 108.638C38.8387 108.713 39.3808 108.74 39.9221 108.718C40.2117 108.547 40.4802 108.342 40.7221 108.108C40.4421 107.488 38.7221 106.278 33.9321 103.998C25.8858 100.193 18.2495 95.5761 11.1421 90.2184C10.1137 89.4509 9.26131 88.4723 8.64211 87.3483C7.09211 90.0983 5.3021 93.3483 5.3021 93.3483C3.76363 95.3887 2.80642 97.8077 2.53211 100.348C2.315 102.113 2.22476 103.891 2.26211 105.668C7.25965 109.757 12.5431 113.483 18.0721 116.818C27.6521 122.618 32.2321 121.208 34.2721 119.488C34.6921 114.718 35.3621 110.478 35.3621 110.478Z" fill="#1490C9"/>
<path style="mix-blend-mode:screen" opacity="0.5" d="M56.762 105.408L54.6519 105.008L42.772 111.228L43.532 112.098C43.532 112.098 49.382 108.938 52.062 107.538C54.742 106.138 57.942 105.238 59.132 108.538C59.6788 110.113 60.0543 111.743 60.252 113.398C60.182 112.198 59.672 106.188 56.762 105.408Z" fill="url(#paint8_linear)"/>
<path style="mix-blend-mode:screen" opacity="0.5" d="M60.262 113.528C60.2645 113.495 60.2645 113.462 60.262 113.428C60.262 113.558 60.262 113.648 60.262 113.648V113.528Z" fill="url(#paint9_linear)"/>
<path d="M146.502 51.6384L63.922 99.0383C63.922 99.0383 44.842 109.168 42.922 110.038C40.1121 111.594 36.8727 112.194 33.692 111.748C29.462 111.068 22.942 107.748 18.032 104.808C13.122 101.868 8.47198 98.4483 6.61198 96.4083C5.87722 95.5885 5.32805 94.6198 5.00198 93.5683C4.93532 93.655 4.86533 93.755 4.79199 93.8683C5.08495 95.2028 5.71107 96.4413 6.61198 97.4684C8.47198 99.4684 13.132 102.888 18.032 105.858C22.932 108.828 29.462 112.118 33.692 112.798C36.8727 113.244 40.1121 112.644 42.922 111.088C44.792 110.188 63.922 100.088 63.922 100.088L145.322 53.0883L146.502 51.6384Z" fill="#1490C9"/>
<g style="mix-blend-mode:overlay">
<g style="mix-blend-mode:overlay">
<path d="M114.692 4.36835C114.666 4.39644 114.636 4.4201 114.602 4.43835L47.7821 43.1583C47.6801 43.2051 47.5693 43.2293 47.4571 43.2293C47.3449 43.2293 47.234 43.2051 47.1321 43.1583L46.2321 42.7283C46.1907 42.7134 46.1532 42.6895 46.1221 42.6583C46.0521 42.7483 46.1221 42.8583 46.2321 42.9283L47.1321 43.3483C47.234 43.3951 47.3449 43.4193 47.4571 43.4193C47.5693 43.4193 47.6801 43.3951 47.7821 43.3483L114.602 4.61835C114.732 4.55835 114.762 4.47835 114.692 4.36835Z" fill="white"/>
</g>
<g style="mix-blend-mode:overlay">
<path d="M117.232 5.86835L117.152 5.94835L50.3221 44.6684C50.2194 44.7127 50.1088 44.7355 49.997 44.7355C49.8853 44.7355 49.7747 44.7127 49.6721 44.6684L48.7721 44.2383L48.6721 44.1684C48.5921 44.2584 48.6721 44.3683 48.7721 44.4283L49.6721 44.8584C49.7747 44.9027 49.8853 44.9255 49.997 44.9255C50.1088 44.9255 50.2194 44.9027 50.3221 44.8584L117.152 6.12834C117.282 6.05834 117.312 5.95835 117.232 5.86835Z" fill="white"/>
</g>
<g style="mix-blend-mode:overlay">
<path d="M119.732 7.47835C119.71 7.50641 119.683 7.53015 119.652 7.54836L52.8221 46.2784C52.7201 46.3251 52.6092 46.3493 52.4971 46.3493C52.3849 46.3493 52.2741 46.3251 52.1721 46.2784L51.2721 45.8584C51.235 45.8367 51.2013 45.8098 51.1721 45.7784C51.1021 45.8684 51.1721 45.9784 51.2721 46.0484L52.1721 46.4783C52.2746 46.5232 52.3852 46.5464 52.4971 46.5464C52.6089 46.5464 52.7196 46.5232 52.8221 46.4783L119.652 7.74835C119.782 7.61835 119.812 7.47835 119.732 7.47835Z" fill="white"/>
</g>
<g style="mix-blend-mode:overlay">
<path d="M122.342 8.92834C122.316 8.95644 122.286 8.98009 122.252 8.99835L55.4222 47.7283C55.3221 47.7756 55.2128 47.8 55.1022 47.8C54.9915 47.8 54.8822 47.7756 54.7822 47.7283L53.8722 47.3083C53.8351 47.2867 53.8014 47.2598 53.7722 47.2283C53.7022 47.3183 53.7722 47.4284 53.8722 47.4984L54.7822 47.9283C54.8829 47.973 54.992 47.9961 55.1022 47.9961C55.2124 47.9961 55.3214 47.973 55.4222 47.9283L122.252 9.19835C122.382 9.11835 122.412 9.00834 122.342 8.92834Z" fill="white"/>
</g>
<g style="mix-blend-mode:overlay">
<path d="M124.922 10.4783C124.896 10.5064 124.866 10.5301 124.832 10.5484L58.012 49.2784C57.91 49.3251 57.7992 49.3493 57.687 49.3493C57.5748 49.3493 57.464 49.3251 57.362 49.2784L56.462 48.8584C56.4212 48.8427 56.3862 48.8148 56.362 48.7784C56.282 48.8783 56.312 48.9784 56.462 49.0484L57.362 49.4783C57.4646 49.5227 57.5752 49.5455 57.687 49.5455C57.7988 49.5455 57.9094 49.5227 58.012 49.4783L124.832 10.7583C124.972 10.6183 124.992 10.4783 124.922 10.4783Z" fill="white"/>
</g>
<g style="mix-blend-mode:overlay">
<path d="M127.592 12.0083C127.567 12.037 127.536 12.0608 127.502 12.0784L60.6722 50.8083C60.5695 50.8527 60.4589 50.8755 60.3471 50.8755C60.2354 50.8755 60.1248 50.8527 60.0222 50.8083L59.1221 50.3783L59.0222 50.3083C58.9422 50.3983 59.0221 50.5083 59.1221 50.5683L60.0222 50.9984C60.1241 51.0451 60.235 51.0693 60.3471 51.0693C60.4593 51.0693 60.5702 51.0451 60.6722 50.9984L127.502 12.2784C127.632 12.1984 127.662 12.0883 127.592 12.0083Z" fill="white"/>
</g>
<g style="mix-blend-mode:overlay">
<path d="M130.072 13.4783C130.049 13.5092 130.018 13.5333 129.982 13.5484L63.1522 52.2784C63.0514 52.323 62.9424 52.3461 62.8322 52.3461C62.722 52.3461 62.6129 52.323 62.5122 52.2784L61.6022 51.8483L61.5022 51.7784C61.4322 51.8684 61.5022 51.9784 61.6022 52.0484L62.5122 52.4684C62.6116 52.5177 62.7212 52.5434 62.8322 52.5434C62.9432 52.5434 63.0527 52.5177 63.1522 52.4684L130.072 13.7784C130.152 13.6984 130.182 13.5983 130.072 13.4783Z" fill="white"/>
</g>
<g style="mix-blend-mode:overlay">
<path d="M132.822 15.1183C132.799 15.1492 132.768 15.1733 132.732 15.1884L65.9022 53.9184C65.8014 53.963 65.6924 53.9861 65.5822 53.9861C65.472 53.9861 65.3629 53.963 65.2622 53.9184L64.3522 53.4883L64.2522 53.4184C64.1822 53.5084 64.2522 53.6183 64.3522 53.6783L65.2622 54.1084C65.3616 54.1577 65.4712 54.1834 65.5822 54.1834C65.6932 54.1834 65.8027 54.1577 65.9022 54.1084L132.732 15.3884C132.862 15.3084 132.892 15.2083 132.822 15.1183Z" fill="white"/>
</g>
<g style="mix-blend-mode:overlay">
<path d="M135.492 16.6283C135.47 16.6564 135.443 16.6801 135.412 16.6983L68.5821 55.4783C68.4801 55.5251 68.3693 55.5493 68.2571 55.5493C68.1449 55.5493 68.034 55.5251 67.9321 55.4783L67.0321 55.0583C66.9928 55.0401 66.9585 55.0126 66.9321 54.9783C66.8521 55.0783 66.9321 55.1784 67.0321 55.2484L67.9321 55.6783C68.0345 55.7232 68.1452 55.7464 68.2571 55.7464C68.3689 55.7464 68.4796 55.7232 68.5821 55.6783L135.412 16.9483C135.542 16.8183 135.572 16.7083 135.492 16.6283Z" fill="white"/>
</g>
<g style="mix-blend-mode:overlay">
<path d="M138.162 18.1084C138.136 18.1364 138.106 18.1601 138.072 18.1783L71.242 56.8983C71.1426 56.9477 71.033 56.9734 70.922 56.9734C70.811 56.9734 70.7015 56.9477 70.602 56.8983L69.692 56.4783C69.655 56.4567 69.6213 56.4297 69.592 56.3983C69.522 56.4983 69.592 56.5984 69.692 56.6684L70.602 57.0983C70.7028 57.143 70.8118 57.1661 70.922 57.1661C71.0322 57.1661 71.1413 57.143 71.242 57.0983L138.072 18.3683C138.202 18.2983 138.232 18.1884 138.162 18.1084Z" fill="white"/>
</g>
</g>
<path d="M46.122 42.6884C46.1453 42.6575 46.1764 42.6334 46.212 42.6183L113.072 3.88835C113.173 3.8437 113.282 3.82063 113.392 3.82063C113.502 3.82063 113.611 3.8437 113.712 3.88835L114.622 4.31834C114.661 4.33661 114.696 4.36405 114.722 4.39835C114.792 4.29835 114.722 4.18834 114.622 4.12834L113.712 3.69835C113.612 3.65114 113.503 3.62665 113.392 3.62665C113.281 3.62665 113.172 3.65114 113.072 3.69835L46.242 42.4184C46.072 42.4784 46.072 42.6084 46.122 42.6884Z" fill="#1490C9"/>
<path d="M48.672 44.1983C48.6954 44.1675 48.7264 44.1434 48.762 44.1283L115.582 5.39835C115.685 5.35404 115.795 5.33119 115.907 5.33119C116.019 5.33119 116.129 5.35404 116.232 5.39835L117.132 5.82835C117.17 5.84433 117.204 5.86818 117.232 5.89835C117.312 5.80835 117.232 5.69834 117.132 5.62834L116.232 5.20834C116.131 5.15887 116.02 5.13316 115.907 5.13316C115.794 5.13316 115.683 5.15887 115.582 5.20834L48.762 43.9283C48.622 44.0083 48.602 44.1083 48.672 44.1983Z" fill="#1490C9"/>
<path d="M51.1721 45.7484C51.1981 45.7203 51.2285 45.6966 51.2621 45.6783L118.072 6.94835C118.174 6.90161 118.285 6.87741 118.397 6.87741C118.509 6.87741 118.62 6.90161 118.722 6.94835L119.622 7.36835C119.663 7.38395 119.698 7.41192 119.722 7.44835C119.802 7.34835 119.722 7.24834 119.622 7.17834L118.722 6.74835C118.619 6.70405 118.509 6.6812 118.397 6.6812C118.285 6.6812 118.175 6.70405 118.072 6.74835L51.2621 45.4783C51.1221 45.5583 51.0721 45.6684 51.1721 45.7484Z" fill="#1490C9"/>
<path d="M53.7721 47.2484C53.7981 47.2203 53.8285 47.1966 53.8621 47.1783L120.692 8.47835C120.792 8.43114 120.901 8.40666 121.012 8.40666C121.123 8.40666 121.232 8.43114 121.332 8.47835L122.242 8.89835C122.28 8.91932 122.313 8.94635 122.342 8.97835C122.412 8.87835 122.342 8.77834 122.242 8.70834L121.332 8.27835C121.231 8.2337 121.122 8.21063 121.012 8.21063C120.902 8.21063 120.793 8.2337 120.692 8.27835L53.8621 47.0083C53.7321 47.0583 53.7021 47.1684 53.7721 47.2484Z" fill="#1490C9"/>
<path d="M56.362 48.7484C56.3841 48.7203 56.4112 48.6965 56.442 48.6783L123.272 9.95834C123.373 9.90887 123.484 9.88316 123.597 9.88316C123.71 9.88316 123.821 9.90887 123.922 9.95834L124.822 10.3884C124.862 10.4007 124.897 10.4252 124.922 10.4583C125.002 10.3683 124.922 10.2584 124.822 10.1884L123.922 9.75835C123.819 9.71404 123.709 9.69119 123.597 9.69119C123.485 9.69119 123.375 9.71404 123.272 9.75835L56.442 48.4783C56.312 48.5583 56.282 48.6684 56.362 48.7484Z" fill="#1490C9"/>
<path d="M59.0719 50.3383C59.0972 50.3068 59.1276 50.2798 59.1619 50.2583L125.982 11.5383C126.084 11.4916 126.195 11.4674 126.307 11.4674C126.419 11.4674 126.53 11.4916 126.632 11.5383L127.532 11.9684C127.573 11.9833 127.611 12.0072 127.642 12.0383C127.712 11.9483 127.642 11.8383 127.532 11.7683L126.632 11.3483C126.53 11.3016 126.419 11.2774 126.307 11.2774C126.195 11.2774 126.084 11.3016 125.982 11.3483L59.0719 50.0683C58.9719 50.1483 58.9519 50.2483 59.0719 50.3383Z" fill="#1490C9"/>
<path d="M61.5421 51.8383C61.5654 51.8075 61.5965 51.7834 61.6321 51.7683L128.462 13.0383C128.563 12.9937 128.672 12.9706 128.782 12.9706C128.892 12.9706 129.001 12.9937 129.102 13.0383L130.012 13.4684L130.112 13.5383C130.182 13.4483 130.112 13.3384 130.012 13.2784L129.102 12.8483C129.002 12.8011 128.893 12.7767 128.782 12.7767C128.671 12.7767 128.562 12.8011 128.462 12.8483L61.6321 51.5683C61.5021 51.6483 61.4721 51.7483 61.5421 51.8383Z" fill="#1490C9"/>
<path d="M64.2521 53.4783C64.2774 53.4468 64.3078 53.4198 64.3421 53.3983L131.172 14.6783C131.272 14.6311 131.381 14.6067 131.492 14.6067C131.603 14.6067 131.712 14.6311 131.812 14.6783L132.722 15.1084L132.822 15.1783C132.892 15.0883 132.822 14.9783 132.722 14.9083L131.812 14.4883C131.712 14.4411 131.603 14.4167 131.492 14.4167C131.381 14.4167 131.272 14.4411 131.172 14.4883L64.3421 53.1783C64.2121 53.2583 64.1821 53.3583 64.2521 53.4783Z" fill="#1490C9"/>
<path d="M66.9321 54.9483C66.958 54.9203 66.9885 54.8966 67.0221 54.8783L133.852 16.1483C133.952 16.1011 134.061 16.0767 134.172 16.0767C134.283 16.0767 134.392 16.1011 134.492 16.1483L135.402 16.5683C135.436 16.5898 135.467 16.6168 135.492 16.6483C135.572 16.5583 135.542 16.4483 135.402 16.3783L134.492 15.9483C134.391 15.9037 134.282 15.8806 134.172 15.8806C134.062 15.8806 133.953 15.9037 133.852 15.9483L67.0721 54.6884C66.8921 54.7584 66.8621 54.8683 66.9321 54.9483Z" fill="#1490C9"/>
<path d="M69.5919 56.4783C69.6179 56.4503 69.6483 56.4266 69.6819 56.4083L136.512 17.6783C136.612 17.6311 136.721 17.6067 136.832 17.6067C136.943 17.6067 137.052 17.6311 137.152 17.6783L138.062 18.0983C138.099 18.1193 138.133 18.1464 138.162 18.1783C138.232 18.0783 138.162 17.9783 138.062 17.9083L137.152 17.4783C137.051 17.4337 136.942 17.4106 136.832 17.4106C136.722 17.4106 136.613 17.4337 136.512 17.4783L69.6819 56.2083C69.5519 56.2383 69.5219 56.3483 69.5919 56.4783Z" fill="#1490C9"/>
<g style="mix-blend-mode:multiply" opacity="0.1">
<path d="M73.9421 87.2383L73.3022 72.3383C73.3058 72.1202 73.3623 71.9061 73.4668 71.7145C73.5713 71.5229 73.7207 71.3595 73.9021 71.2383L144.852 30.5484C144.938 30.5002 145.034 30.4728 145.132 30.4684C145.103 30.4134 145.062 30.3654 145.012 30.3277C144.963 30.2901 144.905 30.2637 144.845 30.2504C144.784 30.2371 144.721 30.2372 144.66 30.2506C144.599 30.2641 144.542 30.2906 144.492 30.3284L73.5522 71.0183C73.3694 71.139 73.2185 71.3021 73.1123 71.4936C73.0061 71.6851 72.9477 71.8994 72.9421 72.1183L73.5822 87.0183C73.5822 87.3083 73.7622 87.4784 73.9922 87.4684C73.9594 87.3961 73.9423 87.3177 73.9421 87.2383Z" fill="black"/>
</g>
<g style="mix-blend-mode:overlay">
<path d="M145.192 30.6983C145.192 30.3883 144.972 30.2184 144.722 30.2484C144.728 30.3015 144.728 30.3552 144.722 30.4083L145.532 45.1283C145.541 45.3441 145.493 45.5584 145.393 45.7497C145.293 45.941 145.144 46.1027 144.962 46.2184L73.772 87.0983C73.7104 87.1361 73.6427 87.1632 73.572 87.1783C73.652 87.4583 73.912 87.5583 74.212 87.3783L145.432 46.4783C145.614 46.3617 145.763 46.2002 145.865 46.0093C145.966 45.8184 146.017 45.6045 146.012 45.3883L145.192 30.6983Z" fill="white"/>
</g>
<g style="mix-blend-mode:overlay">
<path d="M143.262 22.8584L123.592 34.2484L103.892 45.5784L84.192 56.9184L74.342 62.5784L71.882 63.9984C71.0874 64.4834 70.3581 65.0681 69.712 65.7383C68.3818 67.0752 67.229 68.5775 66.282 70.2083C67.0652 68.467 68.1331 66.8685 69.442 65.4783C69.772 65.1246 70.1226 64.7907 70.492 64.4783C70.8601 64.1616 71.2549 63.8772 71.672 63.6283L74.132 62.2083L83.972 56.5284L103.662 45.1684L123.352 33.8183L143.072 22.4783L143.262 22.8584Z" fill="white"/>
</g>
<g style="mix-blend-mode:overlay">
<path d="M63.9221 100.088C63.9221 100.088 59.4721 102.458 54.6521 104.998L56.7621 105.398L146.502 53.7984L145.322 53.0883L63.9221 100.088Z" fill="white"/>
</g>
<g style="mix-blend-mode:screen" opacity="0.5">
<g style="mix-blend-mode:screen" opacity="0.5">
<path style="mix-blend-mode:screen" opacity="0.5" d="M115.632 82.3383C115.632 82.2783 115.552 80.8383 117.062 76.1183C118.632 71.2083 121.332 68.7583 125.452 66.1783C129.572 63.5983 132.572 64.4583 132.692 64.4983L132.522 64.9883C132.522 64.9883 129.742 64.1183 125.732 66.6183C121.722 69.1183 119.082 71.5083 117.552 76.2683C116.092 80.8483 116.152 82.2683 116.152 82.2683L115.632 82.3383Z" fill="url(#paint10_linear)"/>
</g>
</g>
<g style="mix-blend-mode:overlay" opacity="0.3">
<path d="M69.6121 75.3483H69.5521C69.6068 75.6113 69.627 75.8802 69.6121 76.1483C69.5221 78.0783 69.2721 86.0084 68.0421 88.6084C66.1621 92.6084 60.7221 96.7083 53.2421 100.018L49.5621 101.878C49.4449 101.911 49.3238 101.928 49.2021 101.928C48.8121 101.928 48.2621 101.748 48.4321 100.668C48.1821 101.568 47.8721 103.078 48.4321 103.608C49.2021 104.388 52.0621 102.508 54.6821 101.018C57.3021 99.5283 66.8521 95.1883 68.7921 89.8783C70.7321 84.5683 69.7721 75.5983 69.6121 75.3483Z" fill="white"/>
</g>
<g style="mix-blend-mode:multiply" opacity="0.1">
<path d="M115.569 83.2656L60.5522 114.812L60.6816 115.038L115.699 83.4912L115.569 83.2656Z" fill="black"/>
</g>
<path style="mix-blend-mode:overlay" d="M56.1821 57.5784L48.5821 68.5784C48.466 68.7004 48.3778 68.8463 48.3238 69.0059C48.2698 69.1654 48.2512 69.3349 48.2692 69.5024C48.2873 69.6699 48.3417 69.8314 48.4285 69.9758C48.5154 70.1202 48.6326 70.2439 48.7721 70.3383C49.8221 71.0683 53.7021 73.2083 53.7021 73.2083C53.7021 73.2083 55.2921 73.6783 56.0021 72.5883C56.7121 71.4983 64.0021 61.5284 64.0021 61.5284L56.1321 74.1583C55.7478 74.6962 55.1869 75.0819 54.5472 75.2482C53.9075 75.4146 53.2296 75.3509 52.6321 75.0683C50.8722 74.3123 49.1964 73.3738 47.6321 72.2683C47.6321 72.2683 45.4221 71.2684 47.4121 68.5784C49.4021 65.8884 56.1821 57.5784 56.1821 57.5784Z" fill="url(#paint11_linear)"/>
<g style="mix-blend-mode:multiply" opacity="0.5">
<path d="M56.1821 57.5784L48.5821 68.5784C48.466 68.7004 48.3778 68.8463 48.3238 69.0059C48.2698 69.1654 48.2512 69.3349 48.2692 69.5024C48.2873 69.6699 48.3417 69.8314 48.4285 69.9758C48.5154 70.1202 48.6326 70.2439 48.7721 70.3383C49.8221 71.0683 53.7021 73.2083 53.7021 73.2083C53.7021 73.2083 55.2921 73.6783 56.0021 72.5883C56.7121 71.4983 64.0021 61.5284 64.0021 61.5284L56.1321 74.1583C55.7478 74.6962 55.1869 75.0819 54.5472 75.2482C53.9075 75.4146 53.2296 75.3509 52.6321 75.0683C50.8722 74.3123 49.1964 73.3738 47.6321 72.2683C47.6321 72.2683 45.4221 71.2684 47.4121 68.5784C49.4021 65.8884 56.1821 57.5784 56.1821 57.5784Z" fill="#28FFFF"/>
</g>
<path style="mix-blend-mode:overlay" d="M39.5021 47.5484L31.9121 58.5484C31.7953 58.6706 31.7064 58.8168 31.6515 58.9767C31.5966 59.1367 31.5771 59.3066 31.5942 59.4748C31.6113 59.6431 31.6647 59.8056 31.7506 59.9512C31.8366 60.0968 31.9531 60.2221 32.0921 60.3183C33.1421 61.0483 37.0221 63.1884 37.0221 63.1884C37.0221 63.1884 38.6121 63.6583 39.3321 62.5683C40.0521 61.4783 47.3321 51.5083 47.3321 51.5083L39.4621 64.1283C39.0805 64.6693 38.5194 65.0576 37.8787 65.2242C37.2379 65.3908 36.5589 65.3249 35.9621 65.0383C34.2034 64.2797 32.5279 63.3414 30.9621 62.2383C30.9621 62.2383 28.7521 61.2384 30.7521 58.5484C32.7521 55.8584 39.5021 47.5484 39.5021 47.5484Z" fill="url(#paint12_linear)"/>
<g style="mix-blend-mode:multiply" opacity="0.5">
<path d="M39.5021 47.5484L31.9121 58.5484C31.7953 58.6706 31.7064 58.8168 31.6515 58.9767C31.5966 59.1367 31.5771 59.3066 31.5942 59.4748C31.6113 59.6431 31.6647 59.8056 31.7506 59.9512C31.8366 60.0968 31.9531 60.2221 32.0921 60.3183C33.1421 61.0483 37.0221 63.1884 37.0221 63.1884C37.0221 63.1884 38.6121 63.6583 39.3321 62.5683C40.0521 61.4783 47.3321 51.5083 47.3321 51.5083L39.4621 64.1283C39.0805 64.6693 38.5194 65.0576 37.8787 65.2242C37.2379 65.3908 36.5589 65.3249 35.9621 65.0383C34.2034 64.2797 32.5279 63.3414 30.9621 62.2383C30.9621 62.2383 28.7521 61.2384 30.7521 58.5484C32.7521 55.8584 39.5021 47.5484 39.5021 47.5484Z" fill="#28FFFF"/>
</g>
<path d="M68.8621 74.6983C68.7517 74.6991 68.6427 74.7229 68.5421 74.7683C68.5421 74.7683 64.1221 77.1283 62.0521 78.4583C60.6109 79.4681 59.3557 80.7199 58.3421 82.1583C58.3421 82.1583 49.3421 97.6483 48.6021 100.038C48.0521 101.698 48.7421 101.948 49.2021 101.948C49.3238 101.948 49.4449 101.931 49.5621 101.898L53.2421 100.038C60.7221 96.7283 66.1621 92.6283 68.0421 88.6283C69.2721 86.0283 69.5221 78.0984 69.6121 76.1684C69.6621 74.9184 69.1921 74.6983 68.8621 74.6983Z" fill="#141C1E"/>
<path d="M60.3321 80.7583C59.8125 81.3079 59.3314 81.8927 58.8921 82.5083C57.5421 84.8283 55.6621 88.1283 53.8921 91.2683V99.0284C55.934 98.0938 57.9117 97.0247 59.8121 95.8284L60.3321 80.7583Z" fill="#303E42"/>
<path d="M68.8621 75.3483H68.8021C68.3521 75.5883 64.3221 77.7583 62.3921 78.9883C61.948 79.2902 61.5268 79.6244 61.132 79.9883L60.6121 95.3183C63.9921 93.0583 66.3821 90.6583 67.4621 88.3183C68.5421 85.9783 68.852 78.8783 68.942 76.5383V76.0983C68.9861 75.8458 68.9584 75.5859 68.8621 75.3483Z" fill="#303E42"/>
<path d="M55.142 78.7883C53.642 78.0583 42.202 71.6683 38.142 69.0083C34.082 66.3483 26.612 61.6583 26.612 61.6583C26.3962 61.4938 26.1333 61.4027 25.862 61.3983C25.472 61.3983 24.982 61.6083 24.512 62.3983C23.512 64.0683 13.282 80.3383 13.282 80.3383C14.0642 82.5397 15.476 84.4627 17.342 85.8683C23.1584 90.388 29.4367 94.2797 36.072 97.4783C38.407 98.6653 40.9659 99.3468 43.582 99.4783C44.1382 99.5052 44.6946 99.4272 45.222 99.2484L56.072 80.6283C56.072 80.6283 56.652 79.4783 55.142 78.7883Z" fill="#141C1E"/>
<path d="M54.8621 79.3683C53.2721 78.5883 41.8621 72.1984 37.8021 69.5484C33.7421 66.8984 26.3621 62.2583 26.2921 62.2083H26.2421C26.1415 62.1401 26.0235 62.102 25.9021 62.0983C25.5821 62.0983 25.2921 62.4684 25.1121 62.7784C24.1921 64.3384 16.0021 77.4784 14.6421 79.6384C14.9121 80.3584 16.2521 82.1183 18.7921 84.1983C24.4789 88.5325 30.606 92.2564 37.0721 95.3083C40.6221 96.9384 42.9021 97.6183 44.2421 97.6183C44.7285 97.5815 45.2069 97.4737 45.6621 97.2984L55.5721 80.2984C55.6021 80.1584 55.6421 79.7483 54.8621 79.3683Z" fill="#303E42"/>
<path d="M36.072 97.4783C29.4575 94.276 23.1995 90.3844 17.402 85.8683C15.536 84.4627 14.1242 82.5397 13.342 80.3383C13.342 80.3383 11.882 83.3383 13.342 85.4883C14.802 87.6383 22.062 92.4283 24.972 94.2583C27.882 96.0883 37.042 100.668 39.232 100.998C41.422 101.328 44.832 99.9483 45.232 99.2683C45.182 99.2683 42.482 100.478 36.072 97.4783Z" fill="#4D585A"/>
<g opacity="0.7">
<path opacity="0.7" d="M26.692 62.4783L26.292 62.2283H26.242C26.1414 62.1601 26.0234 62.122 25.902 62.1183C25.582 62.1183 25.292 62.4884 25.112 62.7984C24.662 63.5584 22.482 67.0783 20.212 70.7283L19.932 77.0183C19.932 77.0183 19.772 77.7083 23.932 75.0983L26.692 62.4783Z" fill="#C5D0D3"/>
<path opacity="0.7" d="M27.4719 62.9483L24.9319 74.3584L25.0519 74.2883C28.1118 72.1648 30.5518 69.2658 32.1219 65.8884C30.2919 64.7184 28.5619 63.6383 27.4719 62.9483Z" fill="#C5D0D3"/>
</g>
<path d="M18.7721 84.1483C24.463 88.5011 30.5969 92.2418 37.0721 95.3083C40.6221 96.9383 42.9021 97.6183 44.2421 97.6183C44.7285 97.5815 45.2069 97.4737 45.6621 97.2984L48.2621 92.8383C43.7944 89.0655 39.0063 85.6894 33.9521 82.7484C29.4057 80.1818 24.7331 77.8455 19.9521 75.7484L14.6321 79.5583C14.8921 80.3083 16.2321 82.0683 18.7721 84.1483Z" fill="#39464A"/>
<path d="M50.2521 89.3884C49.7621 87.8584 48.1522 86.6484 46.4522 85.7984C45.7083 85.4433 44.8729 85.3267 44.0602 85.4645C43.2476 85.6024 42.4973 85.9879 41.9121 86.5683C40.6455 88.0332 39.4859 89.5872 38.4421 91.2184C37.3421 92.8184 43.2121 95.3684 44.9721 94.9984C45.9498 94.7355 46.8762 94.3095 47.7122 93.7383L50.2521 89.3884Z" fill="#3D4B4F"/>
<path opacity="0.2" d="M37.8021 69.5484C33.8021 66.9184 26.3621 62.2583 26.2921 62.2083H26.2421C26.1415 62.1401 26.0235 62.102 25.9021 62.0983C25.5821 62.0983 25.2921 62.4684 25.1121 62.7784C24.1921 64.3384 16.0021 77.4784 14.6421 79.6384C15.4733 81.0978 16.5765 82.3843 17.8921 83.4283C23.84 77.2459 31.4147 72.871 39.7421 70.8083C38.9821 70.3083 38.3321 69.8884 37.8021 69.5484Z" fill="white"/>
<path d="M42.7721 111.228C40.0209 112.712 36.867 113.276 33.7721 112.838C29.5421 112.158 23.0221 108.838 18.1121 105.898C13.2021 102.958 8.55205 99.5383 6.69205 97.5083C5.79114 96.4813 5.16501 95.2428 4.87206 93.9083C3.62771 95.8321 2.83774 98.0139 2.56206 100.288C2.20206 103.478 1.94205 107.738 3.30205 111.128C4.66205 114.518 8.11206 117.008 13.9521 120.518C19.7921 124.028 26.7921 127.518 31.6421 127.878C34.4093 128.132 37.1968 127.707 39.7621 126.638L39.882 126.578C40.689 124.012 41.6269 121.489 42.692 119.018C43.4801 117.521 44.4917 116.152 45.692 114.958L44.2921 112.478L44.0721 112.098L42.7721 111.228Z" fill="#404B4D"/>
<path d="M44.0121 112.098L42.7721 111.228C40.0209 112.712 36.8671 113.276 33.7721 112.838C29.5421 112.158 23.0221 108.838 18.1121 105.898C13.2021 102.958 8.55211 99.5383 6.69211 97.5083C5.7912 96.4813 5.16507 95.2428 4.87212 93.9083C4.27661 94.8076 3.78988 95.7744 3.42212 96.7883C3.54817 98.1834 4.01544 99.526 4.78275 100.698C5.55005 101.87 6.59384 102.835 7.82211 103.508C7.82211 103.508 11.4121 105.938 15.2321 108.248C18.5321 110.248 22.0021 112.108 23.4521 112.828C26.4875 114.534 29.8916 115.478 33.3721 115.578C37.8321 115.948 42.8521 113.258 44.2421 112.448L44.0121 112.098Z" fill="#5A6567"/>
<path d="M18.0721 105.898C14.498 103.786 11.1003 101.388 7.91205 98.7283C6.9537 99.5459 6.17124 100.55 5.61205 101.678C5.18205 103.038 5.10205 108.528 5.10205 108.528C7.74191 110.607 10.5218 112.502 13.4221 114.198C16.8991 116.4 20.5397 118.333 24.312 119.978L26.7921 114.368L29.532 111.648C25.5537 110.065 21.7195 108.141 18.0721 105.898Z" fill="#C5CCD0"/>
<path d="M23.3621 113.388C21.9021 112.668 18.4321 110.808 15.1321 108.808C11.3221 106.498 7.73209 104.068 7.73209 104.068C6.73209 103.448 6.73209 105.068 6.73209 105.068L6.63208 109.188C8.16208 110.318 10.3221 111.688 13.7721 113.928C16.6086 115.7 19.547 117.303 22.5721 118.728L23.9121 115.298C24.0124 115.14 24.0779 114.961 24.1044 114.776C24.1309 114.59 24.1177 114.4 24.0658 114.22C24.0138 114.039 23.9243 113.872 23.803 113.729C23.6817 113.585 23.5314 113.469 23.3621 113.388Z" fill="#4D585A"/>
<path d="M22.742 118.158L23.872 115.258C23.9669 115.104 24.0292 114.931 24.0549 114.751C24.0806 114.571 24.0692 114.388 24.0214 114.213C23.9736 114.038 23.8905 113.874 23.7771 113.732C23.6637 113.591 23.5224 113.474 23.362 113.388C21.902 112.668 18.432 110.808 15.132 108.808C11.322 106.498 7.73201 104.068 7.73201 104.068L7.56201 103.988C7.46586 104.227 7.41498 104.481 7.412 104.738L7.31201 108.858C8.84201 109.988 11.012 111.358 14.452 113.598C17.1263 115.275 19.8941 116.797 22.742 118.158Z" fill="#1B2628"/>
<path d="M7.9021 109.278L8.27209 109.538L8.6321 104.678L8.2621 104.428L7.9021 109.278Z" fill="#333E40"/>
<path d="M9.70215 110.478L10.0721 110.718L10.5322 105.888L10.1621 105.648L9.70215 110.478Z" fill="#333E40"/>
<path d="M11.9622 111.988L12.3222 112.218L12.9522 107.468L12.5922 107.238L11.9622 111.988Z" fill="#333E40"/>
<path d="M14.3821 113.548L14.4521 113.598L14.7321 113.778L15.6521 109.128L15.3021 108.908L14.3821 113.548Z" fill="#333E40"/>
<path d="M21.262 117.478L21.612 117.648L23.0919 113.308L22.742 113.128L21.262 117.478Z" fill="#333E40"/>
<path d="M19.1621 116.338L19.5121 116.518L20.8821 112.098L20.5421 111.908L19.1621 116.338Z" fill="#333E40"/>
<path d="M16.802 115.028L17.152 115.228L18.312 110.678L17.962 110.478L16.802 115.028Z" fill="#333E40"/>
<path d="M62.072 109.388L62.252 111.688C62.2479 111.792 62.2698 111.894 62.3155 111.987C62.3613 112.08 62.4295 112.16 62.514 112.219C62.5985 112.279 62.6965 112.316 62.7992 112.329C62.9019 112.341 63.006 112.327 63.102 112.288L114.242 82.8983L115.242 78.7883L62.072 109.388Z" fill="#5A6567"/>
<path d="M132.322 64.2683L130.822 67.8183C131.303 67.9649 131.742 68.2222 132.105 68.5696C132.468 68.917 132.744 69.3447 132.912 69.8183C133.145 70.8636 133.165 71.945 132.972 72.9984C135.972 71.2484 146.882 64.7283 148.042 63.4583C149.382 61.9883 149.682 56.8484 149.762 55.1884C149.833 54.7964 149.811 54.3932 149.698 54.0111C149.586 53.6291 149.385 53.2788 149.112 52.9883L148.412 55.0784L132.322 64.2683Z" fill="#5A6567"/>
<path d="M7.92207 98.7283C6.96372 99.5459 6.18126 100.55 5.62207 101.678C5.62207 101.678 5.62207 101.748 5.62207 101.788C6.25775 102.473 6.99671 103.053 7.81207 103.508C7.81207 103.508 11.4021 105.938 15.2221 108.248C18.5221 110.248 21.9921 112.108 23.4421 112.828C24.5424 113.402 25.6742 113.912 26.8321 114.358L29.5621 111.648C25.5734 110.067 21.7291 108.143 18.0721 105.898C14.5015 103.785 11.1071 101.387 7.92207 98.7283Z" fill="#DFE6EA"/>
<path d="M23.0721 117.318C20.1614 115.926 17.3333 114.366 14.6021 112.648L12.6021 111.338C10.2321 109.808 8.60205 108.748 7.35205 107.848V108.318C8.58205 109.188 10.1621 110.218 12.4021 111.668L14.4021 112.968C17.1557 114.704 20.007 116.28 22.942 117.688L23.0721 117.318Z" fill="#404B4D"/>
<path d="M7.35205 107.288C8.59205 108.178 10.192 109.208 12.472 110.688L14.472 111.988C17.2998 113.772 20.2317 115.385 23.252 116.818L23.3921 116.458C20.4 115.029 17.4919 113.429 14.6821 111.668L12.6821 110.358C10.2721 108.798 8.63205 107.738 7.36205 106.818L7.35205 107.288Z" fill="#404B4D"/>
<path d="M7.38208 106.208C8.62208 107.098 10.2221 108.138 12.5021 109.618L14.5021 110.928C17.4348 112.772 20.4734 114.441 23.6021 115.928L23.7421 115.568C20.6484 114.095 17.6432 112.442 14.7421 110.618L12.7421 109.318C10.3221 107.748 8.67208 106.678 7.41208 105.758L7.38208 106.208Z" fill="#404B4D"/>
<path d="M12.6321 108.478L14.6321 109.788C17.6504 111.675 20.7757 113.384 23.9921 114.908C24.0278 114.781 24.0512 114.65 24.0621 114.518C20.8969 113.005 17.8188 111.315 14.8421 109.458L12.8421 108.158C10.3621 106.548 8.70212 105.478 7.42212 104.538C7.42212 104.648 7.42212 104.718 7.42212 104.718V105.008C8.66212 105.928 10.2821 106.978 12.6321 108.478Z" fill="#404B4D"/>
<path d="M26.8521 119.478C25.6521 119.238 25.4921 119.598 25.2721 120.128C25.0521 120.658 24.7821 121.438 25.2721 121.778C26.8882 122.348 28.5669 122.72 30.2721 122.888L30.6421 121.798L26.8521 119.478Z" fill="url(#paint13_linear)"/>
<path d="M30.522 122.698C32.53 122.746 34.5381 122.612 36.522 122.298C36.9253 122.262 37.3149 122.133 37.6614 121.924C38.0079 121.714 38.3022 121.428 38.522 121.088C38.522 121.088 38.402 122.088 36.902 122.388C34.7376 122.873 32.516 123.051 30.302 122.918C28.5968 122.75 26.9181 122.378 25.302 121.808C27.0181 122.231 28.7627 122.529 30.522 122.698Z" fill="#4D585A"/>
<path d="M30.3321 125.068L34.8321 124.938C34.8321 124.938 35.7121 124.998 35.3821 125.608C35.0521 126.218 34.7421 126.758 34.2721 126.938C32.7635 127.209 31.2221 127.246 29.7021 127.048C27.4821 126.828 22.4021 124.628 20.9221 123.888V123.228C20.9221 123.228 26.3921 125.758 29.0621 126.228C29.0721 126.188 29.3521 125.028 30.3321 125.068Z" fill="#4D585A"/>
<path d="M31.1621 126.068C31.816 125.776 32.4363 125.414 33.0121 124.988L30.3322 125.068C29.3322 125.068 29.1021 126.188 29.1021 126.188C26.4321 125.758 20.9622 123.188 20.9622 123.188V123.848C23.6183 125.154 26.399 126.189 29.2621 126.938C29.6821 126.738 30.4721 126.348 31.1621 126.068Z" fill="#333E40"/>
<path d="M35.3619 125.138C35.2104 125.018 35.0251 124.948 34.8319 124.938L33.0219 124.988C33.0121 125.142 33.0326 125.296 33.0823 125.442C33.132 125.588 33.2099 125.722 33.3116 125.838C33.4133 125.953 33.5367 126.048 33.6749 126.116C33.8131 126.183 33.9633 126.224 34.1169 126.233C34.2706 126.243 34.4246 126.223 34.5704 126.173C34.7161 126.123 34.8506 126.045 34.9662 125.944C35.0818 125.842 35.1763 125.719 35.2442 125.58C35.3121 125.442 35.3521 125.292 35.3619 125.138Z" fill="#F0EFF0"/>
<path d="M30.9721 120.258C29.5832 120.103 28.2066 119.853 26.8521 119.508C26.7921 119.818 26.7021 120.408 26.9021 120.508C27.1021 120.608 30.6421 121.808 30.6421 121.808L30.9721 120.258Z" fill="#333E40"/>
<g style="mix-blend-mode:multiply" opacity="0.2">
<path d="M18.4821 118.888L9.62207 113.558C9.55859 113.52 9.48613 113.499 9.41207 113.498C9.36955 113.5 9.32774 113.509 9.28922 113.527C9.25069 113.545 9.2163 113.571 9.18816 113.603C9.16002 113.635 9.13873 113.672 9.12564 113.713C9.11255 113.753 9.10793 113.796 9.11206 113.838V115.568C9.11702 115.7 9.15315 115.828 9.21749 115.943C9.28182 116.058 9.37251 116.156 9.48207 116.228L18.2921 121.488C18.3556 121.527 18.428 121.547 18.5021 121.548C18.6821 121.548 18.8021 121.408 18.8121 121.198L18.8921 119.568C18.886 119.43 18.8453 119.295 18.7737 119.176C18.702 119.057 18.6018 118.958 18.4821 118.888Z" fill="black"/>
</g>
<path d="M18.3421 119.118L9.49207 113.778H9.41206C9.41206 113.778 9.41206 113.848 9.36206 113.878V115.598C9.36662 115.685 9.39055 115.769 9.43208 115.846C9.47362 115.922 9.53171 115.988 9.60207 116.038L18.4121 121.298H18.4921C18.4921 121.298 18.5421 121.238 18.5521 121.198L18.6221 119.558C18.6183 119.467 18.5904 119.378 18.5412 119.301C18.492 119.223 18.4233 119.161 18.3421 119.118Z" fill="white"/>
<path d="M6.46216 110.308V109.608C7.97216 110.728 10.0922 112.108 13.4622 114.198C16.347 116.009 19.3354 117.648 22.4122 119.108V119.838C22.4122 120.508 21.7022 120.158 21.7022 120.158C18.8772 118.781 16.1267 117.255 13.4622 115.588C10.4622 113.718 8.46215 112.418 7.00215 111.358C6.83565 111.238 6.69994 111.081 6.60608 110.898C6.51222 110.716 6.4629 110.514 6.46216 110.308Z" fill="#4D585A"/>
<path d="M7.16203 110.108C7.15688 110.311 7.2005 110.513 7.28924 110.695C7.37798 110.878 7.50926 111.037 7.67204 111.158C9.14204 112.218 11.142 113.518 14.132 115.388C16.7918 117.054 19.5391 118.577 22.362 119.948C22.3686 119.909 22.3686 119.868 22.362 119.828V119.098C19.2853 117.638 16.2968 115.999 13.412 114.188C10.572 112.408 8.61203 111.148 7.16203 110.108Z" fill="#1B2628"/>
<path d="M9.57202 112.478L9.95203 112.728V111.988L9.57202 111.738V112.478Z" fill="#404B4D"/>
<path d="M7.81201 111.268L8.192 111.538V110.828L7.81201 110.558V111.268Z" fill="#404B4D"/>
<path d="M11.7319 113.878L12.1119 114.118V113.368L11.7319 113.128V113.878Z" fill="#404B4D"/>
<path d="M14.1421 115.398L14.5221 115.638V114.868L14.1421 114.638V115.398Z" fill="#404B4D"/>
<path d="M16.4722 116.808L16.8622 117.038V116.238L16.4722 116.018V116.808Z" fill="#404B4D"/>
<path d="M18.9221 118.188L19.3021 118.398V117.568L18.9221 117.368V118.188Z" fill="#404B4D"/>
<path d="M20.9021 119.228L21.2921 119.428V118.578L20.9021 118.388V119.228Z" fill="#404B4D"/>
<path d="M35.072 124.978H34.852H33.322C33.3451 125.194 33.4473 125.394 33.6088 125.539C33.7704 125.684 33.9798 125.765 34.197 125.765C34.4142 125.765 34.6237 125.684 34.7852 125.539C34.9467 125.394 35.0489 125.194 35.072 124.978Z" fill="white"/>
<path d="M15.6721 112.088C15.6364 112.242 15.5648 112.385 15.4632 112.506C15.3616 112.626 15.2328 112.721 15.0875 112.783C14.9422 112.844 14.7845 112.87 14.6271 112.859C14.4697 112.848 14.3172 112.8 14.1821 112.718C13.8777 112.496 13.6524 112.181 13.5391 111.822C13.4257 111.462 13.4303 111.075 13.5521 110.718C13.5884 110.566 13.6598 110.425 13.7608 110.305C13.8617 110.186 13.9892 110.091 14.1332 110.03C14.2771 109.969 14.4335 109.942 14.5896 109.952C14.7457 109.962 14.8973 110.009 15.0321 110.088C15.3395 110.309 15.5678 110.622 15.683 110.982C15.7983 111.343 15.7945 111.73 15.6721 112.088Z" fill="#4D585A"/>
<path d="M15.5121 111.998C15.4844 112.132 15.4247 112.257 15.3382 112.363C15.2518 112.469 15.141 112.553 15.0154 112.607C14.8897 112.661 14.7529 112.684 14.6166 112.673C14.4802 112.663 14.3483 112.62 14.2321 112.548C13.9739 112.358 13.7819 112.092 13.6832 111.787C13.5845 111.482 13.5841 111.154 13.6821 110.848C13.709 110.714 13.7684 110.588 13.8551 110.482C13.9417 110.376 14.053 110.293 14.1792 110.24C14.3054 110.186 14.4427 110.165 14.5792 110.177C14.7156 110.189 14.8471 110.234 14.9621 110.308C15.2207 110.496 15.4133 110.76 15.5121 111.064C15.6109 111.367 15.6109 111.695 15.5121 111.998Z" fill="#D2D5D7"/>
<path d="M4.23214 108.718L4.34214 106.718C4.30296 106.503 4.19404 106.306 4.03215 106.158C3.30139 105.097 2.72246 103.94 2.31215 102.718C2.22212 103.99 2.22212 105.267 2.31215 106.538L3.82214 108.858C3.82214 108.858 4.25214 109.478 4.23214 108.718Z" fill="#333E40"/>
<path d="M55.072 98.6584C55.072 98.6584 54.882 96.3884 55.422 95.5584C55.6528 95.1549 56.0097 94.8385 56.438 94.6578C56.8662 94.4772 57.3419 94.4422 57.792 94.5584C58.902 94.7284 61.122 95.3884 61.262 96.5584C61.402 97.7284 61.4019 101.398 61.4019 101.398C61.3676 101.705 61.2469 101.996 61.054 102.236C60.861 102.477 60.6037 102.658 60.312 102.758C59.0426 103.07 57.7387 103.218 56.4319 103.198C56.4319 103.198 55.032 103.098 55.042 101.808C55.052 100.518 55.072 98.6584 55.072 98.6584Z" fill="#404B4D"/>
<path d="M57.7521 94.6084C57.4774 94.5294 57.1894 94.5079 56.9061 94.5451C56.6227 94.5824 56.3501 94.6777 56.1052 94.825C55.8603 94.9723 55.6484 95.1685 55.4827 95.4014C55.317 95.6342 55.201 95.8987 55.1421 96.1783C56.2521 96.5483 57.7821 97.0483 58.4021 97.1783C58.8951 97.2462 59.3974 97.1904 59.8635 97.0158C60.3296 96.8412 60.7449 96.5534 61.0721 96.1783C60.5421 95.2783 58.7221 94.7484 57.7521 94.6084Z" fill="#5A6567"/>
<path d="M52.5321 94.2584C52.5321 94.2584 53.8621 96.7184 54.7921 97.1984C55.9413 97.611 57.1314 97.8993 58.3421 98.0584V102.588H56.1721C55.7446 102.612 55.3177 102.534 54.9265 102.36C54.5352 102.186 54.191 101.921 53.9221 101.588C53.5621 101.058 52.5321 99.4084 52.5321 99.4084L52.3921 98.1284C52.9789 99.2899 53.7299 100.361 54.6221 101.308C55.4621 101.878 57.8021 101.818 57.8021 101.818V98.7584C57.8021 98.7584 55.6321 98.4384 54.8021 98.1884C53.9721 97.9384 52.5421 95.6784 52.5421 95.6784L52.5321 94.2584Z" fill="#333E40"/>
<path d="M55.272 95.7783C54.7326 95.1903 54.2347 94.5655 53.782 93.9083L52.532 94.2583C52.532 94.2583 53.862 96.7183 54.792 97.1983C54.8615 97.2395 54.9353 97.273 55.012 97.2983C55.0151 96.7809 55.1029 96.2674 55.272 95.7783Z" fill="#5A6567"/>
<path d="M61.282 97.4783C60.8303 98.0048 60.2571 98.4132 59.6121 98.6683V101.498C60.2025 101.354 60.7733 101.14 61.312 100.858C61.352 100.038 61.332 98.5383 61.282 97.4783Z" fill="#C5CCD0"/>
<path d="M55.0021 101.478C55.0021 100.218 55.0021 98.6384 55.0021 98.6384C55.0021 98.6384 55.0021 98.4784 55.0021 98.2484L54.8121 98.1884C54.5636 98.0905 54.3411 97.9365 54.1621 97.7383L52.3921 98.1283C52.9789 99.2899 53.7299 100.361 54.6221 101.308C54.7407 101.384 54.8684 101.444 55.0021 101.488V101.478Z" fill="#4D585A"/>
<path d="M14.8822 77.0683V70.2184C14.83 69.5353 14.6853 68.8625 14.4522 68.2184C14.1722 67.7784 13.6022 67.6784 12.7222 68.2184C12.1534 68.5262 11.6902 68.9977 11.3925 69.5718C11.0947 70.1459 10.9762 70.7961 11.0522 71.4384C11.0461 72.7117 11.1196 73.9842 11.2722 75.2483C11.5048 75.9983 11.8414 76.7119 12.2722 77.3683C12.9943 77.5871 13.7483 77.6818 14.5022 77.6483L14.8822 77.0683Z" fill="#404B4D"/>
<path d="M14.542 77.6183L14.882 77.0683V70.2184C14.882 70.2184 14.882 70.0683 14.882 69.8483C14.202 69.9283 13.112 70.3384 13.012 71.2184C12.892 72.2184 12.7619 75.8784 12.8319 77.4984C13.3981 77.5817 13.9697 77.6218 14.542 77.6183Z" fill="#333E40"/>
<path d="M12.9721 71.2184C13.0721 70.3384 14.1621 69.9283 14.8421 69.8483C14.7971 69.2784 14.6656 68.7187 14.4521 68.1884C14.1721 67.7484 13.6021 67.6484 12.7221 68.1884C12.1344 68.5007 11.6641 68.9955 11.3821 69.5983C11.829 70.27 12.3562 70.8845 12.9521 71.4283C12.9528 71.3579 12.9595 71.2877 12.9721 71.2184Z" fill="#5A6567"/>
<path d="M12.622 77.0083C13.2492 77.3099 13.9278 77.4898 14.622 77.5383L15.242 76.5383C14.3796 76.5164 13.5382 76.2681 12.802 75.8183L12.882 72.9783L16.932 73.8683L17.392 73.1283L12.802 72.0583L11.412 70.3983C11.1621 71.898 11.1621 73.4287 11.412 74.9283C11.758 75.6535 12.1627 76.3491 12.622 77.0083Z" fill="#404B4D"/>
<path d="M14.8921 71.7583L12.9021 72.1084L17.3621 73.1483L17.8121 72.4483L14.8921 71.7583Z" fill="#5A6567"/>
<path d="M14.882 75.7784L12.772 75.8383C12.772 75.8383 13.152 76.3283 15.212 76.5583L15.452 76.1684L14.882 75.7784Z" fill="#5A6567"/>
<path d="M69.3622 95.7683C69.3622 95.7683 68.4522 96.2284 68.3622 95.2984C68.2722 94.3684 68.2122 93.4384 68.2122 92.9984C68.2122 92.5584 68.2121 91.7583 68.6621 91.4783C69.1121 91.1983 69.9622 90.6684 69.9622 90.6684C69.9622 90.6684 70.4921 90.2483 70.6321 91.3383C70.7073 92.4429 70.6671 93.5522 70.5121 94.6483C70.4821 95.0483 69.9822 95.3983 69.3622 95.7683Z" fill="#5A6567"/>
<path d="M70.012 95.0083C70.012 95.0083 69.212 95.4483 69.072 95.5083C68.932 95.5683 68.672 95.4384 68.622 94.6184C68.5143 93.8052 68.5143 92.9815 68.622 92.1684C68.9651 91.7937 69.3845 91.497 69.852 91.2984C70.122 91.1884 70.4521 91.0584 70.4621 91.7984C70.4721 92.5384 70.392 93.8884 70.392 94.1984C70.396 94.3536 70.3636 94.5076 70.2977 94.6482C70.2317 94.7888 70.1339 94.9121 70.012 95.0083Z" fill="#4E595B"/>
<path d="M70.4621 91.7984C70.4621 91.0584 70.1221 91.1884 69.8521 91.2984C69.3846 91.497 68.9651 91.7937 68.6221 92.1684C68.6191 92.1983 68.6191 92.2284 68.6221 92.2583C68.9309 92.02 69.2665 91.8187 69.6221 91.6583C69.9021 91.5483 70.2221 91.4183 70.2321 92.1583C70.2421 92.8983 70.1721 94.2484 70.1721 94.5584C70.1713 94.7095 70.1407 94.859 70.0821 94.9984C70.2051 94.906 70.3033 94.7846 70.3679 94.645C70.4325 94.5053 70.4614 94.3519 70.4521 94.1984C70.3921 93.8884 70.4721 92.5484 70.4621 91.7984Z" fill="#414C4E"/>
<path d="M69.6122 95.2283C69.6122 95.2283 69.6122 93.4083 69.6122 92.5983C69.6261 92.215 69.5363 91.8349 69.3521 91.4984L69.1921 91.6983C69.3008 91.992 69.3747 92.2975 69.4121 92.6084V95.1283L69.6122 95.2283Z" fill="#414C4E"/>
<path d="M69.6121 95.2283C69.6121 95.2283 69.6121 93.4083 69.6121 92.5983C69.626 92.215 69.5362 91.8349 69.3521 91.4984L69.752 91.2784C69.8831 91.6024 69.9868 91.9369 70.062 92.2784V94.9583L69.6121 95.2283Z" fill="#5A6567"/>
<g style="mix-blend-mode:multiply" opacity="0.2">
<g style="mix-blend-mode:multiply" opacity="0.2">
<path d="M24.7621 95.9984L23.4421 97.3683L23.5421 97.4584L24.8521 96.0883L24.7621 95.9984Z" fill="black"/>
</g>
<g style="mix-blend-mode:multiply" opacity="0.2">
<path d="M22.7853 94.849L21.47 96.2202L21.5638 96.3101L22.8791 94.939L22.7853 94.849Z" fill="black"/>
</g>
<g style="mix-blend-mode:multiply" opacity="0.2">
<path d="M22.2968 94.5619L20.9814 95.933L21.0753 96.023L22.3906 94.6519L22.2968 94.5619Z" fill="black"/>
</g>
<g style="mix-blend-mode:multiply" opacity="0.2">
<path d="M21.842 94.2983L20.532 95.6683L20.622 95.7583L21.932 94.3883L21.842 94.2983Z" fill="black"/>
</g>
<g style="mix-blend-mode:multiply" opacity="0.2">
<path d="M21.382 94.0084L20.062 95.3884L20.152 95.4784L21.472 94.0984L21.382 94.0084Z" fill="black"/>
</g>
<g style="mix-blend-mode:multiply" opacity="0.2">
<path d="M20.9721 93.7083L19.6621 95.0783L19.7521 95.1683L21.0721 93.7883L20.9721 93.7083Z" fill="black"/>
</g>
<g style="mix-blend-mode:multiply" opacity="0.2">
<path d="M20.5322 93.3784L19.2122 94.7484L19.3022 94.8384L20.6222 93.4684L20.5322 93.3784Z" fill="black"/>
</g>
<g style="mix-blend-mode:multiply" opacity="0.2">
<path d="M20.062 93.0883L18.752 94.4584L18.842 94.5483L20.152 93.1784L20.062 93.0883Z" fill="black"/>
</g>
<g style="mix-blend-mode:multiply" opacity="0.2">
<path d="M19.5619 92.7683L18.2419 94.1383L18.3319 94.2283L19.6519 92.8583L19.5619 92.7683Z" fill="black"/>
</g>
<g style="mix-blend-mode:multiply" opacity="0.2">
<path d="M19.122 92.4883L17.802 93.8583L17.892 93.9483L19.212 92.5783L19.122 92.4883Z" fill="black"/>
</g>
<g style="mix-blend-mode:multiply" opacity="0.2">
<path d="M18.6821 92.1683L17.3721 93.5383L17.4621 93.6183L18.7821 92.2583L18.6821 92.1683Z" fill="black"/>
</g>
<g style="mix-blend-mode:multiply" opacity="0.2">
<path d="M18.1721 91.8484L16.8621 93.2184L16.9521 93.3084L18.2721 91.9384L18.1721 91.8484Z" fill="black"/>
</g>
<g style="mix-blend-mode:multiply" opacity="0.2">
<path d="M17.7321 91.5783L16.4121 92.9483L16.5121 93.0383L17.8221 91.6683L17.7321 91.5783Z" fill="black"/>
</g>
<g style="mix-blend-mode:multiply" opacity="0.2">
<path d="M17.3751 91.2331L16.0601 92.6045L16.1539 92.6945L17.469 91.3231L17.3751 91.2331Z" fill="black"/>
</g>
<g style="mix-blend-mode:multiply" opacity="0.2">
<path d="M16.862 90.8884L15.542 92.2583L15.642 92.3484L16.952 90.9783L16.862 90.8884Z" fill="black"/>
</g>
<g style="mix-blend-mode:multiply" opacity="0.2">
<path d="M16.4121 90.5284L15.1021 91.8884L15.1921 91.9783L16.5121 90.6084L16.4121 90.5284Z" fill="black"/>
</g>
<g style="mix-blend-mode:multiply" opacity="0.2">
<path d="M25.2457 96.3047L23.9299 97.6754L24.0237 97.7654L25.3395 96.3947L25.2457 96.3047Z" fill="black"/>
</g>
<g style="mix-blend-mode:multiply" opacity="0.2">
<path d="M25.6921 96.5684L24.3721 97.9384L24.4721 98.0284L25.7821 96.6584L25.6921 96.5684Z" fill="black"/>
</g>
<g style="mix-blend-mode:multiply" opacity="0.2">
<path d="M26.2323 96.8301L24.917 98.2012L25.0108 98.2912L26.3261 96.9201L26.2323 96.8301Z" fill="black"/>
</g>
<g style="mix-blend-mode:multiply" opacity="0.2">
<path d="M26.6821 97.0883L25.3621 98.4584L25.4521 98.5483L26.7721 97.1784L26.6821 97.0883Z" fill="black"/>
</g>
<g style="mix-blend-mode:multiply" opacity="0.2">
<path d="M27.2064 97.3896L25.8901 98.7598L25.9839 98.8498L27.3001 97.4796L27.2064 97.3896Z" fill="black"/>
</g>
<g style="mix-blend-mode:multiply" opacity="0.2">
<path d="M27.7221 97.6783L26.4021 99.0483L26.4921 99.1383L27.8121 97.7683L27.7221 97.6783Z" fill="black"/>
</g>
<g style="mix-blend-mode:multiply" opacity="0.2">
<path d="M28.2431 97.9585L26.928 99.3299L27.0218 99.4198L28.3369 98.0485L28.2431 97.9585Z" fill="black"/>
</g>
<g style="mix-blend-mode:multiply" opacity="0.2">
<path d="M28.7822 98.2184L27.4622 99.5884L27.5622 99.6784L28.8722 98.3084L28.7822 98.2184Z" fill="black"/>
</g>
<g style="mix-blend-mode:multiply" opacity="0.2">
<path d="M29.2777 98.4767L27.9634 99.8488L28.0573 99.9387L29.3716 98.5667L29.2777 98.4767Z" fill="black"/>
</g>
<g style="mix-blend-mode:multiply" opacity="0.2">
<path d="M29.7867 98.6977L28.4709 100.068L28.5647 100.158L29.8805 98.7878L29.7867 98.6977Z" fill="black"/>
</g>
<g style="mix-blend-mode:multiply" opacity="0.2">
<path d="M30.2587 98.9765L28.9429 100.347L29.0367 100.437L30.3524 99.0665L30.2587 98.9765Z" fill="black"/>
</g>
<g style="mix-blend-mode:multiply" opacity="0.2">
<path d="M30.8119 99.2584L29.4919 100.628L29.5919 100.718L30.9019 99.3384L30.8119 99.2584Z" fill="black"/>
</g>
<g style="mix-blend-mode:multiply" opacity="0.2">
<path d="M31.322 99.4984L30.002 100.868L30.102 100.958L31.412 99.5883L31.322 99.4984Z" fill="black"/>
</g>
<g style="mix-blend-mode:multiply" opacity="0.2">
<path d="M31.8119 99.7484L30.4919 101.118L30.5819 101.208L31.9019 99.8383L31.8119 99.7484Z" fill="black"/>
</g>
</g>
<g style="mix-blend-mode:multiply" opacity="0.1">
<g style="mix-blend-mode:multiply" opacity="0.1">
<path d="M69.502 108.708L69.252 108.628C70.092 106.258 71.692 97.6284 71.822 90.6884C71.942 83.5484 71.1019 73.1384 71.0919 73.0284H71.352C71.352 73.1384 72.202 83.5583 72.072 90.7083C71.9226 96.7882 71.06 102.83 69.502 108.708Z" fill="black"/>
</g>
</g>
<path d="M11.072 89.9684C10.7379 89.7718 10.4498 89.5058 10.2273 89.1884C10.0048 88.8709 9.85292 88.5095 9.78201 88.1283C9.71222 87.0732 9.82728 86.0139 10.122 84.9984L10.322 84.1483L9.882 84.9083C8.472 87.3783 5.822 92.1383 5.302 93.0683C5.61304 94.6772 6.52476 96.1073 7.85201 97.0683L8.01201 97.1684V96.9783C8.42201 94.6483 11.072 90.1383 11.102 90.0983L11.172 89.9783L11.072 89.9684Z" fill="#2E383B"/>
<path d="M9.52216 88.1684C9.4345 87.369 9.48525 86.5605 9.67216 85.7784C9.67216 85.8484 9.67216 85.5884 9.67216 85.2984C8.33216 87.6484 6.18216 91.5083 5.46216 92.7883C5.51924 92.9004 5.55326 93.0229 5.56216 93.1483C5.86707 94.5882 6.67108 95.8739 7.83215 96.7784C8.5684 94.4519 9.5753 92.2199 10.8322 90.1283C10.49 89.9102 10.1968 89.6233 9.97134 89.2859C9.74584 88.9485 9.59287 88.568 9.52216 88.1684Z" fill="#E3E3E4"/>
<path d="M43.3022 101.298L43.1921 101.198L43.1021 101.318C42.2462 102.436 41.1165 103.314 39.8221 103.868C39.0394 104.144 38.2115 104.27 37.3821 104.238C36.229 104.227 35.0799 104.1 33.9521 103.858H33.8622V103.928C32.3312 105.928 30.954 108.041 29.7422 110.248L29.6821 110.378L29.8121 110.428C31.8273 111.18 33.9447 111.621 36.0921 111.738C36.4906 111.741 36.8886 111.711 37.2821 111.648C38.1497 111.461 38.9699 111.098 39.6922 110.582C40.4144 110.066 41.0236 109.408 41.4821 108.648L41.7821 108.248C42.9721 106.838 44.3921 104.908 44.3821 103.718C44.349 102.802 43.9619 101.935 43.3022 101.298Z" fill="#2E383B"/>
<path d="M43.2222 101.598C42.348 102.696 41.2138 103.559 39.9222 104.108C39.1068 104.394 38.2457 104.526 37.3822 104.498C36.2362 104.485 35.0943 104.361 33.9722 104.128C32.4958 106.061 31.1591 108.096 29.9722 110.218C31.9288 110.949 33.9862 111.374 36.0722 111.478C36.4571 111.484 36.8417 111.457 37.2222 111.398C38.0512 111.206 38.8328 110.848 39.5201 110.346C40.2075 109.845 40.7864 109.209 41.2222 108.478L41.5322 108.058C43.1822 106.118 44.0822 104.568 44.0722 103.698C44.0535 102.918 43.7513 102.172 43.2222 101.598Z" fill="#E3E3E4"/>
<path d="M43.072 105.008C43.072 105.508 42.722 105.708 42.292 105.458C42.0642 105.311 41.8748 105.112 41.7391 104.877C41.6035 104.643 41.5257 104.379 41.512 104.108C41.512 103.608 41.862 103.408 42.292 103.658C42.518 103.807 42.7062 104.007 42.8416 104.241C42.9771 104.475 43.0559 104.738 43.072 105.008Z" fill="#F09041"/>
<path d="M41.0121 107.768C41.0121 108.768 40.3221 109.138 39.4821 108.648C39.035 108.36 38.663 107.969 38.3969 107.508C38.1308 107.047 37.9784 106.53 37.9521 105.998C37.9521 104.998 38.6321 104.628 39.4821 105.118C39.926 105.41 40.2954 105.802 40.5611 106.262C40.8267 106.722 40.9812 107.238 41.0121 107.768Z" fill="white"/>
<path d="M37.432 109.278C37.432 110.588 36.502 111.128 35.362 110.468C34.7598 110.076 34.2586 109.548 33.8989 108.926C33.5392 108.304 33.3313 107.606 33.292 106.888C33.292 105.568 34.222 105.038 35.362 105.688C35.9644 106.083 36.4656 106.613 36.8252 107.236C37.1848 107.86 37.3926 108.56 37.432 109.278Z" fill="white"/>
<path d="M9.57196 92.4783C9.36928 91.8708 9.02676 91.3193 8.57196 90.8683C7.84196 90.2283 7.25195 90.7483 7.25195 92.0183C7.26617 93.1612 7.63287 94.2717 8.30196 95.1983C8.68196 94.2583 9.13196 93.2983 9.57196 92.4783Z" fill="white"/>
<path d="M9.90215 89.4784C9.76154 89.1013 9.5396 88.7599 9.25214 88.4784C8.67214 87.9684 8.20215 88.3784 8.20215 89.3884C8.20883 89.7018 8.24906 90.0135 8.32214 90.3184L9.90215 89.4784Z" fill="white"/>
<path d="M9.52216 88.1684C9.4345 87.369 9.48525 86.5605 9.67216 85.7784C9.67216 85.8484 9.67216 85.5884 9.67216 85.2984C8.33216 87.6484 6.18216 91.5083 5.46216 92.7883C5.51924 92.9004 5.55326 93.0229 5.56216 93.1483C5.86707 94.5882 6.67108 95.8739 7.83215 96.7784C8.5684 94.4519 9.5753 92.2199 10.8322 90.1283C10.49 89.9102 10.1968 89.6233 9.97134 89.2859C9.74584 88.9485 9.59287 88.568 9.52216 88.1684Z" fill="url(#paint14_linear)"/>
<path d="M43.2222 101.598C42.348 102.696 41.2138 103.559 39.9222 104.108C39.1068 104.394 38.2457 104.526 37.3822 104.498C36.2362 104.485 35.0943 104.361 33.9722 104.128C32.4958 106.061 31.1591 108.096 29.9722 110.218C31.9288 110.949 33.9862 111.374 36.0722 111.478C36.4571 111.484 36.8417 111.457 37.2222 111.398C38.0512 111.206 38.8328 110.848 39.5201 110.346C40.2075 109.845 40.7864 109.209 41.2222 108.478L41.5322 108.058C43.1822 106.118 44.0822 104.568 44.0722 103.698C44.0535 102.918 43.7513 102.172 43.2222 101.598Z" fill="url(#paint15_linear)"/>
<path d="M148.412 55.1183L149.112 53.0283L149.032 41.9583L147.792 45.5583V55.4783L148.412 55.1183Z" fill="#BD1E2D"/>
<path d="M149.072 46.4184L148.452 47.0984V52.5284L149.102 51.6483L149.072 46.4184Z" fill="#E3E3E4"/>
<defs>
<linearGradient id="paint0_linear" x1="48.742" y1="125.038" x2="50.9819" y2="116.828" gradientUnits="userSpaceOnUse">
<stop stop-color="#C2C1C1"/>
<stop offset="1" stop-color="#DFDEDD"/>
</linearGradient>
<linearGradient id="paint1_linear" x1="49.0721" y1="123.858" x2="51.6121" y2="115.328" gradientUnits="userSpaceOnUse">
<stop stop-color="#B8B7B7"/>
<stop offset="1" stop-color="#DFDEDD"/>
</linearGradient>
<linearGradient id="paint2_linear" x1="2254.64" y1="2818.09" x2="2231.73" y2="2884.19" gradientUnits="userSpaceOnUse">
<stop stop-color="#C2C1C1"/>
<stop offset="1" stop-color="#DFDEDD"/>
</linearGradient>
<linearGradient id="paint3_linear" x1="460.525" y1="607.117" x2="462.57" y2="607.117" gradientUnits="userSpaceOnUse">
<stop stop-color="#C2C1C1"/>
<stop offset="1" stop-color="#DFDEDD"/>
</linearGradient>
<linearGradient id="paint4_linear" x1="3025.45" y1="2402.96" x2="3054.44" y2="2321.47" gradientUnits="userSpaceOnUse">
<stop stop-color="#C2C1C1"/>
<stop offset="1" stop-color="#DFDEDD"/>
</linearGradient>
<linearGradient id="paint5_linear" x1="3030.8" y1="2386.43" x2="3063.28" y2="2302.43" gradientUnits="userSpaceOnUse">
<stop stop-color="#B8B7B7"/>
<stop offset="1" stop-color="#DFDEDD"/>
</linearGradient>
<linearGradient id="paint6_linear" x1="2917.19" y1="2319.51" x2="2894.18" y2="2385.59" gradientUnits="userSpaceOnUse">
<stop stop-color="#C2C1C1"/>
<stop offset="1" stop-color="#DFDEDD"/>
</linearGradient>
<linearGradient id="paint7_linear" x1="645.836" y1="481.589" x2="647.881" y2="481.589" gradientUnits="userSpaceOnUse">
<stop stop-color="#C2C1C1"/>
<stop offset="1" stop-color="#DFDEDD"/>
</linearGradient>
<linearGradient id="paint8_linear" x1="42.772" y1="109.218" x2="62.112" y2="109.218" gradientUnits="userSpaceOnUse">
<stop stop-color="white"/>
<stop offset="0.52" stop-color="white"/>
<stop offset="1" stop-color="white"/>
</linearGradient>
<linearGradient id="paint9_linear" x1="60.819" y1="169.766" x2="60.8191" y2="169.766" gradientUnits="userSpaceOnUse">
<stop stop-color="white"/>
<stop offset="0.52" stop-color="white"/>
<stop offset="1" stop-color="white"/>
</linearGradient>
<linearGradient id="paint10_linear" x1="6147.62" y1="3951.6" x2="6438.68" y2="3951.6" gradientUnits="userSpaceOnUse">
<stop stop-color="white"/>
<stop offset="0.52" stop-color="white"/>
<stop offset="1" stop-color="white"/>
</linearGradient>
<linearGradient id="paint11_linear" x1="51.0521" y1="64.2384" x2="59.8321" y2="69.3284" gradientUnits="userSpaceOnUse">
<stop stop-color="white"/>
<stop offset="1" stop-color="white"/>
</linearGradient>
<linearGradient id="paint12_linear" x1="4772.71" y1="3542.46" x2="4927.15" y2="3630.41" gradientUnits="userSpaceOnUse">
<stop stop-color="white"/>
<stop offset="1" stop-color="white"/>
</linearGradient>
<linearGradient id="paint13_linear" x1="26.9021" y1="119.478" x2="27.9621" y2="121.968" gradientUnits="userSpaceOnUse">
<stop stop-color="#394142"/>
<stop offset="0.36" stop-color="#7A8B8F"/>
<stop offset="1" stop-color="#515B5E"/>
</linearGradient>
<linearGradient id="paint14_linear" x1="1328.04" y1="2736.6" x2="1316.73" y2="2807.64" gradientUnits="userSpaceOnUse">
<stop stop-color="white"/>
<stop offset="1" stop-color="white"/>
</linearGradient>
<linearGradient id="paint15_linear" x1="3886.63" y1="2532.74" x2="3914.12" y2="2616.96" gradientUnits="userSpaceOnUse">
<stop stop-color="white"/>
<stop offset="1" stop-color="white"/>
</linearGradient>
</defs>
</svg>
