<svg width="24" height="24" viewBox="0 0 24 24" fill="none" xmlns="http://www.w3.org/2000/svg">
<path d="M19.5803 15.7424L17.3428 13.5095C16.5437 12.7121 15.1852 13.0311 14.8655 14.0677C14.6258 14.7855 13.8267 15.1842 13.1074 15.0247C11.5092 14.626 9.35156 12.5526 8.952 10.878C8.71227 10.1602 9.19174 9.36278 9.91095 9.12358C10.9498 8.8046 11.2695 7.44895 10.4703 6.6515L8.23279 4.41866C7.59349 3.86045 6.63454 3.86045 6.07516 4.41866L4.55682 5.9338C3.03849 7.52869 4.71665 11.7551 8.47253 15.5031C12.2284 19.2511 16.4638 21.0055 18.062 19.4106L19.5803 17.8955C20.1398 17.2575 20.1398 16.3006 19.5803 15.7424Z" fill="#00A5F1"/>
</svg>
