<svg width="24" height="24" viewBox="0 0 24 24" fill="none" xmlns="http://www.w3.org/2000/svg">
<path d="M19 10.5944C19 6.41605 15.6545 3 11.5137 3C7.37294 3 4 6.41605 4 10.5944C4 12.5423 4.7404 14.321 5.91956 15.6761H5.86472C5.86472 15.6761 8.66179 19.1768 10.3346 21.4071L10.4442 21.4354C10.6636 21.7741 11.0475 22 11.4863 22C11.8702 22 12.2267 21.8024 12.4735 21.5201L12.6654 21.4071C14.3382 19.1768 17.1353 15.6761 17.1353 15.6761H17.0804C18.2596 14.321 19 12.5423 19 10.5944ZM11.5137 15.2244C9.0457 15.2244 7.04388 13.1634 7.04388 10.6226C7.04388 8.08172 9.0457 6.0208 11.5137 6.0208C13.9817 6.0208 15.9561 8.08172 15.9561 10.6226C15.9561 13.1634 13.9543 15.2244 11.5137 15.2244Z" fill="#00A5F1"/>
</svg>
