<svg width="179" height="163" viewBox="0 0 179 163" fill="none" xmlns="../../../www.w3.org/2000/svg.html">
<path opacity="0.1" d="M174.681 79.0118C176.116 79.8299 176.116 81.1933 174.681 82.0114L34.1437 162.387C32.7089 163.205 30.386 163.205 28.9513 162.387L1.07614 146.298C-0.358611 145.48 -0.358611 144.116 1.07614 143.298L141.613 62.9231C143.048 62.1051 145.371 62.1051 146.806 62.9231L174.681 79.0118Z" fill="black"/>
<path d="M130.067 63.6731C125.626 66.3318 122.347 71.9901 122.278 77.1712C122.278 77.4439 122.278 77.7166 122.278 77.9892L137.787 68.5133C137.787 68.4451 137.787 68.3088 137.787 68.2406C137.924 63.6731 134.03 61.3552 130.067 63.6731Z" fill="#404B4D"/>
<path d="M101.85 82.4883L96.5212 79.4887C95.0864 78.6025 93.1051 78.6706 91.1238 79.8296C86.6829 82.4883 83.4035 88.1466 83.3352 93.3277C83.3352 93.5322 83.3352 93.8049 83.3352 94.0094L89.0742 97.3499C89.0742 97.0772 89.0742 96.8727 89.0742 96.6C89.1425 91.4189 92.4219 85.7606 96.8628 83.1019C98.6392 81.9429 100.484 81.8747 101.85 82.4883C101.85 82.5565 101.85 82.4883 101.85 82.4883Z" fill="#333E40"/>
<path opacity="0.2" d="M135.055 63.1275L129.725 60.1279C128.291 59.2416 126.309 59.3098 124.328 60.4687C119.887 63.1275 116.608 68.7858 116.539 73.9669C116.539 74.1714 116.539 74.4441 116.539 74.6486L122.278 77.989C122.278 77.7163 122.278 77.5118 122.278 77.2391C122.347 72.058 125.626 66.3997 130.067 63.741C131.912 62.5821 133.688 62.5139 135.055 63.1275C135.123 63.1956 135.055 63.1275 135.055 63.1275Z" fill="url(#paint0_linear)"/>
<path d="M114.49 73.149C110.049 75.8077 106.769 81.466 106.701 86.6471C106.701 86.9198 106.701 87.1925 106.701 87.4652L107.521 86.988L122.278 77.9892C122.278 77.921 122.278 77.7847 122.278 77.7165C122.347 73.0808 118.452 70.7629 114.49 73.149Z" fill="#404B4D"/>
<path opacity="0.2" d="M86.273 91.8963L80.944 88.8967C79.5092 88.0104 77.5279 88.0786 75.5466 89.2375C71.1057 91.8963 67.8262 97.5546 67.7579 102.736C67.7579 102.94 67.7579 103.213 67.7579 103.417L73.4969 106.758C73.4969 106.485 73.4969 106.281 73.4969 106.008C73.5652 100.827 76.8447 95.1685 81.2856 92.5098C83.0619 91.3509 84.9066 91.2827 86.273 91.8963C86.3414 91.9644 86.273 91.8963 86.273 91.8963Z" fill="url(#paint1_linear)"/>
<path d="M119.477 72.5354L114.148 69.5358C112.713 68.6496 110.732 68.7178 108.751 69.8767C104.31 72.5354 101.03 78.1937 100.962 83.3748C100.962 83.5793 100.962 83.852 100.962 84.0565L106.701 87.397C106.701 87.1243 106.701 86.9198 106.701 86.6471C106.769 81.466 110.049 75.8077 114.49 73.149C116.334 71.99 118.111 71.9219 119.477 72.5354C119.546 72.6036 119.546 72.6036 119.477 72.5354Z" fill="#333E40"/>
<path d="M72.267 107.78L61.3356 114.052V108.326L72.267 101.986V107.78Z" fill="#404B4D"/>
<path d="M55.8697 105.19V110.916L61.3354 114.052V108.326L55.8697 105.19Z" fill="#273234"/>
<path d="M55.87 105.19L66.8014 98.8496L72.2671 101.986L61.3357 108.326L55.87 105.19Z" fill="#4D585A"/>
<path fill-rule="evenodd" clip-rule="evenodd" d="M100.485 88.4204L100.415 88.3511C100.485 88.4204 100.485 88.4204 100.485 88.4204Z" fill="#BD1E2D"/>
<path fill-rule="evenodd" clip-rule="evenodd" d="M84.9078 97.8282L84.8383 97.7588C84.9078 97.8282 84.9078 97.8282 84.9078 97.8282Z" fill="#BD1E2D"/>
<path d="M173.724 77.8529L175.227 77.3075V73.0127L173.724 73.5581V77.8529Z" fill="#404B4D"/>
<path d="M173.724 77.8529L142.16 59.5146V55.2197L173.724 73.5581V77.8529Z" fill="#263133"/>
<path d="M175.227 73.0124L143.663 54.6741L142.16 55.2195L173.724 73.5578L175.227 73.0124Z" fill="#4D585A"/>
<path d="M161.153 67.6953L50.3359 131.436V133.754L161.153 69.945V67.6953Z" fill="#404B4D"/>
<path d="M147.489 59.7874L36.6716 123.597L50.3359 131.436L161.153 67.6953L147.489 59.7874Z" fill="#4D585A"/>
<path d="M94.2667 120.188L83.3353 126.46V120.665L94.2667 114.393V120.188Z" fill="#404B4D"/>
<path d="M77.8696 117.529V123.324L83.3353 126.46V120.733L77.8696 117.529Z" fill="#273234"/>
<path d="M77.8696 117.529L88.801 111.257L94.2668 114.393L83.3353 120.733L77.8696 117.529Z" fill="#4D585A"/>
<path d="M124.601 102.258L113.67 108.53V102.804L124.601 96.5317V102.258Z" fill="#404B4D"/>
<path d="M108.204 99.6677V105.394L113.67 108.598V102.804L108.204 99.6677Z" fill="#273234"/>
<path d="M108.204 99.6679L119.136 93.3279L124.602 96.532L113.67 102.804L108.204 99.6679Z" fill="#4D585A"/>
<path d="M165.799 78.0573L154.868 84.3973V78.6027L165.799 72.3308V78.0573Z" fill="#404B4D"/>
<path d="M149.402 75.4668V81.2614L154.868 84.3974V78.6027L149.402 75.4668Z" fill="#273234"/>
<path d="M149.402 75.4669L160.333 69.1951L165.799 72.331L154.868 78.6028L149.402 75.4669Z" fill="#4D585A"/>
<path d="M78.5527 130.686L60.4475 141.185V131.572L78.5527 121.142V130.686Z" fill="#404B4D"/>
<path d="M51.3607 126.391L69.4659 115.893L78.5526 121.142L60.4474 131.572L51.3607 126.391Z" fill="#4D585A"/>
<path d="M51.3607 126.391V135.935L60.4474 141.185V131.572L51.3607 126.391Z" fill="#273234"/>
<path d="M153.365 76.8984C152.955 77.1711 152.545 77.4437 152.135 77.7846L160.47 81.0569C160.539 76.8302 156.986 74.7168 153.365 76.8984Z" fill="#343433"/>
<path d="M157.6 77.2391L153.091 74.7167C151.861 73.9668 150.222 74.035 148.514 74.9894C144.756 77.2391 142.023 82.0111 141.955 86.306C141.887 88.3512 142.775 89.8509 144.141 90.5327L149.197 93.3277C150.358 93.8731 151.861 93.7368 153.365 92.8505C157.122 90.6008 159.855 85.8288 159.923 81.5339C159.992 79.3524 159.035 77.8526 157.6 77.2391Z" fill="#343433"/>
<path d="M159.923 81.466C159.855 85.829 157.122 90.5329 153.365 92.7826C150.017 94.7596 146.737 92.8508 146.806 88.965C146.874 84.6019 149.607 79.898 153.365 77.6483C156.712 75.6713 160.06 77.6483 159.923 81.466Z" fill="#424040"/>
<path d="M159.514 82.0113C159.445 86.0334 156.986 90.3965 153.57 92.4416C150.563 94.2823 147.557 92.5098 147.626 88.9648C147.694 84.9427 150.153 80.5796 153.57 78.5345C156.576 76.6256 159.582 78.4663 159.514 82.0113Z" fill="#575656"/>
<path d="M157.874 83.1019C157.806 85.8288 156.098 88.8284 153.775 90.26C151.657 91.4871 149.607 90.26 149.675 87.874C149.744 85.1471 151.452 82.1475 153.775 80.7159C155.824 79.4206 157.874 80.6477 157.874 83.1019Z" fill="#CCCBCA"/>
<path d="M155.141 80.1708C156.302 80.3071 157.259 81.3297 157.191 82.8977C157.122 85.4882 155.551 88.2833 153.365 89.5785C151.793 90.533 150.222 89.9876 149.675 88.4878C150.017 90.3966 151.862 91.2829 153.706 90.1921C156.029 88.7605 157.806 85.7609 157.806 83.034C157.874 81.1934 156.644 80.0344 155.141 80.1708Z" fill="#424040"/>
<path d="M156.166 84.3292C156.166 85.7608 155.21 87.3969 153.98 88.1468C152.887 88.8285 151.793 88.1468 151.793 86.8516C151.793 85.4199 152.75 83.7838 153.98 83.0339C155.073 82.3522 156.166 83.0339 156.166 84.3292Z" fill="#E7E8E7"/>
<path fill-rule="evenodd" clip-rule="evenodd" d="M156.919 81.3308L156.849 81.2615C156.849 81.2615 156.849 81.2615 156.919 81.3308Z" fill="#BD1E2D"/>
<path fill-rule="evenodd" clip-rule="evenodd" d="M152.34 84.0565L151.315 83.1021C151.11 83.3747 150.974 83.6474 150.837 83.9201L152.067 84.5337C152.203 84.261 152.272 84.1246 152.34 84.0565Z" fill="#343433"/>
<path fill-rule="evenodd" clip-rule="evenodd" d="M153.843 82.5569C153.911 82.4887 153.98 82.4887 154.048 82.4887L153.775 80.7844C153.775 80.7844 153.706 80.7844 153.706 80.8526C153.433 80.9889 153.228 81.1935 153.023 81.3298L153.638 82.7614C153.706 82.6932 153.775 82.6251 153.843 82.5569Z" fill="#343433"/>
<path fill-rule="evenodd" clip-rule="evenodd" d="M151.862 85.0109L150.564 84.5337C150.427 84.8746 150.29 85.1472 150.154 85.4881L151.657 85.6245C151.657 85.3518 151.725 85.1472 151.862 85.0109Z" fill="#343433"/>
<path fill-rule="evenodd" clip-rule="evenodd" d="M153.092 83.1704L152.477 81.7388C152.203 81.9433 151.998 82.216 151.793 82.4887L152.682 83.6476C152.818 83.4431 152.955 83.3067 153.092 83.1704Z" fill="#343433"/>
<path fill-rule="evenodd" clip-rule="evenodd" d="M155.961 82.8294L156.712 81.6023C156.644 81.5341 156.644 81.3977 156.576 81.3296C156.507 81.1932 156.439 81.1251 156.371 81.0569L155.756 82.6248C155.824 82.693 155.893 82.7612 155.961 82.8294Z" fill="#343433"/>
<path fill-rule="evenodd" clip-rule="evenodd" d="M156.303 83.5112L157.122 82.625C157.054 82.4204 157.054 82.2841 156.986 82.0796L156.166 83.1022C156.234 83.2385 156.303 83.3749 156.303 83.5112Z" fill="#343433"/>
<path fill-rule="evenodd" clip-rule="evenodd" d="M155.483 82.4204L155.961 80.6479C155.756 80.5116 155.551 80.4434 155.346 80.3752L155.073 82.2841C155.278 82.3522 155.414 82.3522 155.483 82.4204Z" fill="#343433"/>
<path fill-rule="evenodd" clip-rule="evenodd" d="M154.8 82.2841L155.005 80.3752C154.8 80.3752 154.526 80.4434 154.253 80.5116L154.458 82.3522C154.595 82.2841 154.731 82.2841 154.8 82.2841Z" fill="#343433"/>
<path fill-rule="evenodd" clip-rule="evenodd" d="M151.452 86.1697H149.949C149.88 86.5105 149.812 86.7832 149.812 87.1241L151.452 86.715C151.383 86.5105 151.452 86.3742 151.452 86.1697Z" fill="#343433"/>
<path fill-rule="evenodd" clip-rule="evenodd" d="M154.458 87.8742L154.389 88.8287C154.594 88.6923 154.731 88.4878 154.868 88.3515L154.731 87.6016C154.731 87.6697 154.594 87.7379 154.458 87.8742Z" fill="#343433"/>
<path fill-rule="evenodd" clip-rule="evenodd" d="M155.278 86.9881L155.483 87.6016C155.688 87.3289 155.893 87.0563 156.029 86.7836L155.483 86.6472C155.483 86.7154 155.414 86.8517 155.278 86.9881Z" fill="#343433"/>
<path fill-rule="evenodd" clip-rule="evenodd" d="M155.893 85.9653L156.439 86.1017C156.576 85.7608 156.713 85.42 156.849 85.0791L156.166 85.2836C156.098 85.4881 155.961 85.7608 155.893 85.9653Z" fill="#343433"/>
<path fill-rule="evenodd" clip-rule="evenodd" d="M151.452 87.2605L149.744 87.6695C149.744 87.7377 149.744 87.7377 149.744 87.8059C149.744 88.0104 149.744 88.2831 149.812 88.4876L151.52 87.6695C151.452 87.5332 151.452 87.3968 151.452 87.2605Z" fill="#343433"/>
<path fill-rule="evenodd" clip-rule="evenodd" d="M156.371 84.0567C156.371 84.2612 156.371 84.4658 156.303 84.7384L156.986 84.4658C157.054 84.1249 157.122 83.7159 157.191 83.375L156.371 84.0567Z" fill="#343433"/>
<path fill-rule="evenodd" clip-rule="evenodd" d="M153.843 88.2831C153.775 88.3512 153.706 88.3512 153.638 88.4194L153.16 89.7147C153.228 89.7147 153.228 89.7147 153.296 89.6465C153.296 89.6465 153.365 89.6465 153.365 89.5783C153.57 89.442 153.706 89.3738 153.911 89.2375L154.116 88.1467C153.98 88.2149 153.911 88.2831 153.843 88.2831Z" fill="#343433"/>
<path fill-rule="evenodd" clip-rule="evenodd" d="M151.657 87.9421L150.017 88.8966C150.085 89.0329 150.222 89.1692 150.358 89.3056C150.427 89.3738 150.495 89.3738 150.563 89.4419L151.862 88.2148C151.793 88.1467 151.725 88.0785 151.657 87.9421Z" fill="#343433"/>
<path fill-rule="evenodd" clip-rule="evenodd" d="M152.203 88.4197L150.973 89.6468C151.178 89.7149 151.315 89.7831 151.52 89.7831L152.34 88.4879C152.34 88.4879 152.272 88.4878 152.203 88.4197Z" fill="#343433"/>
<path fill-rule="evenodd" clip-rule="evenodd" d="M152.75 88.6241L152.067 89.8512C152.203 89.8512 152.408 89.8512 152.545 89.783L153.091 88.5559C152.955 88.6241 152.818 88.6241 152.75 88.6241Z" fill="#343433"/>
<path d="M146.259 89.7146C146.259 89.5783 146.259 89.4419 146.259 89.3056C146.328 84.5335 149.334 79.3524 153.365 76.8982C156.986 74.7167 160.538 76.8301 160.47 81.0567L161.017 80.7159C161.017 80.6477 161.017 80.5114 161.017 80.4432C161.085 75.8756 157.191 73.5578 153.228 75.9438C148.787 78.6025 145.508 84.2608 145.439 89.4419C145.439 89.7146 145.439 89.9873 145.439 90.26L146.259 89.7146Z" fill="#404B4D"/>
<path d="M158.215 75.3985L152.886 72.3989C151.452 71.5126 149.47 71.5808 147.489 72.7397C143.048 75.3985 139.769 81.0568 139.7 86.2379C139.7 86.4424 139.7 86.7151 139.7 86.9196L145.439 90.26C145.439 89.9873 145.439 89.7828 145.439 89.5101C145.508 84.329 148.787 78.6707 153.228 76.012C155.073 74.8531 156.849 74.7167 158.215 75.3985C158.284 75.3985 158.215 75.3985 158.215 75.3985Z" fill="#333E40"/>
<path opacity="0.2" d="M158.215 75.3985L152.886 72.3989C151.452 71.5126 149.47 71.5808 147.489 72.7397C143.048 75.3985 139.769 81.0568 139.7 86.2379C139.7 86.4424 139.7 86.7151 139.7 86.9196L145.439 90.26C145.439 89.9873 145.439 89.7828 145.439 89.5101C145.508 84.329 148.787 78.6707 153.228 76.012C155.073 74.8531 156.849 74.7167 158.215 75.3985C158.284 75.3985 158.215 75.3985 158.215 75.3985Z" fill="url(#paint2_linear)"/>
<path d="M137.787 86.3061C137.377 86.5788 136.967 86.8515 136.558 87.1923L144.893 90.4646C144.961 86.2379 141.408 84.1246 137.787 86.3061Z" fill="#343433"/>
<path d="M142.023 86.2381L137.514 83.7157C136.284 82.9658 134.644 83.034 132.936 83.9884C129.179 86.2381 126.446 91.0102 126.378 95.305C126.309 97.3502 127.197 98.85 128.564 99.5317L133.62 102.327C134.781 102.872 136.284 102.736 137.787 101.85C141.545 99.5999 144.278 94.8278 144.346 90.5329C144.414 88.4196 143.458 86.9198 142.023 86.2381Z" fill="#343433"/>
<path d="M144.415 90.5329C144.346 94.8959 141.613 99.5998 137.856 101.849C134.508 103.826 131.228 101.918 131.297 98.0318C131.365 93.6688 134.098 88.9649 137.856 86.7152C141.203 84.7382 144.483 86.7152 144.415 90.5329Z" fill="#424040"/>
<path d="M143.936 91.419C143.868 95.4411 141.408 99.8042 137.992 101.849C134.986 103.69 131.98 101.918 132.048 98.3726C132.117 94.3504 134.576 89.9874 137.992 87.9422C140.998 86.0334 144.005 87.874 143.936 91.419Z" fill="#575656"/>
<path d="M142.296 92.1688C142.228 94.8957 140.52 97.8953 138.197 99.3269C136.079 100.554 134.03 99.3269 134.098 96.9409C134.166 94.214 135.874 91.2144 138.197 89.7828C140.247 88.4875 142.365 89.7146 142.296 92.1688Z" fill="#CCCBCA"/>
<path d="M139.564 89.2374C140.725 89.3738 141.682 90.3963 141.614 91.9643C141.545 94.5549 139.974 97.3499 137.788 98.6452C136.216 99.5996 134.645 99.0542 134.098 97.5544C134.44 99.4633 136.284 100.35 138.129 99.2588C140.452 97.8271 142.228 94.8276 142.228 92.1007C142.297 90.26 141.067 89.1011 139.564 89.2374Z" fill="#424040"/>
<path d="M140.589 93.3279C140.589 94.7595 139.632 96.3956 138.402 97.1455C137.309 97.8273 136.216 97.1455 136.216 95.8503C136.216 94.4187 137.172 92.7825 138.402 92.0326C139.495 91.4191 140.589 92.0326 140.589 93.3279Z" fill="#E7E8E7"/>
<path fill-rule="evenodd" clip-rule="evenodd" d="M141.341 90.7386L141.272 90.6692C141.272 90.6692 141.341 90.6692 141.341 90.7386Z" fill="#BD1E2D"/>
<path fill-rule="evenodd" clip-rule="evenodd" d="M136.831 93.0552L135.806 92.1008C135.601 92.3735 135.464 92.6462 135.328 92.9189L136.558 93.5325C136.626 93.3279 136.694 93.1916 136.831 93.0552Z" fill="#343433"/>
<path fill-rule="evenodd" clip-rule="evenodd" d="M138.334 91.6235C138.402 91.5554 138.47 91.5554 138.539 91.5554L138.266 89.8511C138.266 89.8511 138.197 89.8511 138.197 89.9192C137.924 90.0556 137.719 90.2601 137.514 90.3965L138.129 91.8281C138.129 91.7599 138.197 91.6917 138.334 91.6235Z" fill="#343433"/>
<path fill-rule="evenodd" clip-rule="evenodd" d="M136.284 94.0097L134.986 93.5325C134.85 93.8733 134.713 94.146 134.576 94.4869L136.079 94.6232C136.148 94.4187 136.216 94.2142 136.284 94.0097Z" fill="#343433"/>
<path fill-rule="evenodd" clip-rule="evenodd" d="M137.514 92.237L136.899 90.8054C136.694 91.0099 136.421 91.2826 136.216 91.5553L137.104 92.7142C137.309 92.5097 137.377 92.3734 137.514 92.237Z" fill="#343433"/>
<path fill-rule="evenodd" clip-rule="evenodd" d="M140.452 91.8963L141.203 90.6692C141.135 90.601 141.135 90.4647 141.067 90.3965C140.998 90.2601 140.93 90.192 140.862 90.1238L140.247 91.6918C140.315 91.6918 140.383 91.8281 140.452 91.8963Z" fill="#343433"/>
<path fill-rule="evenodd" clip-rule="evenodd" d="M140.725 92.5781L141.545 91.6919C141.476 91.4873 141.476 91.351 141.408 91.1465L140.588 92.1691C140.657 92.3054 140.725 92.4418 140.725 92.5781Z" fill="#343433"/>
<path fill-rule="evenodd" clip-rule="evenodd" d="M139.905 91.4873L140.383 89.7148C140.178 89.5785 139.973 89.5103 139.768 89.4421L139.495 91.351C139.7 91.4191 139.837 91.4191 139.905 91.4873Z" fill="#343433"/>
<path fill-rule="evenodd" clip-rule="evenodd" d="M139.29 91.351L139.495 89.4421C139.29 89.4421 139.017 89.5103 138.744 89.5785L138.949 91.4191C139.017 91.351 139.154 91.351 139.29 91.351Z" fill="#343433"/>
<path fill-rule="evenodd" clip-rule="evenodd" d="M135.943 95.2368H134.44C134.371 95.5777 134.303 95.8504 134.303 96.1912L135.943 95.7822C135.874 95.5777 135.874 95.3732 135.943 95.2368Z" fill="#343433"/>
<path fill-rule="evenodd" clip-rule="evenodd" d="M138.949 96.9411L138.88 97.8955C139.085 97.7592 139.222 97.5547 139.359 97.4183L139.222 96.6685C139.154 96.7366 139.017 96.8048 138.949 96.9411Z" fill="#343433"/>
<path fill-rule="evenodd" clip-rule="evenodd" d="M139.769 96.055L139.973 96.6685C140.178 96.3958 140.383 96.1232 140.52 95.8505L139.973 95.7141C139.905 95.7823 139.837 95.9186 139.769 96.055Z" fill="#343433"/>
<path fill-rule="evenodd" clip-rule="evenodd" d="M140.315 95.0322L140.862 95.1686C140.999 94.8277 141.135 94.4869 141.272 94.146L140.589 94.3505C140.52 94.555 140.452 94.7595 140.315 95.0322Z" fill="#343433"/>
<path fill-rule="evenodd" clip-rule="evenodd" d="M135.874 96.3276L134.166 96.7367C134.166 96.8048 134.166 96.8048 134.166 96.873C134.166 97.0775 134.166 97.3502 134.235 97.5547L135.943 96.7367C135.943 96.6003 135.874 96.464 135.874 96.3276Z" fill="#343433"/>
<path fill-rule="evenodd" clip-rule="evenodd" d="M140.793 93.1234C140.793 93.3279 140.793 93.5324 140.725 93.8051L141.408 93.5324C141.476 93.1915 141.545 92.7825 141.613 92.4417L140.793 93.1234Z" fill="#343433"/>
<path fill-rule="evenodd" clip-rule="evenodd" d="M138.334 97.3502C138.266 97.4184 138.197 97.4184 138.129 97.4866L137.582 98.7818C137.651 98.7818 137.651 98.7818 137.719 98.7137C137.719 98.7137 137.787 98.7136 137.787 98.6455C137.992 98.5091 138.129 98.441 138.334 98.3046L138.539 97.2139C138.471 97.282 138.402 97.3502 138.334 97.3502Z" fill="#343433"/>
<path fill-rule="evenodd" clip-rule="evenodd" d="M136.148 97.0093L134.508 97.9637C134.576 98.1 134.713 98.2364 134.849 98.3727C134.918 98.4409 134.986 98.4409 135.054 98.5091L136.353 97.282C136.284 97.2138 136.216 97.1456 136.148 97.0093Z" fill="#343433"/>
<path fill-rule="evenodd" clip-rule="evenodd" d="M136.626 97.4866L135.396 98.7137C135.601 98.7818 135.737 98.85 135.942 98.85L136.762 97.5547C136.762 97.5547 136.694 97.5547 136.626 97.4866Z" fill="#343433"/>
<path fill-rule="evenodd" clip-rule="evenodd" d="M137.172 97.6912L136.489 98.9183C136.626 98.9183 136.831 98.9183 136.967 98.9183L137.514 97.6912C137.446 97.6912 137.309 97.6912 137.172 97.6912Z" fill="#343433"/>
<path d="M130.682 99.1224C130.682 98.9861 130.682 98.8497 130.682 98.7134C130.75 93.9413 133.756 88.7602 137.787 86.306C141.408 84.1245 144.961 86.2378 144.893 90.4645L145.439 90.1237C145.439 90.0555 145.439 89.9191 145.439 89.851C145.507 85.2834 141.613 82.9656 137.65 85.2834C133.21 87.9421 129.93 93.6004 129.862 98.7815C129.862 99.0542 129.862 99.3269 129.862 99.5996L130.682 99.1224Z" fill="#404B4D"/>
<path d="M142.638 84.8062L137.309 81.8066C135.874 80.9203 133.893 80.9885 131.912 82.1474C127.471 84.8062 124.191 90.4645 124.123 95.6456C124.123 95.8501 124.123 96.1228 124.123 96.3273L129.862 99.6677C129.862 99.395 129.862 99.1905 129.862 98.9178C129.93 93.7367 133.21 88.0784 137.651 85.4197C139.495 84.2608 141.272 84.1244 142.638 84.8062C142.706 84.8062 142.706 84.8062 142.638 84.8062Z" fill="#333E40"/>
<path opacity="0.2" d="M142.638 84.8062L137.309 81.8066C135.874 80.9203 133.893 80.9885 131.912 82.1474C127.471 84.8062 124.191 90.4645 124.123 95.6456C124.123 95.8501 124.123 96.1228 124.123 96.3273L129.862 99.6677C129.862 99.395 129.862 99.1905 129.862 98.9178C129.93 93.7367 133.21 88.0784 137.651 85.4197C139.495 84.2608 141.272 84.1244 142.638 84.8062C142.706 84.8062 142.706 84.8062 142.638 84.8062Z" fill="url(#paint3_linear)"/>
<path d="M68.1677 85.2154L30.7276 63.5366V108.939L68.1677 130.686V85.2154Z" fill="#126075"/>
<path d="M178.507 67.1496V21.6787L68.1679 85.2153V130.686L178.507 67.1496Z" fill="#126075"/>
<path d="M141.887 46.0163L69.6025 87.6696V86.0334L141.887 44.3801V46.0163Z" fill="#343F41"/>
<path d="M141.887 46.0164L177.072 66.3317L69.6025 128.232V87.6696L141.887 46.0164Z" fill="#5A6567"/>
<path d="M178.507 21.6788L141.067 0L30.7276 63.5366L68.1677 85.2154L178.507 21.6788Z" fill="#1490C9"/>
<path d="M141.887 44.3802L177.072 24.1331V66.2635L141.887 46.0164V44.3802Z" fill="#4D585A"/>
<path d="M4.49251 111.053V111.939L5.92726 113.166V111.871L4.49251 111.053Z" fill="#303E42"/>
<path d="M3.94565 107.714L2.57922 106.896C2.23761 106.691 1.96432 106.828 1.96432 107.237V111.872C1.96432 112.281 2.23761 112.759 2.57922 112.895L3.94565 113.713C4.28725 113.917 4.56054 113.781 4.56054 113.372V111.872V111.054V108.736C4.49222 108.396 4.21893 107.918 3.94565 107.714Z" fill="#D4DBDF"/>
<path d="M3.94555 107.712L2.57913 106.894C2.23752 106.69 2.03255 106.826 1.96423 107.167C2.03255 107.167 2.10088 107.167 2.23752 107.235L3.60395 108.053C3.94555 108.258 4.21884 108.735 4.21884 109.076V111.394V112.212V113.711V113.78C4.4238 113.78 4.56045 113.643 4.56045 113.371V111.871V111.053V108.735C4.49212 108.394 4.21884 107.917 3.94555 107.712Z" fill="#EEF5F9"/>
<path d="M51.9756 134.981L46.4416 138.117L56.2799 143.843C56.4165 143.093 56.4849 142.344 56.4849 141.594C56.4165 137.64 54.9818 134.776 51.9756 134.981Z" fill="#343433"/>
<path d="M53.0004 137.503L48.4912 134.981C47.2614 134.231 45.6217 134.299 43.9137 135.254C40.156 137.503 37.4232 142.276 37.3548 146.57C37.2865 148.616 38.1747 150.115 39.5411 150.797L44.5969 153.592C45.7584 154.138 47.2615 154.001 48.7645 153.115C52.5222 150.865 55.2551 146.093 55.3234 141.798C55.3917 139.685 54.3669 138.117 53.0004 137.503Z" fill="#343433"/>
<path d="M55.3235 141.798C55.2552 146.162 52.5223 150.865 48.7646 153.115C45.4169 155.092 42.1375 153.183 42.2058 149.297C42.2741 144.934 45.007 140.231 48.7646 137.981C52.1124 136.004 55.3918 137.913 55.3235 141.798Z" fill="#424040"/>
<path d="M54.8454 142.276C54.7771 146.298 52.3175 150.661 48.9014 152.706C45.8953 154.547 42.8891 152.774 42.9575 149.229C43.0258 145.207 45.4853 140.844 48.9014 138.799C51.9076 136.958 54.9137 138.731 54.8454 142.276Z" fill="#575656"/>
<path d="M53.2054 143.366C53.1371 146.093 51.4291 149.093 49.1062 150.524C46.9882 151.751 44.9386 150.524 45.0069 148.138C45.0752 145.411 46.7832 142.412 49.1062 140.98C51.1558 139.753 53.2738 140.98 53.2054 143.366Z" fill="#CCCBCA"/>
<path d="M50.4729 140.503C51.6343 140.639 52.5908 141.662 52.5225 143.23C52.4542 145.82 50.8828 148.616 48.6965 149.911C47.1251 150.865 45.5537 150.32 45.0071 148.82C45.3488 150.729 47.1934 151.615 49.0381 150.524C51.361 149.093 53.1374 146.093 53.1374 143.366C53.274 141.526 52.0443 140.367 50.4729 140.503Z" fill="#424040"/>
<path d="M51.4975 144.593C51.4975 146.025 50.541 147.661 49.3112 148.411C48.218 149.093 47.1249 148.411 47.1249 147.116C47.1249 145.684 48.0814 144.048 49.3112 143.298C50.4726 142.616 51.5658 143.298 51.4975 144.593Z" fill="#E7E8E7"/>
<path fill-rule="evenodd" clip-rule="evenodd" d="M52.25 141.595L52.1806 141.526C52.25 141.595 52.25 141.595 52.25 141.595Z" fill="#BD1E2D"/>
<path fill-rule="evenodd" clip-rule="evenodd" d="M47.7399 144.321L46.715 143.366C46.5101 143.639 46.3734 143.912 46.2368 144.184L47.4666 144.798C47.5349 144.593 47.6715 144.457 47.7399 144.321Z" fill="#343433"/>
<path fill-rule="evenodd" clip-rule="evenodd" d="M49.2428 142.889C49.3111 142.821 49.3794 142.821 49.4477 142.821L49.1745 141.117C49.1745 141.117 49.1061 141.117 49.1061 141.185C48.8329 141.321 48.6279 141.526 48.4229 141.662L49.0378 143.094C49.0378 142.957 49.1745 142.957 49.2428 142.889Z" fill="#343433"/>
<path fill-rule="evenodd" clip-rule="evenodd" d="M47.1932 145.275L45.8951 144.798C45.7585 145.139 45.6218 145.412 45.4852 145.753L46.9883 145.889C47.0566 145.684 47.1249 145.48 47.1932 145.275Z" fill="#343433"/>
<path fill-rule="evenodd" clip-rule="evenodd" d="M48.4913 143.503L47.8764 142.071C47.6031 142.276 47.3981 142.548 47.1932 142.821L48.0813 143.98C48.218 143.707 48.3546 143.571 48.4913 143.503Z" fill="#343433"/>
<path fill-rule="evenodd" clip-rule="evenodd" d="M51.3606 143.094L52.1122 141.867C52.0438 141.798 52.0438 141.662 51.9755 141.594C51.9072 141.526 51.8389 141.389 51.7705 141.321L51.1557 142.889C51.224 142.957 51.2923 143.026 51.3606 143.094Z" fill="#343433"/>
<path fill-rule="evenodd" clip-rule="evenodd" d="M51.7025 143.844L52.5224 142.957C52.4541 142.753 52.4541 142.617 52.3857 142.412L51.5659 143.435C51.5659 143.571 51.6342 143.707 51.7025 143.844Z" fill="#343433"/>
<path fill-rule="evenodd" clip-rule="evenodd" d="M50.8824 142.753L51.3607 140.98C51.1557 140.844 50.9507 140.776 50.7458 140.708L50.4725 142.617C50.6091 142.617 50.7458 142.685 50.8824 142.753Z" fill="#343433"/>
<path fill-rule="evenodd" clip-rule="evenodd" d="M50.1993 142.548L50.4042 140.64C50.1993 140.64 49.926 140.708 49.6527 140.776L49.8577 142.617C49.926 142.617 50.0626 142.617 50.1993 142.548Z" fill="#343433"/>
<path fill-rule="evenodd" clip-rule="evenodd" d="M46.8517 146.434H45.3487C45.2803 146.775 45.212 147.048 45.212 147.388L46.8517 146.979C46.7834 146.843 46.7834 146.639 46.8517 146.434Z" fill="#343433"/>
<path fill-rule="evenodd" clip-rule="evenodd" d="M49.8576 148.139L49.7893 149.093C49.9943 148.957 50.1309 148.752 50.2675 148.616L50.1309 147.866C50.0626 147.934 49.9943 148.07 49.8576 148.139Z" fill="#343433"/>
<path fill-rule="evenodd" clip-rule="evenodd" d="M50.6775 147.252L50.8824 147.866C51.0874 147.593 51.2924 147.32 51.429 147.048L50.8824 146.911C50.8141 147.048 50.7458 147.184 50.6775 147.252Z" fill="#343433"/>
<path fill-rule="evenodd" clip-rule="evenodd" d="M51.2241 146.23L51.7706 146.366C51.9073 146.025 52.0439 145.684 52.1806 145.343L51.4973 145.548C51.429 145.82 51.3607 146.025 51.2241 146.23Z" fill="#343433"/>
<path fill-rule="evenodd" clip-rule="evenodd" d="M46.7833 147.593L45.0752 148.002C45.0752 148.07 45.0752 148.07 45.0752 148.138C45.0752 148.343 45.0752 148.616 45.1435 148.82L46.8516 148.002C46.8516 147.866 46.7833 147.729 46.7833 147.593Z" fill="#343433"/>
<path fill-rule="evenodd" clip-rule="evenodd" d="M51.7022 144.321C51.7022 144.525 51.7022 144.73 51.6338 145.002L52.3171 144.73C52.3854 144.389 52.4537 143.98 52.522 143.639L51.7022 144.321Z" fill="#343433"/>
<path fill-rule="evenodd" clip-rule="evenodd" d="M49.2429 148.616C49.1745 148.684 49.1062 148.684 49.0379 148.752L48.4913 149.979C48.5597 149.979 48.5597 149.979 48.628 149.911C48.628 149.911 48.6963 149.911 48.6963 149.843C48.9013 149.706 49.0379 149.638 49.2429 149.502L49.4478 148.411C49.3795 148.547 49.3112 148.547 49.2429 148.616Z" fill="#343433"/>
<path fill-rule="evenodd" clip-rule="evenodd" d="M47.0565 148.275L45.4168 149.229C45.4851 149.366 45.6218 149.502 45.7584 149.638C45.8267 149.707 45.8951 149.707 45.9634 149.775L47.2615 148.548C47.1932 148.411 47.1248 148.343 47.0565 148.275Z" fill="#343433"/>
<path fill-rule="evenodd" clip-rule="evenodd" d="M47.5346 148.752L46.3048 149.979C46.5097 150.047 46.6464 150.115 46.8513 150.115L47.6712 148.82C47.6712 148.82 47.6029 148.752 47.5346 148.752Z" fill="#343433"/>
<path fill-rule="evenodd" clip-rule="evenodd" d="M48.0814 148.888L47.3982 150.115C47.5348 150.115 47.7398 150.115 47.8764 150.047L48.423 148.82C48.3547 148.888 48.218 148.888 48.0814 148.888Z" fill="#343433"/>
<path d="M52.5223 133.14L51.9757 135.049C54.9818 134.777 56.4166 137.64 56.4166 141.662C56.4166 142.412 56.3483 143.162 56.2116 143.912L57.5097 143.162C57.578 142.412 57.6464 141.662 57.6464 140.912C57.7147 136.208 56.0067 132.8 52.5223 133.14Z" fill="#404B4D"/>
<path d="M58.1928 104.645C58.1245 102.94 57.0996 102.395 57.0996 102.395L27.7214 85.3518L11.4609 94.7596C11.4609 94.7596 7.83991 96.9411 7.08838 100.282L1.96427 117.052V133.004L1.69099 133.141C1.28106 133.345 0.939453 133.959 0.939453 134.436V139.685C0.939453 139.89 1.00777 140.094 1.14442 140.162L29.6344 156.592C29.9077 156.728 30.9325 157.274 31.7524 157.274C32.7089 157.274 33.6654 156.865 33.6654 156.865L41.1124 152.57V145.889C42.0006 143.298 43.5037 140.776 45.3484 138.799L58.1928 131.436V104.645Z" fill="#E1E8EC"/>
<path opacity="0.5" d="M41.1125 152.57V145.889C42.0006 143.298 43.5037 140.776 45.3484 138.799L58.1928 131.436V104.713C58.1928 104.099 58.0562 103.69 57.8512 103.349L41.864 112.553C41.864 112.553 38.243 114.734 37.4914 118.075L37.2865 118.211L32.3673 134.845V157.274C33.0505 157.137 33.5971 156.933 33.5971 156.933L41.1125 152.57Z" fill="#DFE6EA"/>
<path d="M36.4667 131.504C36.2617 132.527 36.7399 132.868 37.5598 132.186L46.4416 125.096C47.2614 124.482 47.8763 123.187 47.8763 122.233V115.416C47.8763 114.461 47.1931 114.12 46.3732 114.529L40.8392 117.597C40.0194 118.074 39.1995 119.301 38.9945 120.256L36.4667 131.504Z" fill="#141C1E"/>
<path d="M47.0563 114.871C46.9197 114.871 46.7831 114.939 46.6464 115.007L41.1124 118.075C40.4292 118.484 39.6776 119.574 39.541 120.461L36.8764 131.641C36.8081 131.914 36.8764 132.05 36.8764 132.118C36.9448 132.118 37.0814 132.05 37.2864 131.914L46.1682 124.824C46.8514 124.278 47.4663 123.119 47.4663 122.37V115.552C47.4663 115.28 47.398 114.871 47.0563 114.871Z" fill="#303E42"/>
<path opacity="0.1" d="M50.1311 120.12V114.461C50.1311 113.507 50.8143 112.416 51.6341 111.939L55.7334 109.621C56.2117 109.348 56.6899 109.348 56.9632 109.689C56.7582 109.28 56.2117 109.144 55.6651 109.485L51.5658 111.803C50.7459 112.28 50.0627 113.439 50.0627 114.325V119.983C50.0627 120.324 50.1311 120.597 50.336 120.801C50.1994 120.597 50.1311 120.324 50.1311 120.12Z" fill="black"/>
<path opacity="0.5" d="M57.0315 110.235C57.0315 109.757 56.8265 109.417 56.5532 109.28C56.6899 109.485 56.8265 109.757 56.8265 110.098V115.757C56.8265 116.711 56.1433 117.802 55.3234 118.279L51.2241 120.597C50.8142 120.801 50.4726 120.87 50.1993 120.733C50.4726 121.006 50.8825 121.074 51.4291 120.801L55.5284 118.484C56.3483 118.006 57.0315 116.847 57.0315 115.961V110.235Z" fill="#D4DBDF"/>
<path d="M37.2181 148.752L36.7399 147.934L33.802 149.706C32.5723 150.456 30.8642 149.57 30.8642 149.57L1.96427 133.004L1.69099 133.14C1.28106 133.345 0.939453 133.959 0.939453 134.436V139.685C0.939453 139.89 1.00777 140.094 1.14442 140.162L29.6344 156.592C29.9077 156.728 30.9325 157.273 31.7524 157.273C32.7089 157.273 33.6654 156.864 33.6654 156.864L37.2181 154.819C37.2181 154.751 37.2181 148.82 37.2181 148.752Z" fill="#404B4D"/>
<path d="M37.2181 148.752L36.7399 147.934L33.802 149.706C32.5723 150.456 30.8642 149.57 30.8642 149.57L1.96427 133.004L1.69099 133.14C1.28106 133.345 0.939453 133.959 0.939453 134.436V139.685C0.939453 139.89 1.00777 140.094 1.14442 140.162L29.6344 156.592C29.9077 156.728 30.9325 157.273 31.7524 157.273C32.7089 157.273 33.6654 156.864 33.6654 156.864L37.2181 154.819C37.2181 154.751 37.2181 148.82 37.2181 148.752Z" fill="#404B4D"/>
<path d="M36.74 147.934L33.8022 149.706C32.5724 150.456 30.8644 149.57 30.8644 149.57L1.96444 133.004L1.69116 133.14C1.41787 133.277 1.21291 133.55 1.07626 133.822L30.6594 150.865C30.6594 150.865 32.3675 151.752 33.5972 151.002L37.15 148.752L36.74 147.934Z" fill="#5A6567"/>
<path opacity="0.5" d="M43.6403 135.936H43.7086H43.6403L43.162 136.481C40.7025 139.14 38.5162 142.753 37.2864 146.23L36.7398 147.934L37.2181 148.752L37.9013 146.434C39.0628 143.025 41.249 139.481 43.6403 136.89L44.1185 136.345L58.2611 128.232V127.482L43.6403 135.936Z" fill="#D4DBDF"/>
<path d="M37.5597 119.097C37.0814 119.097 36.3299 118.756 36.3299 118.756L6.74673 101.304L1.96423 116.847L31.2741 133.822C31.2741 133.822 32.7089 134.504 33.597 133.686C34.007 133.413 34.4169 132.8 34.5535 132.254L37.9013 119.779C38.1063 119.37 37.9013 119.029 37.5597 119.097Z" fill="#141C1E"/>
<path d="M37.3549 120.392C37.4232 120.256 37.3549 120.188 37.3549 120.12H37.2866C36.74 120.12 36.1251 119.847 36.0568 119.779L35.8518 119.642L6.40529 102.395L2.10104 116.438L31.4792 133.481C31.5476 133.55 32.0258 133.686 32.5041 133.686C32.8457 133.686 33.119 133.618 33.3239 133.413C33.6655 133.209 34.0071 132.663 34.1438 132.254L37.3549 120.392Z" fill="#303E42"/>
<path d="M37.3549 120.392C37.4232 120.256 37.3549 120.188 37.3549 120.12H37.2866C36.74 120.12 36.1251 119.847 36.0568 119.779L35.8518 119.642L6.40529 102.395L2.10104 116.438L31.4792 133.481C31.5476 133.55 32.0258 133.686 32.5041 133.686C32.8457 133.686 33.119 133.618 33.3239 133.413C33.6655 133.209 34.0071 132.663 34.1438 132.254L37.3549 120.392Z" fill="#303E42"/>
<path d="M20.0012 148.411C20.0012 148.684 19.7963 148.752 19.5913 148.684L11.7344 144.184C11.5294 144.048 11.3244 143.707 11.3244 143.434V142.003C11.3244 141.73 11.5294 141.662 11.7344 141.73L19.5913 146.23C19.7963 146.366 20.0012 146.707 20.0012 146.979V148.411Z" fill="#263133"/>
<path d="M19.5228 148.207L11.7342 143.707V142.071L19.5228 146.57V148.207Z" fill="white"/>
<path d="M34.0753 156.183C34.0753 156.183 33.0505 156.592 32.0257 156.66C31.1375 156.66 30.0444 156.046 29.7711 155.91L0.939453 139.208V139.821C0.939453 140.026 1.00777 140.23 1.14442 140.299L29.6344 156.796C29.9077 156.933 30.9325 157.478 31.7524 157.478C32.7089 157.478 33.6654 157.069 33.6654 157.069L37.2181 155.024C37.2181 155.024 37.2181 154.751 37.2181 154.41L34.0753 156.183Z" fill="#333E40"/>
<g opacity="0.2">
<path opacity="0.2" d="M48.1497 129.8C48.1497 130.005 48.0131 130.346 47.8081 130.414L46.305 131.3C46.1001 131.436 45.9634 131.3 45.9634 131.096V129.868C45.9634 129.664 46.1001 129.323 46.305 129.255L47.8081 128.369C48.0131 128.232 48.1497 128.369 48.1497 128.573V129.8Z" fill="black"/>
</g>
<path d="M48.4914 128.641C48.4914 128.845 48.3547 129.118 48.1498 129.255L45.8269 130.618C45.6219 130.754 45.4852 130.686 45.4852 130.413C45.4852 130.209 45.6219 129.936 45.8269 129.8L48.1498 128.436C48.3547 128.368 48.4914 128.436 48.4914 128.641Z" fill="#4B5459"/>
<g opacity="0.1">
<path opacity="0.1" d="M35.7836 132.731H35.5787V148.411H35.7836V132.731Z" fill="black"/>
</g>
<g opacity="0.5">
<path opacity="0.5" d="M36.33 134.981L36.5354 135.186C36.467 135.118 36.467 135.05 36.467 135.05C36.3985 135.05 36.3985 135.05 36.33 134.981Z" fill="white"/>
<path opacity="0.5" d="M58.1932 119.915L56.2802 120.938L53.684 122.301L48.5599 125.096L45.4855 127.619L42.4793 130.141L39.4732 132.663L37.9701 133.89L37.2186 134.504L36.8086 134.845L36.6037 134.981L36.5354 135.049L36.467 135.117L36.5354 135.049L36.6037 134.981L36.8086 134.845L37.2186 134.572L37.9701 133.959L39.5415 132.731L42.616 130.345L45.7587 127.959L48.8332 125.573L53.9573 122.846L56.5535 121.483L58.2616 120.529V119.915H58.1932Z" fill="#D4DBDF"/>
</g>
<path opacity="0.1" d="M48.9012 113.439C48.9012 113.166 48.6963 112.825 48.4913 112.757C48.2864 112.621 47.9448 112.621 47.6715 112.757L40.2928 117.052L40.4294 117.256L47.8764 112.962C48.0131 112.893 48.2864 112.825 48.4913 112.962C48.628 113.03 48.7646 113.302 48.7646 113.507V136.89L48.9696 136.754V113.439H48.9012Z" fill="black"/>
<path opacity="0.1" d="M33.1871 144.866C33.0505 144.73 32.8455 144.73 32.6405 144.798C32.5039 144.866 32.1623 144.934 31.9573 144.934H31.684C31.4791 144.934 31.2058 144.866 31.0008 144.73L26.4233 142.071C26.355 142.003 26.2183 142.003 26.15 142.003C25.8767 142.003 25.7401 142.207 25.7401 142.48V145.139C25.7401 145.48 25.945 145.821 26.2183 145.957L30.7959 148.616C31.0008 148.752 31.4108 148.888 31.684 148.888H31.9573C32.2989 148.888 32.6405 148.684 32.8455 148.479L32.9138 148.411C33.0505 148.207 33.1871 147.798 33.2554 147.525L33.3921 145.275C33.3238 145.071 33.3238 144.934 33.1871 144.866Z" fill="black"/>
<path opacity="0.1" d="M1.96423 132.118L7.42994 135.186C7.49827 135.254 7.63491 135.254 7.70323 135.254C7.83987 135.254 7.97652 135.186 8.04484 135.117C8.11316 135.049 8.18148 134.913 8.18148 134.777V132.118C8.18148 131.777 7.97652 131.436 7.70323 131.3L2.03255 128.096V132.118H1.96423Z" fill="black"/>
<path d="M31.6843 148.684C31.4793 148.684 31.0694 148.616 30.8644 148.479L26.2869 145.821C26.0819 145.684 25.9453 145.412 25.9453 145.207V142.548C25.9453 142.344 26.0819 142.208 26.2869 142.344L30.8644 145.003C31.0694 145.139 31.411 145.207 31.6843 145.207H31.9576C32.1625 145.207 32.5725 145.139 32.7091 145.003C32.9141 144.934 33.0507 145.003 33.0507 145.275L32.9141 147.525C32.9141 147.73 32.7774 148.07 32.6408 148.275L32.5725 148.343C32.4358 148.548 32.1625 148.684 31.8893 148.684H31.6843Z" fill="#F0F0F1"/>
<path d="M1.96423 131.914L7.56659 135.049C7.77155 135.186 7.9082 135.049 7.9082 134.845V132.186C7.9082 131.982 7.77155 131.641 7.56659 131.573L1.96423 128.437V131.914Z" fill="#F0F0F1"/>
<path d="M8.79647 141.866C8.86479 142.139 8.79647 142.275 8.59151 142.139L5.58537 140.435C5.3804 140.298 5.24376 140.026 5.24376 139.821V138.73C5.24376 138.526 5.3804 138.389 5.58537 138.526L7.63501 139.753C7.83997 139.889 8.11326 140.162 8.18158 140.435L8.79647 141.866Z" fill="#4D585A"/>
<path d="M8.24993 140.367C8.18161 140.094 7.90832 139.821 7.70336 139.685L6.06364 138.731V139.549C6.06364 139.753 6.20029 140.094 6.40525 140.162L8.59154 141.389L8.24993 140.367Z" fill="#273234"/>
<path d="M22.1874 149.434C22.1191 149.57 22.1874 149.775 22.3924 149.911L25.3302 151.615C25.5351 151.752 25.6718 151.615 25.6718 151.411V150.32C25.6718 150.115 25.5351 149.775 25.3302 149.706L23.2805 148.479C23.0756 148.343 22.8023 148.411 22.734 148.548L22.1874 149.434Z" fill="#4D585A"/>
<path d="M25.3301 149.775L23.3488 148.616L22.9389 149.229C22.8706 149.366 22.9389 149.57 23.1438 149.706L25.6717 151.138V150.388C25.6717 150.116 25.5351 149.843 25.3301 149.775Z" fill="#273234"/>
<path d="M23.6924 143.639C23.5558 144.184 22.9409 144.389 22.326 144.048L10.9163 137.503C10.3015 137.163 9.75488 136.276 9.54992 135.526L8.66174 132.527C8.52509 131.777 8.8667 131.436 9.41327 131.777L23.8291 140.094C24.444 140.435 24.7856 141.185 24.5806 141.73L23.6924 143.639Z" fill="#273234"/>
<path d="M8.65975 132.459L24.5786 141.663C24.647 141.458 24.5786 141.185 24.5103 140.913L8.72807 131.846C8.59142 131.982 8.59142 132.187 8.65975 132.459Z" fill="#404B4D"/>
<path d="M8.93319 133.55L24.2372 142.412L24.5105 141.867L8.72823 132.731L8.93319 133.55Z" fill="#404B4D"/>
<path d="M9.3431 134.777L23.8956 143.162L24.1688 142.685L9.06982 133.958L9.3431 134.777Z" fill="#404B4D"/>
<path d="M9.41141 135.117L9.54805 135.526C9.54805 135.663 9.61637 135.799 9.68469 135.935L23.5539 143.912C23.6223 143.843 23.6223 143.775 23.6906 143.639L23.8272 143.366L9.41141 135.117Z" fill="#404B4D"/>
<path d="M22.8026 143.845L11.3929 137.3C10.778 136.96 10.1631 136.073 10.0265 135.323L9.13828 132.324C9.06996 132.051 9.06996 131.847 9.13828 131.71C8.72835 131.574 8.52339 131.915 8.66003 132.528L9.54821 135.528C9.68485 136.278 10.2997 137.164 10.9146 137.505L22.3243 144.049C22.7342 144.322 23.2125 144.254 23.4858 144.049C23.2125 144.049 23.0075 143.981 22.8026 143.845Z" fill="#5A6567"/>
<path d="M28.8831 145.548C28.8831 146.366 28.2682 146.707 27.585 146.298C26.8335 145.889 26.2869 144.866 26.2869 143.98C26.2869 143.162 26.9018 142.821 27.585 143.23C28.2682 143.707 28.8831 144.73 28.8831 145.548Z" fill="white"/>
<path d="M7.15679 133.141C7.15679 133.959 6.5419 134.3 5.85868 133.89C5.10715 133.481 4.56058 132.459 4.56058 131.573C4.56058 130.755 5.17547 130.414 5.85868 130.823C6.5419 131.232 7.15679 132.254 7.15679 133.141Z" fill="white"/>
<path d="M31.3427 147.116C31.3427 147.798 30.8644 148.07 30.3178 147.729C29.7713 147.389 29.293 146.57 29.293 145.889C29.293 145.207 29.7713 144.934 30.3178 145.275C30.8644 145.684 31.3427 146.434 31.3427 147.116Z" fill="white"/>
<path d="M29.4978 153.047C29.4978 153.592 29.0879 153.797 28.6096 153.524C28.1314 153.251 27.7214 152.57 27.7214 152.024C27.7214 151.479 28.1314 151.274 28.6096 151.547C29.1562 151.82 29.4978 152.501 29.4978 153.047Z" fill="#4D585A"/>
<path d="M28.678 151.547C28.4731 151.615 28.3364 151.82 28.3364 152.093C28.3364 152.57 28.678 153.183 29.1563 153.456C29.2246 153.524 29.2929 153.524 29.3613 153.524C29.4979 153.388 29.5662 153.251 29.5662 153.047C29.4979 152.502 29.1563 151.82 28.678 151.547Z" fill="white"/>
<path d="M3.94558 138.799C3.94558 139.344 3.53565 139.549 3.0574 139.276C2.57915 139.004 2.16922 138.322 2.16922 137.776C2.16922 137.231 2.57915 137.027 3.0574 137.299C3.53565 137.572 3.94558 138.254 3.94558 138.799Z" fill="#4D585A"/>
<path d="M3.05746 137.299C2.85249 137.367 2.71585 137.572 2.71585 137.844C2.71585 138.322 3.05746 138.935 3.53571 139.208C3.60403 139.276 3.67235 139.276 3.74067 139.276C3.87731 139.14 3.94564 139.003 3.94564 138.799C3.94564 138.253 3.53571 137.572 3.05746 137.299Z" fill="white"/>
<path d="M4.28727 131.573C4.28727 132.254 3.80902 132.527 3.26245 132.186C2.71588 131.845 2.23763 131.027 2.23763 130.345C2.23763 129.664 2.71588 129.391 3.26245 129.732C3.80902 130.073 4.28727 130.891 4.28727 131.573Z" fill="white"/>
<path d="M32.7774 145.002C32.5724 145.071 32.2308 145.207 32.0258 145.207H31.7526V148.752H32.0258C32.2308 148.752 32.5724 148.616 32.7091 148.411L32.7774 148.343C32.914 148.138 33.0507 147.798 33.0507 147.593L33.1873 145.343C33.119 145.002 32.9823 144.866 32.7774 145.002Z" fill="#F5911E"/>
<path opacity="0.1" d="M38.448 137.436C38.448 137.572 38.3114 137.776 38.1748 137.845L37.4232 138.254C37.2866 138.322 37.1499 138.254 37.1499 138.117V137.845C37.1499 137.708 37.2866 137.504 37.4232 137.436L38.1748 137.027C38.3114 136.958 38.448 137.026 38.448 137.163V137.436Z" fill="black"/>
<path d="M38.3795 137.299C38.3795 137.435 38.2429 137.64 38.1062 137.708L37.3547 138.117C37.2181 138.185 37.0814 138.117 37.0814 137.981V137.708C37.0814 137.571 37.2181 137.367 37.3547 137.299L38.1062 136.89C38.2429 136.822 38.3795 136.89 38.3795 137.026V137.299Z" fill="#F5911E"/>
<path d="M33.1189 137.708C32.4356 137.912 31.5475 137.503 31.5475 137.503L29.7028 136.413V142.275L31.3425 143.23C31.3425 143.23 32.094 143.912 33.1872 143.571L33.8704 143.162V137.299L33.1189 137.708Z" fill="#D4DBDF"/>
<path opacity="0.5" d="M33.1189 137.981L33.8021 137.572V137.231L33.1189 137.64C32.4356 137.844 31.5475 137.435 31.5475 137.435L29.7028 136.345V136.686L31.5475 137.776C31.5475 137.845 32.4356 138.254 33.1189 137.981Z" fill="#D4DBDF"/>
<path d="M1.96427 119.643V120.188L3.94559 121.347V127.21L1.28105 125.642V120.461C1.28105 120.461 1.48602 119.643 1.96427 119.643Z" fill="#D4DBDF"/>
<g opacity="0.1">
<path opacity="0.1" d="M1.28105 125.369V125.642L3.94559 127.21V126.869L1.28105 125.369Z" fill="black"/>
</g>
<path opacity="0.5" d="M1.96433 120.188V119.643C1.896 119.643 1.75936 119.643 1.69104 119.711V120.324L3.67236 121.483V127.073L3.87732 127.21V121.347L1.96433 120.188Z" fill="#D4DBDF"/>
<path d="M3.94559 121.347V127.005L29.6344 142.003L29.7711 136.481L3.94559 121.347Z" fill="#5A6567"/>
<g opacity="0.1">
<path opacity="0.1" d="M31.2743 142.957L29.6346 142.003V142.207L31.2743 143.162C31.2743 143.162 32.0259 143.844 33.119 143.503L33.8022 143.094V142.889L33.119 143.298C32.0259 143.639 31.2743 142.957 31.2743 142.957Z" fill="black"/>
</g>
<path d="M3.94559 122.369L29.7711 137.231V136.822L3.94559 121.96V122.369Z" fill="#404B4D"/>
<path d="M3.94559 123.187L29.7028 138.049V137.572L3.94559 122.71V123.187Z" fill="#404B4D"/>
<path d="M3.94559 124.005L29.7028 138.867V138.39L3.94559 123.528V124.005Z" fill="#404B4D"/>
<path d="M3.94559 124.823L29.7028 139.685V139.208L3.94559 124.346V124.823Z" fill="#404B4D"/>
<path d="M3.94559 125.642L29.7028 140.503V140.026L3.94559 125.164V125.642Z" fill="#404B4D"/>
<path d="M3.94559 126.46L29.6344 141.253L29.7028 140.844L3.94559 125.982V126.46Z" fill="#404B4D"/>
<path d="M29.6344 141.594L3.94559 126.801V127.005L29.6344 142.003V141.594Z" fill="#404B4D"/>
<path d="M7.84002 103.213L6.33695 111.257C6.13199 112.28 6.61024 112.62 7.43009 111.939L13.9889 106.758L7.84002 103.213Z" fill="#C5D0D3"/>
<path d="M6.40515 102.395L2.16922 116.302L2.98908 115.757C3.39901 115.484 3.80893 114.87 3.94558 114.325L7.08836 102.804L6.40515 102.395Z" fill="#C5D0D3"/>
<path d="M18.4981 109.485L17.3367 112.893L25.7402 117.734L26.2185 113.984L18.4981 109.485Z" fill="#3D4B4F"/>
<path d="M26.2183 113.984L25.7401 117.734L26.4916 117.461L26.8332 114.393L26.2183 113.984Z" fill="#233135"/>
<path opacity="0.5" d="M25.7405 117.734L17.3369 112.894L9.54828 118.416L18.2251 123.597L25.7405 117.734Z" fill="#233135"/>
<path d="M35.3735 119.37L27.6532 114.871L26.5601 118.211L34.8953 123.051L35.3735 119.37Z" fill="#3D4B4F"/>
<path d="M35.9884 119.779L35.8518 119.71L35.3735 119.37L34.8953 123.051L35.6468 122.778L35.9884 119.779Z" fill="#233135"/>
<path opacity="0.5" d="M34.8952 123.051L26.56 118.211L18.703 123.733L27.3799 128.914L34.8952 123.051Z" fill="#233135"/>
<path d="M42.8205 127.482L44.3919 126.255L45.69 115.62L41.1808 118.142C40.4976 118.552 39.7461 119.642 39.6094 120.529L38.5846 124.96L42.8205 127.482Z" fill="#3D4B4F"/>
<path d="M44.3921 126.187L45.2119 125.574L46.4417 115.28H46.2367L45.6902 115.62L44.3921 126.187Z" fill="#233135"/>
<path d="M35.7836 123.392L27.9267 128.846L34.0756 132.527C34.1439 132.391 34.1439 132.322 34.2122 132.186L36.4668 123.733L35.7836 123.392Z" fill="#233135"/>
<path opacity="0.5" d="M38.4478 124.96L36.8764 131.641C36.8081 131.914 36.8764 132.05 36.8764 132.118C36.9448 132.118 37.0814 132.05 37.2864 131.914L42.8204 127.482L38.4478 124.96Z" fill="#233135"/>
<path d="M32.5039 133.686C32.8455 133.686 33.1188 133.617 33.3238 133.413C33.6654 133.208 34.007 132.663 34.1436 132.254L34.6219 130.55L5.03872 113.438L2.16922 116.438L31.5474 133.481C31.6157 133.549 32.0257 133.686 32.5039 133.686Z" fill="#445459"/>
<path d="M17.3368 115.961C16.312 114.052 13.9207 112.416 12.0077 112.416C10.0947 112.416 9.27487 113.984 10.2997 115.961C11.3245 117.87 13.7158 119.506 15.6288 119.506C17.5418 119.506 18.3616 117.938 17.3368 115.961ZM15.1505 118.552C13.7158 118.552 12.0077 117.393 11.2562 115.961C10.5047 114.529 11.0512 113.37 12.486 113.37C13.9207 113.37 15.6288 114.529 16.3803 115.961C17.1318 117.393 16.5853 118.552 15.1505 118.552Z" fill="#3D4B4F"/>
<path d="M6.61021 114.393L7.56671 113.439C7.56671 113.439 10.2996 113.098 14.1939 115.416C18.0882 117.802 18.4298 119.779 18.4298 119.779L17.9516 120.87C17.9516 120.87 13.7156 120.188 10.1629 118.279C6.54189 116.438 6.61021 114.393 6.61021 114.393Z" fill="#3D4B4F"/>
<path opacity="0.2" d="M6.40529 102.395L2.10104 116.438L10.0263 121.006C11.666 117.734 14.7405 113.507 20.4795 110.575L6.40529 102.395Z" fill="white"/>
<path d="M39.3364 129.05L37.97 128.232C37.6284 128.028 37.3551 128.164 37.3551 128.573V130.891V131.709V133.209C37.3551 133.618 37.6284 134.095 37.97 134.231L39.3364 135.049C39.678 135.254 39.9513 135.118 39.9513 134.709V130.005C39.883 129.732 39.6097 129.255 39.3364 129.05Z" fill="#DFE6EA"/>
<path d="M39.3364 129.05L37.97 128.232C37.6284 128.028 37.3551 128.164 37.3551 128.573V130.891V131.709V133.209C37.3551 133.618 37.6284 134.095 37.97 134.231L39.3364 135.049C39.678 135.254 39.9513 135.118 39.9513 134.709V130.005C39.883 129.732 39.6097 129.255 39.3364 129.05Z" fill="#D4DBDF"/>
<path d="M39.3361 129.05L37.9696 128.232C37.6964 128.096 37.4914 128.164 37.4231 128.3C37.4914 128.3 37.5597 128.3 37.628 128.369L38.9945 129.187C39.3361 129.391 39.6094 129.868 39.6094 130.209V134.913C39.6094 134.981 39.6094 135.118 39.541 135.186C39.746 135.186 39.951 135.049 39.951 134.777V130.073C39.8826 129.732 39.6094 129.255 39.3361 129.05Z" fill="#EEF5F9"/>
<path d="M35.8519 130.141V131.368L37.2867 131.777V130.959L35.8519 130.141Z" fill="#303E42"/>
<path opacity="0.1" d="M52.7959 101.782L52.7275 101.714C53.0008 101.918 52.9325 102.259 52.5909 102.464L37.1503 111.326C36.7403 111.53 36.0571 111.53 35.6472 111.326L35.2373 111.121C35.3056 111.19 35.3056 111.19 35.3739 111.19L35.8521 111.462C36.2621 111.667 36.9453 111.667 37.3552 111.462L52.7959 102.6C53.2058 102.395 53.2058 102.054 52.7959 101.782Z" fill="black"/>
<path opacity="0.5" d="M36.2618 111.598L35.7835 111.325C35.3736 111.121 35.3736 110.712 35.7835 110.507L51.2242 101.577C51.4291 101.44 51.7707 101.372 52.1123 101.44C51.7024 101.304 51.2242 101.372 50.8826 101.508L35.4419 110.371C35.032 110.575 35.032 110.984 35.4419 111.189L35.9202 111.462C36.0568 111.53 36.3301 111.598 36.5351 111.598C36.3984 111.666 36.3301 111.666 36.2618 111.598Z" fill="#D4DBDF"/>
<path opacity="0.1" d="M30.7278 88.3524L30.6594 88.2842C30.9327 88.4887 30.8644 88.8296 30.5228 89.0341L15.0822 97.8965C14.6722 98.101 13.989 98.101 13.5791 97.8965L13.1692 97.692C13.2375 97.7601 13.2375 97.7601 13.3058 97.7601L13.7841 98.0328C14.194 98.2373 14.8772 98.2373 15.2871 98.0328L30.7278 89.1704C31.1377 88.9659 31.1377 88.5569 30.7278 88.3524Z" fill="black"/>
<path opacity="0.5" d="M14.2623 98.0998L13.784 97.8272C13.3741 97.6226 13.3741 97.2136 13.784 97.0091L29.2247 88.1467C29.4296 88.0104 29.7713 87.9422 30.1129 88.0104C29.7029 87.874 29.2247 87.9422 28.8831 88.0785L13.4424 96.9409C13.0325 97.1454 13.0325 97.5545 13.4424 97.759L13.9207 98.0317C14.0573 98.0999 14.3306 98.168 14.5356 98.168C14.3989 98.2362 14.3306 98.168 14.2623 98.0998Z" fill="#D4DBDF"/>
<path opacity="0.1" d="M36.0568 91.8284L35.9885 91.7603C36.2617 91.9648 36.1934 92.3056 35.8518 92.5101L20.4112 101.373C20.0012 101.577 19.318 101.577 18.9081 101.373L18.4982 101.168C18.5665 101.236 18.5665 101.236 18.6348 101.236L19.1131 101.509C19.523 101.713 20.2062 101.713 20.6161 101.509L36.0568 92.6465C36.4667 92.442 36.4667 92.0329 36.0568 91.8284Z" fill="black"/>
<path opacity="0.5" d="M19.523 101.645L19.0447 101.372C18.6348 101.168 18.6348 100.759 19.0447 100.554L34.4854 91.6916C34.6903 91.5553 35.0319 91.4871 35.3735 91.5553C34.9636 91.4189 34.4854 91.4871 34.1437 91.6234L18.7031 100.486C18.2932 100.69 18.2932 101.099 18.7031 101.304L19.1814 101.577C19.318 101.645 19.5913 101.713 19.7962 101.713C19.7279 101.713 19.5913 101.645 19.523 101.645Z" fill="#D4DBDF"/>
<path opacity="0.1" d="M46.7151 98.5096L46.6468 98.4414C46.9201 98.6459 46.8518 98.9868 46.5102 99.1913L31.0695 108.054C30.6596 108.258 29.9764 108.258 29.5665 108.054L29.1565 107.849C29.2248 107.917 29.2248 107.917 29.2932 107.917L29.7714 108.19C30.1813 108.395 30.8646 108.395 31.2745 108.19L46.7151 99.3276C47.125 99.1231 47.125 98.7823 46.7151 98.5096Z" fill="black"/>
<path opacity="0.5" d="M30.1811 108.326L29.7029 108.053C29.2929 107.848 29.2929 107.439 29.7029 107.235L45.1435 98.3725C45.3485 98.2362 45.6901 98.168 46.0317 98.2362C45.6218 98.0998 45.1435 98.168 44.8019 98.3044L29.3613 107.167C28.9513 107.371 28.9513 107.78 29.3613 107.985L29.8395 108.258C29.9762 108.326 30.2494 108.394 30.4544 108.394C30.3178 108.394 30.2494 108.394 30.1811 108.326Z" fill="#D4DBDF"/>
<path opacity="0.1" d="M41.4541 95.0328L41.3858 94.9646C41.6591 95.1691 41.5908 95.51 41.2492 95.7145L25.8085 104.577C25.3986 104.781 24.7154 104.781 24.3055 104.577L23.8955 104.372C23.9639 104.441 23.9639 104.441 24.0322 104.441L24.5104 104.713C24.9204 104.918 25.6036 104.918 26.0135 104.713L41.4541 95.8508C41.8641 95.6463 41.8641 95.3055 41.4541 95.0328Z" fill="black"/>
<path opacity="0.5" d="M24.9886 104.849L24.5104 104.576C24.1005 104.372 24.1005 103.963 24.5104 103.758L39.951 94.896C40.156 94.7596 40.4976 94.6914 40.8392 94.7596C40.4293 94.6233 39.951 94.6915 39.6094 94.8278L24.1688 103.69C23.7588 103.895 23.7588 104.304 24.1688 104.508L24.647 104.781C24.7837 104.849 25.057 104.917 25.2619 104.917C25.1253 104.917 25.057 104.917 24.9886 104.849Z" fill="#D4DBDF"/>
<path d="M69.6024 128.164L177.072 66.2635V24.2012L69.6024 86.1016V128.164Z" fill="#1382A8"/>
<defs>
<linearGradient id="paint0_linear" x1="126.565" y1="65.0032" x2="123.163" y2="77.525" gradientUnits="userSpaceOnUse">
<stop stop-color="white"/>
<stop offset="1"/>
</linearGradient>
<linearGradient id="paint1_linear" x1="77.7747" y1="93.7721" x2="74.3722" y2="106.294" gradientUnits="userSpaceOnUse">
<stop stop-color="white"/>
<stop offset="1"/>
</linearGradient>
<linearGradient id="paint2_linear" x1="149.72" y1="77.2305" x2="146.317" y2="89.7524" gradientUnits="userSpaceOnUse">
<stop stop-color="white"/>
<stop offset="1"/>
</linearGradient>
<linearGradient id="paint3_linear" x1="134.161" y1="86.6435" x2="130.759" y2="99.1657" gradientUnits="userSpaceOnUse">
<stop stop-color="white"/>
<stop offset="1"/>
</linearGradient>
</defs>
</svg>
