<svg width="24" height="24" viewBox="0 0 24 24" fill="none" xmlns="../../../www.w3.org/2000/svg.html">
<g clip-path="url(#clip0)">
<path d="M12.0041 5.83789C8.60107 5.83789 5.84607 8.59589 5.84607 11.9959C5.84607 15.3989 8.60407 18.1539 12.0041 18.1539C15.4071 18.1539 18.1621 15.3959 18.1621 11.9959C18.1621 8.59289 15.4041 5.83789 12.0041 5.83789ZM12.0041 15.9929C9.79507 15.9929 8.00707 14.2039 8.00707 11.9959C8.00707 9.78789 9.79607 7.99889 12.0041 7.99889C14.2121 7.99889 16.0011 9.78789 16.0011 11.9959C16.0021 14.2039 14.2131 15.9929 12.0041 15.9929Z" fill="#1490C9"/>
<path d="M16.948 0.0758749C14.74 -0.0271251 9.27101 -0.0221251 7.06101 0.0758749C5.11901 0.166875 3.40601 0.635875 2.02501 2.01687C-0.282986 4.32487 0.0120136 7.43488 0.0120136 11.9959C0.0120136 16.6639 -0.247986 19.7019 2.02501 21.9749C4.34201 24.2909 7.49701 23.9879 12.004 23.9879C16.628 23.9879 18.224 23.9909 19.859 23.3579C22.082 22.4949 23.76 20.5079 23.924 16.9389C24.028 14.7299 24.022 9.26188 23.924 7.05188C23.726 2.83888 21.465 0.283875 16.948 0.0758749ZM20.443 20.4479C18.93 21.9609 16.831 21.8259 11.975 21.8259C6.97501 21.8259 4.97001 21.8999 3.50701 20.4329C1.82201 18.7559 2.12701 16.0629 2.12701 11.9799C2.12701 6.45487 1.56001 2.47587 7.10501 2.19187C8.37901 2.14687 8.75401 2.13187 11.961 2.13187L12.006 2.16187C17.335 2.16187 21.516 1.60387 21.767 7.14787C21.824 8.41288 21.837 8.79288 21.837 11.9949C21.836 16.9369 21.93 18.9539 20.443 20.4479Z" fill="#1490C9"/>
<path d="M18.406 7.03376C19.2007 7.03376 19.845 6.3895 19.845 5.59476C19.845 4.80002 19.2007 4.15576 18.406 4.15576C17.6113 4.15576 16.967 4.80002 16.967 5.59476C16.967 6.3895 17.6113 7.03376 18.406 7.03376Z" fill="#1490C9"/>
</g>
<defs>
<clipPath id="clip0">
<rect width="24" height="24" fill="white"/>
</clipPath>
</defs>
</svg>
