<svg width="202" height="233" viewBox="0 0 202 233" fill="none" xmlns="http://www.w3.org/2000/svg">
<path opacity="0.1" d="M65.2613 156.839L107.051 133.213L121.664 131.574L164.001 155.474L121.664 179.92L107.188 181.558L85.7466 169.131C86.5661 170.769 89.2974 177.734 84.1078 180.056C78.0988 182.788 71.1338 179.783 68.9487 181.558C66.7636 183.334 68.539 188.797 59.1157 192.347C49.6925 195.762 39.5864 180.739 37.5378 175.003C35.3527 169.404 46.0051 156.566 65.2613 156.839Z" fill="black"/>
<path d="M66.7626 157.113L107.05 134.306V96.7493L66.7626 119.829V157.113Z" fill="#B2926E"/>
<path d="M147.475 157.113V119.829L107.05 96.7493V134.306L147.475 157.113Z" fill="#A58561"/>
<path d="M107.05 180.466L147.475 157.113L107.05 134.306L66.7626 157.113L107.05 180.466Z" fill="#CCAC88"/>
<path d="M147.475 119.829L107.05 143.182V180.466L147.475 157.112V119.829Z" fill="#B39372"/>
<path d="M66.7626 119.829V157.112L107.05 180.466V143.182L66.7626 119.829Z" fill="#CCAC88"/>
<path d="M107.051 142.91L147.339 119.693L107.051 96.4766L66.8999 119.693L107.051 142.91Z" fill="#D9B995"/>
<path d="M147.338 119.693L107.05 142.91V143.183L147.475 119.83L147.338 119.693Z" fill="#C0A07F"/>
<path d="M66.8991 119.693L66.7626 119.83L107.05 143.183V142.91L66.8991 119.693Z" fill="#E6C6A2"/>
<path d="M124.941 132.804L84.5165 109.45L88.2039 107.402L128.492 130.755L124.941 132.804Z" fill="#E6CFB5"/>
<path d="M124.942 139.495V132.803L128.492 130.755V137.447L124.942 139.495Z" fill="#E6CFB5"/>
<path d="M142.422 159.298L132.453 165.171V159.435L142.422 153.699V159.298Z" fill="#E2E9ED"/>
<path d="M133.136 163.941L133.409 163.805V159.571L133.136 159.708V163.941Z" fill="black"/>
<path d="M133.545 163.804L133.818 163.668V159.298L133.545 159.434V163.804Z" fill="black"/>
<path d="M138.735 160.8L139.008 160.664V156.293L138.735 156.43V160.8Z" fill="black"/>
<path d="M134.365 163.258L134.639 163.122V158.751L134.365 158.888V163.258Z" fill="black"/>
<path d="M133.955 163.532L134.091 163.395V159.162H133.955V163.532Z" fill="black"/>
<path d="M140.1 159.981L140.373 159.844V155.474L140.1 155.61V159.981Z" fill="black"/>
<path d="M140.511 159.707L140.784 159.571V155.2L140.511 155.337V159.707Z" fill="black"/>
<path d="M141.466 154.928V159.161L141.739 159.025V154.791L141.466 154.928Z" fill="black"/>
<path d="M141.056 159.435L141.193 159.298V155.064H141.056V159.435Z" fill="black"/>
<path d="M135.731 162.439L136.004 162.302V158.069L135.731 158.205V162.439Z" fill="black"/>
<path d="M136.686 161.893L136.959 161.756V157.522L136.686 157.659V161.893Z" fill="black"/>
<path d="M136.277 162.166H136.413V157.796L136.277 157.932V162.166Z" fill="black"/>
<path d="M135.048 162.849H135.185V158.479L135.048 158.615V162.849Z" fill="black"/>
<path d="M135.32 162.712L135.457 162.576V158.342H135.32V162.712Z" fill="black"/>
<path d="M137.233 161.619H137.369V157.249L137.233 157.386V161.619Z" fill="black"/>
<path d="M137.642 161.347H137.779V156.976L137.642 157.113V161.347Z" fill="black"/>
<path d="M138.052 161.21L138.188 161.073V156.84H138.052V161.21Z" fill="black"/>
<path d="M139.281 160.39H139.418V156.02L139.281 156.157V160.39Z" fill="black"/>
<path d="M139.691 160.253L139.827 160.117V155.883H139.691V160.253Z" fill="black"/>
<path d="M102.271 169.131V168.995L102.134 168.858V168.995C101.451 168.585 100.768 168.722 100.495 169.131C100.495 169.131 100.632 169.131 100.768 169.131C100.905 169.268 101.041 169.404 101.178 169.678C101.178 169.541 101.315 169.404 101.588 169.541C101.724 169.678 101.861 169.814 101.997 170.087C101.997 169.951 102.134 169.814 102.407 169.951C102.544 170.087 102.68 170.224 102.817 170.497C102.817 170.36 102.953 170.224 103.226 170.36C103.363 170.497 103.5 170.634 103.636 170.907C103.636 170.77 103.773 170.634 104.046 170.77C104.182 170.77 104.182 170.907 104.319 171.043C103.636 170.36 102.953 169.678 102.271 169.131Z" fill="black"/>
<path d="M102.134 174.047H102.271V170.36H102.134V174.047Z" fill="black"/>
<path d="M101.588 174.457C101.315 174.321 101.179 174.047 101.179 173.774L101.042 173.638C101.042 174.047 101.315 174.457 101.588 174.73C101.862 174.867 102.135 174.73 102.135 174.321L101.998 174.184C102.135 174.457 101.862 174.594 101.588 174.457Z" fill="black"/>
<path d="M94.8967 164.761V166.81C94.8967 167.629 95.4429 168.585 96.1258 168.995C96.8086 169.404 97.3549 169.131 97.3549 168.312V166.263L94.8967 164.761Z" fill="black"/>
<path d="M96.3986 171.18V169.405L96.1255 169.132V171.044L95.8524 170.77L94.8964 170.634V170.77L97.4912 172.136V172L96.6718 171.317L96.3986 171.18Z" fill="black"/>
<path d="M88.4773 166.537V167.083L92.3013 169.268V168.722L88.4773 166.537Z" fill="black"/>
<path d="M91.0716 167.765L91.4813 168.039V164.351L91.7545 164.488L91.2082 162.712L90.6619 163.805L91.0716 164.078V167.765Z" fill="black"/>
<path d="M89.2973 166.81L89.8436 167.083V163.396L90.1167 163.532L89.5704 161.62L89.0241 162.849L89.2973 162.986V166.81Z" fill="black"/>
<path d="M104.592 176.779L99.5389 173.911V166.673L104.592 169.541V176.779ZM99.812 173.774L104.592 176.506V169.677L99.812 166.946V173.774Z" fill="black"/>
<path d="M98.7197 173.365L93.6667 170.497V163.259L98.7197 166.126V173.365ZM93.8032 170.36L98.5831 173.091V166.263L93.8032 163.532V170.36Z" fill="black"/>
<path d="M92.8477 170.087L87.7947 167.219V159.981L92.8477 162.849V170.087ZM88.0678 167.083L92.8477 169.814V162.985L88.0678 160.254V167.083Z" fill="black"/>
<path opacity="0.2" d="M98.5831 99.6172L106.231 100.573L140.1 119.829L110.191 137.037L98.5831 138.403L64.714 118.873L98.5831 99.6172Z" fill="black"/>
<path d="M66.3531 118.874L98.5834 100.573V85.2776L66.3531 103.851V118.874Z" fill="#B2926E"/>
<path d="M130.813 118.874V103.851L98.5828 85.2776V100.573L130.813 118.874Z" fill="#A58561"/>
<path d="M98.5834 137.447L130.814 118.873L98.5834 100.573L66.3531 118.873L98.5834 137.447Z" fill="#CCAC88"/>
<path d="M130.813 103.851L98.5828 122.424V137.447L130.813 118.874V103.851Z" fill="#B39372"/>
<path d="M66.3531 103.851V118.874L98.5834 137.447V122.424L66.3531 103.851Z" fill="#CCAC88"/>
<path d="M98.5828 122.288L130.813 103.714L98.5828 85.1409L66.4892 103.714L98.5828 122.288Z" fill="#D9B995"/>
<path d="M130.813 103.714L98.5828 122.288V122.424L130.813 103.851V103.714Z" fill="#C0A07F"/>
<path d="M66.4897 103.714L66.3531 103.851L98.5834 122.424V122.288L66.4897 103.714Z" fill="#E6C6A2"/>
<path d="M112.922 114.093L80.5555 95.5199L83.4234 93.8811L115.79 112.454L112.922 114.093Z" fill="#E6CFB5"/>
<path d="M112.923 119.556V114.093L115.791 112.455V117.781L112.923 119.556Z" fill="#E6CFB5"/>
<path d="M128.901 118.054L120.843 122.697V118.19L128.901 113.547V118.054Z" fill="#E2E9ED"/>
<path d="M121.39 121.741L121.663 121.604V118.19L121.39 118.327V121.741Z" fill="black"/>
<path d="M121.8 121.605L121.936 121.468V118.054L121.8 118.191V121.605Z" fill="black"/>
<path d="M125.897 119.146L126.17 119.01V115.595L125.897 115.732V119.146Z" fill="black"/>
<path d="M122.482 121.195L122.619 121.058V117.644L122.482 117.781V121.195Z" fill="black"/>
<path d="M122.073 121.332H122.21V117.917H122.073V121.332Z" fill="black"/>
<path d="M127.126 118.463H127.263V114.913L127.126 115.049V118.463Z" fill="black"/>
<path d="M127.4 118.327L127.536 118.19V114.776L127.4 114.912V118.327Z" fill="black"/>
<path d="M128.083 114.503V117.917L128.356 117.781V114.366L128.083 114.503Z" fill="black"/>
<path d="M123.575 120.512L123.711 120.375V116.961L123.575 117.098V120.512Z" fill="black"/>
<path d="M124.258 120.103L124.531 119.966V116.552L124.258 116.688V120.103Z" fill="black"/>
<path d="M123.165 120.785L123.302 120.649V117.235H123.165V120.785Z" fill="black"/>
<path d="M124.668 119.829H124.805V116.415H124.668V119.829Z" fill="black"/>
<path d="M125.351 119.556L125.488 119.42V116.006H125.351V119.556Z" fill="black"/>
<path d="M126.306 118.873H126.443V115.459H126.306V118.873Z" fill="black"/>
<path d="M94.7581 128.706V128.57L94.6216 128.433V128.57C94.0753 128.297 93.529 128.297 93.2559 128.706H93.3924C93.529 128.843 93.6656 128.979 93.6656 129.116C93.6656 128.979 93.8022 128.979 93.9387 128.979C94.0753 129.116 94.2119 129.253 94.2119 129.389C94.2119 129.253 94.3484 129.253 94.485 129.253C94.6216 129.389 94.7581 129.526 94.7581 129.662C94.7581 129.526 94.8947 129.526 95.0313 129.526C95.1678 129.662 95.3044 129.799 95.3044 129.935C95.3044 129.799 95.441 129.799 95.5775 129.799C95.7141 129.799 95.7141 129.935 95.7141 129.935C95.7141 129.662 95.3044 129.116 94.7581 128.706Z" fill="black"/>
<path d="M94.6218 132.531L94.7584 132.667V129.663H94.6218V132.531Z" fill="black"/>
<path d="M94.2127 132.94C94.0761 132.803 93.9395 132.53 93.9395 132.394L93.8029 132.257C93.8029 132.53 94.0761 132.94 94.2127 133.076C94.4858 133.213 94.6224 133.076 94.6224 132.803L94.4858 132.667C94.6224 132.94 94.4858 132.94 94.2127 132.94Z" fill="black"/>
<path d="M88.886 125.155V126.794C88.886 127.477 89.2957 128.16 89.842 128.569C90.3882 128.843 90.7979 128.569 90.7979 128.023V126.384L88.886 125.155Z" fill="black"/>
<path d="M89.9779 130.345V128.843L89.8413 128.706V130.209L89.5682 130.072L88.8853 129.799V129.935L90.9338 131.165V131.028L90.251 130.482L89.9779 130.345Z" fill="black"/>
<path d="M83.6961 126.658V127.067L86.7006 128.706V128.297L83.6961 126.658Z" fill="black"/>
<path d="M85.7443 127.614L86.154 127.75V124.883L86.4272 125.019L85.8809 123.517L85.4712 124.473L85.7443 124.609V127.614Z" fill="black"/>
<path d="M84.3787 126.794L84.7884 127.067V124.063L85.0615 124.2L84.6518 122.697L84.1055 123.653L84.3787 123.79V126.794Z" fill="black"/>
<path d="M96.6709 134.852L92.7104 132.53V126.794L96.6709 129.116V134.852ZM92.7104 132.394L96.5343 134.579V129.116L92.7104 126.931V132.394Z" fill="black"/>
<path d="M91.891 132.121L87.9305 129.799V124.063L91.891 126.385V132.121ZM87.9305 129.662L91.7544 131.847V126.385L87.9305 124.2V129.662Z" fill="black"/>
<path d="M87.2474 129.389L83.2869 127.067V121.332L87.2474 123.653V129.389ZM83.2869 127.067L87.1108 129.253V123.79L83.2869 121.605V127.067Z" fill="black"/>
<path d="M48.189 57.5544C48.4621 57.9641 48.7353 58.3739 49.145 58.7836C52.4226 63.0172 56.9294 64.3829 59.2511 64.2463C59.5242 64.2463 59.7974 64.1097 59.9339 64.1097C60.4802 66.8411 60.6168 69.5725 58.8414 70.5285C52.6958 74.0793 45.3211 65.4754 45.3211 65.4754C45.3211 65.4754 48.0524 62.4709 48.5987 60.9687C48.7353 60.1493 48.5987 58.7836 48.189 57.5544Z" fill="#D88F69"/>
<path d="M62.8024 61.1048L63.6218 60.6951C63.6218 60.6951 69.2211 62.8802 70.1771 67.5235C71.1331 72.1669 72.2257 76.9468 74.0011 79.405C75.7765 81.8632 74.2742 88.4185 73.5914 88.6917C72.9085 88.9648 61.5733 86.9163 61.5733 86.9163V71.6206L62.8024 61.1048Z" fill="#148EC6"/>
<path d="M63.0744 168.448C64.9863 169.54 66.352 171.589 70.3125 173.637C72.6342 174.73 78.0969 175.686 77.9604 173.228C77.9604 173.091 77.9604 172.954 77.8238 172.818C77.9604 173.228 78.0969 173.637 78.0969 173.91C78.3701 176.505 72.7708 175.549 70.4491 174.32C66.4886 172.272 65.1229 170.223 63.2109 169.13C62.9378 168.994 62.6647 168.857 62.3915 168.721V169.267L58.431 167.492C58.431 167.492 58.1579 166.809 58.1579 166.126C58.8407 166.399 61.7087 167.628 63.0744 168.448Z" fill="black"/>
<path d="M66.0793 163.395C67.0352 163.258 66.0793 161.073 70.1763 165.307C70.4495 165.58 70.8592 165.717 71.1323 165.853C73.454 166.809 77.6876 170.77 77.9608 173.091C78.2339 175.686 72.6346 174.73 70.3129 173.501C66.3524 171.452 64.9867 169.404 63.0748 168.311C61.5725 167.492 58.4314 166.126 58.2948 165.853C58.1583 165.717 58.1583 165.307 58.0217 164.897C62.5285 160.937 64.1673 163.805 66.0793 163.395Z" fill="#313131"/>
<path d="M55.4259 175.276C55.5624 175.549 55.699 175.822 55.8356 175.959C56.655 176.915 61.9812 183.88 58.9767 185.519C55.8356 187.158 50.646 184.426 49.4168 181.968C48.3243 179.646 48.4608 178.008 47.0952 176.642C46.2757 175.822 45.3198 174.73 44.9101 173.364C46.1392 171.998 47.6414 172.954 50.2362 173.364C51.7385 173.501 52.8311 172.818 55.4259 175.276Z" fill="#313131"/>
<path d="M44.9106 173.364C45.1837 174.73 46.2763 175.822 47.0957 176.642C48.4614 178.008 48.3248 179.646 49.4174 181.968C50.5099 184.29 55.8361 187.158 58.9772 185.519C59.5235 185.246 59.7966 184.699 59.9332 184.153C60.0697 185.109 59.7966 185.792 58.9772 186.202C55.8361 187.841 50.6465 185.109 49.4174 182.651C48.3248 180.329 48.4614 178.827 47.2323 177.461V177.871C47.2323 177.871 45.73 176.642 44.774 174.867L44.9106 173.364Z" fill="black"/>
<path d="M57.6128 107.265L58.0225 100.846C58.0225 100.846 66.6263 99.3439 70.4503 94.564C70.4503 94.564 72.7719 115.596 71.2697 124.746C69.904 133.896 68.8114 145.504 68.2652 149.465C67.8555 153.425 68.2652 161.483 70.1771 165.307C70.1771 165.307 63.0755 169.131 58.1591 165.307L57.4762 143.592L57.6128 107.265Z" fill="#001B45"/>
<path d="M62.8021 99.4811C62.8021 99.4811 62.3924 108.768 61.4365 111.909C60.7536 114.504 59.3879 117.235 59.2514 117.918C58.4319 124.2 57.7491 131.302 57.476 133.896C56.9297 139.086 55.0177 149.056 54.4714 152.606C53.9252 156.157 55.4274 175.277 55.4274 175.277C55.4274 175.277 50.3744 177.052 43.9556 172.819C43.9556 172.819 42.8631 153.699 43.5459 148.646C44.2288 143.593 45.0482 142.227 45.3213 138.676C45.5945 135.262 42.8631 124.883 42.8631 116.279C42.8631 107.675 46.1407 95.7937 46.1407 95.7937C46.1407 95.7937 47.7796 101.666 62.8021 99.4811Z" fill="#05345E"/>
<path d="M40.9509 78.3125C40.4046 75.7176 37.6732 73.9422 38.3561 72.7131C39.4486 70.2549 39.9949 69.7086 42.5897 67.6601C43.9554 66.7041 47.7793 62.3339 47.7793 62.3339C47.7793 62.3339 54.1981 67.2504 57.7489 66.431C61.2997 65.6115 58.4317 60.6951 58.4317 60.6951H63.4848C64.987 62.4705 67.9915 69.7086 68.4012 74.6251C68.9475 79.5416 67.4452 82.5461 67.4452 82.5461C67.4452 82.5461 70.8595 95.5201 70.8595 96.8858C70.996 98.2515 71.4057 104.67 71.4057 104.67C71.4057 104.67 68.2647 109.45 61.1631 112.045C50.101 116.142 42.7263 111.362 42.7263 111.362C42.7263 111.362 42.7263 108.904 43.4091 105.899C44.092 102.895 44.2285 97.4321 43.9554 95.247C43.8188 93.1985 42.0434 84.1849 40.9509 78.3125Z" fill="#00A5F1"/>
<path d="M43.4096 105.899C44.0925 102.895 44.229 97.4322 43.9559 95.2471C43.8193 93.1986 42.1805 85.0044 41.088 79.132L45.7313 78.5857C45.7313 78.5857 48.7358 86.5067 49.009 89.7843C49.2821 92.9254 57.4762 99.6173 62.6658 98.9345C64.7144 98.6613 67.992 100.3 67.992 100.3C67.992 100.3 69.3577 101.529 70.4503 105.899C69.0846 107.538 65.9435 110.406 61.1636 112.182C50.1015 116.279 42.7268 111.499 42.7268 111.499C42.7268 111.499 42.7268 108.904 43.4096 105.899Z" fill="#148EC6"/>
<path d="M51.4664 82.5463L58.4314 78.9955L56.7926 74.4888L49.8276 78.0396L51.4664 82.5463Z" fill="white"/>
<path d="M55.9732 79.2684L57.6121 78.449L56.6561 75.5811L55.0173 76.4005L55.9732 79.2684Z" fill="#8F9CA0"/>
<path d="M52.013 78.3129L54.6078 77.0838L54.4713 76.6741L51.8764 78.0398L52.013 78.3129Z" fill="#758286"/>
<path d="M52.4225 79.1325L54.8807 77.9034V77.4937L52.2859 78.8593L52.4225 79.1325Z" fill="#758286"/>
<path d="M51.7396 81.1809L53.515 80.3615L53.3784 80.0884L51.603 80.9078L51.7396 81.1809Z" fill="#758286"/>
<path d="M52.5593 75.5812L53.5153 75.0349L53.925 76.4006L52.969 76.8103L52.5593 75.5812Z" fill="#414E52"/>
<path d="M45.3206 47.9943C45.8669 44.5801 49.1446 42.395 52.1491 41.9853C55.017 41.439 59.6604 43.351 61.2992 46.2189C61.7089 47.0384 62.5283 49.2235 62.8014 50.4526C62.938 51.4086 62.938 51.5451 62.8014 52.228C62.6649 52.9108 62.5283 53.4571 62.8014 54.0034C63.0746 54.6862 63.0746 56.7347 62.8014 58.1004C62.5283 59.4661 61.982 60.0124 61.8455 61.1049C61.7089 62.1975 61.5723 63.8363 59.3872 64.1095C57.0655 64.3826 52.6953 62.8803 49.2811 58.6467C48.4617 58.3736 47.5057 57.281 46.9595 56.4616C46.5498 55.7788 46.5497 55.2325 46.6863 54.6862C45.4572 52.3645 45.0475 50.316 45.3206 47.9943Z" fill="#F2A983"/>
<path d="M47.3703 43.2145C50.3748 40.3466 53.5159 40.4832 56.9301 41.8488C60.3443 43.2145 61.3003 45.5362 61.4368 46.3556C61.5734 47.175 61.8466 47.3116 61.8466 47.3116C61.71 48.131 61.4368 49.2236 60.3443 49.4967C58.7055 49.7698 54.3353 48.5407 53.3793 50.4527C52.2867 52.3646 51.7405 52.6378 51.6039 53.5938C51.4673 54.5498 51.4673 55.2326 50.921 55.2326C50.3748 55.2326 48.8725 54.2766 48.5994 54.14C48.1897 54.0035 48.0531 53.8669 47.6434 53.8669C47.2337 53.8669 46.6874 54.2766 46.5508 54.8229C46.2777 54.14 46.0046 53.7303 45.7314 53.0475C45.7314 52.7744 45.5949 52.6378 45.5949 52.6378C44.5023 50.3161 44.3657 46.0825 47.3703 43.2145Z" fill="#995F35"/>
<path d="M60.8897 61.7878C61.436 60.0124 61.1629 59.8758 61.1629 59.6027C61.1629 59.3296 61.1629 59.193 62.2554 58.9198C63.348 58.6467 61.9823 56.5982 61.5726 55.7788C61.1629 54.9593 61.0263 55.0959 61.0263 54.0034C61.1629 53.3205 62.2554 52.3645 62.9383 51.9548C62.9383 52.0914 62.9383 52.0914 62.9383 52.228C62.8017 52.9108 62.6651 53.4571 62.9383 54.0034C63.2114 54.6862 63.2114 56.7347 62.9383 58.1004C62.6651 59.4661 62.1189 60.0124 61.9823 61.1049C61.8457 62.0609 61.8457 63.29 60.48 63.8363C60.3435 63.29 60.6166 62.6072 60.8897 61.7878Z" fill="#D88F69"/>
<path d="M57.6125 43.0776C59.1147 43.897 60.4804 44.853 61.1633 46.2187C61.573 47.0381 62.3924 49.2232 62.6655 50.4524C62.9386 51.4083 62.9386 51.5449 62.8021 52.2277C62.6655 52.9106 62.5289 53.4569 62.8021 54.0031C62.8021 54.1397 62.9386 54.4129 62.9386 54.8226C59.661 55.2323 52.9691 55.5054 50.2377 51.5449C47.5064 47.5844 53.9251 44.4433 57.6125 43.0776Z" fill="#D88F69"/>
<path d="M45.7307 53.457C45.7307 53.457 48.5987 52.2279 50.3741 51.4085C56.3831 48.404 62.2556 47.9943 62.2556 47.9943C62.2556 47.9943 60.6167 43.6241 58.9779 41.9852C57.8854 41.0292 53.1055 39.527 49.2815 41.8487C44.9113 44.7166 44.365 46.0823 44.5016 48.2674C44.5016 49.6331 44.9113 51.4085 45.7307 53.457Z" fill="#148EC6"/>
<path d="M50.3736 51.4085C56.3826 48.4039 62.2551 47.9942 62.2551 47.9942C62.2551 47.9942 62.2551 47.9942 62.2551 47.8577L66.6253 50.0428C66.6253 50.0428 69.4933 51.9547 63.7574 53.457C57.3386 55.2324 51.4662 52.2279 50.237 51.545C50.237 51.4085 50.3736 51.4085 50.3736 51.4085Z" fill="#00A5F1"/>
<path d="M59.9337 100.847L85.0623 86.5072V63.0173L59.9337 77.4936V100.847Z" fill="#C1C8CC"/>
<path d="M110.328 100.847V77.4936L85.0629 63.0173V86.5072L110.328 100.847Z" fill="#A8AFB3"/>
<path d="M85.0623 115.323L110.328 100.847L85.0623 86.5068L59.9337 100.847L85.0623 115.323Z" fill="#DAE1E5"/>
<path d="M110.328 77.4939L85.0629 92.1068V115.323L110.328 100.847V77.4939Z" fill="#C1C8CC"/>
<path d="M59.9337 77.4939V100.847L85.0623 115.323V92.1068L59.9337 77.4939Z" fill="#DAE1E5"/>
<path d="M85.0632 91.9698L110.192 77.3569L85.0632 62.8806L59.9346 77.3569L85.0632 91.9698Z" fill="#E7EEF2"/>
<path d="M110.192 77.3572L85.0629 91.97V92.1066L110.328 77.4937L110.192 77.3572Z" fill="#CED5D9"/>
<path d="M59.9337 77.3572V77.4937L85.0623 92.1066V91.97L59.9337 77.3572Z" fill="#F4FBFF"/>
<path d="M96.2605 85.5512L70.9952 71.0749L73.3169 69.7092L98.4456 84.3221L96.2605 85.5512Z" fill="#FFFFEB"/>
<path d="M96.2605 89.785V85.5514L98.4456 84.3223V88.4193L96.2605 89.785Z" fill="#CDCDB9"/>
<path d="M108.689 100.028L102.543 103.578V100.028L108.689 96.4768V100.028Z" fill="#E2E9ED"/>
<path d="M102.954 102.895L103.091 102.759V100.164H102.954V102.895Z" fill="black"/>
<path d="M103.228 102.759L103.364 102.622V100.027H103.228V102.759Z" fill="black"/>
<path d="M106.504 100.847L106.641 100.71V98.1155H106.504V100.847Z" fill="black"/>
<path d="M103.773 102.349H103.91V99.6172L103.773 99.7538V102.349Z" fill="black"/>
<path d="M107.325 100.3H107.461V97.5686L107.325 97.7052V100.3Z" fill="black"/>
<path d="M107.598 100.164H107.735V97.4326L107.598 97.5692V100.164Z" fill="black"/>
<path d="M108.143 97.1592V99.8906L108.28 99.754V97.1592H108.143Z" fill="black"/>
<path d="M107.87 100.027H108.007V97.2959H107.87V100.027Z" fill="black"/>
<path d="M104.593 101.939L104.73 101.803V99.2078H104.593V101.939Z" fill="black"/>
<path d="M105.139 101.53H105.275V98.7983L105.139 98.9349V101.53Z" fill="black"/>
<path d="M104.867 101.802L105.003 101.666V99.071H104.867V101.802Z" fill="black"/>
<path d="M104.32 102.076H104.456V99.3445H104.32V102.076Z" fill="black"/>
<path d="M105.686 101.256H105.822V98.5249H105.686V101.256Z" fill="black"/>
<path d="M105.959 101.12H106.095V98.3882H105.959V101.12Z" fill="black"/>
<path d="M106.778 100.71L106.914 100.574V97.9788H106.778V100.71Z" fill="black"/>
<path d="M107.051 100.437H107.188V97.842H107.051V100.437Z" fill="black"/>
<path d="M82.0573 108.358L81.9207 108.221L82.0573 108.358C81.511 108.085 81.1013 108.085 80.9647 108.358H81.1013C81.2379 108.358 81.3744 108.631 81.3744 108.768C81.3744 108.631 81.511 108.631 81.6476 108.631C81.7841 108.631 81.9207 108.904 81.9207 109.041C81.9207 108.904 82.0573 108.904 82.1938 108.904C82.3304 108.904 82.467 109.177 82.467 109.314C82.467 109.177 82.6036 109.177 82.7401 109.177C82.8767 109.177 83.0133 109.45 83.0133 109.587C83.0133 109.45 83.1498 109.45 83.2864 109.45L83.423 109.587C82.8767 109.041 82.467 108.631 82.0573 108.358Z" fill="black"/>
<path d="M81.9211 111.362H82.0576V109.041H81.9211V111.362Z" fill="black"/>
<path d="M81.6479 111.636C81.5113 111.499 81.3748 111.363 81.3748 111.226H81.2382C81.3748 111.363 81.5113 111.636 81.6479 111.636C81.7845 111.909 82.0576 111.772 82.0576 111.499H81.9211C81.9211 111.636 81.7845 111.636 81.6479 111.636Z" fill="black"/>
<path d="M77.5508 105.626V106.856C77.5508 107.402 77.9605 107.948 78.3702 108.221C78.7799 108.494 79.1896 108.221 79.1896 107.812V106.582L77.5508 105.626Z" fill="black"/>
<path d="M78.3698 109.587V108.358H78.2333V109.45L78.0967 109.314L77.5504 109.177V109.314L79.0527 110.133L78.5064 109.587H78.3698Z" fill="black"/>
<path d="M73.453 106.583V106.993L75.7746 108.358V107.949L73.453 106.583Z" fill="black"/>
<path d="M75.0918 107.402L75.3649 107.539V105.217L75.5015 105.354L75.2284 104.261L74.8187 104.944L75.0918 105.08V107.402Z" fill="black"/>
<path d="M73.999 106.856L74.2721 106.992V104.671L74.5453 104.807L74.1356 103.578L73.8624 104.398L73.999 104.534V106.856Z" fill="black"/>
<path d="M83.5603 113.138L80.4193 111.363V106.856L83.5603 108.632V113.138ZM80.5558 111.226L83.5603 112.865V108.632L80.5558 106.993V111.226Z" fill="black"/>
<path d="M79.8727 110.953L76.7316 109.178V104.671L79.8727 106.446V110.953ZM76.8682 109.041L79.8727 110.68V106.446L76.8682 104.807V109.041Z" fill="black"/>
<path d="M76.1848 108.768L73.0438 106.992V102.486L76.1848 104.261V108.768ZM73.1803 106.992L76.1848 108.631V104.398L73.1803 102.759V106.992Z" fill="black"/>
<path d="M65.6707 102.895C66.7632 102.485 68.6752 103.305 70.9968 102.485C72.7722 101.803 72.9088 103.441 71.27 104.261C68.5386 105.49 69.0849 106.173 70.4506 106.992C71.8163 107.812 76.7327 110.68 76.7327 110.68C76.7327 110.68 74.9573 111.499 73.8648 111.499C72.6357 111.362 66.6266 110.133 65.9438 109.997C65.2609 109.724 60.481 106.582 60.481 106.582L61.9833 102.349C61.8467 102.076 64.1684 103.305 65.6707 102.895Z" fill="#F2A983"/>
<path d="M62.939 102.349L61.9831 108.085C61.9831 108.085 46.1411 104.534 40.2686 100.027C40.2686 100.027 39.3126 98.9345 39.1761 97.1591C38.7664 93.7448 38.6298 88.0089 38.2201 85.5507C37.5372 81.9999 36.4447 76.6737 37.4007 73.9424C38.6298 70.255 42.4537 69.1624 45.4582 73.5326C49.1456 78.9954 48.1896 90.6038 47.6433 95.1105C47.5068 95.1105 59.798 100.164 62.939 102.349Z" fill="#00A5F1"/>
<path d="M71.2705 109.996C71.4071 109.86 71.2705 109.996 72.0899 109.313C72.3631 109.04 72.4996 108.631 72.4996 108.221C74.4116 109.313 76.4601 110.543 76.4601 110.543C76.4601 110.543 74.6847 111.362 73.5922 111.362C72.9093 111.362 70.5877 110.816 68.5391 110.406C69.9048 110.133 71.1339 110.133 71.2705 109.996Z" fill="#D88F69"/>
</svg>
