<svg width="202" height="233" viewBox="0 0 202 233" fill="none" xmlns="http://www.w3.org/2000/svg">
<path d="M85.1999 102.2C84.2999 102.9 79.4999 105.1 78.2999 106.3C78.2999 106.3 67.0999 118.8 64.5999 124.6C61.3999 131.9 58.8999 135.1 54.5999 141.1C47.6999 150.8 36.9999 161.7 36.9999 161.7V173.8H62.3999C62.3999 173.8 75.3999 156.7 77.0999 154.5C80.7999 149.9 88.1999 144.3 93.2999 142.8C98.9999 141.1 109.3 129.8 109.3 129.8C109.3 129.8 88.3999 99.6 85.1999 102.2Z" fill="url(#paint0_linear)"/>
<path d="M93.9999 123.7C91.1999 113.5 87.1999 100.6 85.1999 102.2C84.2999 102.9 79.4999 105.1 78.2999 106.3C78.2999 106.3 74.0999 110.9 70.2999 115.9C71.0999 118.8 72.3999 121.2 74.3999 121.9C78.5999 123.5 89.0999 123.9 93.9999 123.7Z" fill="#D57751"/>
<path d="M123.9 91.7999C123.6 87.8999 118 88.1999 118 88.1999V96.0999C121 96.0999 124.2 95.0999 123.9 91.7999Z" fill="url(#paint1_linear)"/>
<path d="M118 117.3V121.7C118.9 121.5 119.6 121.4 119.6 121.4L120.3 118.6C120.3 118.6 118.9 117.8 118 117.3Z" fill="#D57751"/>
<path d="M121.2 109.4C121.2 109.4 118.6 107.9 118.4 107.9C118.4 107.9 118.2 107.9 118.1 107.8V112.7C118.6 112.6 120.6 112.3 120.6 112.3C120.7 112.3 121.8 110.3 121.8 110.3L121.2 109.4Z" fill="#D57751"/>
<path d="M118 98V102.6C118.7 102.5 119.3 102.5 119.3 102.5L120 101.3C120.1 101.2 120.8 98.8 120.8 98.8C120.8 98.8 119.4 98.4 118 98Z" fill="#D57751"/>
<path d="M118.7 132.2C118.7 134.3 117 136.1 114.8 136.1H83.9999C81.8999 136.1 80.0999 134.4 80.0999 132.2V61.9C80.0999 59.7 81.8999 58 83.9999 58H114.8C116.9 58 118.7 59.7 118.7 61.9V132.2Z" fill="url(#paint2_linear)"/>
<path d="M84 135.5C82.2 135.5 80.7 134 80.7 132.2V61.9001C80.7 60.1001 82.2 58.6001 84 58.6001H114.8C116.6 58.6001 118.1 60.1001 118.1 61.9001V132.3C118.1 134.1 116.6 135.6 114.8 135.6H84V135.5Z" fill="#2E383B"/>
<path d="M116.9 66.2H81.9999V127.9H116.9V66.2Z" fill="#F1F2F2"/>
<path d="M116.9 66.2H81.9999V67.5H116.9V66.2Z" fill="#A3A3A3"/>
<path d="M104.2 131.8C104.2 132.6 103.5 133.3 102.8 133.3H96.2C95.4 133.3 94.8 132.6 94.8 131.8V131.6C94.8 130.8 95.5 130.1 96.2 130.1H102.8C103.6 130.1 104.2 130.8 104.2 131.6V131.8Z" fill="url(#paint3_linear)"/>
<path d="M96.1 133C95.4 133 94.9 132.5 94.9 131.8V131.6C94.9 130.9 95.4 130.4 96.1 130.4H102.7C103.4 130.4 103.9 130.9 103.9 131.6V131.8C103.9 132.5 103.4 133 102.7 133H96.1Z" fill="#2E383B"/>
<path d="M103.4 61.3H95.4999C95.2999 61.3 95.0999 61.5 95.0999 61.7C95.0999 61.9 95.2999 62.1 95.4999 62.1H103.4C103.6 62.1 103.8 61.9 103.8 61.7C103.8 61.5 103.6 61.3 103.4 61.3Z" fill="#414E52"/>
<mask id="mask0" mask-type="alpha" maskUnits="userSpaceOnUse" x="82" y="66" width="35" height="42">
<path d="M116.9 77.1V66.2H81.9999V107.9C89.0999 99.7 100.9 87.9 116.9 77.1Z" fill="url(#paint4_linear)"/>
</mask>
<g mask="url(#mask0)">
<path opacity="0.3" d="M116.9 77.1V66.2H81.9999V107.9C89.0999 99.7 100.9 87.9 116.9 77.1Z" fill="url(#paint5_linear)"/>
</g>
<g clip-path="url(#clip0)">
<path d="M90.4993 85.7838C90.8404 86.1596 90.9978 86.7039 90.9978 87.4037V90.8249C90.2501 90.8249 89.6467 90.2287 89.6467 89.4901V87.5203C89.6467 86.7817 89.3318 86.4058 88.7022 86.4058C88.2824 86.4058 87.9544 86.5354 87.7183 86.7946C87.4691 87.0538 87.351 87.3907 87.351 87.8054V90.8119H85.9998V86.3022C85.9998 85.7709 86.4327 85.3562 86.9575 85.3562H87.1805L87.1936 86.2115C87.3904 85.9134 87.6527 85.6672 87.9544 85.4858C88.2693 85.3043 88.6366 85.2136 89.0564 85.2136C89.6729 85.2136 90.1583 85.395 90.4993 85.7838Z" fill="#161616"/>
<path d="M97.1635 90.3456L97.2028 90.2678C97.452 89.8143 97.9899 89.6199 98.5015 89.7495C98.7376 89.8143 98.9737 89.8402 99.2099 89.8402C99.4591 89.8402 99.6559 89.7883 99.8002 89.6847C99.9445 89.581 100.023 89.4514 100.023 89.27C100.023 89.0886 99.9314 88.946 99.7608 88.8294C99.5903 88.7127 99.3148 88.5961 98.9606 88.4536C98.4621 88.2721 98.0817 88.0389 97.8062 87.7797C97.5308 87.5205 97.3996 87.1836 97.3996 86.7689C97.3996 86.2894 97.5832 85.9136 97.9637 85.6415C98.3441 85.3693 98.8032 85.2397 99.3542 85.2397C99.997 85.2397 100.6 85.4082 101.164 85.7322L101.151 85.7451C100.902 86.2117 100.39 86.432 99.8658 86.3413C99.7346 86.3153 99.5903 86.3024 99.4591 86.3024C99.2361 86.3024 99.0525 86.3413 98.9082 86.4061C98.7639 86.4708 98.672 86.6134 98.672 86.7689C98.672 86.9374 98.7507 87.067 98.9213 87.1965C99.0918 87.3132 99.341 87.4298 99.669 87.5464C100.207 87.7408 100.613 87.9741 100.902 88.2333C101.191 88.4924 101.335 88.8423 101.335 89.257C101.335 89.7624 101.151 90.1642 100.771 90.4622C100.39 90.7603 99.9051 90.9028 99.2886 90.9028C98.5146 90.9417 97.8062 90.7473 97.1635 90.3456Z" fill="#161616"/>
<path d="M106.241 85.784C106.582 86.1728 106.739 86.7041 106.739 87.3909V90.8251C105.992 90.8251 105.388 90.2289 105.388 89.4903V87.4946C105.388 87.1577 105.31 86.8855 105.152 86.6911C104.995 86.4968 104.759 86.406 104.431 86.406C104.011 86.406 103.683 86.5616 103.447 86.8596C103.211 87.1577 103.093 87.5464 103.093 88V90.8121H101.742V82C102.489 82 103.093 82.5961 103.093 83.3348V85.2527C103.093 85.5896 103.093 85.8618 103.08 86.0821C103.46 85.4989 104.024 85.2009 104.772 85.2009C105.428 85.2138 105.913 85.3952 106.241 85.784Z" fill="#161616"/>
<path d="M111.396 85.7842C111.803 86.1341 112 86.6395 112 87.2875V90.0218C112 90.4624 111.632 90.8123 111.2 90.8123H110.845L110.859 89.9959C110.649 90.294 110.386 90.5143 110.045 90.6827C109.704 90.8512 109.324 90.929 108.891 90.929C108.366 90.929 107.946 90.7864 107.631 90.5143C107.317 90.2421 107.159 89.8663 107.159 89.3998C107.159 88.7907 107.408 88.3112 107.92 87.9743C108.419 87.6374 109.101 87.4689 109.967 87.4689C110.163 87.4689 110.399 87.4819 110.662 87.4948V87.2486C110.662 86.9765 110.557 86.7562 110.36 86.6136C110.163 86.4711 109.888 86.3933 109.534 86.3933C109.009 86.3933 108.432 86.5359 107.815 86.8339C107.592 86.2378 107.933 85.5769 108.55 85.4214C108.97 85.3177 109.363 85.2529 109.757 85.2529C110.439 85.2529 111.003 85.4344 111.396 85.7842ZM110.268 89.5035C110.531 89.2313 110.662 88.8426 110.675 88.3501C110.452 88.3242 110.242 88.3112 110.032 88.3112C109.547 88.3112 109.166 88.389 108.891 88.5575C108.615 88.7259 108.484 88.9592 108.484 89.2572C108.484 89.4646 108.55 89.6331 108.694 89.7497C108.838 89.8663 109.035 89.9182 109.271 89.9182C109.678 89.9311 110.006 89.7886 110.268 89.5035Z" fill="#161616"/>
<path d="M91.4569 87.2745C91.3257 87.741 91.3257 88.2205 91.47 88.7C91.6143 89.1795 91.8767 89.6071 92.2702 89.9959C92.6637 90.3846 93.0966 90.6438 93.582 90.7864C94.0674 90.9289 94.5396 90.9289 95.025 90.7993C95.4972 90.6697 95.9301 90.4106 96.3237 90.0348C96.7041 89.6589 96.9665 89.2313 97.0976 88.7518C97.2288 88.2723 97.2288 87.8058 97.0845 87.3263C96.9665 86.9376 96.7697 86.5877 96.4942 86.2507L96.4286 86.3155C96.0482 86.6913 95.8777 87.2356 95.917 87.7669C95.917 87.8317 95.9301 87.8965 95.917 87.9613C95.9039 88.376 95.7203 88.7648 95.3661 89.1017C95.025 89.4386 94.6315 89.6201 94.2117 89.646C93.7919 89.6589 93.4115 89.5164 93.0835 89.1924C92.7556 88.8684 92.5982 88.4926 92.6113 88.078C92.6244 87.6633 92.808 87.2745 93.1622 86.9376C93.5164 86.5877 93.8968 86.4062 94.3166 86.3933C94.3822 86.3933 94.4478 86.3933 94.5003 86.3933C95.0643 86.4451 95.6284 86.2248 96.0351 85.8231C95.7071 85.551 95.3398 85.3566 94.9594 85.2399C94.474 85.0974 93.9887 85.0974 93.5164 85.227C93.031 85.3566 92.5982 85.6157 92.2177 85.9916C91.8504 86.3803 91.5881 86.808 91.4569 87.2745Z" fill="#1389C6"/>
</g>
<path d="M115.6 120.6C115.6 122.3 114.4 123.6 112.9 123.6H86.2999C84.7999 123.6 83.5999 122.2 83.5999 120.6V117.3C83.5999 115.6 84.7999 114.3 86.2999 114.3H112.9C114.4 114.3 115.6 115.7 115.6 117.3V120.6Z" fill="#00A5F1"/>
<path d="M120 119.4L118.7 119.5C118.7 119.5 117 121.4 117.2 123.3C117.4 125.2 118.8 126.5 120.1 126.5C121.4 126.5 122.1 124 122.2 123.3C122.2 122.6 122.6 120.2 120 119.4Z" fill="url(#paint6_linear)"/>
<path d="M118.3 100.7C118.3 100.7 116.8 103.3 117.2 105.6C117.6 107.9 118.6 108.7 120.1 108.9C121.6 109 122 108.2 122.2 107.7C122.3 107.1 122.7 104.7 122.7 104.7C122.7 104.7 123.3 103.3 123 102C122.7 100.6 122.3 99.4 120.9 98.9C119.6 98.4 118.3 100.7 118.3 100.7Z" fill="url(#paint7_linear)"/>
<path d="M118.6 111.2C118.6 111.2 116 114.7 116.5 117.1C117.1 119.5 119.9 120.7 120.9 119.1C121.9 117.6 123.2 114.8 123.5 113.7C123.8 112.6 123.1 110 121.3 109.3C119.6 108.7 118.6 111.2 118.6 111.2Z" fill="url(#paint8_linear)"/>
<path d="M119.4 115.4C119.4 115.4 121.1 117 120.9 119.2C120.9 119.2 121.8 118 122.5 116.3C122.6 116 122.7 115 122 114C121.4 113 120.6 113.2 120.2 113.9C119.8 114.6 119.5 115.1 119.4 115.4Z" fill="#FFC6A8"/>
<path d="M120.2 122.2C120.2 122.2 121.6 123.7 121.4 125.5C121.4 125.5 122.2 125.1 121.7 123.3C121.2 121.7 120.3 121.8 120.2 122.2Z" fill="#FFC6A8"/>
<path d="M122.8 104.9C122.8 104.9 122.8 103.7 121.8 102.9C120.8 102.1 120.4 103 120.4 103.8C120.4 103.8 121.7 105 122 106.1C122.3 107.2 122.3 107.7 122.3 107.7C122.3 107.7 122.6 106.4 122.8 104.9Z" fill="#FFC6A8"/>
<path d="M77.8999 89.6C78.5999 89.3 81.0999 89.3 81.5999 93.8C82.0999 98.3 82.2999 101.2 79.1999 105.1C79.1999 105.1 79.0999 108.9 77.4999 112.5C77.4999 112.5 77.3999 114.5 78.3999 116.1C79.3999 117.7 81.4999 121.9 81.3999 129.8C81.1999 141 72.9999 141.5 70.1999 141.1C67.3999 140.7 62.2999 139.1 62.2999 136C62.2999 132.9 65.0999 116.1 65.3999 114.5C65.6999 112.9 68.2999 109.8 69.0999 107.3C69.9999 104.8 70.9999 102.2 72.3999 100.3C73.7999 98.5 74.4999 97 75.1999 95.4C75.8999 93.8 76.1999 90.3 77.8999 89.6Z" fill="#F2A983"/>
<path d="M75.1999 95.2C75.1999 95.4 75.0999 95.7 74.9999 95.8C75.1999 95.8 75.5999 95.9 75.6999 95.8C76.0999 95.7 76.4999 94.3 76.9999 92.8C77.3999 91.5 77.4999 90.2 77.0999 90C75.9999 91.7 75.5999 93.7 75.1999 95.2Z" fill="#FFC6A8"/>
<path d="M55.1999 134.4L83.7999 158.5L72.0999 173.9H36.8999L16.9999 174L55.1999 134.4Z" fill="#202728"/>
<path d="M80.7999 156L84.5999 151.4L60.1999 130.3L55.9999 135.1L80.7999 156Z" fill="#DFE6EA"/>
<path d="M118.8 136.3C118.8 136.3 116.6 132.5 114.3 131.6C112 130.8 110.6 132.1 110 132.8C109.4 133.4 110.6 135 111.2 136.5C111.8 138 112.8 140 113 141.2C113.2 142.4 114.6 144.1 116 145.5C117.4 146.9 122.4 152.7 124 153.9C125.6 155.1 128.3 151.3 128.5 151.2C128.7 151.1 123.2 138.7 123.2 138.7L118.8 136.3Z" fill="url(#paint9_linear)"/>
<path d="M112.3 139.1C112.3 139.1 112.9 139 112.3 137.4C111.7 135.8 110.2 133 109.8 133.4C109.8 133.4 109.8 135.1 112.3 139.1Z" fill="#FFC6A8"/>
<path d="M145.1 166.7C145.4 167.1 145.8 167.6 146.2 168.1H173C169.8 163.4 164.4 155.4 162.5 151.7C159.7 146.2 158.6 142.7 156.2 137.7C153.7 132.7 153.1 129.9 151.1 127.2C150.1 125.8 148.1 122.6 145.1 122.7C143.5 122.8 142.2 123.8 141.4 123.4C139.9 122.7 138.3 122.1 136.2 122.4C134.1 122.7 133.7 124.4 132.9 124.7C132.1 125 132.4 124.7 132 124C131.6 123.2 129.4 117.4 125.3 119.1C121.2 120.8 123.1 124.3 123.7 125.7C124.3 127.1 125.3 129.7 125.3 129.7C125.3 129.7 124.7 129.2 124.3 128.5C124 127.9 119.7 120.7 118.6 119C117.4 117.3 114.8 112.7 114.4 112C114 111.3 112.3 107.5 109.5 109C106.6 110.5 107.5 112.6 108.1 114.3C108.8 116 110.7 121.3 111.4 122.6C112.1 123.9 113.2 127.2 114.5 129.2C115.8 131.2 117.1 133.8 117.6 134.9C118.3 136.7 118.2 137.4 119.9 140.2C121.6 143.1 124 145 124.5 147.9C125 150.8 124.1 153.8 124.1 153.8C124.1 153.8 126 157.3 132.4 160.6C138.8 164 142.8 163.8 145.1 166.7Z" fill="url(#paint10_linear)"/>
<path d="M118.6 119.1C117.4 117.4 114.8 112.8 114.4 112.1C114 111.4 112.3 107.6 109.5 109.1C106.6 110.6 107.5 112.7 108.1 114.4C108.8 116.1 110.7 121.4 111.4 122.7C111.5 122.8 111.5 123 111.6 123.1C112.1 122.2 112.6 121.3 113 121C113.7 120.4 114.8 119.1 116.4 119.3C117.4 119.4 118.2 119.4 118.7 119.3C118.7 119.2 118.6 119.1 118.6 119.1Z" fill="url(#paint11_linear)"/>
<path d="M111.1 113.2C113.7 112.1 113.4 111 112.6 109.9C111.8 108.8 111 108.4 109.4 109C107.9 109.6 107.4 110.8 107.8 112.2C108.2 113.6 108.9 114.1 111.1 113.2Z" fill="#FFC6A8"/>
<path d="M168.7 156.1L142.7 170.9L145 173.9H184.5L177 166.3L168.7 156.1Z" fill="#202728"/>
<path d="M164.6 152.8L140.6 166.3L141.3 168.1L142.7 170.9L167.3 156.9L164.6 152.8Z" fill="#DFE6EA"/>
<path d="M91.1587 117.7C91.3999 117.7 91.5959 117.757 91.7467 117.871C91.8996 117.985 91.976 118.13 91.976 118.307C91.976 118.548 91.8544 118.722 91.611 118.827C91.8931 118.918 92.0342 119.095 92.0342 119.36C92.0342 119.558 91.9556 119.721 91.7984 119.848C91.6433 119.975 91.4354 120.039 91.1748 120.039C90.9444 120.039 90.7505 120.008 90.5933 119.945C90.4382 119.883 90.2971 119.788 90.17 119.661L90.435 119.315C90.631 119.507 90.8711 119.603 91.1554 119.603C91.2653 119.603 91.3557 119.579 91.4268 119.532C91.5 119.482 91.5367 119.415 91.5367 119.331C91.5367 119.241 91.4957 119.174 91.4139 119.131C91.3342 119.088 91.2254 119.066 91.0876 119.066H90.8259V118.653H91.0811C91.3504 118.653 91.485 118.566 91.485 118.391C91.485 118.314 91.4516 118.252 91.3848 118.207C91.318 118.162 91.2297 118.139 91.1199 118.139C90.8744 118.139 90.6708 118.222 90.5093 118.388L90.2476 118.071C90.4845 117.824 90.7882 117.7 91.1587 117.7Z" fill="white"/>
<path d="M92.2742 120L93.2435 117.722H93.7022L94.6715 120H94.1513L93.9445 119.493H92.9882L92.7815 120H92.2742ZM93.1659 119.053H93.7668L93.4664 118.32L93.1659 119.053Z" fill="white"/>
<path d="M95.0205 120V117.738H95.5181V118.727L96.4356 117.738H97.0365L96.1157 118.698L97.0785 120H96.4808L95.7797 119.037L95.5181 119.309V120H95.0205Z" fill="white"/>
<path d="M97.1866 120L98.1559 117.722H98.6146L99.5839 120H99.0637L98.857 119.493H97.9006L97.6939 120H97.1866ZM98.0783 119.053H98.6793L98.3788 118.32L98.0783 119.053Z" fill="white"/>
<path d="M100.737 117.7C100.979 117.7 101.175 117.757 101.325 117.871C101.478 117.985 101.555 118.13 101.555 118.307C101.555 118.548 101.433 118.722 101.19 118.827C101.472 118.918 101.613 119.095 101.613 119.36C101.613 119.558 101.534 119.721 101.377 119.848C101.222 119.975 101.014 120.039 100.754 120.039C100.523 120.039 100.329 120.008 100.172 119.945C100.017 119.883 99.8758 119.788 99.7488 119.661L100.014 119.315C100.21 119.507 100.45 119.603 100.734 119.603C100.844 119.603 100.934 119.579 101.006 119.532C101.079 119.482 101.115 119.415 101.115 119.331C101.115 119.241 101.074 119.174 100.993 119.131C100.913 119.088 100.804 119.066 100.666 119.066H100.405V118.653H100.66C100.929 118.653 101.064 118.566 101.064 118.391C101.064 118.314 101.03 118.252 100.964 118.207C100.897 118.162 100.808 118.139 100.699 118.139C100.453 118.139 100.25 118.222 100.088 118.388L99.8263 118.071C100.063 117.824 100.367 117.7 100.737 117.7Z" fill="white"/>
<path d="M101.853 120L102.822 117.722H103.281L104.25 120H103.73L103.523 119.493H102.567L102.36 120H101.853ZM102.745 119.053H103.346L103.045 118.32L102.745 119.053Z" fill="white"/>
<path d="M105.126 120V118.197H104.438V117.738H106.312V118.197H105.623V120H105.126Z" fill="white"/>
<path d="M106.694 120V117.738H107.192V118.507H107.673C107.932 118.507 108.134 118.574 108.28 118.708C108.427 118.839 108.5 119.017 108.5 119.241C108.5 119.473 108.423 119.659 108.268 119.796C108.115 119.932 107.906 120 107.641 120H106.694ZM107.631 118.934H107.192V119.551H107.634C107.882 119.551 108.006 119.445 108.006 119.234C108.006 119.034 107.881 118.934 107.631 118.934Z" fill="white"/>
<defs>
<linearGradient id="paint0_linear" x1="73.4103" y1="147.124" x2="87.6202" y2="158.171" gradientUnits="userSpaceOnUse">
<stop stop-color="#F2A983"/>
<stop offset="0.3545" stop-color="#EA9B75"/>
<stop offset="1" stop-color="#D57751"/>
</linearGradient>
<linearGradient id="paint1_linear" x1="125.394" y1="92.0373" x2="111.496" y2="92.2437" gradientUnits="userSpaceOnUse">
<stop stop-color="#F2A983"/>
<stop offset="0.3545" stop-color="#EA9B75"/>
<stop offset="1" stop-color="#D57751"/>
</linearGradient>
<linearGradient id="paint2_linear" x1="119.671" y1="60.5693" x2="78.7147" y2="134.265" gradientUnits="userSpaceOnUse">
<stop stop-color="white"/>
<stop offset="0.1524" stop-color="#9D9EA2"/>
<stop offset="0.3155" stop-color="white"/>
<stop offset="0.4305" stop-color="#9A9B9F"/>
<stop offset="0.738" stop-color="white"/>
<stop offset="1" stop-color="#9A9B9E"/>
</linearGradient>
<linearGradient id="paint3_linear" x1="93.0134" y1="134.155" x2="111.59" y2="127.138" gradientUnits="userSpaceOnUse">
<stop stop-color="white"/>
<stop offset="0.1524" stop-color="#9D9EA2"/>
<stop offset="0.3455" stop-color="white"/>
<stop offset="0.5763" stop-color="#9A9B9F"/>
<stop offset="0.738" stop-color="white"/>
<stop offset="1" stop-color="#9A9B9E"/>
</linearGradient>
<linearGradient id="paint4_linear" x1="103.035" y1="96.2073" x2="87.2789" y2="56.3261" gradientUnits="userSpaceOnUse">
<stop stop-color="#6B6B6B"/>
<stop offset="0.0622359" stop-color="#7A7A7A"/>
<stop offset="0.2846" stop-color="#A9A9A9"/>
<stop offset="0.4964" stop-color="#CECECE"/>
<stop offset="0.6921" stop-color="#E9E9E9"/>
<stop offset="0.866" stop-color="#F9F9F9"/>
<stop offset="1" stop-color="white"/>
</linearGradient>
<linearGradient id="paint5_linear" x1="103.035" y1="96.2073" x2="87.2789" y2="56.3261" gradientUnits="userSpaceOnUse">
<stop stop-color="white"/>
<stop offset="1" stop-color="white"/>
</linearGradient>
<linearGradient id="paint6_linear" x1="119.513" y1="125.864" x2="119.906" y2="117.109" gradientUnits="userSpaceOnUse">
<stop stop-color="#F2A983"/>
<stop offset="0.3545" stop-color="#EA9B75"/>
<stop offset="1" stop-color="#D57751"/>
</linearGradient>
<linearGradient id="paint7_linear" x1="119.818" y1="108.312" x2="120.647" y2="97.1366" gradientUnits="userSpaceOnUse">
<stop stop-color="#F2A983"/>
<stop offset="0.3545" stop-color="#EA9B75"/>
<stop offset="1" stop-color="#D57751"/>
</linearGradient>
<linearGradient id="paint8_linear" x1="119.427" y1="119.244" x2="120.938" y2="108.823" gradientUnits="userSpaceOnUse">
<stop stop-color="#F2A983"/>
<stop offset="0.3545" stop-color="#EA9B75"/>
<stop offset="1" stop-color="#D57751"/>
</linearGradient>
<linearGradient id="paint9_linear" x1="117.432" y1="143.562" x2="122.02" y2="140.272" gradientUnits="userSpaceOnUse">
<stop stop-color="#F2A983"/>
<stop offset="0.3503" stop-color="#E79670"/>
<stop offset="1" stop-color="#D57751"/>
</linearGradient>
<linearGradient id="paint10_linear" x1="138.645" y1="142.394" x2="153.623" y2="169.141" gradientUnits="userSpaceOnUse">
<stop stop-color="#F2A983"/>
<stop offset="0.3545" stop-color="#EA9B75"/>
<stop offset="1" stop-color="#D57751"/>
</linearGradient>
<linearGradient id="paint11_linear" x1="115.707" y1="122.667" x2="110.197" y2="108.759" gradientUnits="userSpaceOnUse">
<stop stop-color="#F2A983"/>
<stop offset="0.3503" stop-color="#E79670"/>
<stop offset="1" stop-color="#D57751"/>
</linearGradient>
<clipPath id="clip0">
<rect width="26" height="12" fill="white" transform="translate(85.9998 82)"/>
</clipPath>
</defs>
</svg>
