<svg width="202" height="233" viewBox="0 0 202 233" fill="none" xmlns="http://www.w3.org/2000/svg">
<g clip-path="url(#clip0)">
<g style="mix-blend-mode:multiply" opacity="0.2">
<g style="mix-blend-mode:multiply" opacity="0.2">
<path d="M190.964 95.3609C192.346 96.151 192.346 97.447 190.964 98.2402L83.9174 159.731C82.5355 160.524 80.2785 160.521 78.8998 159.731L32.3125 132.848C30.9337 132.052 30.94 130.759 32.3125 129.972L139.869 68.969C141.251 68.1852 143.515 68.1883 144.906 68.969L190.964 95.3609Z" fill="black"/>
</g>
<g style="mix-blend-mode:multiply" opacity="0.2">
<path d="M190.964 95.3609C192.346 96.151 192.346 97.447 190.964 98.2402L83.9174 159.731C82.5355 160.524 80.2785 160.521 78.8998 159.731L32.3125 132.848C30.9337 132.052 30.94 130.759 32.3125 129.972L139.869 68.969C141.251 68.1852 143.515 68.1883 144.906 68.969L190.964 95.3609Z" fill="black"/>
</g>
</g>
<path d="M186.557 77.9131C186.239 75.4548 185.507 73.0669 184.392 70.849C184.282 70.0213 183.915 69.2482 183.34 68.638C182.349 67.5481 167.428 58.2574 163.339 55.859C159.25 53.4606 151.378 50.1472 151.378 50.1472L147.503 48.6107H145.768C145.768 48.6107 140.37 44.9881 132.321 46.2779L118.638 49.6569C118.638 49.6569 111.023 46.0936 105.008 46.5839C98.9922 47.0742 85.3182 53.2201 77.3322 58.0732C69.3463 62.9262 44.7116 77.6664 44.7116 77.6664C44.7116 77.6664 40.6195 80.1866 38.5829 86.1451C36.5463 92.1037 36.4141 93.3934 36.4141 93.3934L34.8968 94.8956C34.8968 94.8956 34.1225 100.273 34.2484 101.991C34.3199 103.178 34.3199 104.367 34.2484 105.554C34.2484 105.554 32.6399 108.012 32.6399 109.926C32.6399 111.841 33.0113 118.711 33.4457 120.738C33.8801 122.765 35.6743 125.222 40.0088 127.92C44.3434 130.619 65.3926 143.769 70.9044 146.533C76.4162 149.297 78.5661 151.242 81.1158 150.274C81.5786 150.093 82.6897 149.575 84.1755 148.85C84.5658 142.02 89.3694 134.066 95.2274 130.694C103.371 126.009 106.408 130.444 105.892 137.455C105.892 137.595 105.867 137.739 105.854 137.883L159.367 107.643L160.723 106.866C160.692 106.507 160.676 106.138 160.676 105.751C160.676 99.1927 165.445 91.4759 171.02 87.9752C177.599 83.8466 182.569 86.1607 182.569 92.7064C182.569 93.0187 182.569 93.331 182.528 93.6433C183.451 92.7626 184.464 91.6789 185.018 90.6983C186.189 88.5997 187.055 81.9136 186.557 77.9131Z" fill="#00A7F4"/>
<path style="mix-blend-mode:multiply" opacity="0.2" d="M162.949 86.3857C165.543 82.7849 173.629 78.1037 178.509 77.2293C182.956 76.4329 184.382 78.3754 184.489 81.5732C184.596 77.8976 183.321 75.5522 178.509 76.4142C173.633 77.2886 165.543 81.973 162.949 85.5737C161.142 88.072 159.534 92.2193 157.551 95.2548C159.527 92.5004 161.164 88.8653 162.949 86.3857Z" fill="url(#paint0_linear)"/>
<g style="mix-blend-mode:multiply" opacity="0.17">
<path d="M79.7088 129.572C80.162 122.115 79.2303 102.74 79.2303 102.74C79.2212 102.419 79.2444 102.098 79.2995 101.782C78.9124 101.497 78.5158 101.223 78.1506 100.907C76.8254 99.7704 51.7721 85.1145 42.505 79.5713C40.743 81.4611 39.408 83.7023 38.5892 86.145C36.5463 92.1005 36.4203 93.3933 36.4203 93.3933L34.9031 94.8955C34.9031 94.8955 34.1288 100.273 34.2547 101.991C34.3262 103.177 34.3262 104.367 34.2547 105.554C34.2547 105.554 32.6461 108.012 32.6461 109.926C32.6461 111.84 33.0176 118.711 33.452 120.738C33.8864 122.764 35.6806 125.222 40.0151 127.92C44.3496 130.619 65.3989 143.769 70.9107 146.533C73.9892 148.094 76.0258 149.372 77.6658 150.043C78.4276 143.285 79.4381 134.023 79.7088 129.572Z" fill="black"/>
</g>
<g style="mix-blend-mode:multiply" opacity="0.05">
<path d="M74.9525 119.204L75.2452 108.027C75.2452 108.027 75.4939 105.595 73.4573 104.068C71.4207 102.54 59.7392 95.8605 55.7037 93.2622C51.6683 90.6639 44.8533 86.9914 43.9404 86.498C43.0276 86.0045 41.5702 84.9709 40.5314 88.3936C39.4926 91.8163 38.3688 96.2009 38.2461 97.3033C38.1233 98.4057 37.4119 100.77 40.9878 103.037C44.5637 105.304 56.4529 113.43 60.3625 115.329C64.272 117.228 73.0009 121.887 73.0009 121.887C73.0009 121.887 74.7447 122.627 74.9525 119.204Z" fill="black"/>
</g>
<g style="mix-blend-mode:multiply" opacity="0.1">
<path d="M171.014 87.9752C177.593 83.8467 182.563 86.1607 182.563 92.7064C182.563 93.0187 182.563 93.331 182.522 93.6433C183.444 92.7626 184.458 91.6789 185.012 90.6983C186.189 88.6091 187.055 81.9136 186.557 77.9225C186.243 75.5006 185.528 73.1467 184.442 70.9552C179.406 70.3306 173.551 69.7061 172.704 70.0183C171.187 70.5649 161.41 75.2492 161.41 75.2492C161.41 75.2492 151.504 69.0502 139.876 69.8778C139.876 69.8778 132.138 69.2782 108.499 82.6974C84.8586 96.1166 79.117 98.1309 79.224 102.756C79.224 102.756 80.1684 122.118 79.7025 129.588C79.4318 134.038 78.4214 143.301 77.6501 150.053C78.9439 150.58 79.9921 150.721 81.1127 150.29C81.5754 150.109 82.6866 149.59 84.1724 148.866C84.5627 142.036 89.3662 134.082 95.2243 130.709C103.368 126.025 106.405 130.459 105.889 137.47C105.889 137.611 105.864 137.755 105.851 137.898L159.364 107.659L160.724 106.866C160.692 106.507 160.676 106.138 160.676 105.751C160.67 99.2052 165.445 91.476 171.014 87.9752Z" fill="black"/>
</g>
<g style="mix-blend-mode:multiply" opacity="0.1">
<path d="M170.907 85.9546C166.723 88.581 163.056 93.2966 160.727 98.2652C160.097 99.5955 158.545 101.076 158.545 101.076L109.062 128.314C108.537 128.638 107.915 128.767 107.303 128.681C106.692 128.594 106.131 128.296 105.719 127.839C103.774 125.797 100.383 125.653 95.2557 128.604C88.4407 132.53 82.844 141.771 82.3498 149.725C82.8534 149.487 83.4641 149.194 84.1692 148.853C84.5595 142.024 89.363 134.069 95.2211 130.697C103.364 126.012 106.402 130.447 105.886 137.458C105.886 137.598 105.861 137.742 105.848 137.886L159.36 107.646L160.723 106.866C160.692 106.507 160.676 106.138 160.676 105.751C160.676 99.1927 165.445 91.4759 171.02 87.9751C177.599 83.8466 182.569 86.1607 182.569 92.7064C182.569 93.0187 182.569 93.3309 182.528 93.6432C183.24 92.9811 183.896 92.2626 184.489 91.4947C184.467 83.8154 178.628 81.1047 170.907 85.9546Z" fill="black"/>
</g>
<g style="mix-blend-mode:overlay" opacity="0.5">
<g style="mix-blend-mode:overlay" opacity="0.5">
<path style="mix-blend-mode:overlay" opacity="0.5" d="M178.509 77.2292C173.633 78.1067 165.543 82.788 162.949 86.3887C160.355 89.9894 158.073 96.0448 154.598 98.2558C151.123 100.467 111.7 122.084 111.7 122.084C110.082 121.082 108.255 120.461 106.358 120.266C104.462 120.071 102.545 120.308 100.755 120.959C94.5286 123.174 83.1273 130.275 83.1273 130.275L81.0529 132.333L79.3877 147.523H82.6205C83.8796 140.125 89.0672 132.161 95.2652 128.592C100.393 125.638 103.783 125.781 105.728 127.827C106.14 128.283 106.701 128.581 107.313 128.668C107.924 128.755 108.547 128.625 109.071 128.301L158.555 101.063C158.555 101.063 160.11 99.5862 160.736 98.2527C163.065 93.2841 166.733 88.5716 170.916 85.9421C176.481 82.4476 181.068 82.8785 183.192 86.2544C183.964 85.1478 184.412 83.8507 184.486 82.5069C184.647 78.7719 183.388 76.3516 178.509 77.2292Z" fill="url(#paint1_linear)"/>
</g>
</g>
<path style="mix-blend-mode:multiply" opacity="0.2" d="M81.0434 132.343L83.1178 130.285C83.1178 130.285 94.5286 123.183 100.745 120.969C102.536 120.318 104.452 120.08 106.349 120.275C108.246 120.47 110.073 121.092 111.69 122.093L111.86 122C110.784 121.213 106.194 118.221 100.745 120.154C94.5191 122.368 83.1178 129.466 83.1178 129.466L81.0434 131.528L79.3782 146.714H79.4695L81.0434 132.343Z" fill="url(#paint2_linear)"/>
<g style="mix-blend-mode:multiply" opacity="0.05">
<path d="M55.7069 121.824C53.7867 120.613 39.9364 112.168 39.9364 112.168C39.9364 112.168 38.3814 111.2 38.4412 112.865C38.501 114.529 38.9606 118.071 38.9606 118.071C38.9606 118.071 38.8378 118.886 41.2774 120.46L55.6156 129.269C55.6156 129.269 57.051 130.297 57.1423 128.573C57.2335 126.849 57.4759 124.513 57.4759 124.513C57.4759 124.513 57.6302 123.033 55.7069 121.824Z" fill="black"/>
</g>
<path opacity="0.5" d="M55.647 127.995C55.647 127.995 42.59 119.826 41.6142 119.251C40.6384 118.677 40.5156 117.406 40.5156 117.406L40.459 112.49L39.9364 112.178C39.9364 112.178 38.3814 111.21 38.4412 112.874C38.501 114.539 38.9606 118.08 38.9606 118.08C38.9606 118.08 38.8378 118.895 41.2774 120.469L55.6156 129.279C55.6156 129.279 57.051 130.306 57.1423 128.583L57.1611 128.214C56.5851 128.617 55.647 127.995 55.647 127.995Z" fill="#FF3F39"/>
<path d="M73.6273 121.731C73.6273 121.731 64.8953 117.068 60.9889 115.173C57.0825 113.277 45.1996 105.148 41.6174 102.881C38.0352 100.614 38.7466 98.2621 38.8725 97.1472C38.9984 96.0323 40.1316 91.6633 41.1578 88.2406C41.5702 86.8821 42.0455 86.2263 42.5302 85.9578C41.8472 85.9578 41.1232 86.4481 40.5314 88.3936C39.4926 91.8289 38.3688 96.201 38.2461 97.3033C38.1233 98.4057 37.4119 100.77 40.9878 103.037C44.5637 105.304 56.4529 113.43 60.3625 115.329C64.272 117.228 73.0009 121.887 73.0009 121.887C73.1554 121.941 73.32 121.961 73.4831 121.945C73.6463 121.93 73.804 121.879 73.9452 121.796C73.8364 121.791 73.7291 121.769 73.6273 121.731Z" fill="#FF3F39"/>
<path opacity="0.2" d="M154.837 85.8391L128.597 93.8151C129.456 99.6112 132.315 99.124 132.315 99.124C132.315 99.124 151.881 89.8895 153.405 89.0713C154.928 88.2531 154.837 85.8391 154.837 85.8391Z" fill="url(#paint3_linear)"/>
<path d="M177.46 89.3055L173.135 86.8416C172.401 87.1681 171.692 87.547 171.014 87.9752C165.439 91.476 160.67 99.2177 160.67 105.751C160.67 106.138 160.686 106.507 160.717 106.866L159.587 107.522L164.661 110.407C166.26 111.41 168.514 111.316 171.014 109.886C175.864 107.106 179.796 100.351 179.796 94.7988C179.796 92.163 178.908 90.2705 177.46 89.3055Z" fill="#3A3939"/>
<path d="M179.796 94.7988C179.796 100.351 175.864 107.106 171.014 109.886C166.163 112.665 162.234 110.41 162.234 104.855C162.234 99.2989 166.163 92.544 171.014 89.7677C175.864 86.9914 179.796 89.2431 179.796 94.7988Z" fill="#575656"/>
<path d="M179.295 95.3422C179.295 100.454 175.679 106.675 171.212 109.23C166.745 111.784 163.128 109.714 163.128 104.602C163.128 99.4894 166.748 93.2686 171.212 90.7109C175.676 88.1532 179.295 90.2299 179.295 95.3422Z" fill="#3A3939"/>
<path d="M177.407 96.838C177.407 100.657 174.703 105.304 171.369 107.215C168.036 109.127 165.329 107.575 165.329 103.755C165.329 99.9359 168.033 95.289 171.369 93.3778C174.706 91.4666 177.407 93.0155 177.407 96.838Z" fill="url(#paint4_linear)"/>
<path d="M175.713 96.8473C175.713 99.9172 173.538 103.652 170.859 105.186C168.181 106.719 166.005 105.479 166.005 102.406C166.005 99.3332 168.177 95.6044 170.859 94.0679C173.541 92.5315 175.713 93.7806 175.713 96.8473Z" fill="#343433"/>
<path d="M176.097 93.7557L173.793 96.4352C173.676 96.3401 173.546 96.2623 173.406 96.2041L174.772 92.9844C173.927 92.7976 173.043 92.8886 172.254 93.2436L171.851 96.251C171.661 96.3226 171.477 96.4082 171.3 96.507C171.184 96.5757 171.07 96.6476 170.957 96.7256L170.623 94.1648C169.554 94.9611 168.627 95.9303 167.882 97.0317L169.308 98.4464C169.081 98.7812 168.881 99.1331 168.709 99.4988L166.704 99.0522C166.183 100.145 165.832 101.309 165.662 102.506C166.459 102.25 167.551 101.907 168.083 101.747C168.083 101.844 168.083 101.941 168.083 102.038C168.084 102.211 168.096 102.384 168.121 102.556L165.637 104.377C165.694 105.321 166.082 106.216 166.733 106.906L168.835 103.974C168.961 104.074 169.103 104.155 169.254 104.211L168.168 107.647C169.015 107.777 169.881 107.65 170.655 107.284L170.818 104.108C170.984 104.043 171.145 103.966 171.3 103.877C171.401 103.821 171.498 103.758 171.596 103.693L172.185 106.391C173.231 105.607 174.14 104.657 174.876 103.58L173.302 101.957C173.496 101.671 173.67 101.374 173.825 101.067L176.028 101.585C176.499 100.604 176.836 99.5657 177.029 98.4963L174.511 98.7649C174.511 98.6306 174.53 98.4963 174.53 98.3652C174.529 98.2692 174.524 98.1733 174.514 98.0779L177.142 96.2822C177.09 95.3474 176.722 94.4573 176.097 93.7557Z" fill="#BDB7B7"/>
<path d="M174.52 98.3527C174.52 100.386 173.079 102.862 171.3 103.88C169.522 104.898 168.083 104.074 168.083 102.038C168.083 100.002 169.537 97.5282 171.3 96.507C173.063 95.4858 174.52 96.3165 174.52 98.3527Z" fill="url(#paint5_linear)"/>
<path d="M173.315 98.9366C173.281 99.6296 173.085 100.305 172.742 100.91C172.4 101.515 171.92 102.033 171.341 102.422C170.252 103.065 169.367 102.544 169.367 101.26C169.401 100.567 169.597 99.8914 169.94 99.2865C170.282 98.6816 170.762 98.1641 171.341 97.7749C172.433 97.1316 173.315 97.6531 173.315 98.9366Z" fill="url(#paint6_linear)"/>
<path d="M172.578 99.3458C172.556 99.7947 172.429 100.232 172.207 100.624C171.985 101.016 171.675 101.351 171.3 101.604C170.595 102.019 170.025 101.682 170.025 100.851C170.047 100.403 170.173 99.9658 170.395 99.5745C170.616 99.1832 170.926 98.8483 171.3 98.5963C172.005 98.181 172.578 98.5183 172.578 99.3458Z" fill="#DBDBDA"/>
<path d="M173.135 86.8417L177.46 89.3056C178.562 90.0395 179.349 91.3074 179.642 93.0282L182.522 93.634C182.547 93.3217 182.563 93.0094 182.563 92.6971C182.563 86.8854 178.631 84.412 173.135 86.8417Z" fill="#212020"/>
<path d="M101.674 132.87L96.5936 129.972C96.156 130.185 95.6996 130.422 95.2274 130.694C89.3694 134.066 84.5658 142.02 84.1755 148.85C83.269 149.291 82.5072 149.653 81.9437 149.912C82.1959 150.141 82.4749 150.339 82.7747 150.502L88.8752 153.972C90.4742 154.974 92.7281 154.877 95.2274 153.447C100.075 150.668 104.007 143.913 104.007 138.36C104.007 135.725 103.119 133.832 101.674 132.87Z" fill="#3A3939"/>
<path d="M104.007 138.36C104.007 143.913 100.075 150.668 95.2274 153.447C90.3798 156.227 86.4356 153.972 86.4356 148.432C86.4356 142.892 90.3641 136.124 95.2148 133.345C100.066 130.566 104.007 132.817 104.007 138.36Z" fill="#575656"/>
<path d="M103.522 138.907C103.522 144.019 99.905 150.24 95.4383 152.798C90.9716 155.355 87.3548 153.282 87.3548 148.166C87.3548 143.051 90.9747 136.833 95.4383 134.276C99.9019 131.718 103.522 133.792 103.522 138.907Z" fill="#3A3939"/>
<path d="M101.633 140.4C101.633 144.219 98.9292 148.866 95.5957 150.777C92.2622 152.688 89.5551 151.139 89.5551 147.317C89.5551 143.495 92.259 138.851 95.5957 136.943C98.9323 135.035 101.633 136.58 101.633 140.4Z" fill="url(#paint7_linear)"/>
<path d="M99.9239 140.412C99.9239 143.482 97.7519 147.214 95.0731 148.75C92.3944 150.287 90.213 149.056 90.213 145.971C90.213 142.886 92.3849 139.166 95.0668 137.63C97.7488 136.093 99.9239 137.339 99.9239 140.412Z" fill="#343433"/>
<path d="M100.311 137.317L98.0069 140C97.8897 139.905 97.7593 139.827 97.6197 139.769L98.9858 136.549C98.1401 136.366 97.2575 136.457 96.4676 136.808L96.0647 139.816C95.8756 139.888 95.6925 139.975 95.517 140.075C95.4005 140.141 95.2872 140.212 95.1739 140.29L94.8402 137.73C93.7729 138.526 92.8473 139.494 92.1016 140.593L93.5307 142.008C93.3041 142.344 93.1042 142.697 92.9326 143.064L90.9401 142.617C90.4187 143.708 90.0674 144.872 89.8982 146.068C90.6946 145.812 91.7868 145.471 92.3188 145.312C92.3188 145.409 92.3188 145.506 92.3188 145.599C92.3197 145.774 92.3324 145.948 92.3566 146.121L89.873 147.939C89.9316 148.882 90.3188 149.776 90.9684 150.468L93.0711 147.536C93.1972 147.636 93.3385 147.716 93.4898 147.773L92.4038 151.208C93.2506 151.342 94.1182 151.215 94.8906 150.846L95.0542 147.67C95.2207 147.606 95.3818 147.528 95.5359 147.439C95.6366 147.383 95.7342 147.32 95.8286 147.255L96.4204 149.953C97.468 149.164 98.3773 148.209 99.1117 147.127L97.5378 145.503C97.7314 145.218 97.906 144.92 98.0604 144.613L100.264 145.131C100.734 144.151 101.071 143.114 101.265 142.046L98.7466 142.311C98.7466 142.177 98.7655 142.042 98.7655 141.911C98.7655 141.78 98.7655 141.718 98.7655 141.624L101.388 139.828C101.324 138.895 100.944 138.011 100.311 137.317Z" fill="#BDB7B7"/>
<path d="M98.734 141.914C98.734 143.95 97.2923 146.424 95.5138 147.442C93.7353 148.46 92.2968 147.635 92.2968 145.599C92.2968 143.563 93.7385 141.09 95.5138 140.072C97.2892 139.054 98.734 139.878 98.734 141.914Z" fill="url(#paint8_linear)"/>
<path d="M97.5316 142.498C97.4979 143.191 97.3027 143.867 96.9613 144.472C96.6199 145.077 96.1417 145.596 95.5642 145.987C94.4719 146.627 93.5905 146.108 93.5905 144.822C93.6242 144.129 93.8201 143.453 94.1627 142.848C94.5052 142.243 94.9851 141.726 95.5642 141.337C96.647 140.696 97.5316 141.215 97.5316 142.498Z" fill="url(#paint9_linear)"/>
<path d="M96.7918 142.911C96.7696 143.359 96.6426 143.796 96.4208 144.187C96.199 144.579 95.8885 144.914 95.5138 145.165C94.8087 145.581 94.2547 145.243 94.2547 144.413C94.2746 143.966 94.3986 143.53 94.6171 143.139C94.8355 142.747 95.1425 142.412 95.5138 142.158C96.219 141.743 96.7918 142.08 96.7918 142.911Z" fill="#DBDBDA"/>
<path d="M96.5935 129.972L101.674 132.87C102.933 133.704 103.758 135.235 103.959 137.339L105.848 137.883C105.848 137.739 105.876 137.595 105.886 137.455C106.38 130.85 103.711 126.531 96.5935 129.972Z" fill="#212020"/>
<path d="M155.687 77.8288C155.564 76.0768 150.94 74.7496 144.006 74.2062C143.543 74.1687 143.08 74.1531 142.614 74.1531C136.164 74.1531 129.97 77.4915 127.643 78.6719C125.147 79.9399 126.243 82.0541 126.243 82.0541C126.243 82.0541 128.251 92.1911 128.981 95.4514C129.318 96.9691 130.083 97.3751 130.797 97.3751C131.366 97.3411 131.915 97.1556 132.387 96.838C132.387 96.838 147.959 89.8395 151.245 88.2094C154.532 86.5792 155.807 84.8897 155.807 84.8897C155.807 84.8897 155.813 79.5776 155.687 77.8288Z" fill="#141C1E"/>
<path d="M151.859 76.2923C150.141 75.802 147.588 75.3336 143.946 75.0431C143.514 75.0088 143.067 74.9932 142.624 74.9932C136.69 74.9932 130.886 77.9631 128.405 79.2341L128.04 79.4183C127.79 79.521 127.564 79.6719 127.374 79.8622C127.183 80.0525 127.033 80.2785 126.932 80.527C126.825 80.9025 126.852 81.3033 127.011 81.6606L127.064 81.7668L127.089 81.8823C127.108 81.9854 129.101 92.0506 129.822 95.2609C130.105 96.5101 130.615 96.5101 130.807 96.5101C131.2 96.4776 131.578 96.3465 131.905 96.1291L131.972 96.0823L132.044 96.051C132.198 95.9792 147.641 89.0369 150.874 87.4349C151.23 87.2569 151.554 87.082 151.862 86.9071L151.859 76.2923Z" fill="#303E42"/>
<path d="M143.829 58.3728C132.579 52.586 130.772 52.127 123.828 50.3813C122.021 49.9284 120.759 49.5943 119.871 49.3507L118.638 49.663C118.638 49.663 118.323 49.5193 117.803 49.2976L117.58 50.6623C117.58 50.6623 141.56 62.1016 145.91 64.856C150.26 67.6104 161.407 75.2397 161.407 75.2397C164.274 72.3916 155.08 64.1596 143.829 58.3728Z" fill="#4D585A"/>
<path d="M144.67 60.3843C135.51 54.9629 127.14 51.8462 119.487 49.454L118.631 49.6664C118.631 49.6664 111.023 46.0938 105.008 46.5841C103.988 46.687 102.977 46.8687 101.986 47.1274C106.673 49.3135 115.877 53.7761 122.956 58.2138C132.869 64.4284 139.866 69.8623 139.866 69.8623C139.866 69.8623 153.37 70.0435 161.4 75.2338C161.41 75.2338 160.072 69.5001 144.67 60.3843Z" fill="#141C1E"/>
<path d="M144.333 60.9651C134.713 55.272 125.896 52.1615 119.286 50.091C118.604 49.8783 117.965 49.5497 117.397 49.1198C114.977 48.1455 109.54 46.2155 105.008 46.584C104.353 46.6452 103.702 46.7443 103.059 46.8807C107.944 49.1791 116.563 53.4045 123.318 57.6423C132.277 63.2635 138.941 68.2977 140.105 69.1971C141.827 69.2408 152.13 69.6624 159.707 73.4911C158.105 71.1395 154.085 66.7425 144.333 60.9651Z" fill="#303E42"/>
<path opacity="0.2" d="M119.286 50.091C118.604 49.8783 117.965 49.5497 117.397 49.1198C114.977 48.1455 109.54 46.2155 105.008 46.584C104.353 46.6452 103.702 46.7443 103.059 46.8807C106.896 48.6763 112.981 51.6494 118.688 54.8847C119.55 53.7136 120.998 52.4863 123.41 51.4495C121.952 50.9405 120.577 50.4939 119.286 50.091Z" fill="white"/>
<path d="M123.894 111.21L123.35 111.407C123.35 111.407 122.868 111.681 122.72 110.826C122.509 109.178 122.427 107.517 122.475 105.857C122.56 104.861 122.755 104.686 123.177 104.427C123.598 104.168 124.864 103.49 124.864 103.49C124.864 103.49 125.493 103.324 125.585 104.205C125.708 105.906 125.708 107.613 125.585 109.314C125.399 110.563 124.568 110.844 123.894 111.21Z" fill="#5A6567"/>
<path d="M124.064 105.054C124.287 106.748 124.358 108.458 124.275 110.164C124.275 110.164 123.117 110.844 123.016 109.692C122.915 108.54 122.928 106.204 122.928 106.204C122.939 106.036 122.988 105.872 123.07 105.725C123.152 105.578 123.266 105.45 123.403 105.351C123.605 105.216 123.829 105.116 124.064 105.054Z" fill="#414C4E"/>
<path d="M124.275 110.164C124.358 108.458 124.287 106.748 124.064 105.054C123.949 105.082 123.838 105.124 123.734 105.179C123.861 106.038 123.944 106.902 123.982 107.768C123.998 108.568 123.96 109.739 123.938 110.307C124.055 110.271 124.168 110.223 124.275 110.164Z" fill="#283335"/>
<path d="M124.889 104.692C124.889 104.692 125.443 107.556 125.166 109.661C125.166 109.661 125.56 109.102 125.443 106.744C125.327 104.386 124.889 104.692 124.889 104.692Z" fill="#414C4E"/>
<path d="M129.098 108.202L128.553 108.402C128.553 108.402 128.071 108.674 127.923 107.821C127.713 106.168 127.629 104.502 127.672 102.837C127.76 101.844 127.952 101.669 128.374 101.407C128.795 101.144 130.061 100.47 130.061 100.47C130.061 100.47 130.69 100.307 130.782 101.185C130.905 102.886 130.905 104.593 130.782 106.294C130.621 107.559 129.787 107.834 129.098 108.202Z" fill="#5A6567"/>
<path d="M129.283 102.047C129.506 103.741 129.577 105.45 129.494 107.156C129.494 107.156 128.336 107.837 128.235 106.688C128.134 105.539 128.147 103.199 128.147 103.199C128.159 103.031 128.207 102.867 128.289 102.719C128.371 102.572 128.485 102.443 128.622 102.344C128.824 102.209 129.048 102.108 129.283 102.047Z" fill="#414C4E"/>
<path d="M129.494 107.156C129.577 105.45 129.506 103.741 129.283 102.047C129.169 102.078 129.058 102.119 128.953 102.172C129.08 103.031 129.163 103.896 129.202 104.764C129.22 105.564 129.179 106.735 129.157 107.3C129.274 107.264 129.387 107.215 129.494 107.156Z" fill="#283335"/>
<path d="M130.108 101.688C130.108 101.688 130.662 104.552 130.385 106.656C130.385 106.656 130.782 106.094 130.662 103.737C130.542 101.379 130.108 101.688 130.108 101.688Z" fill="#414C4E"/>
<path d="M56.5316 121.422L57.0761 121.622C57.0761 121.622 57.5546 121.893 57.7057 121.041C57.9134 119.392 57.9955 117.73 57.9512 116.069C57.8631 115.076 57.6711 114.901 57.2493 114.639C56.8275 114.376 55.5621 113.702 55.5621 113.702C55.5621 113.702 54.9325 113.539 54.8412 114.417C54.7165 116.118 54.7165 117.825 54.8412 119.526C55.0081 120.778 55.8391 121.056 56.5316 121.422Z" fill="#5A6567"/>
<path d="M56.3427 115.266C56.1199 116.96 56.0493 118.67 56.1318 120.375C56.1318 120.375 57.2934 121.056 57.3909 119.907C57.4885 118.758 57.4791 116.419 57.4791 116.419C57.4675 116.25 57.4189 116.087 57.3368 115.939C57.2547 115.791 57.141 115.663 57.0038 115.563C56.8006 115.43 56.5775 115.33 56.3427 115.266Z" fill="#414C4E"/>
<path d="M56.1318 120.375C56.0493 118.67 56.1199 116.96 56.3427 115.266C56.4517 115.297 56.5572 115.339 56.6575 115.391C56.5301 116.251 56.4471 117.116 56.4088 117.983C56.4088 118.783 56.4309 119.954 56.4529 120.519C56.3411 120.483 56.2335 120.434 56.1318 120.375Z" fill="#283335"/>
<path d="M55.518 114.907C55.518 114.907 54.964 117.771 55.241 119.876C55.241 119.876 54.8475 119.314 54.964 116.956C55.0804 114.598 55.518 114.907 55.518 114.907Z" fill="#414C4E"/>
<path d="M186.557 77.913C186.239 75.4546 185.507 73.0668 184.392 70.8489C184.282 70.0212 183.915 69.2481 183.34 68.6379C183.107 68.3787 182.106 67.6666 180.658 66.7017C179.04 66.7579 177.574 66.8828 177.574 66.8828C177.574 66.8828 180.375 71.2549 180.583 72.3885C180.791 73.5221 177.574 75.221 177.574 75.221L179.601 77.0947C183.573 76.7606 184.618 79.0809 184.486 82.5411C184.376 85.3518 182.437 87.3942 181.458 88.2623C182.166 89.3803 182.563 90.8793 182.563 92.7187C182.563 93.031 182.563 93.3433 182.522 93.6556C183.444 92.775 184.458 91.6913 185.012 90.7107C186.189 88.5996 187.055 81.9134 186.557 77.913Z" fill="#404B4D"/>
<path d="M186.557 77.9131C186.405 76.7023 186.147 75.5069 185.786 74.3404C183.863 73.516 181.669 73.4941 179.752 73.7564C179.077 74.3153 178.347 74.806 177.574 75.2211L179.601 77.0948C183.573 76.7607 184.618 79.081 184.486 82.5412C184.376 85.3519 182.437 87.3943 181.458 88.2624C182.166 89.3804 182.563 90.8794 182.563 92.7188C182.563 93.0311 182.563 93.3434 182.522 93.6557C183.444 92.775 184.458 91.6914 185.012 90.7108C186.189 88.5997 187.055 81.9135 186.557 77.9131Z" fill="#5A6567"/>
<path d="M184.367 70.6711C184.272 70.1812 184.086 69.713 183.819 69.2908C182.919 68.9403 181.941 68.8326 180.986 68.9785C181.639 69.0042 182.278 69.1686 182.861 69.4606C183.445 69.7526 183.958 70.1654 184.367 70.6711Z" fill="#5A6567"/>
<path d="M83.5711 138.223C81.4747 137.461 82.9416 134.069 82.9416 134.069C82.9416 134.069 81.6415 134.694 80.8483 134.694C80.055 134.694 76.5578 133.442 76.5578 133.442L75.8811 136.877C75.7677 143.16 75.2515 143.554 75.2515 143.554C74.6849 143.273 63.2647 137.102 58.5682 134.241C53.8717 131.381 46.9214 127.146 42.461 124.248C38.0005 121.35 37.4245 120.11 37.0436 118.833C36.6627 117.555 36.1717 109.464 36.1717 109.464C34.6891 108.499 33.9682 107.5 33.6157 106.653C33.1624 107.543 32.6273 108.839 32.6273 109.923C32.6273 111.828 32.9987 118.708 33.4331 120.735C33.8675 122.761 35.6617 125.219 39.9962 127.917C44.3307 130.616 65.38 143.766 70.8918 146.53C76.4036 149.294 78.5661 151.242 81.1158 150.274C81.5786 150.093 82.6897 149.575 84.1755 148.85C84.3612 145.571 85.57 142.033 87.4209 138.857C86.1144 138.822 84.8189 138.609 83.5711 138.223Z" fill="#404B4D"/>
<path d="M72.7396 144.347C74.3135 144.756 75.0249 144.319 75.2578 143.551C74.6912 143.27 63.271 137.099 58.5745 134.238C53.878 131.378 46.9277 127.143 42.4673 124.245C38.0069 121.347 37.4308 120.107 37.0499 118.83C36.6942 117.637 36.2441 110.535 36.1843 109.576C35.6977 110.6 35.4441 111.717 35.4414 112.849C35.4414 114.698 35.9136 119.832 35.9136 119.832C35.9136 119.832 36.1654 122.274 38.7214 124.092C41.2774 125.909 53.4908 133.86 60.8756 138.086C68.2603 142.311 71.1625 143.941 72.7396 144.347Z" fill="#5A6567"/>
<path d="M82.9479 134.066C82.4431 134.302 81.9158 134.487 81.374 134.619C81.012 135.587 80.6248 136.821 80.5933 137.764C80.5429 139.372 79.4979 147.08 79.7182 150.527C80.1965 150.533 80.6712 150.446 81.1158 150.271C81.5786 150.09 82.6897 149.572 84.1755 148.847C84.3612 145.568 85.57 142.03 87.4209 138.854C86.1139 138.816 84.8185 138.599 83.5711 138.211C81.4747 137.461 82.9479 134.066 82.9479 134.066Z" fill="#5A6567"/>
<path d="M154.743 83.7156C154.743 83.7156 153.597 83.7655 153.521 84.2902C153.446 84.8148 153.748 86.4762 153.748 86.4762L155.473 87.3507L154.743 83.7156Z" fill="#273234"/>
<path d="M154.393 82.1695C154.393 82.1695 154.217 81.545 154.853 81.4919C155.489 81.4388 156.836 81.4481 156.836 81.4481C156.836 81.4481 157.497 81.7604 157.717 83.0096C157.987 84.4858 158.15 85.9792 158.205 87.4785C158.205 88.6777 158.246 89.421 157.5 89.8582C156.754 90.2954 156.354 90.4828 156.112 90.3172C155.87 90.1517 154.538 88.4435 154.485 87.5222C154.431 86.601 154.393 82.1695 154.393 82.1695Z" fill="#404B4D"/>
<path d="M157.497 89.8582C158.243 89.421 158.202 88.6778 158.202 87.4786C158.147 85.9836 157.985 84.4943 157.717 83.0222C157.497 81.773 156.836 81.4607 156.836 81.4607C156.836 81.4607 155.492 81.4607 154.853 81.5044C154.763 81.5015 154.675 81.5241 154.598 81.5695C154.521 81.6148 154.459 81.6811 154.418 81.7605C154.497 81.7386 154.579 81.7605 154.655 81.9416C154.919 82.51 156.065 84.6273 156.087 85.6111C156.106 86.3731 156.175 89.0057 156.194 90.3704C156.442 90.4422 156.83 90.2486 157.497 89.8582Z" fill="#5A6567"/>
<path d="M156.087 85.5986C156.068 84.6867 155.08 82.788 154.727 82.0759V87.2912C154.767 87.688 154.873 88.0755 155.042 88.4373C155.319 89.0244 156.018 89.9988 156.191 90.0331C156.165 88.6122 156.103 86.3044 156.087 85.5986Z" fill="url(#paint10_linear)"/>
<path d="M156.087 85.5986C156.106 86.3606 156.175 88.9932 156.194 90.3579C156.443 90.4423 156.823 90.2486 157.497 89.8583C158.243 89.4211 158.202 88.6778 158.202 87.4786C158.181 86.5831 158.109 85.6895 157.985 84.8022C157.373 85.0812 156.731 85.2908 156.071 85.4268C156.08 85.4837 156.085 85.5411 156.087 85.5986Z" fill="#404B4D"/>
<path d="M153.169 106.866C153.169 106.866 155.731 104.414 155.848 102.556L109.062 128.311C108.862 128.42 108.651 128.508 108.432 128.573C108.473 129.548 108.668 130.637 109.336 130.637C110.541 130.637 114.879 127.861 114.879 127.861L153.169 106.866Z" fill="#5A6567"/>
<path d="M83.9898 123.929L83.9929 126.009L101.888 116.178V113.98L83.9898 123.929Z" fill="#5A6567"/>
<g style="mix-blend-mode:multiply" opacity="0.2">
<path d="M158.97 84.1216C158.954 83.8749 158.536 78.0694 158.026 76.689C157.488 75.2525 155.193 73.9346 151.589 72.979C148.252 72.0952 141.884 71.1052 138.034 71.9578C134.452 72.7604 127.602 75.2056 121.439 78.3223C115.688 81.2329 101.325 89.593 100.453 90.102C100.129 90.1221 99.8258 90.2653 99.606 90.5017C98.9764 91.1263 98.7938 92.3755 99.0268 94.2118C99.4832 97.8375 101.06 109.202 101.58 112.949L101.728 113.995C101.926 115.445 101.907 115.841 101.894 115.935L101.86 115.954L102.058 120.266L102.769 127.087L102.785 127.24H102.939C102.984 127.24 106.959 127.327 107.073 135.303H107.416C107.309 127.768 103.884 126.993 103.091 126.915L102.398 120.248L102.206 116.05C102.25 115.888 102.26 115.426 102.055 113.955L101.91 112.906C101.391 109.158 99.8106 97.7906 99.3541 94.168C99.0866 92.0351 99.4643 91.1294 99.8326 90.7328C99.911 90.6415 100.007 90.5668 100.115 90.5131C100.224 90.4594 100.341 90.428 100.462 90.4205H100.516L100.563 90.3924C100.714 90.305 115.609 81.6201 121.533 78.619C122.793 81.7419 125.796 101.257 125.824 101.444L127.209 118.186L126.894 123.964L127.237 123.983L127.552 118.18L126.164 101.407C126.041 100.586 123.126 81.5951 121.839 78.4691C127.923 75.4492 134.597 73.0758 138.103 72.2888C141.897 71.4394 148.176 72.4325 151.494 73.3069C154.957 74.2188 157.207 75.493 157.702 76.8077C158.196 78.1225 158.627 84.0841 158.646 84.1403L159.244 99.9423L158.048 106.429L158.385 106.491L159.587 99.9673L158.97 84.1216Z" fill="black"/>
</g>
<g style="mix-blend-mode:multiply" opacity="0.2">
<path d="M56.0279 122.971L41.9007 114.276C41.8176 114.221 41.7204 114.191 41.6205 114.189C41.5636 114.19 41.5076 114.203 41.4561 114.227C41.4047 114.251 41.3588 114.286 41.3215 114.329C41.2841 114.371 41.2562 114.421 41.2394 114.475C41.2226 114.529 41.2173 114.586 41.2239 114.642L41.1767 117.68C41.1824 117.854 41.2289 118.023 41.3125 118.176C41.3961 118.328 41.5145 118.459 41.6583 118.558L55.4834 127.158C55.568 127.216 55.6675 127.247 55.7698 127.249C55.8848 127.245 55.9937 127.197 56.0735 127.115C56.1534 127.033 56.198 126.923 56.1979 126.809L56.4749 123.861C56.4827 123.687 56.4458 123.514 56.3676 123.358C56.2894 123.203 56.1725 123.069 56.0279 122.971Z" fill="black"/>
</g>
<path d="M55.8485 123.258L41.737 114.564C41.7081 114.541 41.6729 114.528 41.6362 114.526C41.5859 114.526 41.5796 114.62 41.5796 114.648L41.5323 117.684C41.5376 117.799 41.5685 117.912 41.6229 118.014C41.6774 118.116 41.7539 118.205 41.8471 118.274L55.6628 126.884C55.695 126.904 55.7317 126.917 55.7698 126.921C55.8359 126.921 55.8516 126.837 55.8579 126.787L56.135 123.839C56.1389 123.726 56.1149 123.614 56.0649 123.513C56.015 123.412 55.9406 123.324 55.8485 123.258Z" fill="white"/>
<g style="mix-blend-mode:multiply" opacity="0.2">
<g style="mix-blend-mode:multiply" opacity="0.2">
<path d="M59.8242 132.923C59.8242 132.786 59.7707 119.03 59.9344 114.829C60.098 110.629 62.0276 97.4064 62.0497 97.2721L62.2858 95.2922L63.0664 93.7307L63.3812 93.8837L62.6163 95.4015L62.3959 97.3002C62.3771 97.4376 60.4506 110.638 60.2838 114.826C60.1169 119.014 60.1736 132.77 60.1736 132.908L59.8242 132.923Z" fill="black"/>
</g>
</g>
<path d="M164.86 81.5076C164.853 81.6265 164.818 81.7421 164.758 81.8451C164.697 81.9482 164.614 82.0358 164.513 82.101L162.216 83.4188C162.024 83.5281 161.869 83.4376 161.869 83.219V82.7412C161.876 82.6222 161.911 82.5064 161.971 82.4033C162.031 82.3002 162.115 82.2126 162.216 82.1478L164.513 80.8299C164.702 80.7206 164.86 80.8112 164.86 81.0267V81.5076Z" fill="#D77728"/>
<path d="M165.269 81.6918C165.261 81.8105 165.226 81.9259 165.166 82.0289C165.106 82.1319 165.023 82.2196 164.923 82.2851L162.612 83.5999C162.42 83.7092 162.266 83.6217 162.266 83.4031V82.9222C162.273 82.8033 162.307 82.6876 162.368 82.5845C162.428 82.4814 162.512 82.3939 162.612 82.3289L164.91 81.0141C165.099 80.9048 165.256 80.9922 165.256 81.2108L165.269 81.6918Z" fill="#F09041"/>
<path d="M180.583 72.3888C180.375 71.2583 177.574 66.8831 177.574 66.8831C177.574 66.8831 174.231 63.7601 173.167 65.0093C172.103 66.2585 171.215 69.3439 172.48 71.0053C173.746 72.6667 177.58 75.2306 177.58 75.2306C177.58 75.2306 180.791 73.5224 180.583 72.3888Z" fill="#87969F"/>
<path d="M180.24 72.4511C180.079 71.5829 178.087 68.3319 177.3 67.1015C176.651 66.505 174.854 65.0529 173.837 65.0529C173.757 65.0457 173.676 65.0572 173.601 65.0865C173.527 65.1157 173.46 65.162 173.406 65.2215C172.373 66.4051 171.618 69.3281 172.732 70.7928C173.799 72.195 176.824 74.3092 177.583 74.8245C178.981 74.0625 180.344 72.9757 180.24 72.4511Z" fill="#E3E3E4"/>
<path d="M180.24 72.4511C180.079 71.5829 178.087 68.3319 177.3 67.1015C176.651 66.505 174.854 65.0529 173.837 65.0529C173.757 65.0457 173.676 65.0572 173.601 65.0865C173.527 65.1157 173.46 65.162 173.406 65.2215C172.373 66.4051 171.618 69.3281 172.732 70.7928C173.799 72.195 176.824 74.3092 177.583 74.8245C178.981 74.0625 180.344 72.9757 180.24 72.4511Z" fill="url(#paint11_linear)"/>
<path d="M145.413 48.4016C144.113 47.6521 139.186 45.1788 132.321 46.278L131.251 46.5435C131.61 46.634 132.041 46.7246 132.554 46.8027C135.28 47.218 142.007 48.5703 145.413 48.4016Z" fill="#C9C9C9"/>
<path d="M34.2452 105.554C34.2452 105.554 33.9588 105.998 33.6157 106.647C33.9588 107.506 34.6891 108.521 36.1717 109.458L36.8012 94.5397L36.4015 93.3779L34.8842 94.8801C34.8842 94.8801 34.1099 100.258 34.2358 101.975C34.3111 103.167 34.3142 104.362 34.2452 105.554Z" fill="#BD1E2D"/>
<path d="M36.3479 105.607L36.6187 99.199C35.8723 98.7816 35.1736 98.2853 34.5348 97.7188C34.3523 99.2802 34.1854 101.116 34.2484 101.991C34.2893 102.569 34.3019 103.159 34.3019 103.69C34.905 104.407 35.5918 105.051 36.3479 105.607Z" fill="#E3E3E4"/>
<path d="M82.9478 134.066C83.8166 132.068 84.0748 125.859 83.974 122.602C83.8733 119.345 82.0444 119.614 81.0623 119.382C80.0802 119.151 76.6963 118.674 76.6963 118.674L76.5578 133.442C76.5578 133.442 80.0645 134.691 80.8546 134.691C81.6447 134.691 82.9478 134.066 82.9478 134.066Z" fill="#BD1E2D"/>
<path d="M76.6586 122.871L76.5956 129.47C78.3301 129.982 79.8001 129.841 80.1149 129.388C80.4863 128.851 80.4863 126.737 80.2754 125.226C80.1149 124.073 77.7635 123.214 76.6586 122.871Z" fill="#E3E3E4"/>
<path d="M76.6586 122.824C80.3478 123.761 82.7212 123.654 83.9898 123.433C83.9898 123.145 83.9898 122.874 83.9898 122.618C83.8859 119.36 82.0602 119.629 81.0781 119.398C80.0959 119.167 76.7121 118.689 76.7121 118.689L76.6586 122.824Z" fill="#D41E2D"/>
<g style="mix-blend-mode:screen" opacity="0.1">
<path d="M83.974 122.605C83.8953 120.141 82.8314 119.698 81.8933 119.526C82.0318 124.598 81.4149 133.379 81.3236 134.635C81.8833 134.503 82.4277 134.313 82.9478 134.07C83.8166 132.071 84.0747 125.863 83.974 122.605Z" fill="white"/>
</g>
<path d="M9.75226 92.6285L8.99994 95.767L9.22028 97.6689L10.1646 115.407L10.1992 115.832L12.2736 133.276L12.409 134.423C12.409 134.423 12.3775 135.494 13.8003 134.629C15.2231 133.764 30.0901 123.967 30.0901 123.967C30.0901 123.967 32.6084 122.406 33.5685 121.069C34.5285 119.732 34.8276 118.599 34.9818 115.876C35.1361 113.152 35.4414 109.82 35.4414 109.82L35.0039 99.552C35.0039 99.552 34.3743 94.5553 33.3953 90.8703C32.4164 87.1852 30.6253 83.319 29.6432 82.3166C28.661 81.3141 28.3463 81.0674 26.4576 82.1386C24.5689 83.2097 9.75226 92.6285 9.75226 92.6285Z" fill="#FF3F39"/>
<path d="M63.9793 92.6939L62.6068 95.4171L62.3865 97.3159L60.2743 114.842L60.2397 115.266L60.1641 132.923L60.0288 134.07C60.0288 134.07 60.0855 135.097 58.6375 134.276C57.0195 133.354 41.5166 123.695 41.5166 123.695C41.5166 123.695 38.8001 121.962 37.8337 120.632C36.8673 119.301 36.7855 118.246 36.6281 115.523C36.4707 112.799 36.1811 109.47 36.1811 109.47L36.6187 99.199C36.6187 99.199 37.2482 94.2023 38.224 90.5173C39.1999 86.8322 40.9941 82.966 41.9794 81.9667C42.9646 80.9674 43.2731 80.7175 45.1618 81.7856C47.0504 82.8536 63.9793 92.6939 63.9793 92.6939Z" fill="#555E61"/>
<path d="M10.5077 92.6285L9.7554 95.767L9.9726 97.6689L10.9169 115.407L10.9516 115.832L13.0228 133.276L13.1582 134.423C13.1582 134.423 13.1298 135.494 14.5495 134.629C15.9691 133.764 30.8362 123.967 30.8362 123.967C30.8362 123.967 33.3544 122.406 34.2987 121.069C35.2431 119.732 35.5579 118.599 35.7089 115.876C35.86 113.152 36.1591 109.82 36.1591 109.82L35.7562 99.552C35.7562 99.552 35.1266 94.5553 34.1508 90.8703C33.175 87.1852 31.3807 83.319 30.3955 82.3166C29.4102 81.3141 29.1017 81.0674 27.2131 82.1386C25.3244 83.2097 10.5077 92.6285 10.5077 92.6285Z" fill="#555E61"/>
<path d="M60.2397 115.266L60.2743 114.842L61.1557 107.521L37.9596 120.803C39.0204 122.109 41.5072 123.695 41.5072 123.695C41.5072 123.695 57.0101 133.354 58.628 134.276C60.076 135.097 60.0193 134.069 60.0193 134.069L60.1547 132.923L60.2397 115.266Z" fill="#485154"/>
<g style="mix-blend-mode:screen" opacity="0.3">
<path d="M60.3089 114.445L47.8972 121.575C47.7656 121.642 47.621 121.68 47.4732 121.686C47.3255 121.693 47.1781 121.667 47.041 121.612L45.848 121.053C45.7983 121.029 45.7535 120.996 45.7158 120.956C45.6182 121.078 45.6623 121.219 45.848 121.306L47.041 121.865C47.178 121.92 47.3252 121.945 47.4728 121.939C47.6205 121.933 47.7651 121.896 47.8972 121.831L60.2901 114.704L60.3089 114.445Z" fill="white"/>
</g>
<g style="mix-blend-mode:multiply" opacity="0.3">
<path d="M60.6017 112.128L45.8291 120.619C45.6528 120.719 45.615 120.86 45.7126 120.969C45.7451 120.931 45.7847 120.899 45.8291 120.875L60.567 112.4L60.6017 112.128Z" fill="black"/>
</g>
<g style="mix-blend-mode:screen" opacity="0.3">
<path d="M60.2082 122.537L54.8003 125.635C54.6688 125.7 54.5246 125.737 54.3775 125.743C54.2304 125.749 54.0837 125.724 53.9473 125.669L52.7542 125.119C52.7039 125.098 52.6587 125.066 52.622 125.026C52.5213 125.144 52.5654 125.288 52.7542 125.375L53.9473 125.934C54.0838 125.989 54.2307 126.015 54.3779 126.008C54.5251 126.002 54.6692 125.964 54.8003 125.897L60.2082 122.774V122.537Z" fill="white"/>
</g>
<g style="mix-blend-mode:multiply" opacity="0.3">
<path d="M60.2177 120.372L52.7354 124.676C52.5622 124.776 52.5245 124.913 52.622 125.025C52.6524 124.986 52.691 124.953 52.7354 124.929L60.2177 120.638V120.372Z" fill="black"/>
</g>
<path d="M44.1828 121.319V109.492L57.0982 102.141V114.077L44.1828 121.319Z" fill="#A8AFB3"/>
<path d="M44.1828 109.492L57.0982 116.89V128.717L44.1828 121.319V109.492Z" fill="#B39372"/>
<path d="M60.1515 116.422L44.2206 109.427L62.6698 95.4983L61.8828 101.744L60.1515 116.422Z" fill="#D9B995"/>
<path d="M44.2206 109.427L57.0982 116.803V116.891L44.1828 109.492L44.2206 109.427Z" fill="#C0A07F"/>
<path d="M51.3881 115.71V113.577L50.2455 112.921V115.054L51.3881 115.71Z" fill="#E6CFB5"/>
<path d="M44.9918 120.906L48.1868 122.733V120.935L44.9918 119.104V120.906Z" fill="#E2E9ED"/>
<path d="M47.9539 122.374L47.8815 122.331V120.966L47.9539 121.006V122.374Z" fill="black"/>
<path d="M47.8311 122.299L47.7556 122.259V120.894L47.8311 120.935V122.299Z" fill="black"/>
<path d="M46.1596 121.344L46.0872 121.303V119.935L46.1596 119.976V121.344Z" fill="black"/>
<path d="M47.5383 122.134L47.4659 122.093V120.725L47.5383 120.769V122.134Z" fill="black"/>
<path d="M47.6831 122.218L47.6485 122.196V120.832L47.6831 120.85V122.218Z" fill="black"/>
<path d="M45.7032 121.084L45.6308 121.041V119.676L45.7032 119.717V121.084Z" fill="black"/>
<path d="M45.5773 121.01L45.5049 120.969V119.604L45.5773 119.645V121.01Z" fill="black"/>
<path d="M45.2877 119.479V120.844L45.2121 120.803V119.436L45.2877 119.479Z" fill="black"/>
<path d="M45.4325 120.928L45.3947 120.906V119.542L45.4325 119.564V120.928Z" fill="black"/>
<path d="M47.104 121.884L47.0316 121.843V120.479L47.104 120.519V121.884Z" fill="black"/>
<path d="M46.8112 121.719L46.7388 121.675V120.31L46.8112 120.351V121.719Z" fill="black"/>
<path d="M46.9592 121.8L46.9214 121.781V120.416L46.9592 120.435V121.8Z" fill="black"/>
<path d="M47.3432 122.021L47.3054 122.003V120.635L47.3432 120.657V122.021Z" fill="black"/>
<path d="M47.2424 121.965L47.2047 121.943V120.579L47.2424 120.597V121.965Z" fill="black"/>
<path d="M46.6444 121.622L46.6097 121.603V120.235L46.6444 120.257V121.622Z" fill="black"/>
<path d="M46.5216 121.553L46.4839 121.531V120.163L46.5216 120.185V121.553Z" fill="black"/>
<path d="M46.3831 121.472L46.3485 121.45V120.085L46.3831 120.107V121.472Z" fill="black"/>
<path d="M44.1828 108.886V97.0594L57.0982 89.708V101.644L44.1828 108.886Z" fill="#A8AFB3"/>
<path d="M44.1828 97.0598L57.0982 104.458V116.285L44.1828 108.886V97.0598Z" fill="#B39372"/>
<path d="M59.0486 103.774L44.2194 96.9943L57.097 89.6179L63.6129 93.3123L59.0486 103.774Z" fill="#D9B995"/>
<path d="M44.2206 96.9941L57.0982 104.37V104.458L44.1828 97.0597L44.2206 96.9941Z" fill="#C0A07F"/>
<path d="M51.3881 101.145L63.6142 93.3123L63.1608 93.0906L50.2455 100.489L51.3881 101.145Z" fill="#E6CFB5"/>
<path d="M51.3881 103.278V101.148L50.2455 100.489V102.622L51.3881 103.278Z" fill="#E6CFB5"/>
<path d="M44.9918 108.471L48.1868 110.301V108.502L44.9918 106.672V108.471Z" fill="#E2E9ED"/>
<path d="M47.9539 109.942L47.8815 109.898V108.533L47.9539 108.574V109.942Z" fill="black"/>
<path d="M47.8311 109.867L47.7556 109.826V108.462L47.8311 108.502V109.867Z" fill="black"/>
<path d="M46.1596 108.911L46.0872 108.871V107.503L46.1596 107.547V108.911Z" fill="black"/>
<path d="M47.5383 109.701L47.4659 109.661V108.293L47.5383 108.337V109.701Z" fill="black"/>
<path d="M47.6831 109.786L47.6485 109.764V108.399L47.6831 108.418V109.786Z" fill="black"/>
<path d="M45.7032 108.652L45.6308 108.608V107.244L45.7032 107.284V108.652Z" fill="black"/>
<path d="M45.5773 108.577L45.5049 108.537V107.172L45.5773 107.212V108.577Z" fill="black"/>
<path d="M45.2877 107.047V108.412L45.2121 108.371V107.003L45.2877 107.047Z" fill="black"/>
<path d="M45.4325 108.496L45.3947 108.474V107.109L45.4325 107.131V108.496Z" fill="black"/>
<path d="M47.104 109.452L47.0316 109.411V108.046L47.104 108.087V109.452Z" fill="black"/>
<path d="M46.8112 109.286L46.7388 109.242V107.878L46.8112 107.918V109.286Z" fill="black"/>
<path d="M46.9592 109.367L46.9214 109.349V107.984L46.9592 108.003V109.367Z" fill="black"/>
<path d="M47.3432 109.589L47.3054 109.57V108.202L47.3432 108.224V109.589Z" fill="black"/>
<path d="M47.2424 109.533L47.2047 109.511V108.146L47.2424 108.165V109.533Z" fill="black"/>
<path d="M46.6444 109.189L46.6097 109.171V107.803L46.6444 107.825V109.189Z" fill="black"/>
<path d="M46.5216 109.121L46.4839 109.099V107.731L46.5216 107.753V109.121Z" fill="black"/>
<path d="M46.3831 109.039L46.3485 109.021V107.653L46.3831 107.675V109.039Z" fill="black"/>
<path d="M45.9833 108.811L45.9456 108.79V107.425L45.9833 107.447V108.811Z" fill="black"/>
<path d="M45.8543 108.736L45.8196 108.715V107.35L45.8543 107.372V108.736Z" fill="black"/>
<path d="M58.6563 112.706V112.647L58.7161 112.612V112.675C58.7954 112.615 58.8944 112.587 58.9935 112.596C59.0927 112.605 59.1847 112.651 59.2513 112.725C59.2386 112.718 59.2246 112.715 59.2103 112.715C59.1961 112.715 59.1821 112.718 59.1694 112.725C59.1081 112.765 59.0652 112.828 59.0498 112.899C59.0341 112.846 58.9869 112.831 58.927 112.862C58.8665 112.903 58.8238 112.966 58.8074 113.037C58.7917 112.984 58.7445 112.968 58.6878 112.999C58.6256 113.04 58.5816 113.102 58.5651 113.174C58.5651 113.124 58.5021 113.109 58.4454 113.14C58.3832 113.18 58.3392 113.243 58.3227 113.315C58.3069 113.262 58.2597 113.246 58.2031 113.277C58.1699 113.298 58.1419 113.326 58.1212 113.359C58.2311 113.094 58.4172 112.867 58.6563 112.706Z" fill="black"/>
<path d="M58.713 114.233L58.6563 114.267V113.096L58.713 113.065V114.233Z" fill="black"/>
<path d="M58.8452 114.367C58.8836 114.341 58.9157 114.307 58.9391 114.267C58.9625 114.227 58.9766 114.182 58.9806 114.136L59.0372 114.102C59.033 114.168 59.0135 114.232 58.9802 114.29C58.9469 114.347 58.9007 114.396 58.8452 114.433C58.7413 114.492 58.6563 114.433 58.6563 114.32L58.713 114.289C58.713 114.374 58.7728 114.408 58.8452 114.367Z" fill="black"/>
<path d="M60.992 111.307V111.953C60.9841 112.092 60.9435 112.227 60.8735 112.347C60.8036 112.468 60.7062 112.57 60.5891 112.646C60.3656 112.774 60.1862 112.671 60.1862 112.415V111.769L60.992 111.307Z" fill="black"/>
<path d="M60.5387 113.333V112.759L60.63 112.703V113.28L60.7213 113.23L60.992 113.149V113.202L60.1862 113.665V113.608L60.4538 113.383L60.5387 113.333Z" fill="black"/>
<path d="M63.0475 111.863V112.031L61.8482 112.718V112.546L63.0475 111.863Z" fill="black"/>
<path d="M62.2448 112.247L62.0874 112.337V111.16L61.993 111.216L62.1661 110.635L62.3456 111.016L62.2448 111.069V112.247Z" fill="black"/>
<path style="mix-blend-mode:multiply" opacity="0.5" d="M63.9793 92.6939L62.6069 95.4171L62.3865 97.3159L60.2743 114.842L60.2397 115.266L60.1642 132.923L60.0288 134.07C60.0288 134.07 60.0855 135.097 58.6375 134.276C57.0195 133.354 41.5167 123.695 41.5167 123.695C41.5167 123.695 38.8001 121.962 37.8337 120.632C36.8674 119.301 36.7855 118.246 36.6281 115.523C36.4707 112.799 36.1812 109.47 36.1812 109.47L36.6187 99.199C36.6187 99.199 37.2483 94.2023 38.2241 90.5173C39.1999 86.8322 40.9941 82.966 41.9794 81.9667C42.9646 80.9674 43.2731 80.7175 45.1618 81.7856C47.0505 82.8536 63.9793 92.6939 63.9793 92.6939Z" fill="url(#paint12_linear)"/>
<g style="mix-blend-mode:screen" opacity="0.3">
<path d="M32.4982 98.9553C32.3723 97.8404 31.2391 93.4683 30.2129 90.0456C29.6211 88.1 28.8971 87.5941 28.2109 87.6097C28.6957 87.8783 29.1553 88.5466 29.5834 89.8895C30.6253 93.3247 31.7459 97.6968 31.8718 98.7992C31.9977 99.9016 32.7028 102.262 29.1269 104.533C26.2341 106.369 17.8893 112.028 12.7584 115.151V115.682C17.8264 112.687 26.7535 106.606 29.7565 104.695C33.3292 102.419 32.6084 100.07 32.4982 98.9553Z" fill="white"/>
</g>
<path d="M19.1327 125.428L35.2242 116.406V101.538L19.1327 110.697V125.428Z" fill="#C1C8CC"/>
<path d="M51.3157 125.428V110.697L35.2242 101.538V116.406L51.3157 125.428Z" fill="#A8AFB3"/>
<path d="M35.2242 134.644L51.3157 125.428L35.2242 116.406L19.1327 125.428L35.2242 134.644Z" fill="#DAE1E5"/>
<path d="M51.3157 110.698L35.2242 119.913V134.644L51.3157 125.428V110.698Z" fill="#B39372"/>
<path d="M19.1327 110.698V125.428L35.2242 134.644V119.913L19.1327 110.698Z" fill="#CCAC88"/>
<path d="M35.2242 119.807L51.2685 110.616L35.2242 101.426L19.183 110.616L35.2242 119.807Z" fill="#D9B995"/>
<path d="M51.2685 110.616L35.2242 119.807V119.913L51.3157 110.698L51.2685 110.616Z" fill="#C0A07F"/>
<path d="M19.1831 110.616L19.1327 110.698L35.2242 119.913V119.807L19.1831 110.616Z" fill="#E6C6A2"/>
<path d="M42.3382 115.785L26.2467 106.569L27.6726 105.751L43.7641 114.966L42.3382 115.785Z" fill="#E6CFB5"/>
<path d="M42.3382 118.442V115.788L43.7641 114.97V117.627L42.3382 118.442Z" fill="#E6CFB5"/>
<path d="M50.3084 124.913L46.3296 127.193V124.951L50.3084 122.671V124.913Z" fill="#E2E9ED"/>
<path d="M46.6161 126.743L46.7073 126.69V124.988L46.6161 125.041V126.743Z" fill="black"/>
<path d="M46.7734 126.653L46.8647 126.6V124.901L46.7734 124.951V126.653Z" fill="black"/>
<path d="M48.8541 125.459L48.9454 125.406V123.708L48.8541 123.757V125.459Z" fill="black"/>
<path d="M47.1386 126.446L47.2267 126.393V124.691L47.1386 124.744V126.446Z" fill="black"/>
<path d="M46.9529 126.549L47.0001 126.521V124.823L46.9529 124.847V126.549Z" fill="black"/>
<path d="M49.4207 125.135L49.5089 125.085V123.383L49.4207 123.436V125.135Z" fill="black"/>
<path d="M49.5781 125.047L49.6694 124.994V123.292L49.5781 123.345V125.047Z" fill="black"/>
<path d="M49.9401 123.136V124.838L50.0314 124.785V123.086L49.9401 123.136Z" fill="black"/>
<path d="M49.7607 124.941L49.8047 124.916V123.214L49.7607 123.242V124.941Z" fill="black"/>
<path d="M47.6768 126.134L47.7681 126.081V124.382L47.6768 124.432V126.134Z" fill="black"/>
<path d="M48.042 125.928L48.1333 125.875L48.1301 124.173L48.042 124.226V125.928Z" fill="black"/>
<path d="M47.8563 126.031L47.9035 126.006V124.304L47.8563 124.329V126.031Z" fill="black"/>
<path d="M47.3778 126.306L47.425 126.278V124.579L47.3778 124.604V126.306Z" fill="black"/>
<path d="M47.5006 126.234L47.5478 126.209V124.507L47.5006 124.532V126.234Z" fill="black"/>
<path d="M48.2466 125.809L48.2938 125.781V124.082L48.2466 124.107V125.809Z" fill="black"/>
<path d="M48.4008 125.719L48.4481 125.694V123.992L48.4008 124.017V125.719Z" fill="black"/>
<path d="M48.574 125.622L48.618 125.594V123.895L48.574 123.92V125.622Z" fill="black"/>
<path d="M49.0713 125.335L49.1185 125.31V123.604L49.0713 123.636V125.335Z" fill="black"/>
<path d="M49.2319 125.244L49.2791 125.216V123.517L49.2319 123.539V125.244Z" fill="black"/>
<path d="M33.2851 130.188V130.113L33.2127 130.072V130.147C33.1137 130.073 32.9903 130.038 32.8669 130.05C32.7434 130.062 32.6288 130.118 32.5454 130.21C32.5618 130.205 32.5791 130.204 32.596 130.206C32.6129 130.209 32.629 130.215 32.643 130.225C32.6824 130.248 32.7164 130.279 32.7425 130.316C32.7686 130.354 32.7862 130.396 32.7941 130.441C32.813 130.375 32.8759 130.356 32.9452 130.397C33.0227 130.447 33.0771 130.526 33.0963 130.616C33.1152 130.55 33.175 130.528 33.2474 130.572C33.3249 130.622 33.3793 130.701 33.3985 130.79C33.4174 130.722 33.4772 130.703 33.5496 130.744C33.6271 130.794 33.6815 130.872 33.7007 130.962C33.7195 130.897 33.7793 130.875 33.8517 130.918C33.8927 130.942 33.9272 130.975 33.9525 131.015C33.8178 130.68 33.5855 130.392 33.2851 130.188Z" fill="black"/>
<path d="M33.2159 132.093L33.2883 132.133L33.2852 130.672L33.2159 130.634V132.093Z" fill="black"/>
<path d="M33.0491 132.255C32.9996 132.224 32.9584 132.182 32.9288 132.132C32.8992 132.082 32.8822 132.026 32.8791 131.968L32.813 131.927C32.818 132.009 32.8416 132.088 32.8819 132.16C32.9223 132.231 32.9783 132.293 33.0459 132.339C33.1781 132.411 33.2852 132.339 33.2852 132.199L33.2159 132.158C33.2159 132.265 33.1435 132.308 33.0491 132.255Z" fill="black"/>
<path d="M30.3766 128.445V129.251C30.3863 129.423 30.4367 129.591 30.5236 129.741C30.6105 129.89 30.7316 130.018 30.8771 130.113C31.1572 130.272 31.3776 130.144 31.3776 129.825V129.02L30.3766 128.445Z" fill="black"/>
<path d="M30.94 130.968V130.253L30.8267 130.185V130.903L30.7134 130.84L30.3766 130.737V130.806L31.3776 131.381V131.312L31.0439 131.028L30.94 130.968Z" fill="black"/>
<path d="M27.8143 129.135V129.348L29.3064 130.2V129.988L27.8143 129.135Z" fill="black"/>
<path d="M28.8153 129.616L29.0104 129.729V128.264L29.1301 128.333L28.9129 127.608L28.6894 128.08L28.8153 128.152V129.616Z" fill="black"/>
<path d="M28.1354 129.229L28.3305 129.338V127.874L28.4501 127.942L28.2329 127.218L28.0126 127.692L28.1354 127.761V129.229Z" fill="black"/>
<path d="M34.2452 133.208L32.2558 132.068V129.226L34.2452 130.363V133.208ZM32.3093 132.024L34.198 133.101V130.406L32.3093 129.329V132.024Z" fill="black"/>
<path d="M31.8749 131.849L29.8824 130.706V127.864L31.8749 129.004V131.849ZM29.9359 130.666L31.8246 131.743V129.048L29.9359 127.967V130.666Z" fill="black"/>
<path d="M29.555 130.519L27.5719 129.382V126.54L29.5613 127.683L29.555 130.519ZM27.6191 129.335L29.5078 130.416V127.724L27.6191 126.643V129.335Z" fill="black"/>
<path d="M37.1632 182.646C38.5262 182.353 42.8104 182.081 44.3119 180.517L50.2927 182.459C50.2927 182.459 50.7019 184.348 50.2927 185.348C50.2927 185.348 48.7691 186.104 47.4596 186.104C46.1502 186.104 45.2027 185.954 43.7327 186.319C42.2626 186.684 39.927 186.856 38.1044 186.319C36.2818 185.782 35.1109 184.43 35.0825 183.783C35.0542 183.137 35.8034 182.943 37.1632 182.646Z" fill="#2E373A"/>
<path d="M35.0983 183.796C35.1423 184.452 36.307 185.782 38.117 186.319C39.927 186.856 42.2784 186.685 43.7453 186.319C45.2121 185.954 46.1691 186.104 47.4722 186.104C48.7754 186.104 50.3053 185.348 50.3053 185.348C50.3053 185.348 50.3273 185.289 50.3399 185.254C50.3399 185.323 50.3399 185.392 50.3116 185.457L50.3462 186.357C49.9789 186.576 49.578 186.734 49.1595 186.825C48.2403 187.081 45.5458 186.909 45.5458 186.909C45.5458 186.909 45.5458 186.656 45.5458 186.413C44.9193 186.423 44.2961 186.505 43.6886 186.656C42.2186 187.022 39.8798 187.197 38.0572 186.656C36.2346 186.116 35.0668 184.783 35.0385 184.121C35.0315 184.009 35.052 183.898 35.0983 183.796Z" fill="#000508"/>
<path d="M58.8641 178.346C58.8641 178.346 59.2513 180.739 58.8641 181.282C58.4769 181.825 56.903 182.397 55.8737 181.794C54.8444 181.191 54.7594 180.726 53.6702 179.742C52.6346 178.805 51.0544 177.937 50.6295 176.516C50.3147 175.426 50.5728 174.137 51.1174 173.881C51.6619 173.625 53.8182 174.262 54.9105 175.22C56.0028 176.179 58.8641 178.346 58.8641 178.346Z" fill="#2E373A"/>
<path d="M50.6263 176.516C51.0513 177.937 52.6315 178.815 53.6671 179.742C54.7594 180.726 54.8444 181.185 55.8705 181.794C56.8967 182.403 58.4738 181.822 58.8609 181.282C58.9262 181.173 58.969 181.051 58.9869 180.926C58.9935 181.093 58.9766 181.26 58.9365 181.422L58.8295 182.047C58.5787 182.311 58.2709 182.516 57.9292 182.646C57.5992 182.777 57.2439 182.831 56.8896 182.806C56.5354 182.781 56.1914 182.678 55.8831 182.503C55.2619 182.009 54.679 181.469 54.1393 180.888C54.1393 180.888 54.1393 180.71 54.1393 180.501C54.0008 180.361 53.8465 180.207 53.6576 180.039C52.622 179.102 51.0418 178.234 50.6169 176.816C50.5093 176.448 50.4625 176.065 50.4784 175.682C50.4929 175.965 50.5425 176.245 50.6263 176.516Z" fill="#000508"/>
<path d="M58.7854 137.333C59.6914 139.033 59.9517 140.999 59.5189 142.873C58.7854 145.996 57.8663 156.445 58.4171 158.328C58.968 160.212 59.3961 164.353 59.3363 167.938C59.2765 171.523 58.9869 179.973 58.9869 179.973C58.9869 179.973 58.7225 182.238 56.5757 180.679C54.4289 179.121 52.962 176.644 52.962 176.644C52.962 176.644 53.0376 166.045 52.1027 163.007C51.1678 159.968 48.1774 139.532 48.1774 139.532L58.7854 137.333Z" fill="#001B45"/>
<path d="M41.5638 160.187C41.0067 157.963 40.3331 143.551 42.4169 139.294H54.2904C54.2904 139.294 55.1056 142.617 53.0313 146.364C50.9569 150.112 51.2527 155.471 50.4564 158.147C49.66 160.824 50.3336 164.705 50.8215 166.963C51.3094 169.221 51.2527 173.29 50.9474 176.21C50.6421 179.13 50.6326 184.664 50.6326 184.664C50.6326 184.664 46.0337 185.635 42.782 181.853C42.782 181.853 44.5007 177.231 44.0128 173.4C43.5249 169.568 42.121 162.41 41.5638 160.187Z" fill="#05345E"/>
<path d="M48.1018 98.3746C48.1018 98.3746 43.3329 97.7031 42.4736 98.6868C41.6142 99.6706 45.1146 100.814 46.2855 101.329C47.4565 101.844 48.1018 98.3746 48.1018 98.3746Z" fill="#00A7F4"/>
<path d="M45.5143 99.5393C45.5143 99.5393 45.0044 101.204 45.2625 101.95C45.4895 102.512 45.5216 103.133 45.3538 103.715C45.209 104.249 45.7063 106.269 46.1974 107.418C46.6885 108.568 47.425 108.668 47.9255 108.805C48.426 108.942 49.15 108.917 49.1847 110.366C49.2193 111.816 48.6621 113.664 48.0326 114.095C48.0326 114.095 51.9358 116.528 55.5558 114.67C59.1757 112.812 57.945 110.426 57.945 110.426C57.945 110.426 55.625 109.892 55.7415 107.809C55.8255 106.524 56.1456 105.266 56.6858 104.096L52.8928 100.339L45.5143 99.5393Z" fill="#F2A983"/>
<path d="M47.9224 108.805C47.8028 108.771 47.6737 108.74 47.5352 108.696C48.0357 108.262 48.5803 107.628 48.5929 106.903C48.6139 106.158 48.5162 105.414 48.3033 104.698C49.0589 105.423 49.6567 106.293 50.0597 107.256C50.1284 107.469 50.2389 107.666 50.3847 107.837C50.5306 108.007 50.709 108.147 50.9096 108.249C51.2244 110.338 51.4637 113.358 50.705 115.142C49.77 114.926 48.8725 114.573 48.042 114.095C48.6716 113.664 49.2035 111.853 49.1752 110.382C49.1469 108.911 48.4197 108.949 47.9224 108.805Z" fill="#D88F69"/>
<path d="M53.5349 108.146C51.2842 108.771 50.4595 108.271 50.0723 107.25C49.6852 106.229 48.6999 104.895 48.1018 104.536C47.5037 104.177 47.1071 104.224 46.8427 104.046C46.6444 103.918 46.5625 103 46.5279 102.484C46.8562 102.995 47.2843 103.436 47.787 103.78C49.4805 104.889 51.7092 105.738 54.3281 105.226C56.1066 104.877 56.7551 104.105 56.7551 104.105C56.2242 105.251 55.9044 106.482 55.8108 107.74C55.044 107.826 54.2837 107.961 53.5349 108.146Z" fill="#995F35"/>
<path d="M45.2216 100.904C45.8049 102.054 46.6709 103.04 47.7398 103.771C49.4333 104.879 51.6619 105.729 54.2809 105.217C56.0594 104.867 56.7079 104.096 56.7079 104.096C56.7079 104.096 58.1369 100.161 56.242 97.9278C54.5201 95.9041 50.4784 95.3295 48.1553 96.054C45.3727 96.9222 45.2216 100.904 45.2216 100.904Z" fill="#00A7F4"/>
<path d="M49.0336 111.894C49.0336 111.894 52.4332 112.662 54.6146 111.619C56.796 110.576 56.7205 109.92 56.7205 109.92C56.7205 109.92 60.353 109.317 61.971 110.204C63.589 111.091 65.2825 114.305 62.1284 120.51C58.9743 126.715 58.4203 130.029 58.4643 131.271C58.5084 132.514 59.7235 138.935 59.7235 138.935C59.7235 138.935 57.9827 140.831 52.7291 141.796C47.4754 142.761 41.5607 141.084 41.5607 141.084C41.5607 141.084 42.9678 133.276 42.6845 131.143C42.4012 129.01 43.2605 115.354 43.2605 115.354L49.0336 111.894Z" fill="#00A7F4"/>
<path d="M41.5638 141.083C41.5638 141.083 42.9709 133.276 42.6876 131.143C42.5145 129.832 42.7726 124.117 43.0024 119.938L47.5037 118.87C47.5037 118.87 48.4953 122.305 47.2299 125.05C45.9645 127.795 44.8627 130.828 44.4944 134.151C44.2552 136.318 44.5165 139.619 44.7305 141.733C43.6636 141.575 42.6065 141.358 41.5638 141.083Z" fill="#0081AB"/>
<path d="M27.3956 134.657C28.8216 134.875 30.6253 134.657 31.173 134.847C31.7207 135.038 31.3272 131.724 31.3272 131.724L30.3514 131.431C30.3514 131.431 30.2507 130.085 29.9894 129.635C29.7281 129.185 28.9003 127.483 28.4155 127.627C27.9307 127.771 27.8332 128.099 28 128.686C28.1668 129.273 28.2864 129.935 27.5215 130.203L23.357 127.793C23.357 127.793 23.2248 128.764 23.527 129.129C23.8292 129.494 23.9488 129.61 23.9488 129.61C24.1029 129.768 24.244 129.938 24.3706 130.119C24.55 130.388 24.7704 131.056 25.0726 131.702C25.3747 132.349 26.3128 134.491 27.3956 134.657Z" fill="#F2A983"/>
<path d="M25.0726 131.712C24.7578 131.087 24.55 130.397 24.3706 130.128C24.3265 130.063 24.2762 129.997 24.2289 129.938C24.4398 130.091 24.6193 130.222 24.7263 130.288C25.1198 130.544 25.9004 131.327 26.0232 131.915C26.1058 132.361 26.2444 132.795 26.4355 133.207C26.5709 133.52 27.0651 134.094 27.2886 134.628C26.2435 134.347 25.3684 132.327 25.0726 131.712Z" fill="#D88F69"/>
<path d="M30.7197 130.896C30.7197 130.896 29.6495 133.348 30.7197 134.856C30.7197 134.856 38.2744 133.679 40.544 132.695C42.8135 131.712 42.313 132.311 43.7768 129.941C45.2405 127.571 47.7178 122.555 48.1459 118.733C48.574 114.91 44.6078 114.08 42.8576 115.641C41.1074 117.202 39.6626 122.418 39.6626 122.418L38.7183 127.689L30.7197 130.896Z" fill="#00A7F4"/>
<path d="M96.9933 105.264C97.3427 105.576 97.5095 106.201 97.5252 107.1L97.6039 111.547C96.8579 111.953 96.2441 111.506 96.2283 110.545L96.1843 107.984C96.1654 107.025 95.8443 106.707 95.2179 107.047C94.7915 107.282 94.451 107.645 94.2452 108.084C94.0057 108.552 93.8878 109.073 93.9021 109.598L93.9714 113.508L92.6241 114.239L92.5234 108.377C92.5232 108.031 92.6093 107.69 92.7741 107.385C92.9388 107.08 93.1771 106.82 93.4677 106.628L93.6912 106.507L93.7227 107.612C93.9074 107.129 94.1573 106.673 94.4656 106.257C94.7557 105.866 95.1271 105.541 95.5547 105.304C96.1559 104.973 96.6438 104.945 96.9933 105.264Z" fill="white"/>
<path d="M103.748 107.572L103.786 107.45C104.022 106.725 104.554 106.179 105.067 106.07C105.316 106.019 105.555 105.929 105.776 105.804C106.01 105.679 106.21 105.499 106.358 105.279C106.497 105.087 106.572 104.857 106.572 104.621C106.581 104.529 106.56 104.437 106.511 104.359C106.462 104.281 106.388 104.222 106.301 104.19C106.037 104.132 105.765 104.114 105.495 104.136C105.09 104.186 104.68 104.098 104.331 103.887C104.051 103.699 103.912 103.334 103.903 102.794C103.893 102.163 104.08 101.544 104.438 101.023C104.782 100.49 105.255 100.051 105.813 99.7457C106.357 99.4162 107.002 99.294 107.63 99.4021V99.4271C107.39 100.167 106.887 100.733 106.371 100.898C106.229 100.941 106.093 100.998 105.964 101.07C105.759 101.182 105.575 101.329 105.42 101.504C105.275 101.671 105.193 101.883 105.19 102.103C105.182 102.191 105.203 102.28 105.25 102.355C105.296 102.43 105.366 102.489 105.448 102.522C105.693 102.588 105.949 102.605 106.201 102.572C106.629 102.516 107.064 102.594 107.444 102.797C107.74 102.975 107.891 103.353 107.9 103.893C107.911 104.556 107.725 105.208 107.365 105.767C107.008 106.347 106.502 106.822 105.898 107.144C105.089 107.619 104.378 107.75 103.748 107.572Z" fill="white"/>
<path d="M112.669 96.7194C113.019 97.0317 113.185 97.6563 113.201 98.5369L113.28 103.003C112.534 103.409 111.92 102.962 111.904 102L111.857 99.4051C111.885 99.0801 111.796 98.7559 111.605 98.4901C111.445 98.3215 111.209 98.3339 110.881 98.512C110.439 98.7673 110.098 99.1635 109.912 99.6362C109.686 100.165 109.579 100.736 109.597 101.31L109.66 104.967L108.3 105.698L108.105 94.2429C108.848 93.8369 109.462 94.2835 109.481 95.2454L109.521 97.7437C109.521 98.1809 109.537 98.5369 109.521 98.8305C109.805 97.9646 110.397 97.2308 111.187 96.7662C111.848 96.4196 112.336 96.3915 112.669 96.7194Z" fill="white"/>
<path d="M117.803 93.9214C118.216 94.1556 118.433 94.7053 118.433 95.5484L118.493 99.1023C118.493 99.3904 118.422 99.6741 118.287 99.9288C118.151 100.184 117.955 100.402 117.715 100.564L117.363 100.757V99.6894C117.17 100.173 116.902 100.623 116.566 101.023C116.251 101.406 115.863 101.725 115.424 101.96C114.901 102.244 114.479 102.288 114.165 102.107C113.85 101.925 113.68 101.519 113.667 100.914C113.657 100.1 113.912 99.3048 114.394 98.6464C114.919 97.9054 115.614 97.2994 116.421 96.8788C116.617 96.7726 116.853 96.6602 117.114 96.5353V96.223C117.114 95.8701 116.998 95.6421 116.799 95.5609C116.658 95.5278 116.51 95.5252 116.368 95.5532C116.225 95.5812 116.09 95.6392 115.971 95.7233C115.317 96.1193 114.741 96.6304 114.272 97.2317C114.035 96.5759 114.36 95.5328 114.97 94.9957C115.337 94.6615 115.739 94.3683 116.17 94.1213C116.837 93.7496 117.404 93.6809 117.803 93.9214ZM116.765 99.3678C117.025 98.8328 117.155 98.2442 117.142 97.6502C116.926 97.7419 116.716 97.8461 116.513 97.9625C116.072 98.1892 115.686 98.509 115.383 98.8993C115.129 99.2225 114.992 99.6204 114.992 100.03C114.992 100.298 115.068 100.483 115.213 100.558C115.31 100.588 115.413 100.595 115.514 100.578C115.615 100.562 115.71 100.521 115.792 100.461C116.229 100.213 116.571 99.8288 116.765 99.3678Z" fill="white"/>
<path d="M97.9817 106.682C97.8557 107.292 97.8708 107.923 98.0257 108.527C98.1485 109.025 98.4396 109.466 98.8505 109.776C99.0376 109.916 99.252 110.017 99.4801 110.07C99.7082 110.124 99.945 110.13 100.176 110.089C100.72 109.978 101.219 109.711 101.611 109.32C102.129 108.828 102.561 108.254 102.889 107.622C103.247 106.97 103.498 106.266 103.632 105.535C103.756 104.925 103.74 104.294 103.585 103.69C103.476 103.285 103.266 102.913 102.974 102.609L102.911 102.731C102.556 103.396 102.39 104.144 102.433 104.895C102.441 104.979 102.441 105.064 102.433 105.148C102.409 105.775 102.229 106.387 101.91 106.928C101.654 107.464 101.262 107.924 100.774 108.265C100.611 108.387 100.414 108.455 100.211 108.459C100.007 108.463 99.8075 108.402 99.6406 108.287C99.4659 108.143 99.3293 107.959 99.2426 107.752C99.156 107.544 99.1218 107.318 99.1432 107.094C99.1696 106.467 99.3501 105.856 99.6689 105.314C99.9168 104.773 100.31 104.311 100.805 103.977L100.988 103.877C101.65 103.533 102.183 102.985 102.505 102.316C102.171 102.144 101.791 102.083 101.419 102.141C100.875 102.252 100.376 102.519 99.9837 102.909C99.4612 103.397 99.0287 103.972 98.7057 104.608C98.3651 105.261 98.1213 105.959 97.9817 106.682Z" fill="white"/>
</g>
<defs>
<linearGradient id="paint0_linear" x1="179.909" y1="78.4815" x2="165.003" y2="90.1353" gradientUnits="userSpaceOnUse">
<stop/>
<stop offset="1"/>
</linearGradient>
<linearGradient id="paint1_linear" x1="79.3783" y1="112.29" x2="184.496" y2="112.29" gradientUnits="userSpaceOnUse">
<stop stop-color="white"/>
<stop offset="0.13" stop-color="white"/>
<stop offset="0.42" stop-color="white"/>
<stop offset="0.67" stop-color="white"/>
<stop offset="0.87" stop-color="white"/>
<stop offset="1" stop-color="white"/>
</linearGradient>
<linearGradient id="paint2_linear" x1="7341.72" y1="7706.94" x2="10694.5" y2="7706.94" gradientUnits="userSpaceOnUse">
<stop/>
<stop offset="1"/>
</linearGradient>
<linearGradient id="paint3_linear" x1="148.227" y1="81.2984" x2="134.534" y2="101.234" gradientUnits="userSpaceOnUse">
<stop stop-color="white"/>
<stop offset="1" stop-color="white"/>
</linearGradient>
<linearGradient id="paint4_linear" x1="165.341" y1="100.295" x2="177.419" y2="100.295" gradientUnits="userSpaceOnUse">
<stop stop-color="#C2C1C1"/>
<stop offset="1" stop-color="#DFDEDD"/>
</linearGradient>
<linearGradient id="paint5_linear" x1="3421.34" y1="1527.16" x2="3552.99" y2="1527.16" gradientUnits="userSpaceOnUse">
<stop stop-color="#C2C1C1"/>
<stop offset="1" stop-color="#DFDEDD"/>
</linearGradient>
<linearGradient id="paint6_linear" x1="2222.66" y1="953.585" x2="2169.07" y2="1031.97" gradientUnits="userSpaceOnUse">
<stop stop-color="#C2C1C1"/>
<stop offset="1" stop-color="#DFDEDD"/>
</linearGradient>
<linearGradient id="paint7_linear" x1="3180.46" y1="4984.02" x2="3643.89" y2="4984.02" gradientUnits="userSpaceOnUse">
<stop stop-color="#C2C1C1"/>
<stop offset="1" stop-color="#DFDEDD"/>
</linearGradient>
<linearGradient id="paint8_linear" x1="1795.72" y1="2719.81" x2="1927.36" y2="2719.81" gradientUnits="userSpaceOnUse">
<stop stop-color="#C2C1C1"/>
<stop offset="1" stop-color="#DFDEDD"/>
</linearGradient>
<linearGradient id="paint9_linear" x1="1194.75" y1="1722.39" x2="1141.12" y2="1800.69" gradientUnits="userSpaceOnUse">
<stop stop-color="#C2C1C1"/>
<stop offset="1" stop-color="#DFDEDD"/>
</linearGradient>
<linearGradient id="paint10_linear" x1="829.024" y1="1102.67" x2="845.388" y2="1102.67" gradientUnits="userSpaceOnUse">
<stop stop-color="white"/>
<stop offset="1"/>
</linearGradient>
<linearGradient id="paint11_linear" x1="4353.01" y1="814.205" x2="4559.45" y2="814.205" gradientUnits="userSpaceOnUse">
<stop stop-color="white"/>
<stop offset="1" stop-color="white"/>
</linearGradient>
<linearGradient id="paint12_linear" x1="3663.84" y1="12552.3" x2="3663.84" y2="7720.57" gradientUnits="userSpaceOnUse">
<stop stop-color="white"/>
<stop offset="1"/>
</linearGradient>
<clipPath id="clip0">
<rect width="183" height="141" fill="white" transform="translate(8.99994 46)"/>
</clipPath>
</defs>
</svg>
