<svg width="445" height="324" viewBox="0 0 445 324" fill="none" xmlns="http://www.w3.org/2000/svg">
<path d="M444.117 312.2C444.117 305.9 348.617 300.7 230.917 300.7C113.217 300.7 17.7168 305.8 17.7168 312.2C17.7168 318.5 113.217 323.7 230.917 323.7C348.617 323.7 444.117 318.5 444.117 312.2Z" fill="#E6F8FF"/>
<path d="M44.3177 306.8C19.5177 306.7 -0.682339 286.3 0.017661 261.4C0.417661 247.9 5.41766 234.8 20.8177 227.7C61.2177 208.9 4.81767 86.7001 76.3177 74.5001C147.818 62.3001 144.918 -30.7999 228.618 38.8001C312.318 108.4 327.318 14.4001 381.818 63.2001C436.318 112 345.918 174.1 413.618 206C458.218 227.1 443.618 264.9 428.418 288.2C420.218 300.9 406.018 308.4 390.918 308.3L44.3177 306.8Z" fill="#CAEDFF"/>
<path opacity="0.44" d="M391.017 308.4C406.117 308.5 420.217 300.9 428.517 288.3C443.617 265 458.317 227.1 413.717 206.1C346.017 174.1 436.317 112.1 381.717 63.2C327.117 14.3 312.117 108.3 228.517 38.8C207.917 21.7 192.617 14.4 180.117 13.4C184.317 16.3 188.317 20.1 191.917 25.1C222.317 67.7 240.517 98.7 304.017 93.3C367.517 87.9 275.617 198.7 325.617 211.5C358.617 220 354.217 270.9 330.317 308.2L391.017 308.4Z" fill="#BAE6F7"/>
<path d="M170.216 93.1C170.216 93 162.616 92.6 155.716 89.1C148.816 85.9 142.716 79.8 146.116 73.8C151.316 65.5 136.616 58.5 141.616 53.9C146.716 49.8 147.716 53.2 145.816 44.1C144.216 34.8 150.616 32.6 154.216 24.2C158.316 15.8 167.816 22.1 165.416 33C163.616 44.3 167.916 32.6 171.116 37.7C173.816 41.9 163.116 60 167.816 58.3C172.216 56.3 176.016 59.1 175.416 64.1C173.816 75.9 170.016 92.8 170.216 93.1Z" fill="#7BC7FF"/>
<path d="M173.717 97.8C173.617 97.8 173.617 97.7999 173.617 97.7C167.717 90.7999 161.017 80.2 157.717 67.9V67.8H157.617C154.517 65.9 151.717 63.4 149.117 60.7C148.217 59.8 147.417 58.9 146.517 58C146.517 57.9 146.417 57.9 146.517 57.7999C146.517 57.6999 146.617 57.7 146.717 57.7C146.717 57.7 146.717 57.7 146.817 57.7C147.617 58.6 148.517 59.5 149.317 60.2999C151.717 62.7999 154.217 65.2 157.017 67C157.217 67.0999 157.317 67.2 157.517 67.3C157.517 67.1 157.417 66.8999 157.417 66.6999C156.117 61.4999 155.317 55.9999 155.117 50.0999C155.117 49.9999 155.117 50 155.117 49.9L155.017 49.7999C155.017 49.7999 155.017 49.7999 154.917 49.7999C152.717 46.4999 150.917 42.6999 149.717 38.5999C149.717 38.4999 149.717 38.5 149.717 38.4C149.817 38.3 149.817 38.3 149.917 38.4C149.917 38.4 149.917 38.4 150.017 38.5C151.117 42.2 152.717 45.6999 154.617 48.7999C154.717 49 154.917 49.2 155.017 49.4C155.017 49.1 155.017 48.8999 155.017 48.5999C154.917 42.9999 155.517 37.0999 156.717 30.7999C156.717 30.6999 156.717 30.7 156.817 30.7C156.817 30.7 156.917 30.7 157.017 30.7C157.117 30.7 157.117 30.8 157.117 30.9C155.417 39.5 155.017 47.4 155.717 54.7999C155.717 55 155.717 55.0999 155.717 55.2999C155.817 55.1999 155.917 55.1 156.017 55C159.617 51.6 162.717 47.7999 165.217 43.7999C165.217 43.7999 165.317 43.6999 165.317 43.7999C165.417 43.7999 165.417 43.9 165.417 43.9V44C162.717 48.2 159.617 51.9999 155.817 55.5999L155.717 55.7V55.7999C156.117 59.9 156.817 63.7 157.817 67.3C157.817 67.3 157.817 67.3 157.817 67.4C157.817 67.4 157.917 67.5 157.817 67.5C157.817 67.5 157.817 67.5 157.817 67.5999C157.817 67.5999 157.817 67.5999 157.817 67.6999C158.717 70.8999 159.817 74.0999 161.317 77.5999C161.417 77.7999 161.517 77.9999 161.517 78.1999C161.617 77.9999 161.617 77.7999 161.717 77.5999C163.217 72 165.517 66.8999 168.317 62.2999C168.317 62.1999 168.417 62.2 168.517 62.2C168.617 62.2 168.617 62.2999 168.617 62.2999V62.4C165.617 67.2 163.317 72.5999 161.817 78.5V78.5999V78.6999C164.617 84.6999 168.217 90.9 173.717 97.3C173.717 97.4 173.717 97.3999 173.717 97.3999C173.817 97.7999 173.717 97.8 173.717 97.8Z" fill="#379CF7"/>
<path d="M152.317 121.5C152.217 121.5 153.017 113.3 150.817 105.3C148.817 97.4 143.817 89.8 137.317 92.6C128.317 96.9 123.817 80 118.517 84.6C113.617 89.4 116.817 91.1 108.117 87.6C99.2172 84.4 95.9172 91 87.1172 93.6C78.1172 96.7 82.7172 107.9 93.9172 107.1C105.317 106.9 93.1172 109.7 97.6172 114C101.317 117.6 121.017 108.8 118.517 113.7C115.817 118.1 117.917 122.6 123.017 122.8C134.817 122.7 152.117 121.3 152.317 121.5Z" fill="#7BC7FF"/>
<path d="M156.416 126C156.416 125.9 156.416 125.9 156.416 125.9C150.616 118.5 141.316 109.6 129.616 104.1H129.516V104C128.216 100.4 126.116 97 123.916 93.8C123.216 92.7 122.416 91.7 121.716 90.6C121.716 90.5 121.616 90.5 121.616 90.5C121.516 90.5 121.416 90.6 121.516 90.7C121.516 90.7 121.516 90.7 121.516 90.8C122.216 91.8 123.016 92.9 123.716 93.9C125.716 96.9 127.716 100 129.016 103.3C129.116 103.5 129.116 103.7 129.216 103.8C129.016 103.7 128.816 103.6 128.716 103.6C123.816 101.4 118.516 99.6 112.716 98.5C112.616 98.5 112.616 98.5 112.516 98.5V98.3V98.2C109.616 95.3 106.116 92.8 102.316 90.9C102.216 90.9 102.216 90.9 102.116 90.9C102.016 91 102.016 91 102.016 91.1C102.016 91.1 102.016 91.2 102.116 91.2C105.616 93 108.816 95.2 111.516 97.8C111.716 98 111.916 98.2 112.116 98.3C111.816 98.3 111.616 98.2 111.316 98.2C105.716 97.3 99.8164 96.9 93.4164 97.3C93.3164 97.3 93.3164 97.3 93.3164 97.3C93.3164 97.3 93.3164 97.4 93.3164 97.5C93.3164 97.6 93.4164 97.6 93.5164 97.6C102.316 97.1 110.116 98 117.316 99.8C117.516 99.8 117.616 99.9 117.816 99.9C117.716 100 117.616 100.1 117.416 100.2C113.416 103.5 109.216 106.3 104.816 108.4C104.716 108.4 104.716 108.5 104.716 108.5C104.716 108.6 104.816 108.6 104.816 108.6H104.916C109.516 106.4 113.816 103.5 117.916 100L118.016 99.9H118.116C122.116 101 125.716 102.4 129.116 104C129.116 104 129.116 104 129.216 104C129.216 104 129.216 104 129.216 104.1L129.316 104.2C129.316 104.2 129.316 104.2 129.416 104.2C129.416 104.2 129.416 104.2 129.516 104.2C132.516 105.6 135.516 107.4 138.716 109.5C138.916 109.6 139.016 109.7 139.216 109.9C139.016 109.9 138.816 110 138.616 110C132.816 110.8 127.316 112.4 122.416 114.7C122.316 114.7 122.316 114.8 122.316 114.9C122.316 115 122.316 115 122.416 115C122.416 115 122.416 115 122.516 115C127.716 112.6 133.516 110.9 139.616 110.2H139.716C139.716 110.2 139.716 110.2 139.816 110.3C145.316 114.2 150.716 119.1 156.216 126C156.216 126.1 156.316 126.1 156.316 126C156.416 126.2 156.416 126.1 156.416 126Z" fill="#379CF7"/>
<path d="M147.218 105.3C147.118 105.3 152.718 97.8 155.018 88.6C157.518 79.6 156.718 69 148.318 67.5C136.518 65.7 141.618 46.5 133.318 47.5C125.518 49 127.818 52.7 120.818 43.6C113.418 34.7 106.218 38.9 95.6181 35.7C84.5181 32.9 82.8181 46.7 94.9181 53.2C106.918 60.4 92.6181 55.2 94.8181 62.3C96.6181 68.2 122.018 72.5 116.718 75.7C111.418 78.2 110.918 84 116.118 87.4C128.318 95 147.218 104.9 147.218 105.3Z" fill="#379CF7"/>
<path d="M148.918 112.3C148.918 112.3 149.018 112.2 148.918 112.1C147.118 101.1 142.618 86.3999 133.718 73.5C133.718 73.5 133.718 73.4 133.618 73.4V73.3C134.318 69 134.118 64.3 133.718 59.7C133.618 58.2 133.418 56.7 133.218 55.2C133.218 55.1 133.218 55.0999 133.118 55.0999C133.018 55.0999 132.918 55.1 132.818 55.2V55.2999C133.018 56.7999 133.118 58.3 133.318 59.7C133.718 63.9 133.918 68.1999 133.418 72.1999C133.418 72.3999 133.318 72.6 133.318 72.9C133.218 72.7 133.018 72.5 132.918 72.3C129.118 66.9 124.618 61.8 119.218 56.9L119.118 56.7999V56.5999V56.5C117.718 51.8 115.618 47.0999 112.818 42.7999C112.718 42.6999 112.718 42.7 112.618 42.7C112.518 42.7 112.418 42.8 112.418 42.9V43C115.018 47 117.018 51.2999 118.418 55.5999C118.518 55.8999 118.618 56.2 118.718 56.5C118.518 56.3 118.218 56.1 118.018 55.9C112.818 51.4 106.918 47.2 100.018 43.4C99.9184 43.4 99.9184 43.4 99.9184 43.4C99.8184 43.4 99.8184 43.4999 99.8184 43.5999C99.8184 43.6999 99.8184 43.7999 99.9184 43.7999C109.318 48.9999 117.018 55 123.318 61.5C123.418 61.6 123.618 61.8 123.718 61.9C123.518 61.9 123.318 61.9 123.218 62C117.118 62.6 111.218 62.5 105.418 61.7999C105.318 61.7999 105.318 61.8 105.318 61.9C105.318 62 105.318 62.0999 105.318 62.0999C105.318 62.1999 105.418 62.2 105.418 62.2C111.418 63 117.618 63.1 123.918 62.4C124.018 62.4 124.018 62.4 124.118 62.4L124.218 62.5C127.718 66.2 130.718 69.8999 133.318 73.5999C133.318 73.5999 133.318 73.5999 133.318 73.6999V73.8C133.318 73.9 133.318 73.9 133.418 74C133.418 74 133.418 74 133.518 74C133.518 74 133.518 73.9999 133.518 74.0999C135.818 77.3999 137.918 81.1 140.018 85.3C140.118 85.5 140.218 85.7999 140.318 86C140.118 85.9 139.818 85.7999 139.618 85.6999C133.218 82.6999 126.518 80.6999 120.118 79.6999C120.018 79.6999 119.918 79.7 119.918 79.8C119.918 79.9 119.918 79.9 119.918 80C119.918 80 119.918 80.0999 120.018 80.0999C126.818 81.0999 133.818 83.2999 140.518 86.5H140.618V86.5999C144.018 94 146.918 102.3 148.618 112.5C148.618 112.6 148.718 112.6 148.718 112.6C148.718 112.4 148.818 112.4 148.918 112.3Z" fill="#2481C6"/>
<path d="M251.518 77H156.718C147.518 77 140.018 84.5 140.018 93.7V291.8C140.018 301 147.518 308.5 156.718 308.5H251.518C260.718 308.5 268.218 301 268.218 291.8V93.6C268.218 84.4 260.718 77 251.518 77Z" fill="#0A4D7A"/>
<path d="M251.518 77H156.718C147.518 77 140.018 84.5 140.018 93.7V291.8C140.018 297.1 142.518 301.9 146.418 304.9L266.818 87C264.318 81.1 258.418 77 251.518 77Z" fill="#083954"/>
<path d="M222.617 85.1H187.417C186.417 85.1 185.617 85.9 185.617 86.9C185.617 87.9 186.417 88.7 187.417 88.7H222.617C223.617 88.7 224.417 87.9 224.417 86.9C224.417 85.9 223.617 85.1 222.617 85.1Z" fill="white"/>
<path d="M251.517 83.2H237.617L232.617 92.7C230.717 96.2 227.017 98.5 223.017 98.5H185.117C181.117 98.5 177.417 96.3 175.517 92.7L170.517 83.2H156.617C150.917 83.2 146.217 87.9 146.217 93.6V291.7C146.217 297.4 150.917 302.1 156.617 302.1H251.417C257.117 302.1 261.817 297.4 261.817 291.7V93.6C262.017 87.9 257.317 83.2 251.517 83.2Z" fill="#CAEDFF"/>
<path opacity="0.85" d="M262.017 93.6V95.8L149.517 299.3C147.517 297.4 146.217 294.7 146.217 291.7V93.6C146.217 87.9 150.917 83.2 156.617 83.2H170.517L175.517 92.7C177.417 96.2 181.117 98.5 185.117 98.5H223.017C227.017 98.5 230.717 96.3 232.617 92.7L237.617 83.2H251.517C257.317 83.2 262.017 87.9 262.017 93.6Z" fill="#BAE6F7"/>
<path d="M308.418 113H164.318C160.318 113 157.018 116.3 157.018 120.3V156C157.018 160 160.318 163.3 164.318 163.3H308.418C312.418 163.3 315.718 160 315.718 156V120.3C315.718 116.3 312.418 113 308.418 113Z" fill="white"/>
<path d="M227.119 129.8L228.119 132.8C228.219 133 228.419 133.2 228.619 133.2H231.819C232.319 133.2 232.519 133.8 232.119 134.1L229.519 136C229.319 136.1 229.219 136.4 229.319 136.6L230.319 139.6C230.519 140.1 229.919 140.5 229.519 140.2L226.919 138.3C226.719 138.2 226.519 138.2 226.319 138.3L223.719 140.2C223.319 140.5 222.819 140.1 222.919 139.6L223.919 136.6C224.019 136.4 223.919 136.2 223.719 136L221.119 134.1C220.719 133.8 220.919 133.2 221.419 133.2H224.619C224.819 133.2 225.019 133.1 225.119 132.8L226.119 129.8C226.319 129.3 227.019 129.3 227.119 129.8Z" fill="#FBBE42"/>
<path d="M244.719 129.8L245.719 132.8C245.819 133 246.019 133.2 246.219 133.2H249.419C249.919 133.2 250.119 133.8 249.719 134.1L247.119 136C246.919 136.1 246.819 136.4 246.919 136.6L247.919 139.6C248.119 140.1 247.519 140.5 247.119 140.2L244.519 138.3C244.319 138.2 244.119 138.2 243.919 138.3L241.319 140.2C240.919 140.5 240.419 140.1 240.519 139.6L241.519 136.6C241.619 136.4 241.519 136.2 241.319 136L238.719 134.1C238.319 133.8 238.519 133.2 239.019 133.2H242.219C242.419 133.2 242.619 133.1 242.719 132.8L243.719 129.8C243.919 129.3 244.519 129.3 244.719 129.8Z" fill="#FBBE42"/>
<path d="M262.219 129.8L263.219 132.8C263.319 133 263.519 133.2 263.719 133.2H266.919C267.419 133.2 267.619 133.8 267.219 134.1L264.619 136C264.419 136.1 264.319 136.4 264.419 136.6L265.419 139.6C265.619 140.1 265.019 140.5 264.619 140.2L262.019 138.3C261.819 138.2 261.619 138.2 261.419 138.3L258.819 140.2C258.419 140.5 257.919 140.1 258.019 139.6L259.019 136.6C259.119 136.4 259.019 136.2 258.819 136L256.219 134.1C255.819 133.8 256.019 133.2 256.519 133.2H259.719C259.919 133.2 260.119 133.1 260.219 132.8L261.219 129.8C261.419 129.3 262.119 129.3 262.219 129.8Z" fill="#FBBE42"/>
<path d="M279.818 129.8L280.818 132.8C280.918 133 281.118 133.2 281.318 133.2H284.518C285.018 133.2 285.218 133.8 284.818 134.1L282.218 136C282.018 136.1 281.918 136.4 282.018 136.6L283.018 139.6C283.218 140.1 282.618 140.5 282.218 140.2L279.618 138.3C279.418 138.2 279.218 138.2 279.018 138.3L276.418 140.2C276.018 140.5 275.518 140.1 275.618 139.6L276.618 136.6C276.718 136.4 276.618 136.2 276.418 136L273.818 134.1C273.418 133.8 273.618 133.2 274.118 133.2H277.318C277.518 133.2 277.718 133.1 277.818 132.8L278.818 129.8C279.018 129.3 279.618 129.3 279.818 129.8Z" fill="#FBBE42"/>
<path d="M297.318 129.8L298.318 132.8C298.418 133 298.618 133.2 298.818 133.2H302.018C302.518 133.2 302.718 133.8 302.318 134.1L299.718 136C299.518 136.1 299.418 136.4 299.518 136.6L300.518 139.6C300.718 140.1 300.118 140.5 299.718 140.2L297.118 138.3C296.918 138.2 296.718 138.2 296.518 138.3L293.918 140.2C293.518 140.5 293.018 140.1 293.118 139.6L294.118 136.6C294.218 136.4 294.118 136.2 293.918 136L291.318 134.1C290.918 133.8 291.118 133.2 291.618 133.2H294.818C295.018 133.2 295.218 133.1 295.318 132.8L296.318 129.8C296.518 129.3 297.218 129.3 297.318 129.8Z" fill="#B1D7DD"/>
<path d="M272.02 145.1H221.02V146.5H272.02V145.1Z" fill="#B1D7DD"/>
<path d="M272.02 121.8H221.02V124.5H272.02V121.8Z" fill="#379CF7"/>
<path d="M272.02 150.5H221.02V151.9H272.02V150.5Z" fill="#B1D7DD"/>
<path d="M244.32 155.5H221.02V156.9H244.32V155.5Z" fill="#B1D7DD"/>
<path d="M194.166 158.755C205.136 156.189 211.948 145.215 209.382 134.245C206.815 123.275 195.842 116.462 184.871 119.029C173.901 121.595 167.088 132.569 169.655 143.539C172.221 154.509 183.195 161.322 194.166 158.755Z" fill="#7BC7FF"/>
<path d="M199.617 151.2L197.817 132.4C197.817 127.6 195.917 123.1 190.817 124.5C188.517 123.3 185.617 123.6 183.717 125.4C181.717 127.3 180.617 130.2 180.617 133.1L178.617 151.4L199.617 151.2Z" fill="#0A4D7A"/>
<path d="M192.518 141.6V145.7C192.518 145.7 191.918 148.9 189.218 149.5C186.418 148.8 185.918 145.7 185.918 145.7V141.6H192.518Z" fill="#FFA683"/>
<path d="M192.518 141V143.6C191.518 144.1 190.418 144.4 189.218 144.4C188.018 144.4 186.918 144.1 185.918 143.6V141H192.518Z" fill="#E57C5C"/>
<path d="M195.917 132.6C192.917 132.5 190.917 130.2 190.917 130.2C189.117 131.8 182.617 132.6 182.617 132.6V135.2C182.617 137.1 183.417 139.5 184.717 141.3C185.817 142.8 187.517 143.6 189.317 143.6C191.117 143.6 192.817 142.8 193.917 141.3C195.217 139.5 196.017 137.2 196.017 135.2L195.917 132.6Z" fill="#FFA683"/>
<path d="M205.518 152.6C202.918 148.2 192.018 145.7 192.018 145.7L189.118 146.8L186.218 145.7C186.218 145.7 175.318 148.2 172.718 152.6L169.518 176.5L174.518 176.4L177.418 156.4C177.418 156.4 179.318 162.9 179.218 166.6C179.118 170.4 177.918 176.6 177.918 176.6H188.918H189.518H200.318C200.318 176.6 199.118 170.4 199.018 166.6C198.918 162.8 200.818 156.4 200.818 156.4L203.718 176.4L208.718 176.5L205.518 152.6Z" fill="#FFA683"/>
<path d="M198.018 147.6C197.118 150.1 194.918 153.9 189.218 154.2C183.518 153.9 181.218 150.1 180.418 147.6C178.718 148.2 177.018 149.1 175.518 150L177.518 156.5C177.518 156.5 177.618 156.6 177.618 156.7V156.5C177.618 156.5 177.718 156.8 177.818 157.3C177.818 157.4 177.818 157.4 177.918 157.5C178.418 159.4 179.518 163.9 179.418 166.7C179.318 170.5 178.118 176.7 178.118 176.7H188.918H189.518H200.318C200.318 176.7 199.118 170.5 199.018 166.7C198.918 162.9 200.818 156.5 200.818 156.5V156.8C200.818 156.7 200.918 156.6 200.918 156.5L202.918 150C201.418 149 199.718 148.2 198.018 147.6Z" fill="#379CF7"/>
<path d="M330.117 171.4C329.417 171.4 328.717 171 328.417 170.3L318.017 149.5C318.017 149.5 316.817 144.5 315.317 144.5L315.217 151.1L322.317 176.6C322.717 178.2 323.517 179.6 325.717 179.6C330.017 179.7 338.017 181.1 343.117 182.4C348.417 183.8 352.817 182.4 352.817 182.4C353.117 170.8 334.617 171.5 330.117 171.4Z" fill="#FFA683"/>
<path d="M345.818 168.8V174.7H336.818V171.4C336.818 171.4 330.918 170 331.218 164.7C331.518 159.4 334.018 156.8 335.318 156.4C336.718 156 343.218 158.6 343.318 158.9C343.418 159.2 344.118 164.9 344.118 164.9L345.818 168.8Z" fill="#FFA683"/>
<path d="M336.319 160.7C336.319 160.7 337.919 158.5 339.419 159.6C340.919 160.7 340.119 162.9 338.319 164C338.319 164 340.219 170.3 343.919 169.9C347.619 169.5 352.419 165.6 351.919 159.5C351.519 153.4 343.519 149.1 339.219 150C334.819 150.9 330.519 155.7 336.319 160.7Z" fill="#004CBA"/>
<path d="M351.918 155.7C351.918 155.7 356.718 149.6 361.618 154.9C366.418 160.2 369.518 166.2 371.718 167.3C373.918 168.4 369.818 171.2 364.518 169.5C359.118 167.8 352.218 161.3 351.918 155.7Z" fill="#004CBA"/>
<path d="M336.818 174.7V171.4C336.818 171.4 340.518 171.5 342.018 170.1C342.018 170.1 340.918 172.6 338.518 172.7V174.7H336.818Z" fill="#ED7D5A"/>
<path d="M332.817 221.9C332.817 221.9 334.917 254.9 337.617 261.8C340.317 268.7 357.317 300.2 357.317 300.2L366.117 298.3L353.517 260.7C353.417 263 351.717 252.2 354.817 241.2C356.617 234.8 355.917 227.7 353.217 222.1L331.217 221.9" fill="#006CBC"/>
<path d="M353.217 220.5C353.217 220.5 352.417 229.7 341.817 240.1C331.117 250.6 327.017 257.7 327.017 257.7L325.417 303.2H316.617C316.617 303.2 311.417 255.2 311.617 253.5C311.717 251.8 326.317 220.5 328.017 217.8C329.717 215 353.217 220.5 353.217 220.5Z" fill="#379CF7"/>
<path d="M346.717 174.2C346.717 174.2 356.117 174.9 352.717 186.6C348.917 199.4 353.317 219.8 354.117 222L351.317 223.1C342.817 226.3 333.517 226.1 325.117 222.5C325.117 222.5 332.617 206 327.317 197.3C323.917 191.7 324.917 186.1 328.917 181.2C331.517 178 334.817 174.6 336.117 174.6L346.717 174.2Z" fill="#57BFFF"/>
<path d="M316.617 303.2H318.517L314.717 253.9C315.317 252.9 317.517 248.9 324.017 236.4C326.317 232 327.917 227.9 329.017 223.9C327.817 223.6 326.617 223.2 325.517 222.7C320.817 232.3 311.717 252.2 311.617 253.6C311.417 255.2 316.617 303.2 316.617 303.2Z" fill="#2481C6"/>
<path d="M334.818 194.2C330.418 195.8 333.718 207.5 328.918 223.8C327.618 223.4 326.318 223 325.018 222.4C325.018 222.4 332.518 205.9 327.218 197.2C325.518 194.5 324.918 191.7 325.218 189L343.918 184.8C343.918 184.9 340.818 192 334.818 194.2Z" fill="#30AFEF"/>
<path d="M294.617 165C294.617 165 311.717 193.4 316.717 195C318.917 195.7 332.717 190.3 338.617 189.4C341.817 188.9 344.017 186 343.717 182.8C343.417 179.2 339.217 176.1 335.617 176.8L316.417 182.8C316.417 182.8 300.117 166 296.517 162.1C296.517 162.1 295.017 157.4 292.817 157.4C290.717 157.4 293.717 163.3 294.617 165Z" fill="#FFA683"/>
<path d="M308.217 306.1C310.617 305.3 315.217 304.4 316.817 303.2H325.317C325.217 304.9 325.217 306.6 325.117 307.7C325.117 308.4 324.517 309 323.717 309H306.717C305.617 309 305.217 307.5 306.117 307C306.717 306.7 307.417 306.4 308.217 306.1Z" fill="#004CBA"/>
<path d="M349.818 305C352.018 303.7 356.218 301.7 357.518 300.2L365.818 298.3C366.118 300 366.418 301.6 366.718 302.7C366.918 303.4 366.418 304.1 365.718 304.3L349.218 308.1C348.118 308.4 347.418 307 348.218 306.2C348.518 305.9 349.118 305.4 349.818 305Z" fill="#004CBA"/>
<path opacity="0.58" d="M316.618 185.3C320.618 185.4 338.618 178.7 343.418 181.9C342.518 178.7 338.818 176.1 335.518 176.9L316.318 182.9C316.318 182.9 300.018 166.1 296.418 162.2C296.418 162.2 312.318 185.2 316.618 185.3Z" fill="#ED7D5A"/>
<path d="M351.718 155.3L350.418 155.5C350.418 155.5 352.018 158.1 351.718 160.6L353.318 160.3C353.418 160.3 353.218 155.9 351.718 155.3Z" fill="white"/>
<path d="M239.119 174.9H95.0187C91.0187 174.9 87.7188 178.2 87.7188 182.2V217.9C87.7188 221.9 91.0187 225.2 95.0187 225.2H239.119C243.119 225.2 246.419 221.9 246.419 217.9V182.2C246.419 178.2 243.119 174.9 239.119 174.9Z" fill="white"/>
<path d="M157.82 191.7L158.82 194.7C158.92 194.9 159.12 195.1 159.32 195.1H162.52C163.02 195.1 163.22 195.7 162.82 196L160.22 197.9C160.02 198 159.92 198.3 160.02 198.5L161.02 201.5C161.22 202 160.62 202.4 160.22 202.1L157.62 200.2C157.42 200.1 157.22 200.1 157.02 200.2L154.42 202.1C154.02 202.4 153.52 202 153.62 201.5L154.62 198.5C154.72 198.3 154.62 198.1 154.42 197.9L151.92 196C151.52 195.7 151.72 195.1 152.22 195.1H155.42C155.62 195.1 155.82 195 155.92 194.7L156.92 191.7C157.02 191.2 157.62 191.2 157.82 191.7Z" fill="#FBBE42"/>
<path d="M175.32 191.7L176.32 194.7C176.42 194.9 176.62 195.1 176.82 195.1H180.02C180.52 195.1 180.72 195.7 180.32 196L177.72 197.9C177.52 198 177.42 198.3 177.52 198.5L178.52 201.5C178.72 202 178.12 202.4 177.72 202.1L175.12 200.2C174.92 200.1 174.72 200.1 174.52 200.2L171.92 202.1C171.52 202.4 171.02 202 171.12 201.5L172.12 198.5C172.22 198.3 172.12 198.1 171.92 197.9L169.32 196C168.92 195.7 169.12 195.1 169.62 195.1H172.82C173.02 195.1 173.22 195 173.32 194.7L174.32 191.7C174.52 191.2 175.22 191.2 175.32 191.7Z" fill="#FBBE42"/>
<path d="M192.92 191.7L193.92 194.7C194.02 194.9 194.22 195.1 194.42 195.1H197.62C198.12 195.1 198.32 195.7 197.92 196L195.32 197.9C195.12 198 195.02 198.3 195.12 198.5L196.12 201.5C196.32 202 195.72 202.4 195.32 202.1L192.72 200.2C192.52 200.1 192.32 200.1 192.12 200.2L189.52 202.1C189.12 202.4 188.62 202 188.72 201.5L189.72 198.5C189.82 198.3 189.72 198.1 189.52 197.9L186.92 196C186.52 195.7 186.72 195.1 187.22 195.1H190.42C190.62 195.1 190.82 195 190.92 194.7L191.92 191.7C192.12 191.2 192.72 191.2 192.92 191.7Z" fill="#FBBE42"/>
<path d="M210.42 191.7L211.42 194.7C211.52 194.9 211.72 195.1 211.92 195.1H215.12C215.62 195.1 215.82 195.7 215.42 196L212.82 197.9C212.62 198 212.52 198.3 212.62 198.5L213.62 201.5C213.82 202 213.22 202.4 212.82 202.1L210.22 200.2C210.02 200.1 209.82 200.1 209.62 200.2L207.02 202.1C206.62 202.4 206.12 202 206.22 201.5L207.22 198.5C207.32 198.3 207.22 198.1 207.02 197.9L204.42 196C204.02 195.7 204.22 195.1 204.72 195.1H207.92C208.12 195.1 208.32 195 208.42 194.7L209.42 191.7C209.62 191.2 210.32 191.2 210.42 191.7Z" fill="#FBBE42"/>
<path d="M228.019 191.7L229.019 194.7C229.119 194.9 229.319 195.1 229.519 195.1H232.719C233.219 195.1 233.419 195.7 233.019 196L230.419 197.9C230.219 198 230.119 198.3 230.219 198.5L231.219 201.5C231.419 202 230.819 202.4 230.419 202.1L227.819 200.2C227.619 200.1 227.419 200.1 227.219 200.2L224.619 202.1C224.219 202.4 223.719 202 223.819 201.5L224.819 198.5C224.919 198.3 224.819 198.1 224.619 197.9L222.019 196C221.619 195.7 221.819 195.1 222.319 195.1H225.519C225.719 195.1 225.919 195 226.019 194.7L227.019 191.7C227.219 191.2 227.819 191.2 228.019 191.7Z" fill="#FBBE42"/>
<path d="M202.721 207H151.721V208.4H202.721V207Z" fill="#B1D7DD"/>
<path d="M202.721 183.7H151.721V186.4H202.721V183.7Z" fill="#0A4D7A"/>
<path d="M202.721 212.4H151.721V213.8H202.721V212.4Z" fill="#B1D7DD"/>
<path d="M175.021 217.4H151.721V218.8H175.021V217.4Z" fill="#B1D7DD"/>
<path d="M134.638 215.191C142.604 207.225 142.604 194.308 134.638 186.342C126.671 178.375 113.755 178.375 105.788 186.342C97.8215 194.308 97.8215 207.225 105.788 215.191C113.755 223.158 126.671 223.158 134.638 215.191Z" fill="#7BC7FF"/>
<path d="M76.7188 278.6C76.7188 278.6 111.219 249.7 117.319 259.9C123.419 270.1 114.419 303.2 114.419 303.2L76.7188 278.6Z" fill="#0A85E0"/>
<path d="M94.8184 290.4L114.418 303.2C114.418 303.2 122.618 272.9 118.018 261.3C120.118 276.6 103.918 286.3 94.8184 290.4Z" fill="#006CBC"/>
<path d="M94.418 275.5C94.418 275.5 115.818 292.7 117.518 298.9C120.318 308.9 103.618 307.8 96.318 307.8C89.118 307.8 42.918 306.5 42.918 306.5L43.318 299.4L85.818 297.4C85.818 297.4 62.218 293.9 63.118 280.3C64.118 266.7 94.418 275.5 94.418 275.5Z" fill="#379CF7"/>
<path d="M116.318 304.5C112.418 308.4 101.718 307.7 96.318 307.7C89.118 307.7 42.918 306.4 42.918 306.4L43.318 299.3L85.818 297.3C85.818 297.3 102.718 305.5 115.918 304.5C116.118 304.6 116.218 304.6 116.318 304.5Z" fill="#0A85E0"/>
<path d="M43.2181 306.4C43.2181 306.4 41.3181 310.6 42.8181 313.4C44.2181 316.2 38.0181 314.2 37.0181 308.6C36.0181 303.1 36.5181 296.5 43.4181 299.4L43.2181 306.4Z" fill="#004CBA"/>
<path d="M67.2188 233C67.2188 233 82.7188 188.1 83.2188 188.3C85.0187 189.1 88.2188 189.8 88.2188 189.8L81.8187 239.1L67.2188 233Z" fill="#0A4D7A"/>
<path d="M83.2188 227.9C79.7188 226.2 75.3187 224.3 70.1187 224.6C68.0187 230.7 67.2188 233 67.2188 233L81.8187 239.1L83.2188 227.9Z" fill="#083954"/>
<path d="M86.6172 221.1C85.5172 225.3 80.9172 224.5 80.9172 224.5V228.5H73.1172V223.1C77.2172 224 81.6172 221.1 79.6172 219.6C77.7172 218.2 77.2172 215.7 78.2172 214.6C79.2172 213.4 81.7172 214.3 81.7172 214.3C84.0172 214.2 85.7172 213.9 86.7172 213.4C87.2172 215.9 87.2172 218.8 86.6172 221.1Z" fill="#FFA683"/>
<path d="M81.8178 214.3C81.8178 214.3 79.4178 213.4 78.3178 214.6C77.3178 215.8 77.7178 218.2 79.7178 219.6C81.6178 221 77.2178 224 73.1178 223.1C69.0178 222.2 66.7178 213.7 70.2178 208.1C73.4178 203 84.7178 200.8 87.0178 206.1C89.3178 211.5 89.4178 214.1 81.8178 214.3Z" fill="#004CBA"/>
<path d="M80.9187 228.6V224.6C80.9187 224.6 78.3188 224.2 77.2188 223.7C77.2188 223.7 78.6187 225.4 79.5187 225.7V228.6H80.9187Z" fill="#E57C5C"/>
<path d="M83.0184 228.7C83.0184 228.7 70.0184 224.2 66.4184 234.3C62.8184 244.4 69.0184 268.6 62.3184 277C72.5184 281.8 84.2184 282.2 94.8184 278.2L96.2184 277.7C96.2184 277.7 91.7184 246.8 91.5184 247.9C91.3184 248.8 106.818 253.7 109.918 252.1C113.018 250.4 131.718 229.3 131.718 229.3L125.418 228.4L108.618 239.5C108.518 239.3 87.3184 228.9 83.0184 228.7Z" fill="#0A4D7A"/>
<path d="M131.718 229.1C131.718 229.1 138.218 226.3 138.618 225H129.318C128.318 225 127.418 225.5 126.818 226.2L125.418 228.1L131.718 229.1Z" fill="#FFA683"/>
<path d="M96.2176 277.6C96.2176 277.6 92.2176 250.5 91.5176 247.9C91.6176 248 91.7176 248.1 91.9176 248.2C91.6176 247.9 91.4176 247.8 91.4176 247.8C91.4176 247.8 81.5176 245.4 78.0176 241.2C78.0176 241.2 81.4176 248.1 85.7176 249.7C89.6176 251.1 88.2176 271.9 91.2176 279.3C92.4176 279 93.6176 278.6 94.8176 278.1L96.2176 277.6Z" fill="#083954"/>
<path d="M83.6172 188.5C83.6172 188.5 85.2172 182.6 87.7172 182.2V189.9L83.6172 188.5Z" fill="#FFA683"/>
<path d="M142.517 230.6L141.217 218.8C141.017 216.9 139.917 215.2 138.317 214.1L134.217 211.4V211.5V211.4L130.817 210.1L127.417 208.8L124.617 207.7L123.417 207.2L120.317 208.8L117.217 207.2L116.117 207.6L113.417 208.6L109.817 210L106.317 211.3V211.4L102.317 214C100.717 215.1 99.6172 216.8 99.4172 218.7L98.1172 230.5H106.417V240.3H134.217V230.5H142.517V230.6Z" fill="#FBBE42"/>
<path d="M120.318 186.7C115.718 186.7 112.018 190.4 112.018 195V199H128.618V195C128.718 190.4 124.918 186.7 120.318 186.7Z" fill="#0A4D7A"/>
<path d="M123.617 205.2V208.1C123.617 208.1 123.617 208.2 123.517 208.3C123.117 210 121.617 213.3 120.217 213.3C118.817 213.3 117.417 209.9 117.117 208.1V208V205.1H123.617V205.2Z" fill="#FFA683"/>
<path d="M123.618 204.6V207.2C122.618 207.7 121.518 208 120.318 208C119.118 208 118.018 207.7 117.018 207.2V204.6H123.618Z" fill="#E57C5C"/>
<path d="M116.018 199C116.018 197.9 115.118 197 114.018 197C112.918 197 112.018 197.9 112.018 199C112.018 200.1 112.918 201 114.018 201C115.118 201 116.018 200.1 116.018 199Z" fill="#FFA683"/>
<path d="M128.617 199C128.617 197.9 127.717 197 126.617 197C125.517 197 124.617 197.9 124.617 199C124.617 200.1 125.517 201 126.617 201C127.717 201 128.617 200.1 128.617 199Z" fill="#FFA683"/>
<path d="M127.018 195.6C124.618 194.3 123.718 193.2 123.718 193.2H117.218C116.718 194.7 113.918 195.6 113.918 195.6L113.818 198.9C113.818 200.8 114.618 203.1 115.918 204.9C116.418 205.6 117.118 206.2 117.918 206.6C118.718 207 119.518 207.2 120.418 207.2C122.218 207.2 123.918 206.4 124.918 204.9C126.218 203.1 127.018 200.8 127.018 198.9V195.6Z" fill="#FFA683"/>
<path d="M308.418 236.4H164.318C160.318 236.4 157.018 239.7 157.018 243.7V279.4C157.018 283.4 160.318 286.7 164.318 286.7H308.418C312.418 286.7 315.718 283.4 315.718 279.4V243.7C315.718 239.7 312.418 236.4 308.418 236.4Z" fill="white"/>
<path d="M227.117 253.2L228.117 256.2C228.217 256.4 228.417 256.6 228.617 256.6H231.817C232.317 256.6 232.517 257.2 232.117 257.5L229.517 259.4C229.317 259.5 229.217 259.8 229.317 260L230.317 263C230.517 263.5 229.917 263.9 229.517 263.6L226.917 261.7C226.717 261.6 226.517 261.6 226.317 261.7L223.717 263.6C223.317 263.9 222.817 263.5 222.917 263L223.917 260C224.017 259.8 223.917 259.6 223.717 259.4L221.117 257.5C220.717 257.2 220.917 256.6 221.417 256.6H224.617C224.817 256.6 225.017 256.5 225.117 256.2L226.117 253.2C226.317 252.7 227.017 252.7 227.117 253.2Z" fill="#FBBE42"/>
<path d="M244.717 253.2L245.717 256.2C245.817 256.4 246.017 256.6 246.217 256.6H249.417C249.917 256.6 250.117 257.2 249.717 257.5L247.117 259.4C246.917 259.5 246.817 259.8 246.917 260L247.917 263C248.117 263.5 247.517 263.9 247.117 263.6L244.517 261.7C244.317 261.6 244.117 261.6 243.917 261.7L241.317 263.6C240.917 263.9 240.417 263.5 240.517 263L241.517 260C241.617 259.8 241.517 259.6 241.317 259.4L238.717 257.5C238.317 257.2 238.517 256.6 239.017 256.6H242.217C242.417 256.6 242.617 256.5 242.717 256.2L243.717 253.2C243.917 252.7 244.517 252.7 244.717 253.2Z" fill="#FBBE42"/>
<path d="M262.217 253.2L263.217 256.2C263.317 256.4 263.517 256.6 263.717 256.6H266.917C267.417 256.6 267.617 257.2 267.217 257.5L264.617 259.4C264.417 259.5 264.317 259.8 264.417 260L265.417 263C265.617 263.5 265.017 263.9 264.617 263.6L262.017 261.7C261.817 261.6 261.617 261.6 261.417 261.7L258.817 263.6C258.417 263.9 257.917 263.5 258.017 263L259.017 260C259.117 259.8 259.017 259.6 258.817 259.4L256.217 257.5C255.817 257.2 256.017 256.6 256.517 256.6H259.717C259.917 256.6 260.117 256.5 260.217 256.2L261.217 253.2C261.417 252.7 262.117 252.7 262.217 253.2Z" fill="#B1D7DD"/>
<path d="M261.716 252.9C261.516 252.9 261.416 253 261.316 253.2L260.316 256.2C260.216 256.4 260.016 256.6 259.816 256.6H256.616C256.116 256.6 255.916 257.2 256.316 257.5L258.916 259.4C259.116 259.5 259.216 259.8 259.116 260L258.116 263C257.916 263.5 258.516 263.9 258.916 263.6L261.516 261.7C261.616 261.7 261.616 261.6 261.716 261.6V252.9Z" fill="#FBBE42"/>
<path d="M279.816 253.2L280.816 256.2C280.916 256.4 281.116 256.6 281.316 256.6H284.516C285.016 256.6 285.216 257.2 284.816 257.5L282.216 259.4C282.016 259.5 281.916 259.8 282.016 260L283.016 263C283.216 263.5 282.616 263.9 282.216 263.6L279.616 261.7C279.416 261.6 279.216 261.6 279.016 261.7L276.416 263.6C276.016 263.9 275.516 263.5 275.616 263L276.616 260C276.716 259.8 276.616 259.6 276.416 259.4L273.816 257.5C273.416 257.2 273.616 256.6 274.116 256.6H277.316C277.516 256.6 277.716 256.5 277.816 256.2L278.816 253.2C279.016 252.7 279.616 252.7 279.816 253.2Z" fill="#B1D7DD"/>
<path d="M297.316 253.2L298.316 256.2C298.416 256.4 298.616 256.6 298.816 256.6H302.016C302.516 256.6 302.716 257.2 302.316 257.5L299.716 259.4C299.516 259.5 299.416 259.8 299.516 260L300.516 263C300.716 263.5 300.116 263.9 299.716 263.6L297.116 261.7C296.916 261.6 296.716 261.6 296.516 261.7L293.916 263.6C293.516 263.9 293.016 263.5 293.116 263L294.116 260C294.216 259.8 294.116 259.6 293.916 259.4L291.316 257.5C290.916 257.2 291.116 256.6 291.616 256.6H294.816C295.016 256.6 295.216 256.5 295.316 256.2L296.316 253.2C296.516 252.7 297.216 252.7 297.316 253.2Z" fill="#B1D7DD"/>
<path d="M272.018 268.5H221.018V269.9H272.018V268.5Z" fill="#B1D7DD"/>
<path d="M272.018 245.2H221.018V247.9H272.018V245.2Z" fill="#FF5A5A"/>
<path d="M272.018 273.9H221.018V275.3H272.018V273.9Z" fill="#B1D7DD"/>
<path d="M244.318 278.9H221.018V280.3H244.318V278.9Z" fill="#B1D7DD"/>
<path d="M206.877 272.363C212.76 262.755 209.741 250.196 200.133 244.313C190.524 238.43 177.966 241.449 172.083 251.057C166.199 260.665 169.219 273.224 178.827 279.107C188.435 284.991 200.993 281.971 206.877 272.363Z" fill="#7BC7FF"/>
<path d="M181.318 257.4C181.318 257.4 180.118 252.8 181.918 250.7C183.718 248.7 187.318 246.5 190.218 247.6C190.218 247.6 192.518 246.2 194.618 247.4C196.718 248.6 199.718 249.6 200.018 248.2C200.018 248.2 200.218 253.5 197.818 254.4L196.818 258.5H181.518L181.318 257.4Z" fill="#0A4D7A"/>
<path d="M205.518 275.4C202.918 271 192.018 268.5 192.018 268.5L189.118 269.6L186.218 268.5C186.218 268.5 175.318 271 172.718 275.4L169.518 299.3L174.518 299.2L177.418 279.2C177.418 279.2 179.318 285.7 179.218 289.4C179.118 293.2 177.918 299.4 177.918 299.4H188.918H189.518H200.318C200.318 299.4 199.118 293.2 199.018 289.4C198.918 285.6 200.818 279.2 200.818 279.2L203.718 299.2L208.718 299.3L205.518 275.4Z" fill="#0A4D7A"/>
<path d="M192.518 264.4V268.5C192.518 268.5 191.918 271.7 189.218 272.3C186.418 271.6 185.918 268.5 185.918 268.5V264.4H192.518Z" fill="#FFA683"/>
<path d="M192.518 263.8V266.4C191.518 266.9 190.418 267.2 189.218 267.2C188.018 267.2 186.918 266.9 185.918 266.4V263.8H192.518Z" fill="#E57C5C"/>
<path d="M195.917 255.5C192.917 255.4 190.917 253.1 190.917 253.1C189.117 254.7 182.617 255.5 182.617 255.5V258.1C182.617 260 183.417 262.4 184.717 264.2C185.817 265.7 187.517 266.5 189.317 266.5C191.117 266.5 192.817 265.7 193.917 264.2C195.217 262.4 196.017 260.1 196.017 258.1L195.917 255.5Z" fill="#FFA683"/>
<path d="M184.317 258.3C184.317 259.3 183.517 260.1 182.517 260.1C181.517 260.1 180.717 259.3 180.717 258.3C180.717 257.3 181.517 256.5 182.517 256.5C183.517 256.5 184.317 257.3 184.317 258.3Z" fill="#FFA683"/>
<path d="M197.817 258.3C197.817 259.3 197.017 260.1 196.017 260.1C195.017 260.1 194.217 259.3 194.217 258.3C194.217 257.3 195.017 256.5 196.017 256.5C197.017 256.5 197.817 257.3 197.817 258.3Z" fill="#FFA683"/>
<path d="M281.718 59.8C298.232 59.8 311.618 46.4133 311.618 29.9C311.618 13.3867 298.232 0 281.718 0C265.205 0 251.818 13.3867 251.818 29.9C251.818 46.4133 265.205 59.8 281.718 59.8Z" fill="#FBBE42"/>
<path d="M281.718 0C281.518 0 281.318 0 281.218 0C289.418 4.9 295.018 13.8 295.018 24.1C294.918 39.5 282.418 52 266.918 52C264.918 52 262.918 51.8 261.018 51.4C266.418 56.5 273.618 59.7 281.618 59.7C298.118 59.7 311.518 46.3 311.518 29.8C311.518 13.4 298.118 0 281.718 0Z" fill="#F9A643"/>
<path d="M71.6177 124.3C77.9177 124.3 78.2177 115 71.9177 114.6C71.8177 114.6 71.8177 114.6 71.7177 114.6V114.5C71.7177 107.8 66.3177 102.5 59.7177 102.5C57.6177 102.5 55.6177 103 53.9177 104C51.8177 100.1 47.6177 97.4 42.9177 97.4C36.0177 97.4 30.4177 103 30.4177 109.9C30.4177 110.3 30.4177 110.6 30.5177 111C29.2177 110.6 27.9177 110.4 26.5177 110.4C21.5177 110.4 17.0177 113 14.4177 116.8C12.2177 120 14.6177 124.3 18.5177 124.3H71.6177Z" fill="#7BC7FF"/>
<path d="M263.618 48.3C271.818 48.3 272.218 36.1 264.118 35.6C264.018 35.6 263.918 35.6 263.918 35.6C263.918 35.5 263.918 35.5 263.918 35.4C263.918 26.7 256.818 19.6 248.118 19.6C245.418 19.6 242.818 20.3 240.518 21.5C237.718 16.4 232.318 12.9 226.118 12.9C217.118 12.9 209.718 20.2 209.718 29.3C209.718 29.8 209.718 30.3 209.818 30.7C208.118 30.2 206.418 30 204.518 30C197.918 30 192.118 33.4 188.718 38.4C185.918 42.6 189.018 48.2 194.018 48.2H263.618V48.3Z" fill="#7BC7FF"/>
<path d="M362.218 77C354.718 77 354.318 65.8 361.818 65.3C361.918 65.3 361.918 65.3 362.018 65.3V65.2C362.018 57.2 368.518 50.7 376.518 50.7C379.018 50.7 381.418 51.3 383.518 52.5C386.018 47.8 391.018 44.6 396.818 44.6C405.118 44.6 411.918 51.3 411.918 59.7C411.918 60.1 411.918 60.6 411.818 61C413.318 60.6 415.018 60.3 416.718 60.3C422.818 60.3 428.118 63.4 431.318 68.1C433.918 72 431.018 77.1 426.418 77.1H362.218V77Z" fill="#7BC7FF"/>
<path d="M388.717 286.7L390.217 286.2C390.417 283.6 389.317 279.3 383.517 272.7C372.817 260.4 363.517 242.9 365.917 236C365.917 236 355.417 251.8 362.517 262.3C369.117 272.1 386.817 274.2 388.717 286.7Z" fill="#379CF7"/>
<path d="M389.318 286.5L390.218 286.2C390.418 283.6 389.318 279.3 383.518 272.7C372.818 260.4 363.518 242.9 365.918 236C365.918 236 360.318 250.5 367.618 260.3C374.618 269.9 387.418 271.9 389.318 286.5Z" fill="#006CBC"/>
<path d="M393.018 276.2C392.418 278.8 391.718 280.8 391.018 282.3L391.718 282.4C394.918 278.2 400.018 269.7 401.218 259.1C402.918 243.5 405.118 224 405.118 224C405.118 224 389.218 237.1 392.818 255.3C394.518 264.4 394.118 271.3 393.018 276.2Z" fill="#379CF7"/>
<path d="M398.617 247.9C397.717 260.9 395.317 275.2 392.117 280.9C392.617 280.5 393.117 280.2 393.617 279.8C396.617 275.1 400.317 267.9 401.217 259.2C402.917 243.6 405.117 224.1 405.117 224.1C405.117 224.1 399.717 230.9 398.617 247.9Z" fill="#006CBC"/>
<path d="M395.817 282.2C394.417 283.7 393.217 284.8 392.217 285.6L392.617 285.9C396.317 284.2 402.917 280.4 407.617 273.7C414.517 263.8 423.217 251.5 423.217 251.5C423.217 251.5 407.717 254.5 403.317 268C401.317 274.9 398.417 279.3 395.817 282.2Z" fill="#379CF7"/>
<path d="M410.118 265.2C404.718 273.6 397.818 282.4 393.518 285C393.918 284.9 394.418 284.9 394.918 284.8C398.718 282.8 403.818 279.3 407.718 273.7C414.618 263.8 423.318 251.5 423.318 251.5C423.318 251.5 417.118 254.2 410.118 265.2Z" fill="#006CBC"/>
<path d="M389.917 281.8C390.917 284.6 391.617 286.5 392.017 287.8L392.617 287.7C391.717 282.8 390.117 274.4 388.617 268.9C386.417 260.8 388.117 256.8 386.417 242.7C384.617 228.5 376.217 209.8 376.217 209.8C376.217 209.8 370.817 229.5 378.517 248.4C386.317 267.1 385.617 269.5 389.917 281.8Z" fill="#379CF7"/>
<path d="M392.017 287.7H392.117L392.217 285.7C391.317 280.7 389.917 273.6 388.617 268.8C386.417 260.7 388.117 256.7 386.417 242.6C384.617 228.4 376.217 209.7 376.217 209.7C376.217 209.7 378.817 237.8 382.717 250.1C386.217 261.5 391.317 284.4 392.017 287.7Z" fill="#006CBC"/>
<path d="M376.017 284.9L379.417 305C379.717 306.9 381.317 308.2 383.217 308.2H402.917C404.817 308.2 406.417 306.8 406.717 305L410.117 284.9C410.417 283.1 409.017 281.4 407.217 281.4H378.917C377.117 281.4 375.717 283.1 376.017 284.9Z" fill="white"/>
<path d="M410.118 283.9C410.118 283.7 410.018 283.5 409.918 283.3C409.818 283.1 409.818 283 409.718 282.8C409.718 282.8 409.718 282.7 409.618 282.7C409.518 282.6 409.418 282.4 409.318 282.3L409.218 282.2C409.118 282.1 409.018 282 408.918 281.9C408.818 281.8 408.718 281.8 408.718 281.8C408.618 281.7 408.518 281.7 408.418 281.6C408.318 281.5 408.218 281.5 408.018 281.5C407.918 281.5 407.918 281.4 407.818 281.4C407.618 281.4 407.418 281.3 407.218 281.3H398.318H378.918C377.218 281.3 375.918 282.7 375.918 284.4H401.118C401.118 284.5 401.118 284.7 401.118 284.8L397.718 304.9C397.418 306.8 395.818 308.1 393.918 308.1H402.818C404.718 308.1 406.318 306.7 406.618 304.9L410.018 284.8C410.218 284.5 410.218 284.2 410.118 283.9Z" fill="#CAEDFF"/>
<path d="M116.518 138.2H72.1184C68.9184 138.2 66.3184 140.8 66.3184 144V167.3V178.8L77.6184 168.6C78.5184 167.8 79.7184 167.3 80.9184 167.3H116.418C118.618 167.3 120.418 165.5 120.418 163.3V142.1C120.418 140 118.718 138.2 116.518 138.2Z" fill="#0A4D7A"/>
<path d="M101.319 147.1C99.4188 145.2 96.3188 145.2 94.4188 147.1L93.7188 147.8L93.0188 147.1C92.0188 146.1 90.8188 145.7 89.5188 145.7C88.2188 145.7 87.0187 146.2 86.0187 147.1C84.1187 149 84.1187 152.1 86.0187 154L86.7188 154.7L93.6187 161.6L100.519 154.7L101.219 154C102.219 153 102.619 151.8 102.619 150.5C102.719 149.4 102.219 148.1 101.319 147.1Z" fill="#FF5A5A"/>
<path d="M380.318 91.2H335.718C332.518 91.2 329.918 93.8 329.918 97V120.5V132L341.218 121.7C342.118 120.9 343.318 120.4 344.618 120.4H380.318C382.518 120.4 384.318 118.6 384.318 116.4V95.1C384.318 92.9 382.518 91.2 380.318 91.2Z" fill="#0A4D7A"/>
<path d="M369.817 107.1C370.617 107 371.217 106.4 371.217 105.6C371.217 104.7 370.517 104.1 369.717 104.1H366.717C366.517 104.1 366.417 104.1 366.217 104.1C364.617 104.1 364.517 104.1 363.817 104C362.517 103.7 364.017 102.1 363.217 99.2C362.417 96.3 359.517 96.4 359.717 97.8C359.817 99.2 360.017 102.4 359.217 103.5C357.517 105.8 354.717 106.1 354.717 106.1L354.617 113.9H357.717C359.117 115.5 361.717 115.8 362.017 115.8H365.417H365.617C365.617 115.8 365.617 115.8 365.717 115.8H367.817C368.617 115.8 369.217 115.2 369.217 114.4C369.217 114 369.017 113.6 368.717 113.3C369.517 113.2 370.117 112.6 370.117 111.8C370.117 111.1 369.717 110.5 369.017 110.3H369.217C370.117 110.3 370.717 109.6 370.717 108.8C370.817 107.9 370.417 107.3 369.817 107.1Z" fill="#379CF7"/>
<path d="M346.018 115.1H351.318L351.418 103.7H346.118L346.018 115.1Z" fill="#379CF7"/>
<path d="M278.418 218.4C277.218 216.2 276.518 213.7 276.518 211C276.618 203.1 283.318 196.7 291.218 196.8C299.418 196.9 305.918 203.8 305.418 212.2C305.018 219.4 299.218 225.2 292.018 225.7C289.818 225.9 287.818 225.5 285.918 224.8C285.018 224.5 284.018 224.4 283.118 224.7L277.518 226.4L278.918 221.9C279.118 220.7 279.018 219.5 278.418 218.4Z" fill="#0A4D7A"/>
<path d="M290.617 203.4L289.117 208C289.017 208.3 288.817 208.4 288.517 208.4H283.717C283.117 208.4 282.817 209.2 283.317 209.5L287.217 212.3C287.417 212.5 287.517 212.7 287.417 213L285.917 217.6C285.717 218.2 286.417 218.7 286.917 218.3L290.817 215.5C291.017 215.3 291.317 215.3 291.517 215.5L295.417 218.3C295.917 218.7 296.517 218.2 296.417 217.6L294.917 213C294.817 212.7 294.917 212.5 295.117 212.3L299.017 209.5C299.517 209.1 299.217 208.4 298.617 208.4H293.917C293.617 208.4 293.417 208.2 293.317 208L291.817 203.4C291.617 202.9 290.817 202.9 290.617 203.4Z" fill="#FBBE42"/>
</svg>
