<svg width="122" height="58" viewBox="0 0 122 58" fill="none" xmlns="http://www.w3.org/2000/svg">
<path d="M21.113 18.2896C22.7134 20.106 23.4521 22.7367 23.4521 26.119V42.6546C19.9435 42.6546 17.112 39.7734 17.112 36.2032V26.6827C17.112 23.1125 15.6347 21.2961 12.6801 21.2961C10.7104 21.2961 9.17154 21.9225 8.06357 23.1752C6.89405 24.4279 6.34006 26.0564 6.34006 28.0607V42.592H0V20.795C0 18.227 2.03128 16.2227 4.49344 16.2227H5.53986L5.60141 20.3566C6.52472 18.916 7.7558 17.7259 9.17154 16.849C10.6488 15.9721 12.3724 15.5337 14.3421 15.5337C17.2351 15.5337 19.5126 16.4106 21.113 18.2896Z" fill="white"/>
<path d="M52.3828 40.3369L52.5675 39.9611C53.737 37.7688 56.2607 36.8293 58.6613 37.4557C59.7693 37.7688 60.8773 37.8941 61.9852 37.8941C63.1548 37.8941 64.0781 37.6436 64.7552 37.1425C65.4323 36.6414 65.8016 36.0151 65.8016 35.1382C65.8016 34.2613 65.3707 33.5723 64.5705 33.0086C63.7703 32.4449 62.4777 31.8812 60.8157 31.1922C58.4767 30.3153 56.6916 29.1878 55.399 27.9351C54.1063 26.6824 53.4908 25.0539 53.4908 23.0496C53.4908 20.7321 54.3525 18.9157 56.1376 17.6004C57.9227 16.285 60.0771 15.6587 62.6623 15.6587C65.6785 15.6587 68.51 16.4729 71.1568 18.0388L71.0952 18.1015C69.9257 20.3563 67.5251 21.4211 65.0629 20.9827C64.4474 20.8574 63.7703 20.7948 63.1548 20.7948C62.1083 20.7948 61.2466 20.9827 60.5695 21.2958C59.8924 21.609 59.4615 22.298 59.4615 23.0496C59.4615 23.8639 59.8308 24.4902 60.631 25.1166C61.4312 25.6803 62.6008 26.244 64.1396 26.8077C66.6633 27.7472 68.5715 28.8747 69.9257 30.1274C71.2799 31.3801 71.957 33.0712 71.957 35.0755C71.957 37.5183 71.0952 39.46 69.3102 40.9006C67.5251 42.3412 65.2476 43.0302 62.3546 43.0302C58.7229 43.2181 55.399 42.2786 52.3828 40.3369Z" fill="white"/>
<path d="M94.9783 18.2894C96.5787 20.1685 97.3173 22.7365 97.3173 26.0562V42.6544C93.8087 42.6544 90.9772 39.7732 90.9772 36.203V26.5572C90.9772 24.9287 90.6079 23.6134 89.8693 22.6739C89.1306 21.7343 88.0227 21.2959 86.4838 21.2959C84.5141 21.2959 82.9752 22.0475 81.8673 23.4881C80.7593 24.9287 80.2053 26.8078 80.2053 29V42.5918H73.8652V0C77.3738 0 80.2053 2.88121 80.2053 6.4514V15.7214C80.2053 17.3499 80.2053 18.6652 80.1437 19.73C81.9288 16.9114 84.5756 15.4708 88.0842 15.4708C91.1619 15.5335 93.4394 16.4104 94.9783 18.2894Z" fill="white"/>
<path d="M119.168 18.2892C121.076 19.9804 122 22.4231 122 25.5549V38.7709C122 40.9005 120.276 42.5916 118.245 42.5916H116.583L116.644 38.6456C115.66 40.0862 114.428 41.151 112.828 41.9653C111.228 42.7795 109.443 43.1553 107.411 43.1553C104.949 43.1553 102.979 42.4663 101.502 41.151C100.025 39.8357 99.2861 38.0192 99.2861 35.7644C99.2861 32.8205 100.456 30.503 102.856 28.8745C105.195 27.246 108.396 26.4318 112.459 26.4318C113.382 26.4318 114.49 26.4944 115.721 26.557V25.367C115.721 24.0516 115.229 22.9868 114.305 22.2979C113.382 21.6089 112.089 21.2331 110.427 21.2331C107.965 21.2331 105.257 21.9221 102.364 23.3627C101.317 20.4815 102.918 17.2871 105.811 16.5354C107.781 16.0344 109.627 15.7212 111.474 15.7212C114.675 15.7212 117.321 16.5981 119.168 18.2892ZM113.874 36.2655C115.106 34.9501 115.721 33.0711 115.783 30.691C114.736 30.5657 113.751 30.503 112.766 30.503C110.489 30.503 108.704 30.8789 107.411 31.6931C106.119 32.5074 105.503 33.6348 105.503 35.0754C105.503 36.0776 105.811 36.8918 106.488 37.4555C107.165 38.0192 108.088 38.2698 109.196 38.2698C111.104 38.3324 112.643 37.6434 113.874 36.2655Z" fill="white"/>
<path d="M25.6066 25.4923C24.991 27.7472 24.991 30.0647 25.6681 32.3822C26.3452 34.6997 27.5763 36.7666 29.4229 38.6457C31.2695 40.5247 33.3008 41.7774 35.5783 42.4664C37.8558 43.1554 40.0718 43.1554 42.3493 42.529C44.5652 41.9027 46.5965 40.65 48.4431 38.8336C50.2282 37.0172 51.4593 34.9502 52.0748 32.6327C52.6903 30.3152 52.6903 28.0604 52.0132 25.7429C51.4593 23.8638 50.5359 22.1727 49.2433 20.5442L48.9355 20.8573C47.1505 22.6738 46.3503 25.3044 46.5349 27.8725C46.5349 28.1856 46.5965 28.4988 46.5349 28.812C46.4734 30.8163 45.6116 32.6954 43.9497 34.3239C42.3493 35.9524 40.5026 36.8293 38.5329 36.9545C36.5632 37.0172 34.7781 36.3282 33.2393 34.7623C31.7004 33.1964 30.9618 31.38 31.0233 29.3757C31.0849 27.3714 31.9466 25.4923 33.6086 23.8638C35.2706 22.1727 37.0556 21.2958 39.0253 21.2332C39.3331 21.2332 39.6409 21.2332 39.8871 21.2332C42.5339 21.4837 45.1807 20.4189 47.0889 18.4772C45.5501 17.1619 43.8266 16.2224 42.0415 15.6586C39.764 14.9697 37.4865 14.9697 35.2706 15.596C32.9931 16.2224 30.9618 17.4751 29.1767 19.2915C27.4532 21.1705 26.2221 23.2375 25.6066 25.4923Z" fill="#1389C6"/>
</svg>
