<?xml version="1.0" encoding="utf-8"?>
<!-- Generator: Adobe Illustrator 24.0.1, SVG Export Plug-In . SVG Version: 6.00 Build 0)  -->
<svg version="1.1" id="Слой_1" xmlns="http://www.w3.org/2000/svg" xmlns:xlink="http://www.w3.org/1999/xlink" x="0px" y="0px"
	 viewBox="0 0 18 18" style="enable-background:new 0 0 18 18;" xml:space="preserve">
<style type="text/css">
	.st0{fill:#FFCB13;}
</style>
<path class="st0" d="M17.2,6.1l-5-0.5c-0.3,0-0.6-0.2-0.7-0.6L9.8,0.6c-0.3-0.7-1.3-0.7-1.6,0L6.4,5.1C6.3,5.4,6,5.6,5.7,5.6l-5,0.5
	c-0.7,0.1-1,1-0.5,1.6L4,11.2c0.2,0.2,0.3,0.6,0.3,0.9l-1.1,4.8c-0.2,0.8,0.6,1.4,1.3,1l4.1-2.6c0.3-0.2,0.6-0.2,0.9,0l4.1,2.6
	c0.7,0.4,1.4-0.2,1.3-1L13.7,12c-0.1-0.3,0-0.7,0.3-0.9l3.7-3.5C18.3,7.2,18,6.2,17.2,6.1z"/>
</svg>
