<svg width="74" height="74" viewBox="0 0 74 74" fill="none" xmlns="http://www.w3.org/2000/svg">
<path d="M13.8401 49.8188H13.8283C13.2297 49.8188 12.7503 50.3042 12.7503 50.9028C12.7503 51.5015 13.2414 51.9868 13.8401 51.9868C14.4387 51.9868 14.924 51.5015 14.924 50.9028C14.924 50.3042 14.4387 49.8188 13.8401 49.8188Z" fill="#00A5F1"/>
<path d="M23.1087 49.8188H23.0972C22.4985 49.8188 22.0189 50.3042 22.0189 50.9028C22.0189 51.5015 22.5101 51.9868 23.1087 51.9868C23.7074 51.9868 24.1927 51.5015 24.1927 50.9028C24.1927 50.3042 23.7074 49.8188 23.1087 49.8188Z" fill="#00A5F1"/>
<path d="M61.3419 49.8188H61.3304C60.7317 49.8188 60.2522 50.3042 60.2522 50.9028C60.2522 51.5015 60.7433 51.9868 61.3419 51.9868C61.9406 51.9868 62.4259 51.5015 62.4259 50.9028C62.4259 50.3042 61.9406 49.8188 61.3419 49.8188Z" fill="#00A5F1"/>
<path d="M73.0039 36.7133L71.5464 35.2558L68.6103 26.4472C69.0483 26.308 69.3659 25.8983 69.3659 25.4142C69.3659 24.8156 68.8805 24.3303 68.2819 24.3303H57.7801V19.6217C57.7801 18.3851 56.7742 17.3792 55.5375 17.3792H2.24255C1.00594 17.3792 0 18.3852 0 19.6217V45.1104C0 46.347 1.00594 47.353 2.24255 47.353H3.47569V49.7441C3.47569 50.9807 4.48163 51.9867 5.71825 51.9867H8.21445C8.72262 54.6229 11.046 56.6209 13.8283 56.6209C15.7336 56.6209 17.423 55.6835 18.4626 54.2465C19.5024 55.6835 21.1918 56.6209 23.097 56.6209C25.8794 56.6209 28.2029 54.6229 28.7109 51.9867H55.7163C56.2245 54.6229 58.5478 56.6209 61.3302 56.6209C64.4833 56.6209 67.0485 54.0556 67.0485 50.9027C67.0485 50.8778 67.0469 50.8534 67.0466 50.8287H71.7574C72.9941 50.8287 74 49.8227 74 48.5861V39.1181C74.0001 38.2098 73.6463 37.3557 73.0039 36.7133ZM8.21445 49.8188H5.71825C5.67705 49.8188 5.64367 49.7854 5.64367 49.7442V47.3531H9.35018C8.7894 48.0593 8.3915 48.8999 8.21445 49.8188ZM13.8283 54.4532C11.8707 54.4532 10.2781 52.8605 10.2781 50.903C10.2781 48.9528 11.8588 47.3653 13.8062 47.3531H13.8507C15.7982 47.3651 17.3789 48.9526 17.3789 50.903C17.3788 52.8605 15.786 54.4532 13.8283 54.4532ZM23.0972 54.4532C21.1395 54.4532 19.5467 52.8605 19.5467 50.903C19.5467 48.9528 21.1275 47.3653 23.0749 47.3531H23.1194C25.0668 47.3651 26.6476 48.9526 26.6476 50.903C26.6474 52.8605 25.0548 54.4532 23.0972 54.4532ZM55.7165 49.8188H28.711C28.534 48.8999 28.1361 48.0592 27.5752 47.353H48.5859C49.1845 47.353 49.6699 46.8676 49.6699 46.269C49.6699 45.6703 49.1845 45.185 48.5859 45.185H2.24255C2.20136 45.185 2.16797 45.1516 2.16797 45.1104V19.6217C2.16797 19.5805 2.20136 19.5471 2.24255 19.5471H55.5374C55.5786 19.5471 55.612 19.5805 55.612 19.6217V45.1851H53.2207C52.6221 45.1851 52.1367 45.6705 52.1367 46.2691C52.1367 46.8678 52.6221 47.3531 53.2207 47.3531H56.8522C56.2913 48.0593 55.8935 48.8999 55.7165 49.8188ZM69.4812 35.9159H62.4889C62.4477 35.9159 62.4144 35.8825 62.4144 35.8413V31.1323H67.8867L69.4812 35.9159ZM61.3304 54.4532C59.3727 54.4532 57.7801 52.8605 57.7801 50.903C57.7801 48.9528 59.3608 47.3653 61.3083 47.3531H61.3305C61.333 47.3531 61.3354 47.3528 61.338 47.3527C63.2922 47.3567 64.8809 48.9477 64.8809 50.9028C64.8806 52.8605 63.288 54.4532 61.3304 54.4532ZM71.8322 48.5864C71.8322 48.6276 71.7988 48.661 71.7576 48.661H66.5903C65.7166 46.6192 63.6881 45.1847 61.3304 45.1847C61.3228 45.1847 61.3156 45.1853 61.3081 45.1853H57.7801V26.5727C57.7801 26.5315 57.8135 26.4981 57.8547 26.4981H66.342L67.1641 28.9644H61.3304C60.7317 28.9644 60.2464 29.4497 60.2464 30.0484V35.8413C60.2464 37.0779 61.2523 38.0839 62.4889 38.0839H71.3085L71.471 38.2463C71.7038 38.4793 71.8322 38.7889 71.8322 39.1183V41.7094H70.599C70.0004 41.7094 69.515 42.1948 69.515 42.7934C69.515 43.3921 70.0004 43.8774 70.599 43.8774H71.8322V48.5864Z" fill="#00A5F1"/>
<path d="M52.0616 40.5507H5.71825C5.1196 40.5507 4.63426 41.0361 4.63426 41.6347C4.63426 42.2334 5.1196 42.7187 5.71825 42.7187H52.0616C52.6602 42.7187 53.1455 42.2334 53.1455 41.6347C53.1455 41.0361 52.6602 40.5507 52.0616 40.5507Z" fill="#00A5F1"/>
</svg>
