<svg width="74" height="74" viewBox="0 0 74 74" fill="none" xmlns="http://www.w3.org/2000/svg">
<g clip-path="url(#clip0)">
<path d="M45.9362 12.5077C46.5348 12.5077 47.02 12.0225 47.02 11.4239C47.02 10.8252 46.5347 10.3401 45.9362 10.3401H28.0635C27.4648 10.3401 26.9796 10.8252 26.9796 11.4239C26.9796 12.0225 27.465 12.5077 28.0635 12.5077H45.9362Z" fill="#00A5F1"/>
<path d="M26.4541 18.6747C26.4541 19.2734 26.9394 19.7586 27.5379 19.7586H46.4616C47.0602 19.7586 47.5454 19.2734 47.5454 18.6747C47.5454 18.0761 47.0601 17.5909 46.4616 17.5909H27.5381C26.9394 17.5909 26.4541 18.0761 26.4541 18.6747Z" fill="#00A5F1"/>
<path d="M25.8631 26.8316C25.8631 27.4303 26.3484 27.9155 26.947 27.9155H47.0526C47.6512 27.9155 48.1364 27.4303 48.1364 26.8316C48.1364 26.233 47.6511 25.7478 47.0526 25.7478H26.9471C26.3484 25.7478 25.8631 26.233 25.8631 26.8316Z" fill="#00A5F1"/>
<path d="M66.923 37.8295H60.301C58.9297 37.8295 57.8142 38.9451 57.8142 40.3164V43.2969C57.8142 44.3572 58.4824 45.262 59.4186 45.6191V47.387H56.9678C55.7082 45.4682 53.5388 44.1977 51.0772 44.1977H42.0071V38.7257H46.2874C52.1473 38.7257 56.7542 33.6924 56.239 27.857L54.5841 9.11168C54.1292 3.95914 49.814 0 44.6325 0H29.367C24.1944 0 19.871 3.95033 19.4154 9.11183L19.1174 12.4869C19.0648 13.0833 19.5055 13.6092 20.1018 13.6618C20.6993 13.7163 21.2242 13.2739 21.2768 12.6774L21.5749 9.30232C21.9311 5.26701 25.3106 2.16782 29.367 2.16782H44.6325C48.683 2.16782 52.0678 5.26108 52.4248 9.30232L54.0795 28.0476C54.4806 32.5899 50.9201 36.558 46.2874 36.558H27.7122C23.1521 36.558 19.5127 32.6623 19.92 28.0476L20.8249 17.798C20.8775 17.2017 20.4368 16.6757 19.8405 16.6231C19.2439 16.5689 18.7181 17.011 18.6655 17.6075L17.7605 27.8571C17.2453 33.6941 21.854 38.7258 27.7121 38.7258H31.9924V44.1978H22.9225C20.4607 44.1978 18.2913 45.4684 17.0318 47.3872H14.5811V45.6193C15.5174 45.2621 16.1856 44.3574 16.1856 43.2971V40.3166C16.1856 38.9452 15.07 37.8296 13.6988 37.8296H7.07665C5.70534 37.8296 4.58984 38.9452 4.58984 40.3166V41.3495C4.58984 43.5714 6.23244 45.4165 8.36702 45.735V49.0236C8.36702 51.5476 10.4207 53.6013 12.9449 53.6013H33.756V61.658H25.0746C22.3954 61.658 20.2158 63.8377 20.2158 66.5167V66.5312C18.7176 66.9735 17.5683 68.3289 17.491 70.0125C17.3946 72.1124 19.0246 73.8996 21.1248 73.9962C23.239 74.0918 25.0125 72.4505 25.1085 70.3624C25.1923 68.538 23.9919 67.0045 22.3837 66.5309V66.5169C22.3837 65.033 23.5908 63.8259 25.0747 63.8259H35.9161V66.5313C34.4175 66.9739 33.2686 68.3292 33.1913 70.0125C33.0949 72.1124 34.7249 73.8996 36.8251 73.9962C38.943 74.0919 40.713 72.4464 40.8088 70.3624C40.8088 70.3624 40.8088 70.3624 40.8088 70.3623C40.8926 68.538 39.6922 67.0044 38.084 66.5308V63.8257H48.9252C50.409 63.8257 51.6163 65.0328 51.6163 66.5167V66.5312C50.1176 66.9736 48.9688 68.3292 48.8914 70.0124C48.795 72.1123 50.425 73.8994 52.5252 73.9961C54.6394 74.0916 56.413 72.4503 56.5089 70.3623C56.5928 68.5379 55.3923 67.0044 53.7841 66.5308V66.5167C53.7841 63.8376 51.6044 61.658 48.9254 61.658H40.2441V53.6013H43.4024C44.0011 53.6013 44.4863 53.1161 44.4863 52.5175C44.4863 51.9188 44.0009 51.4336 43.4024 51.4336H18.2398C18.1337 51.4336 18.0473 51.3472 18.0473 51.2411C18.0473 48.5528 20.2343 46.3658 22.9225 46.3658H51.0772C53.7654 46.3658 55.9524 48.5528 55.9524 51.2411C55.9524 51.3472 55.8659 51.4336 55.7598 51.4336H48.4701C47.8715 51.4336 47.3863 51.9188 47.3863 52.5175C47.3863 53.1161 47.8716 53.6013 48.4701 53.6013H61.0547C63.579 53.6013 65.6328 51.5476 65.6328 49.0236V45.735C67.7674 45.4165 69.41 43.5714 69.41 41.3495V40.3166C69.4098 38.9451 68.2943 37.8295 66.923 37.8295ZM22.9429 70.2629C22.9012 71.1689 22.1283 71.868 21.2242 71.8306C20.3182 71.789 19.6149 71.0177 19.6565 70.1117C19.6971 69.2271 20.4263 68.5424 21.2978 68.5424C22.2401 68.5422 22.9859 69.3261 22.9429 70.2629ZM38.643 70.2627C38.6014 71.1689 37.8319 71.8708 36.9244 71.8306C36.0182 71.789 35.3149 71.0177 35.3565 70.1118C35.3971 69.2293 36.1243 68.5424 36.9978 68.5424C37.9491 68.5422 38.6856 69.3355 38.643 70.2627ZM54.3431 70.2629C54.3015 71.1689 53.5293 71.868 52.6245 71.8306C51.7185 71.789 51.0152 71.0177 51.0568 70.1117C51.0974 69.2271 51.8266 68.5424 52.6981 68.5424C53.6495 68.5422 54.3858 69.3357 54.3431 70.2629ZM38.076 61.6578H35.9238V53.601H38.076V61.6578ZM6.75767 41.3492V40.3163C6.75767 40.1402 6.90075 39.9971 7.07665 39.9971H13.6986C13.8745 39.9971 14.0176 40.1402 14.0176 40.3163V43.2968C14.0176 43.4728 13.8745 43.6159 13.6986 43.6159H9.02421C7.77445 43.6161 6.75767 42.5991 6.75767 41.3492ZM12.9449 51.4333C11.6159 51.4333 10.5348 50.3522 10.5348 49.0234V45.7839H12.4133V48.471C12.4133 49.0697 12.8987 49.5549 13.4972 49.5549H16.0848C15.9074 50.2748 15.8556 51.0214 15.8892 51.4333H12.9449ZM34.1602 38.7257H39.8393V44.1977H34.1602V38.7257ZM61.0547 51.4333H58.1104C58.1439 51.0214 58.0937 50.281 57.9147 49.5549H60.5025C61.1011 49.5549 61.5863 49.0697 61.5863 48.471V45.7839H63.4648V49.0234C63.4649 50.3522 62.3837 51.4333 61.0547 51.4333ZM67.242 41.3492C67.242 42.5991 66.2252 43.6159 64.9753 43.6159H60.3009C60.125 43.6159 59.9819 43.4728 59.9819 43.2968V40.3163C59.9819 40.1402 60.125 39.9971 60.3009 39.9971H66.9229C67.0988 39.9971 67.2418 40.1402 67.2418 40.3163V41.3492H67.242Z" fill="#00A5F1"/>
</g>
<defs>
<clipPath id="clip0">
<rect width="74" height="74" fill="white"/>
</clipPath>
</defs>
</svg>
