<svg width="74" height="74" viewBox="0 0 74 74" fill="none" xmlns="http://www.w3.org/2000/svg">
<g clip-path="url(#clip0)">
<path d="M72.8459 55.5069C72.2065 55.5069 71.6897 54.9901 71.6897 54.3507V39.3252C71.6897 38.6858 72.2065 38.169 72.8459 38.169C73.4853 38.169 74.0022 38.6858 74.0022 39.3252V54.3507C74.0022 54.9901 73.4853 55.5069 72.8459 55.5069Z" fill="#00A5F1"/>
<path d="M72.8471 40.4815C72.4227 40.4815 72.0134 40.2479 71.8111 39.8421L66.0298 28.2772C65.7442 27.706 65.9755 27.0111 66.5467 26.7255C67.1167 26.4388 67.8139 26.6712 68.0984 27.2424L73.8796 38.8072C74.1652 39.3784 73.934 40.0733 73.3628 40.3589C73.1974 40.4421 73.0205 40.4815 72.8471 40.4815Z" fill="#00A5F1"/>
<path d="M72.8459 52.0359H60.1318C59.4924 52.0359 58.9756 51.519 58.9756 50.8796C58.9756 50.2402 59.4924 49.7234 60.1318 49.7234H72.8459C73.4853 49.7234 74.0022 50.2402 74.0022 50.8796C74.0022 51.519 73.4853 52.0359 72.8459 52.0359Z" fill="#00A5F1"/>
<path d="M72.8459 55.5069H66.1432C65.5037 55.5069 64.9869 54.9901 64.9869 54.3507C64.9869 53.7113 65.5037 53.1944 66.1432 53.1944H72.8459C73.4853 53.1944 74.0022 53.7113 74.0022 54.3507C74.0022 54.9901 73.4853 55.5069 72.8459 55.5069Z" fill="#00A5F1"/>
<path d="M49.7244 48.5636H5.77765C5.13825 48.5636 4.6214 48.0468 4.6214 47.4074C4.6214 46.768 5.13825 46.2511 5.77765 46.2511H49.7244C50.3638 46.2511 50.8807 46.768 50.8807 47.4074C50.8807 48.0468 50.3638 48.5636 49.7244 48.5636Z" fill="#00A5F1"/>
<path d="M67.0647 28.9166H49.7221C49.0827 28.9166 48.5658 28.3986 48.5658 27.7604C48.5658 27.1221 49.0827 26.6041 49.7221 26.6041H67.0647C67.7041 26.6041 68.2209 27.1221 68.2209 27.7604C68.2209 28.3986 67.7041 28.9166 67.0647 28.9166Z" fill="#00A5F1"/>
<path d="M49.7244 57.8148C49.0862 57.8148 48.5682 57.298 48.5682 56.6586L48.5658 27.7604C48.5658 27.1221 49.0827 26.6041 49.7221 26.6041C50.3603 26.6041 50.8783 27.1221 50.8783 27.7604L50.8807 56.6586C50.8807 57.2968 50.3638 57.8148 49.7244 57.8148Z" fill="#00A5F1"/>
<path d="M67.089 40.4815C67.0832 40.4826 67.0751 40.4826 67.0658 40.4815H54.3494C53.71 40.4815 53.1932 39.9646 53.1932 39.3252V32.3877C53.1932 31.7495 53.71 31.2315 54.3494 31.2315H63.5959C64.0341 31.2315 64.4342 31.4789 64.6308 31.8709L68.0082 38.6222C68.1585 38.8176 68.2464 39.0616 68.2464 39.3252C68.2452 39.9635 67.7284 40.4815 67.089 40.4815ZM55.5057 38.169H65.1962L62.8814 33.544H55.5057V38.169Z" fill="#00A5F1"/>
<path d="M60.1318 65.9086C55.6698 65.9086 52.0381 62.2768 52.0381 57.8148C52.0381 53.3528 55.6698 49.7211 60.1318 49.7211C64.5938 49.7211 68.2256 53.3528 68.2256 57.8148C68.2256 62.2768 64.5938 65.9086 60.1318 65.9086ZM60.1318 52.0336C56.944 52.0336 54.3506 54.627 54.3506 57.8148C54.3506 61.0026 56.944 63.5961 60.1318 63.5961C63.3196 63.5961 65.9131 61.0026 65.9131 57.8148C65.9131 54.627 63.3196 52.0336 60.1318 52.0336Z" fill="#00A5F1"/>
<path d="M31.2267 65.9086C26.7647 65.9086 23.133 62.2768 23.133 57.8148C23.133 53.3528 26.7647 49.7211 31.2267 49.7211C35.6887 49.7211 39.3205 53.3528 39.3205 57.8148C39.3205 62.2768 35.6887 65.9086 31.2267 65.9086ZM31.2267 52.0336C28.0389 52.0336 25.4455 54.627 25.4455 57.8148C25.4455 61.0026 28.0389 63.5961 31.2267 63.5961C34.4145 63.5961 37.008 61.0026 37.008 57.8148C37.008 54.627 34.4145 52.0336 31.2267 52.0336Z" fill="#00A5F1"/>
<path d="M15.0462 65.9086C10.5842 65.9086 6.9524 62.2768 6.9524 57.8148C6.9524 53.3528 10.5842 49.7211 15.0462 49.7211C19.5081 49.7211 23.1399 53.3528 23.1399 57.8148C23.1399 62.2768 19.5081 65.9086 15.0462 65.9086ZM15.0462 52.0336C11.8584 52.0336 9.2649 54.627 9.2649 57.8148C9.2649 61.0026 11.8584 63.5961 15.0462 63.5961C18.2339 63.5961 20.8274 61.0026 20.8274 57.8148C20.8274 54.627 18.2339 52.0336 15.0462 52.0336Z" fill="#00A5F1"/>
<path d="M15.0462 61.2836C13.1337 61.2836 11.5774 59.7272 11.5774 57.8148C11.5774 55.9024 13.1337 54.3461 15.0462 54.3461C16.9586 54.3461 18.5149 55.9024 18.5149 57.8148C18.5149 59.7272 16.9586 61.2836 15.0462 61.2836ZM15.0462 56.6586C14.4079 56.6586 13.8899 57.1765 13.8899 57.8148C13.8899 58.453 14.4079 58.9711 15.0462 58.9711C15.6844 58.9711 16.2024 58.453 16.2024 57.8148C16.2024 57.1765 15.6832 56.6586 15.0462 56.6586Z" fill="#00A5F1"/>
<path d="M31.2267 61.2836C29.3143 61.2836 27.758 59.7272 27.758 57.8148C27.758 55.9024 29.3143 54.3461 31.2267 54.3461C33.1392 54.3461 34.6955 55.9024 34.6955 57.8148C34.6955 59.7272 33.1392 61.2836 31.2267 61.2836ZM31.2267 56.6586C30.5885 56.6586 30.0705 57.1765 30.0705 57.8148C30.0705 58.453 30.5885 58.9711 31.2267 58.9711C31.865 58.9711 32.383 58.453 32.383 57.8148C32.383 57.1765 31.865 56.6586 31.2267 56.6586Z" fill="#00A5F1"/>
<path d="M60.1295 61.2836C58.2171 61.2836 56.6607 59.7272 56.6607 57.8148C56.6607 55.9024 58.2171 54.3461 60.1295 54.3461C62.0419 54.3461 63.5982 55.9024 63.5982 57.8148C63.5982 59.7272 62.0419 61.2836 60.1295 61.2836ZM60.1295 56.6586C59.4912 56.6586 58.9732 57.1765 58.9732 57.8148C58.9732 58.453 59.4912 58.9711 60.1295 58.9711C60.7677 58.9711 61.2857 58.453 61.2857 57.8148C61.2857 57.1765 60.7677 56.6586 60.1295 56.6586Z" fill="#00A5F1"/>
<path d="M24.3863 57.8148H21.8958C21.2564 57.8148 20.7395 57.298 20.7395 56.6586C20.7395 56.0191 21.2564 55.5023 21.8958 55.5023H24.3863C25.0257 55.5023 25.5426 56.0191 25.5426 56.6586C25.5426 57.298 25.0257 57.8148 24.3863 57.8148Z" fill="#00A5F1"/>
<path d="M53.2903 57.8148H38.0671C37.4277 57.8148 36.9108 57.298 36.9108 56.6586C36.9108 56.0191 37.4277 55.5023 38.0671 55.5023H53.2903C53.9297 55.5023 54.4465 56.0191 54.4465 56.6586C54.4465 57.298 53.9297 57.8148 53.2903 57.8148Z" fill="#00A5F1"/>
<path d="M8.20578 57.8148H2.30543C1.66603 57.8148 1.14918 57.298 1.14918 56.6586C1.14918 56.0191 1.66603 55.5023 2.30543 55.5023H8.20578C8.84518 55.5023 9.36203 56.0191 9.36203 56.6586C9.36203 57.298 8.84403 57.8148 8.20578 57.8148Z" fill="#00A5F1"/>
<path d="M2.30543 57.8148C2.17015 57.8148 2.03371 57.7905 1.89843 57.742C1.30065 57.5176 0.998871 56.8505 1.22203 56.2527L4.69425 47.0016C4.91971 46.4026 5.58572 46.1031 6.1835 46.3251C6.78128 46.5495 7.08306 47.2166 6.8599 47.8144L3.38768 57.0656C3.21309 57.5292 2.77256 57.8148 2.30543 57.8148Z" fill="#00A5F1"/>
<path d="M55.4987 43.9479H54.3425C53.7031 43.9479 53.1862 43.431 53.1862 42.7916C53.1862 42.1522 53.7031 41.6354 54.3425 41.6354H55.4987C56.1381 41.6354 56.655 42.1522 56.655 42.7916C56.655 43.431 56.1381 43.9479 55.4987 43.9479Z" fill="#00A5F1"/>
<path d="M41.6156 48.6018H21.9501C21.3107 48.6018 20.7939 48.085 20.7939 47.4455V41.6285C20.7939 40.989 21.3107 40.4722 21.9501 40.4722H41.6156C42.255 40.4722 42.7719 40.989 42.7719 41.6285V47.4455C42.7719 48.085 42.255 48.6018 41.6156 48.6018ZM23.1064 46.2893H40.4594V42.7847H23.1064V46.2893Z" fill="#00A5F1"/>
<path d="M26.5786 42.7847C25.9392 42.7847 25.4223 42.2679 25.4223 41.6285V34.6898C25.4223 34.0515 25.9392 33.5335 26.5786 33.5335C27.218 33.5335 27.7348 34.0515 27.7348 34.6898V41.6285C27.7348 42.2679 27.218 42.7847 26.5786 42.7847Z" fill="#00A5F1"/>
<path d="M36.9872 42.7847C36.3477 42.7847 35.8309 42.2679 35.8309 41.6285V33.5335C35.8309 32.8953 36.3477 32.3773 36.9872 32.3773C37.6266 32.3773 38.1434 32.8953 38.1434 33.5335V41.6285C38.1434 42.2679 37.6266 42.7847 36.9872 42.7847Z" fill="#00A5F1"/>
<path d="M26.5786 35.8461C26.3034 35.8461 26.0259 35.7478 25.8051 35.5489L2.68815 14.7341C2.21409 14.3063 2.17593 13.5755 2.60259 13.1015C3.02925 12.6274 3.76115 12.5904 4.23521 13.0159L27.3521 33.8307C27.8262 34.2585 27.8643 34.9893 27.4377 35.4633C27.2099 35.7165 26.8954 35.8461 26.5786 35.8461Z" fill="#00A5F1"/>
<path d="M36.986 34.6898C36.7513 34.6898 36.5142 34.6181 36.3084 34.4701L2.78296 10.1842C2.26612 9.80961 2.1505 9.08696 2.52628 8.57011C2.89859 8.05327 3.62125 7.93533 4.1404 8.31111L37.6659 32.597C38.1827 32.9716 38.2983 33.6943 37.9237 34.2111C37.6982 34.5233 37.3444 34.6898 36.986 34.6898Z" fill="#00A5F1"/>
<path d="M3.46631 37.0046C2.82806 37.0046 2.31006 36.4866 2.31006 35.8484L2.30543 9.24767C2.30543 8.60942 2.82228 8.09142 3.46168 8.09142C4.09993 8.09142 4.61793 8.60942 4.61793 9.24767L4.62256 35.8484C4.62256 36.4866 4.10571 37.0046 3.46631 37.0046Z" fill="#00A5F1"/>
<path d="M3.46631 42.7882C1.55387 42.7882 -0.00244141 41.2307 -0.00244141 39.3183C-0.00244141 38.6789 0.514402 38.162 1.15381 38.162C1.79321 38.162 2.31006 38.6789 2.31006 39.3183C2.31006 39.9565 2.82806 40.4757 3.46631 40.4757C4.10456 40.4757 4.62256 39.9565 4.62256 39.3183C4.62256 37.7654 2.95987 36.8878 2.94253 36.8797C2.37828 36.5872 2.1505 35.8923 2.4384 35.3269C2.72746 34.7603 3.41543 34.5302 3.98315 34.8158C4.1034 34.876 6.93506 36.3271 6.93506 39.3194C6.93506 41.2307 5.37875 42.7882 3.46631 42.7882Z" fill="#00A5F1"/>
<path d="M4.62256 34.6933H2.31006C1.67065 34.6933 1.15381 34.1753 1.15381 33.537C1.15381 32.8988 1.67065 32.3808 2.31006 32.3808H4.62256C5.26196 32.3808 5.77881 32.8988 5.77881 33.537C5.77881 34.1753 5.26196 34.6933 4.62256 34.6933Z" fill="#00A5F1"/>
<path d="M23.1075 42.7847C22.6577 42.7847 22.2299 42.5199 22.0438 42.0806L15.1213 25.7844C14.8704 25.197 15.1456 24.5171 15.733 24.2674C16.3157 24.0199 17.0002 24.2916 17.2488 24.879L24.1713 41.1764C24.4222 41.7637 24.147 42.4425 23.5596 42.6922C23.4128 42.7558 23.259 42.7847 23.1075 42.7847Z" fill="#00A5F1"/>
<path d="M45.0902 48.6018C44.4507 48.6018 43.9339 48.085 43.9339 47.4455V32.3865C43.9339 31.7483 44.4507 31.2303 45.0902 31.2303C45.7296 31.2303 46.2464 31.7483 46.2464 32.3865V47.4455C46.2464 48.085 45.7296 48.6018 45.0902 48.6018Z" fill="#00A5F1"/>
<path d="M49.7128 33.5428H45.0902C44.4507 33.5428 43.9339 33.0248 43.9339 32.3865C43.9339 31.7483 44.4507 31.2303 45.0902 31.2303H49.7128C50.3522 31.2303 50.8691 31.7483 50.8691 32.3865C50.8691 33.0248 50.3522 33.5428 49.7128 33.5428Z" fill="#00A5F1"/>
</g>
<defs>
<clipPath id="clip0">
<rect width="74" height="74" fill="white"/>
</clipPath>
</defs>
</svg>
