<svg width="74" height="74" viewBox="0 0 74 74" fill="none" xmlns="http://www.w3.org/2000/svg">
<g clip-path="url(#clip0)">
<path d="M66.4239 24.826C65.7274 24.826 65.163 25.3905 65.163 26.0868V70.3506C65.163 70.9724 64.6572 71.4782 64.0354 71.4782H19.8682C19.1718 71.4782 18.6073 72.0428 18.6073 72.7391C18.6073 73.4355 19.1718 74 19.8682 74H64.0353C66.0477 74 67.6847 72.3628 67.6847 70.3506V26.0868C67.6848 25.3905 67.1203 24.826 66.4239 24.826Z" fill="#00A5F1"/>
<path d="M64.0352 0H9.96484C7.95253 0 6.31543 1.63725 6.31543 3.64941V70.3505C6.31543 72.3628 7.95239 73.9999 9.96484 73.9999H15.6651C16.3615 73.9999 16.926 73.4353 16.926 72.739C16.926 72.0426 16.3615 71.4781 15.6651 71.4781H9.96484C9.34306 71.4781 8.83721 70.9722 8.83721 70.3505V15.5262H65.1627V22.052C65.1627 22.7483 65.727 23.3128 66.4235 23.3128C67.12 23.3128 67.6844 22.7483 67.6844 22.052V3.64941C67.6847 1.63725 66.0475 0 64.0352 0ZM14.6184 2.52192H20.7084V4.94426H14.6184V2.52192ZM25.5784 13.0045H8.83721V3.64941C8.83721 3.02764 9.34306 2.52178 9.96484 2.52178H12.0967V6.205C12.0967 6.90135 12.6612 7.46589 13.3576 7.46589H21.9694C22.6658 7.46589 23.2303 6.90135 23.2303 6.205V2.52192H25.5784V13.0045ZM65.1628 13.0045H48.4216V5.40849C48.4216 4.71214 47.8572 4.14761 47.1608 4.14761C46.4643 4.14761 45.8999 4.71214 45.8999 5.40849V13.0043H28.1001V2.52192H64.0352C64.6569 2.52192 65.1628 3.02778 65.1628 3.64955V13.0045Z" fill="#00A5F1"/>
<path d="M36.9998 19.935C23.8968 19.935 13.2366 30.5953 13.2366 43.6984C13.2366 56.8014 23.8969 67.4617 37 67.4617C42.2622 67.4617 47.2484 65.7768 51.4187 62.589C51.9719 62.1659 52.0776 61.3746 51.6547 60.8215C51.2318 60.2683 50.4405 60.1625 49.8871 60.5855C46.1602 63.4342 41.704 64.9399 36.9998 64.9399C25.2873 64.9399 15.7584 55.411 15.7584 43.6985C15.7584 31.986 25.2873 22.4571 36.9998 22.4571C48.7125 22.4571 58.2413 31.986 58.2413 43.6985C58.2413 48.7598 56.4316 53.6619 53.1455 57.5016C52.693 58.0309 52.7549 58.8268 53.2838 59.2795C53.813 59.7326 54.609 59.6702 55.0616 59.1413C58.7381 54.8452 60.763 49.3608 60.763 43.6985C60.7632 30.595 50.103 19.935 36.9998 19.935Z" fill="#00A5F1"/>
<path d="M46.939 43.6982C46.939 40.3119 48.1214 37.0092 50.2687 34.3987C50.6514 33.9334 50.6514 33.2624 50.2686 32.797C46.9908 28.8118 42.1546 26.5259 37.0001 26.5259C27.5311 26.5259 19.8275 34.2296 19.8275 43.6985C19.8275 46.6689 20.5983 49.5968 22.0569 52.1656C22.4007 52.7711 23.1705 52.9833 23.7759 52.6395C24.3815 52.2956 24.5937 51.526 24.2498 50.9204C23.0066 48.7305 22.3494 46.2331 22.3494 43.6984C22.3494 35.6199 28.9216 29.0477 37.0001 29.0477C41.0646 29.0477 44.8972 30.7137 47.6628 33.6509C45.5631 36.5621 44.4172 40.0899 44.4172 43.6984C44.4172 47.3069 45.5629 50.8346 47.6628 53.7459C44.8972 56.6833 41.0646 58.349 37.0001 58.349C32.9934 58.349 29.2526 56.7622 26.4666 53.8811C25.9826 53.3805 25.1844 53.3671 24.6837 53.8512C24.1831 54.3353 24.1696 55.1335 24.6538 55.6342C27.919 59.0111 32.3038 60.871 37.0002 60.871C42.1549 60.871 46.9911 58.5853 50.2687 54.5999C50.6516 54.1345 50.6516 53.4633 50.2689 52.9981C48.1216 50.3871 46.939 47.0846 46.939 43.6982Z" fill="#00A5F1"/>
<path d="M61.8127 4.28797H51.7257C51.0292 4.28797 50.4648 4.85251 50.4648 5.54886C50.4648 6.24521 51.0292 6.80975 51.7257 6.80975H61.8127C62.5092 6.80975 63.0736 6.24521 63.0736 5.54886C63.0737 4.85265 62.5093 4.28797 61.8127 4.28797Z" fill="#00A5F1"/>
<path d="M61.8127 8.71639H51.7257C51.0292 8.71639 50.4648 9.28092 50.4648 9.97727C50.4648 10.6736 51.0292 11.2382 51.7257 11.2382H61.8127C62.5092 11.2382 63.0736 10.6736 63.0736 9.97727C63.0736 9.28092 62.5093 8.71639 61.8127 8.71639Z" fill="#00A5F1"/>
</g>
<defs>
<clipPath id="clip0">
<rect width="74" height="74" fill="white"/>
</clipPath>
</defs>
</svg>
